<svg width="40" height="40" viewBox="0 0 40 40" fill="none" xmlns="http://www.w3.org/2000/svg">
<path fill-rule="evenodd" clip-rule="evenodd" d="M37.5296 0.0148931C37.0921 0.24908 21.0765 8.00868 13.5191 24.9246C11.237 25.7377 8.79401 26.2934 6.24606 26.4353C15.1966 8.33619 37.5517 -0.0186164 37.5296 0.0148931C37.5296 0.0148931 37.5517 -0.0186164 37.5296 0.0148931ZM15.5101 26.7697C31.501 19.3695 39.6241 4.24688 40 3.53312C40 3.53312 31.3384 25.195 13.5647 33.9432C13.936 31.3768 14.6208 28.9783 15.5101 26.7697ZM39.3691 1.07256C39.0254 1.80946 30.8461 17.8866 16.1514 24.1009C22.363 9.29486 38.8778 1.31769 39.3691 1.07256ZM7.0526 34.0618C7.09211 34.0625 7.13163 34.0632 7.17047 34.104L7.20999 34.1047C7.56498 34.1511 7.8825 34.0766 8.16392 33.801C8.60615 33.3678 8.61983 32.5661 8.11428 32.076C7.64826 31.5865 6.85855 31.5323 6.41632 31.9654C6.1751 32.2017 6.05039 32.5603 6.08376 32.9218L6.08171 33.042C6.11712 33.2833 6.03398 33.5223 5.87317 33.6799L0.485283 38.9965C0.404877 39.0753 0.285635 39.1133 0.167761 39.0711C0.0110511 38.9881 -0.0257333 38.827 0.0158371 38.7075L3.88859 29.5145C4.17617 28.8782 4.77716 28.4077 5.45035 28.3396C7.50878 28.1759 10.0455 27.7801 13.0599 27.1924C12.1774 30.264 11.6212 32.74 11.4324 34.541C11.3417 35.221 10.9363 35.8152 10.2992 36.0845L1.45686 39.9762C1.33761 40.0142 1.21906 40.012 1.14138 39.9305C1.02488 39.8081 1.02761 39.6478 1.14822 39.5296L6.41687 34.2509C6.57768 34.0934 6.81616 34.0175 7.0526 34.0618Z" fill="white" style="mix-blend-mode:overlay"/>
</svg>
