<svg width="131" height="14" viewBox="0 0 131 14" fill="none" xmlns="http://www.w3.org/2000/svg">
<path d="M12.3926 7.67383V6.24121H7.04883V8.1748H9.80859L9.7998 8.37695C9.74707 9.9502 8.54297 11.0137 6.81152 11.0137C4.70215 11.0137 3.36621 9.33496 3.36621 6.58398C3.36621 3.88574 4.62305 2.29492 6.71484 2.29492C8.14746 2.29492 9.22852 3.08594 9.61523 4.41309H12.2783C11.9004 1.84668 9.66797 0.0976562 6.70605 0.0976562C2.97949 0.0976562 0.65918 2.55859 0.65918 6.61914C0.65918 10.7412 2.97949 13.2109 6.76758 13.2109C10.3008 13.2109 12.3926 11.1279 12.3926 7.67383ZM20.1709 10.1172C19.9336 10.8379 19.2129 11.3037 18.2725 11.3037C16.9629 11.3037 16.1104 10.3809 16.1104 9.03613V8.87793H22.6055V8.0957C22.6055 5.23047 20.874 3.37598 18.1318 3.37598C15.3457 3.37598 13.5879 5.32715 13.5879 8.33301C13.5879 11.3477 15.3281 13.2021 18.2285 13.2021C20.5576 13.2021 22.2451 11.9629 22.5264 10.1172H20.1709ZM18.1582 5.27441C19.3008 5.27441 20.083 6.10059 20.1357 7.30469H16.1367C16.2246 6.12695 17.0332 5.27441 18.1582 5.27441ZM24.6182 1.40723V3.57812H23.291V5.51172H24.6182V10.46C24.6182 12.2969 25.4795 13.0352 27.6943 13.0352C28.2129 13.0352 28.6523 12.9912 28.916 12.9297V11.04C28.7578 11.0664 28.5205 11.084 28.292 11.084C27.5361 11.084 27.1846 10.7412 27.1846 10.0205V5.51172H28.9248V3.57812H27.1846V1.40723H24.6182ZM40.7725 13L45.0352 0.317383H42.1436L39.2432 10.2666H39.1816L36.2812 0.317383H33.3105L37.5732 13H40.7725ZM51.126 10.1172C50.8887 10.8379 50.168 11.3037 49.2275 11.3037C47.918 11.3037 47.0654 10.3809 47.0654 9.03613V8.87793H53.5605V8.0957C53.5605 5.23047 51.8291 3.37598 49.0869 3.37598C46.3008 3.37598 44.543 5.32715 44.543 8.33301C44.543 11.3477 46.2832 13.2021 49.1836 13.2021C51.5127 13.2021 53.2002 11.9629 53.4814 10.1172H51.126ZM49.1133 5.27441C50.2559 5.27441 51.0381 6.10059 51.0908 7.30469H47.0918C47.1797 6.12695 47.9883 5.27441 49.1133 5.27441ZM63.4482 7.08496C63.334 4.94922 61.7168 3.37598 59.168 3.37598C56.3467 3.37598 54.5449 5.25684 54.5449 8.28027C54.5449 11.3564 56.3467 13.2021 59.1855 13.2021C61.6641 13.2021 63.3252 11.7695 63.457 9.5459H61.0664C60.9082 10.5742 60.2402 11.1895 59.2119 11.1895C57.9375 11.1895 57.1465 10.1348 57.1465 8.28027C57.1465 6.46094 57.9375 5.38867 59.2031 5.38867C60.2578 5.38867 60.917 6.0918 61.0664 7.08496H63.4482ZM65.3818 1.40723V3.57812H64.0547V5.51172H65.3818V10.46C65.3818 12.2969 66.2432 13.0352 68.458 13.0352C68.9766 13.0352 69.416 12.9912 69.6797 12.9297V11.04C69.5215 11.0664 69.2842 11.084 69.0557 11.084C68.2998 11.084 67.9482 10.7412 67.9482 10.0205V5.51172H69.6885V3.57812H67.9482V1.40723H65.3818ZM75.2783 13.2021C78.126 13.2021 79.9453 11.3828 79.9453 8.28027C79.9453 5.22168 78.0996 3.37598 75.2783 3.37598C72.457 3.37598 70.6113 5.23047 70.6113 8.28027C70.6113 11.374 72.4307 13.2021 75.2783 13.2021ZM75.2783 11.2422C74.0127 11.2422 73.2129 10.1787 73.2129 8.28906C73.2129 6.41699 74.0303 5.33594 75.2783 5.33594C76.5264 5.33594 77.335 6.41699 77.335 8.28906C77.335 10.1787 76.5352 11.2422 75.2783 11.2422ZM81.2725 13H83.8389V7.73535C83.8389 6.4082 84.5771 5.63477 85.8428 5.63477C86.2119 5.63477 86.5635 5.69629 86.7744 5.78418V3.52539C86.5986 3.47266 86.3438 3.42871 86.0449 3.42871C84.9375 3.42871 84.1377 4.0791 83.8037 5.27441H83.751V3.57812H81.2725V13ZM87.8291 13H90.3955V7.59473C90.3955 6.37305 91.125 5.5293 92.2764 5.5293C93.4277 5.5293 94.0078 6.23242 94.0078 7.46289V13H96.5742V6.92676C96.5742 4.7207 95.3965 3.40234 93.3047 3.40234C91.8545 3.40234 90.8613 4.08789 90.3604 5.25684H90.3076V3.57812H87.8291V13ZM100.995 13.1494C102.173 13.1494 103.342 12.5605 103.869 11.5586H103.922V13H106.4V6.52246C106.4 4.62402 104.827 3.37598 102.41 3.37598C99.9141 3.37598 98.3584 4.63281 98.2617 6.46094H100.608C100.731 5.7666 101.338 5.29199 102.296 5.29199C103.263 5.29199 103.878 5.80176 103.878 6.68066V7.30469L101.505 7.44531C99.1582 7.58594 97.8398 8.5791 97.8398 10.293C97.8398 11.9893 99.2021 13.1494 100.995 13.1494ZM101.839 11.2949C100.969 11.2949 100.389 10.8555 100.389 10.1523C100.389 9.48438 100.934 9.05371 101.892 8.9834L103.878 8.86035V9.5459C103.878 10.5654 102.955 11.2949 101.839 11.2949ZM108.747 1.40723V3.57812H107.42V5.51172H108.747V10.46C108.747 12.2969 109.608 13.0352 111.823 13.0352C112.342 13.0352 112.781 12.9912 113.045 12.9297V11.04C112.887 11.0664 112.649 11.084 112.421 11.084C111.665 11.084 111.313 10.7412 111.313 10.0205V5.51172H113.054V3.57812H111.313V1.40723H108.747ZM118.644 13.2021C121.491 13.2021 123.311 11.3828 123.311 8.28027C123.311 5.22168 121.465 3.37598 118.644 3.37598C115.822 3.37598 113.977 5.23047 113.977 8.28027C113.977 11.374 115.796 13.2021 118.644 13.2021ZM118.644 11.2422C117.378 11.2422 116.578 10.1787 116.578 8.28906C116.578 6.41699 117.396 5.33594 118.644 5.33594C119.892 5.33594 120.7 6.41699 120.7 8.28906C120.7 10.1787 119.9 11.2422 118.644 11.2422ZM124.638 13H127.204V7.73535C127.204 6.4082 127.942 5.63477 129.208 5.63477C129.577 5.63477 129.929 5.69629 130.14 5.78418V3.52539C129.964 3.47266 129.709 3.42871 129.41 3.42871C128.303 3.42871 127.503 4.0791 127.169 5.27441H127.116V3.57812H124.638V13Z" fill="url(#paint0_linear)"/>
<defs>
<linearGradient id="paint0_linear" x1="65.5" y1="27.5" x2="72.0641" y2="-13.4477" gradientUnits="userSpaceOnUse">
<stop stop-color="#FF0071"/>
<stop offset="1" stop-color="#FFF800"/>
</linearGradient>
</defs>
</svg>
