<svg width="642" height="301" viewBox="0 0 642 301" fill="none" xmlns="http://www.w3.org/2000/svg">
<rect width="642" height="301" rx="20" fill="url(#paint0_linear)"/>
<mask id="mask0" mask-type="alpha" maskUnits="userSpaceOnUse" x="0" y="0" width="642" height="301">
<rect width="642" height="301" rx="20" fill="white"/>
</mask>
<g mask="url(#mask0)">
<path opacity="0.226446" fill-rule="evenodd" clip-rule="evenodd" d="M414.07 -49C419.641 1.71666 399.573 51.6939 370.244 88.429C339.639 124.593 290.679 152.253 242.993 148.691C236.751 99.8898 260.913 47.9969 287.96 16.3368C318.531 -19.5917 371.62 -47.1179 414.07 -49ZM566.083 246.581C560.834 249.793 473.85 303.03 474.802 411.601C475.928 542.711 586.676 586.053 588 586.494C587.338 589.549 570.656 649.113 529.117 709.459C494.43 762.677 458.088 814.707 400.363 815.589C372.911 816.254 354.378 808.164 335.062 799.733C314.926 790.945 293.941 781.785 261.117 781.785C226.32 781.785 204.404 791.247 183.271 800.371C164.984 808.266 147.285 815.908 122.334 816.947C67.3573 819.017 25.355 760.199 -10.5902 707.456C-82.4475 599.832 -138.384 404.168 -63.3826 271.021C-27.0402 205.721 39.2234 163.669 110.055 162.549C141.245 161.895 171.161 174.221 197.386 185.027C217.441 193.29 235.337 200.664 249.996 200.664C262.871 200.664 280.265 193.585 300.538 185.334C332.488 172.331 371.588 156.418 411.418 160.716C438.659 161.531 516.176 171.747 566.188 246.517L566.083 246.581Z" fill="url(#paint1_linear)"/>
</g>
<defs>
<linearGradient id="paint0_linear" x1="-59.4404" y1="467.98" x2="918.044" y2="-259.78" gradientUnits="userSpaceOnUse">
<stop stop-color="#FF00E4"/>
<stop offset="1" stop-color="#01FFE4"/>
</linearGradient>
<linearGradient id="paint1_linear" x1="364.175" y1="-258.186" x2="-325.461" y2="289.463" gradientUnits="userSpaceOnUse">
<stop stop-color="white" stop-opacity="0.01"/>
<stop offset="1" stop-color="white"/>
</linearGradient>
</defs>
</svg>
