<svg width="200" height="60" viewBox="0 0 200 60" fill="none" xmlns="http://www.w3.org/2000/svg">
<path fill-rule="evenodd" clip-rule="evenodd" d="M30 0C13.4315 0 0 13.4315 0 30V30C0 46.5685 13.4315 60 30 60H170C186.569 60 200 46.5685 200 30V30C200 13.4315 186.569 0 170 0H30Z" fill="black"/>
<path fill-rule="evenodd" clip-rule="evenodd" d="M76.6322 41.827H73.9093L72.4178 37.1382H67.2334L65.8126 41.827H63.1616L68.2993 25.864H71.4718L76.6322 41.827V41.827ZM71.9682 35.171L70.6193 31.0039C70.4766 30.5769 70.2081 29.5741 69.8148 27.9955H69.7668C69.6086 28.6745 69.3556 29.6772 69.0091 31.0039L67.683 35.171H71.9682V35.171Z" fill="white"/>
<path fill-rule="evenodd" clip-rule="evenodd" d="M89.8186 35.9303C89.8186 37.8879 89.2875 39.4352 88.224 40.5712C87.272 41.5824 86.0886 42.0874 84.6774 42.0874C83.1535 42.0874 82.0576 41.544 81.3922 40.4536V46.4931H78.8359V34.0998C78.8359 32.8704 78.8036 31.6097 78.7412 30.3166H80.9893L81.132 32.1423H81.1799C82.0324 30.7664 83.3261 30.0791 85.0623 30.0791C86.4195 30.0791 87.5526 30.6153 88.459 31.6888C89.3642 32.7648 89.8186 34.1778 89.8186 35.9303V35.9303ZM87.2144 36.0239C87.2144 34.9035 86.9627 33.9799 86.4567 33.253C85.9039 32.4961 85.1618 32.1159 84.2314 32.1159C83.6007 32.1159 83.0276 32.327 82.5156 32.7444C82.0025 33.163 81.6667 33.7112 81.5097 34.3913C81.4305 34.7068 81.391 34.9647 81.391 35.1686V37.0902C81.391 37.9251 81.6476 38.6316 82.1607 39.2097C82.6739 39.7855 83.3405 40.0746 84.1606 40.0746C85.1234 40.0746 85.8728 39.7015 86.4087 38.9614C86.9459 38.219 87.2144 37.2402 87.2144 36.0239V36.0239Z" fill="white"/>
<path fill-rule="evenodd" clip-rule="evenodd" d="M103.052 35.9303C103.052 37.8879 102.521 39.4352 101.457 40.5712C100.504 41.5824 99.3217 42.0874 97.9093 42.0874C96.3866 42.0874 95.2907 41.544 94.6241 40.4536V46.4931H92.0679V34.0998C92.0679 32.8704 92.0355 31.6097 91.9731 30.3166H94.2212L94.3639 32.1423H94.4119C95.2632 30.7664 96.5569 30.0791 98.2942 30.0791C99.6502 30.0791 100.784 30.6153 101.692 31.6888C102.596 32.7648 103.052 34.1778 103.052 35.9303V35.9303ZM100.446 36.0239C100.446 34.9035 100.193 33.9799 99.6874 33.253C99.1359 32.4961 98.3949 32.1159 97.4645 32.1159C96.8338 32.1159 96.2607 32.327 95.7464 32.7444C95.2344 33.163 94.8987 33.7112 94.7416 34.3913C94.6637 34.7068 94.6217 34.9647 94.6217 35.1686V37.0902C94.6217 37.9251 94.8795 38.6316 95.3903 39.2097C95.9034 39.7843 96.5701 40.0746 97.3926 40.0746C98.3565 40.0746 99.1059 39.7015 99.6407 38.9614C100.178 38.219 100.446 37.2402 100.446 36.0239V36.0239Z" fill="white"/>
<path fill-rule="evenodd" clip-rule="evenodd" d="M117.847 37.3505C117.847 38.7083 117.374 39.813 116.429 40.6659C115.39 41.5967 113.941 42.0633 112.082 42.0633C110.365 42.0633 108.989 41.7323 107.951 41.0689L108.542 38.9374C109.663 39.6007 110.894 39.933 112.235 39.933C113.199 39.933 113.948 39.7147 114.483 39.2817C115.02 38.8462 115.29 38.2669 115.29 37.5424C115.29 36.8934 115.067 36.3489 114.625 35.9063C114.183 35.466 113.452 35.0534 112.425 34.6768C109.632 33.6344 108.234 32.1086 108.234 30.1042C108.234 28.7944 108.728 27.722 109.712 26.8836C110.698 26.0463 112.004 25.6277 113.63 25.6277C115.082 25.6277 116.292 25.8808 117.252 26.3858L116.611 28.4705C115.707 27.9811 114.687 27.7364 113.545 27.7364C112.644 27.7364 111.935 27.9583 111.43 28.3997C111.004 28.7944 110.787 29.2754 110.787 29.8463C110.787 30.4761 111.033 30.9991 111.524 31.4081C111.948 31.7871 112.723 32.1986 113.842 32.64C115.217 33.1942 116.225 33.8395 116.872 34.5808C117.523 35.3221 117.847 36.2469 117.847 37.3505" fill="white"/>
<path fill-rule="evenodd" clip-rule="evenodd" d="M126.321 32.2357H123.503V37.8242C123.503 39.2456 123.999 39.9545 124.995 39.9545C125.451 39.9545 125.83 39.9161 126.13 39.8357L126.201 41.7777C125.697 41.9661 125.034 42.0608 124.214 42.0608C123.203 42.0608 122.416 41.7514 121.845 41.136C121.276 40.5195 120.992 39.4867 120.992 38.0329V32.2309H119.315V30.3117H120.992V28.2041L123.503 27.446V30.3117H126.321V32.2357" fill="white"/>
<path fill-rule="evenodd" clip-rule="evenodd" d="M139.008 35.9769C139.008 37.7462 138.503 39.1988 137.493 40.3347C136.436 41.503 135.031 42.0872 133.279 42.0872C131.589 42.0872 130.245 41.527 129.242 40.4067C128.24 39.2863 127.739 37.8733 127.739 36.1688C127.739 34.3851 128.258 32.9241 129.289 31.7882C130.323 30.6523 131.716 30.0825 133.468 30.0825C135.157 30.0825 136.512 30.6451 137.539 31.7642C138.52 32.8522 139.008 34.2544 139.008 35.9769V35.9769ZM136.358 36.0357C136.358 34.9813 136.13 34.0769 135.674 33.32C135.138 32.406 134.369 31.9502 133.376 31.9502C132.354 31.9502 131.566 32.406 131.032 33.32C130.573 34.0769 130.347 34.9969 130.347 36.0836C130.347 37.1392 130.573 38.046 131.032 38.7993C131.585 39.7146 132.356 40.1716 133.356 40.1716C134.332 40.1716 135.098 39.7038 135.653 38.7777C136.122 38.0029 136.358 37.0924 136.358 36.0357V36.0357Z" fill="white"/>
<path fill-rule="evenodd" clip-rule="evenodd" d="M147.321 32.5657C147.068 32.5189 146.797 32.4961 146.515 32.4961C145.616 32.4961 144.92 32.8332 144.431 33.5145C144.005 34.1142 143.793 34.8723 143.793 35.7876V41.8271H141.237V33.9415C141.237 32.6161 141.212 31.4058 141.163 30.3178H143.389L143.483 32.5201H143.553C143.824 31.7632 144.249 31.1527 144.831 30.6968C145.402 30.2842 146.016 30.0791 146.679 30.0791C146.915 30.0791 147.129 30.0971 147.318 30.1259L147.321 32.5657" fill="white"/>
<path fill-rule="evenodd" clip-rule="evenodd" d="M158.753 35.5272C158.753 35.9854 158.723 36.3716 158.66 36.6871H150.992C151.02 37.8242 151.393 38.6951 152.104 39.2948C152.75 39.8298 153.587 40.0985 154.612 40.0985C155.747 40.0985 156.783 39.9186 157.715 39.5539L158.115 41.3292C157.027 41.803 155.74 42.0405 154.258 42.0405C152.474 42.0405 151.074 41.5151 150.055 40.4668C149.039 39.4172 148.528 38.0054 148.528 36.2397C148.528 34.5052 149.001 33.0598 149.95 31.9071C150.943 30.6764 152.285 30.061 153.973 30.061C155.631 30.061 156.886 30.6764 157.738 31.9071C158.414 32.8823 158.753 34.0914 158.753 35.5272V35.5272ZM156.316 34.8639C156.334 34.1046 156.166 33.452 155.819 32.8979C155.377 32.1854 154.696 31.8303 153.783 31.8303C152.947 31.8303 152.267 32.177 151.749 32.8727C151.323 33.4257 151.07 34.0914 150.992 34.8615L156.316 34.8639V34.8639Z" fill="white"/>
<path fill-rule="evenodd" clip-rule="evenodd" d="M70.7172 19.8632H69.3765L68.6431 17.5005H66.0924L65.3926 19.8632H64.0879L66.6157 11.8181H68.1762L70.7172 19.8632V19.8632ZM68.4222 16.5092L67.7584 14.4084C67.6888 14.1932 67.5604 13.6926 67.3623 12.8931H67.3383C67.2567 13.2387 67.1403 13.7405 66.965 14.4084L66.3133 16.5092H68.4222V16.5092Z" fill="white"/>
<path fill-rule="evenodd" clip-rule="evenodd" d="M77.0382 14.0627L74.8944 19.8632H73.6713L71.5972 14.0627H72.9487L73.9162 17.1302C74.0794 17.6431 74.2187 18.1327 74.3231 18.5976H74.3579C74.4515 18.1806 74.5907 17.6911 74.7648 17.1302L75.7202 14.0627H77.0382" fill="white"/>
<path fill-rule="evenodd" clip-rule="evenodd" d="M81.6016 19.8631L81.508 19.1953H81.4732C81.0891 19.7328 80.5297 19.9947 79.8191 19.9947C78.8061 19.9947 78.0835 19.2666 78.0835 18.2876C78.0835 16.8559 79.2946 16.1155 81.3916 16.1155V16.0085C81.3916 15.2447 80.9955 14.8621 80.2153 14.8621C79.6559 14.8621 79.1662 15.006 78.7365 15.2926L78.4808 14.4452C79.0053 14.1106 79.6571 13.9434 80.4265 13.9434C81.9053 13.9434 82.6519 14.7428 82.6519 16.343V18.4794C82.6519 19.0649 82.6759 19.5187 82.7335 19.8644L81.6016 19.8631V19.8631ZM81.4264 16.974C80.028 16.974 79.3294 17.3208 79.3294 18.1437C79.3294 18.7525 79.6907 19.0501 80.1912 19.0501C80.8322 19.0501 81.4264 18.5495 81.4264 17.8694V16.974V16.974Z" fill="white"/>
<path fill-rule="evenodd" clip-rule="evenodd" d="M85.4534 13.107C85.0345 13.107 84.708 12.7725 84.708 12.3309C84.708 11.8894 85.0453 11.5671 85.4774 11.5671C85.9083 11.5671 86.2576 11.8894 86.2456 12.3309C86.2456 12.7971 85.9203 13.107 85.4534 13.107V13.107ZM84.8484 14.0627H86.1064V19.8632H84.8484V14.0627Z" fill="white"/>
<path fill-rule="evenodd" clip-rule="evenodd" d="M88.3413 11.4011H89.5992V19.8632H88.3413L88.3413 11.4011Z" fill="white"/>
<path fill-rule="evenodd" clip-rule="evenodd" d="M94.9454 19.8631L94.8505 19.1953H94.8169C94.4328 19.7328 93.8735 19.9947 93.1629 19.9947C92.1498 19.9947 91.4272 19.2666 91.4272 18.2876C91.4272 16.8559 92.6384 16.1155 94.7353 16.1155V16.0085C94.7353 15.2447 94.3392 14.8621 93.559 14.8621C92.9997 14.8621 92.5099 15.006 92.0802 15.2926L91.8233 14.444C92.3479 14.1094 92.9997 13.9421 93.7691 13.9421C95.2478 13.9421 95.9956 14.7416 95.9956 16.3418V18.4782C95.9956 19.0637 96.0196 19.5175 96.0749 19.8631H94.9454V19.8631ZM94.7701 16.974C93.3718 16.974 92.6732 17.3208 92.6732 18.1437C92.6732 18.7525 93.0345 19.0501 93.535 19.0501C94.176 19.0501 94.7701 18.5495 94.7701 17.8694V16.974V16.974Z" fill="white"/>
<path fill-rule="evenodd" clip-rule="evenodd" d="M101.091 19.9948C100.288 19.9948 99.6951 19.648 99.3098 18.9678H99.2858L99.2137 19.8632H98.1431C98.1767 19.3983 98.1887 18.8719 98.1887 18.2999V11.4011H99.449V14.9114H99.4718C99.8451 14.2669 100.45 13.9447 101.277 13.9447C102.641 13.9447 103.596 15.139 103.596 16.8806C103.596 18.6812 102.535 19.9948 101.091 19.9948V19.9948ZM100.835 14.9569C100.112 14.9569 99.449 15.6014 99.449 16.4968V17.5115C99.449 18.311 100.044 18.9678 100.813 18.9678C101.755 18.9678 102.317 18.1806 102.317 16.9273C102.315 15.7576 101.732 14.9569 100.835 14.9569V14.9569Z" fill="white"/>
<path fill-rule="evenodd" clip-rule="evenodd" d="M105.458 11.4011H106.715V19.8632H105.458V11.4011Z" fill="white"/>
<path fill-rule="evenodd" clip-rule="evenodd" d="M113.561 17.2729H109.785C109.81 18.3713 110.518 18.9912 111.566 18.9912C112.127 18.9912 112.639 18.8952 113.093 18.7169L113.289 19.6123C112.753 19.8509 112.124 19.9702 111.391 19.9702C109.619 19.9702 108.571 18.8239 108.571 17.0466C108.571 15.2681 109.644 13.9312 111.25 13.9312C112.693 13.9312 113.604 15.0295 113.604 16.6887C113.608 16.915 113.597 17.118 113.561 17.2729V17.2729ZM112.409 16.3542C112.409 15.4588 111.965 14.8266 111.16 14.8266C110.438 14.8266 109.869 15.4711 109.785 16.3542H112.409V16.3542Z" fill="white"/>
<path fill-rule="evenodd" clip-rule="evenodd" d="M121.185 19.9947C119.531 19.9947 118.459 18.7291 118.459 17.0109C118.459 15.2201 119.554 13.9434 121.28 13.9434C122.909 13.9434 124.006 15.1487 124.006 16.9162C124.006 18.7291 122.875 19.9947 121.185 19.9947V19.9947ZM121.233 14.8855C120.325 14.8855 119.743 15.7563 119.743 16.974C119.743 18.1683 120.337 19.0391 121.221 19.0391C122.106 19.0391 122.7 18.108 122.7 16.9494C122.7 15.7686 122.118 14.8855 121.233 14.8855V14.8855Z" fill="white"/>
<path fill-rule="evenodd" clip-rule="evenodd" d="M130.769 19.8631H129.513V16.5324C129.513 15.5066 129.128 14.9925 128.371 14.9925C127.625 14.9925 127.112 15.6493 127.112 16.4131V19.8631H125.856V15.7207C125.856 15.2078 125.842 14.658 125.808 14.0614H126.915L126.974 14.9569H127.01C127.345 14.337 128.033 13.9421 128.803 13.9421C129.989 13.9421 130.769 14.8732 130.769 16.3885V19.8631" fill="white"/>
<path fill-rule="evenodd" clip-rule="evenodd" d="M139 15.0294H137.616V17.846C137.616 18.563 137.859 18.9209 138.348 18.9209C138.569 18.9209 138.757 18.8963 138.907 18.8607L138.942 19.8397C138.697 19.9357 138.369 19.9836 137.965 19.9836C136.972 19.9836 136.382 19.4228 136.382 17.9542V15.0294H135.557V14.0626H136.382V12.9999L137.616 12.6174V14.0614H139V15.0294" fill="white"/>
<path fill-rule="evenodd" clip-rule="evenodd" d="M145.661 19.8632H144.402V16.5571C144.402 15.519 144.017 14.9938 143.26 14.9938C142.609 14.9938 142.004 15.4477 142.004 16.3664V19.8632H140.745V11.4011H142.004V14.8856H142.028C142.423 14.2534 142.995 13.9422 143.729 13.9422C144.928 13.9422 145.661 14.8967 145.661 16.4132V19.8632" fill="white"/>
<path fill-rule="evenodd" clip-rule="evenodd" d="M152.089 17.2729H148.314C148.338 18.3713 149.046 18.9912 150.095 18.9912C150.657 18.9912 151.168 18.8952 151.619 18.7169L151.816 19.6123C151.282 19.8509 150.652 19.9702 149.917 19.9702C148.147 19.9702 147.099 18.8239 147.099 17.0466C147.099 15.2681 148.171 13.9312 149.777 13.9312C151.221 13.9312 152.131 15.0295 152.131 16.6887C152.136 16.915 152.124 17.118 152.089 17.2729V17.2729ZM150.935 16.3542C150.935 15.4588 150.494 14.8266 149.689 14.8266C148.967 14.8266 148.397 15.4711 148.314 16.3542H150.935V16.3542Z" fill="white"/>
<path fill-rule="evenodd" clip-rule="evenodd" d="M17.1665 29.0001C17.1665 20.2696 24.2693 13.1667 32.9998 13.1667C41.7303 13.1667 48.8332 20.2696 48.8332 29.0001C48.8332 37.7306 41.7303 44.8334 32.9998 44.8334C24.2693 44.8334 17.1665 37.7306 17.1665 29.0001ZM32.8003 20.3155C32.376 19.5507 31.4102 19.2721 30.6486 19.6996C29.8823 20.1255 29.6068 21.0882 30.0327 21.8513L31.1885 23.9334L28.8784 28.0912C28.652 28.4997 28.9465 29.0001 29.4136 29.0001H31.996L35.967 21.8497C36.3913 21.0866 36.1158 20.1239 35.3511 19.698C34.5879 19.2721 33.6237 19.5507 33.1993 20.3139L32.9998 20.6733L32.8003 20.3155ZM29.3566 33.7501L28.0503 36.1013C27.7606 36.6222 27.2223 36.9167 26.6649 36.9167C26.4053 36.9167 26.1408 36.8534 25.8986 36.7172C25.1338 36.2913 24.8583 35.3287 25.2827 34.5655L25.7355 33.7501H25.0832C24.2076 33.7501 23.4998 33.0423 23.4998 32.1667C23.4998 31.2912 24.2076 30.5834 25.0832 30.5834H33.0727L34.3267 32.8412C34.5531 33.2497 34.2586 33.7501 33.7915 33.7501H29.3566ZM40.2642 33.7501H40.9165C41.7921 33.7501 42.4999 33.0423 42.4999 32.1667C42.4999 31.2912 41.7921 30.5834 40.9165 30.5834H38.5051L36.2504 26.5253C36.0177 26.1057 35.4144 26.1057 35.1817 26.5253L33.9055 28.8227L37.9494 36.1013C38.2391 36.6222 38.7774 36.9167 39.3348 36.9167C39.5944 36.9167 39.8589 36.8534 40.1011 36.7172C40.8674 36.2929 41.1429 35.3287 40.717 34.5655L40.2642 33.7501Z" fill="white"/>
</svg>
