<svg width="642" height="301" viewBox="0 0 642 301" fill="none" xmlns="http://www.w3.org/2000/svg">
<rect width="642" height="301" rx="20" fill="url(#paint0_linear)"/>
<mask id="mask0" mask-type="alpha" maskUnits="userSpaceOnUse" x="0" y="0" width="642" height="301">
<rect width="642" height="301" rx="20" fill="white"/>
</mask>
<g mask="url(#mask0)">
<path opacity="0.222819" fill-rule="evenodd" clip-rule="evenodd" d="M47.3431 -354.756L74.2419 -308.172L101.141 -354.756C117.841 -383.677 154.827 -393.586 183.752 -376.889C212.677 -360.191 222.588 -323.21 205.888 -294.288L-53.5804 155.064H134.143C194.826 155.064 229.084 226.589 202.521 276H-347.524C-380.924 276 -408 248.928 -408 215.532C-408 182.137 -380.924 155.064 -347.524 155.064H-193.243L4.41043 -187.237L-57.404 -294.288C-74.1039 -323.21 -64.1935 -360.191 -35.2683 -376.889C-6.34323 -393.586 30.6432 -383.677 47.3431 -354.756ZM343.277 155.235H500.569C533.944 155.235 561 182.285 561 215.653C561 249.021 533.944 276.071 500.569 276.071H413.056L472.128 378.363C488.815 407.261 478.912 444.212 450.008 460.895C421.105 477.579 384.146 467.678 367.458 438.781L143.952 51.7382C93.4041 -35.7937 129.559 -123.47 165.279 -153L343.277 155.235ZM-158.93 337.397L-217.183 438.126C-233.905 467.041 -270.885 476.949 -299.824 460.27C-328.821 443.556 -338.755 406.484 -321.999 377.51L-278.818 302.843C-278.818 302.843 -205.752 280.443 -158.93 337.397Z" fill="url(#paint1_linear)"/>
</g>
<defs>
<linearGradient id="paint0_linear" x1="412.483" y1="464.953" x2="691.002" y2="-121.943" gradientUnits="userSpaceOnUse">
<stop stop-color="#FF0071"/>
<stop offset="0.999155" stop-color="#FFF800"/>
</linearGradient>
<linearGradient id="paint1_linear" x1="245.299" y1="-591.288" x2="-447.308" y2="195.389" gradientUnits="userSpaceOnUse">
<stop stop-color="white" stop-opacity="0.01"/>
<stop offset="1" stop-color="white"/>
</linearGradient>
</defs>
</svg>
