<svg width="200" height="60" viewBox="0 0 200 60" fill="none" xmlns="http://www.w3.org/2000/svg">
<path fill-rule="evenodd" clip-rule="evenodd" d="M30 0C13.4315 0 0 13.4315 0 30V30C0 46.5685 13.4315 60 30 60H170C186.569 60 200 46.5685 200 30V30C200 13.4315 186.569 0 170 0H30Z" fill="black"/>
<path fill-rule="evenodd" clip-rule="evenodd" d="M39.5368 10.4829C39.7339 12.3345 39.0237 14.1592 37.9857 15.5003C36.9026 16.8207 35.1698 17.8305 33.4822 17.7005C33.2613 15.9188 34.1164 14.0242 35.0737 12.8683C36.1556 11.5566 38.0344 10.5516 39.5368 10.4829ZM45.0614 21.1643C44.8731 21.2804 41.752 23.2051 41.7861 27.1304C41.8265 31.8705 45.8003 33.4375 45.8478 33.4534C45.8241 33.5638 45.2255 35.7173 43.735 37.899C42.4904 39.8231 41.1864 41.7041 39.1152 41.736C38.1301 41.7601 37.4651 41.4676 36.772 41.1628C36.0495 40.8451 35.2966 40.5139 34.1188 40.5139C32.8702 40.5139 32.0838 40.856 31.3255 41.1859C30.6694 41.4713 30.0343 41.7476 29.1391 41.7851C27.1664 41.86 25.6593 39.7335 24.3695 37.8266C21.7912 33.9356 19.7841 26.8617 22.4753 22.0479C23.7793 19.6871 26.1569 18.1667 28.6985 18.1262C29.8176 18.1026 30.891 18.5482 31.832 18.9389C32.5516 19.2376 33.1938 19.5042 33.7198 19.5042C34.1817 19.5042 34.8058 19.2483 35.5333 18.95C36.6797 18.4799 38.0826 17.9046 39.5118 18.06C40.4892 18.0894 43.2707 18.4588 45.0652 21.162L45.0614 21.1643Z" fill="white"/>
<path fill-rule="evenodd" clip-rule="evenodd" d="M76.6322 41.827H73.9093L72.4178 37.1382H67.2334L65.8126 41.827H63.1616L68.2993 25.864H71.4718L76.6322 41.827V41.827ZM71.9682 35.171L70.6193 31.0039C70.4766 30.5769 70.2081 29.5741 69.8148 27.9955H69.7668C69.6086 28.6745 69.3556 29.6772 69.0091 31.0039L67.683 35.171H71.9682V35.171Z" fill="white"/>
<path fill-rule="evenodd" clip-rule="evenodd" d="M89.8191 35.9303C89.8191 37.8879 89.288 39.4352 88.2245 40.5712C87.2725 41.5824 86.0891 42.0874 84.6779 42.0874C83.154 42.0874 82.0581 41.544 81.3927 40.4536V46.4931H78.8364V34.0998C78.8364 32.8704 78.804 31.6097 78.7417 30.3166H80.9898L81.1325 32.1423H81.1804C82.0329 30.7664 83.3266 30.0791 85.0627 30.0791C86.42 30.0791 87.553 30.6153 88.4595 31.6888C89.3647 32.7648 89.8191 34.1778 89.8191 35.9303V35.9303ZM87.2149 36.0239C87.2149 34.9035 86.9631 33.9799 86.4572 33.253C85.9044 32.4961 85.1623 32.1159 84.2319 32.1159C83.6012 32.1159 83.0281 32.327 82.5161 32.7444C82.0029 33.163 81.6672 33.7112 81.5102 34.3913C81.431 34.7068 81.3915 34.9647 81.3915 35.1686V37.0902C81.3915 37.9251 81.648 38.6316 82.1612 39.2097C82.6744 39.7855 83.341 40.0746 84.1611 40.0746C85.1239 40.0746 85.8733 39.7015 86.4092 38.9614C86.9464 38.219 87.2149 37.2402 87.2149 36.0239V36.0239Z" fill="white"/>
<path fill-rule="evenodd" clip-rule="evenodd" d="M103.052 35.9303C103.052 37.8879 102.521 39.4352 101.458 40.5712C100.504 41.5824 99.3222 42.0874 97.9098 42.0874C96.3871 42.0874 95.2912 41.544 94.6246 40.4536V46.4931H92.0684V34.0998C92.0684 32.8704 92.036 31.6097 91.9736 30.3166H94.2217L94.3644 32.1423H94.4124C95.2636 30.7664 96.5574 30.0791 98.2947 30.0791C99.6507 30.0791 100.785 30.6153 101.693 31.6888C102.597 32.7648 103.052 34.1778 103.052 35.9303V35.9303ZM100.447 36.0239C100.447 34.9035 100.194 33.9799 99.6879 33.253C99.1364 32.4961 98.3954 32.1159 97.465 32.1159C96.8343 32.1159 96.2612 32.327 95.7468 32.7444C95.2349 33.163 94.8992 33.7112 94.7421 34.3913C94.6642 34.7068 94.6222 34.9647 94.6222 35.1686V37.0902C94.6222 37.9251 94.88 38.6316 95.3907 39.2097C95.9039 39.7843 96.5705 40.0746 97.393 40.0746C98.357 40.0746 99.1064 39.7015 99.6411 38.9614C100.178 38.219 100.447 37.2402 100.447 36.0239V36.0239Z" fill="white"/>
<path fill-rule="evenodd" clip-rule="evenodd" d="M117.848 37.3505C117.848 38.7083 117.374 39.813 116.429 40.6659C115.391 41.5967 113.941 42.0633 112.083 42.0633C110.366 42.0633 108.989 41.7323 107.951 41.0689L108.542 38.9374C109.663 39.6007 110.895 39.933 112.235 39.933C113.199 39.933 113.948 39.7147 114.483 39.2817C115.02 38.8462 115.29 38.2669 115.29 37.5424C115.29 36.8934 115.067 36.3489 114.626 35.9063C114.183 35.466 113.452 35.0534 112.426 34.6768C109.632 33.6344 108.234 32.1086 108.234 30.1042C108.234 28.7944 108.728 27.722 109.712 26.8836C110.698 26.0463 112.005 25.6277 113.631 25.6277C115.083 25.6277 116.293 25.8808 117.253 26.3858L116.611 28.4705C115.707 27.9811 114.687 27.7364 113.546 27.7364C112.644 27.7364 111.935 27.9583 111.431 28.3997C111.005 28.7944 110.788 29.2754 110.788 29.8463C110.788 30.4761 111.034 30.9991 111.524 31.4081C111.949 31.7871 112.723 32.1986 113.843 32.64C115.217 33.1942 116.225 33.8395 116.873 34.5808C117.524 35.3221 117.848 36.2469 117.848 37.3505" fill="white"/>
<path fill-rule="evenodd" clip-rule="evenodd" d="M126.321 32.2357H123.503V37.8242C123.503 39.2456 123.999 39.9545 124.995 39.9545C125.451 39.9545 125.83 39.9161 126.13 39.8357L126.201 41.7777C125.697 41.9661 125.034 42.0608 124.214 42.0608C123.203 42.0608 122.416 41.7514 121.845 41.136C121.276 40.5195 120.992 39.4867 120.992 38.0329V32.2309H119.315V30.3117H120.992V28.2041L123.503 27.446V30.3117H126.321V32.2357" fill="white"/>
<path fill-rule="evenodd" clip-rule="evenodd" d="M139.009 35.9769C139.009 37.7462 138.504 39.1988 137.493 40.3347C136.437 41.503 135.031 42.0872 133.28 42.0872C131.589 42.0872 130.245 41.527 129.243 40.4067C128.24 39.2863 127.739 37.8733 127.739 36.1688C127.739 34.3851 128.258 32.9241 129.29 31.7882C130.323 30.6523 131.716 30.0825 133.468 30.0825C135.157 30.0825 136.512 30.6451 137.54 31.7642C138.521 32.8522 139.009 34.2544 139.009 35.9769V35.9769ZM136.359 36.0357C136.359 34.9813 136.131 34.0769 135.674 33.32C135.138 32.406 134.37 31.9502 133.377 31.9502C132.354 31.9502 131.566 32.406 131.033 33.32C130.574 34.0769 130.347 34.9969 130.347 36.0836C130.347 37.1392 130.574 38.046 131.033 38.7993C131.586 39.7146 132.357 40.1716 133.357 40.1716C134.332 40.1716 135.099 39.7038 135.654 38.7777C136.123 38.0029 136.359 37.0924 136.359 36.0357V36.0357Z" fill="white"/>
<path fill-rule="evenodd" clip-rule="evenodd" d="M147.321 32.5657C147.068 32.5189 146.797 32.4961 146.515 32.4961C145.616 32.4961 144.921 32.8332 144.432 33.5145C144.006 34.1142 143.794 34.8723 143.794 35.7876V41.8271H141.237V33.9415C141.237 32.6161 141.212 31.4058 141.163 30.3178H143.39L143.483 32.5201H143.554C143.825 31.7632 144.249 31.1527 144.832 30.6968C145.403 30.2842 146.017 30.0791 146.68 30.0791C146.916 30.0791 147.129 30.0971 147.319 30.1259L147.321 32.5657" fill="white"/>
<path fill-rule="evenodd" clip-rule="evenodd" d="M158.753 35.5272C158.753 35.9854 158.723 36.3716 158.66 36.6871H150.992C151.02 37.8242 151.393 38.6951 152.104 39.2948C152.75 39.8298 153.587 40.0985 154.612 40.0985C155.747 40.0985 156.783 39.9186 157.715 39.5539L158.115 41.3292C157.027 41.803 155.74 42.0405 154.258 42.0405C152.474 42.0405 151.074 41.5151 150.055 40.4668C149.039 39.4172 148.528 38.0054 148.528 36.2397C148.528 34.5052 149.001 33.0598 149.95 31.9071C150.943 30.6764 152.285 30.061 153.973 30.061C155.631 30.061 156.886 30.6764 157.738 31.9071C158.414 32.8823 158.753 34.0914 158.753 35.5272V35.5272ZM156.316 34.8639C156.334 34.1046 156.166 33.452 155.819 32.8979C155.377 32.1854 154.696 31.8303 153.783 31.8303C152.947 31.8303 152.267 32.177 151.749 32.8727C151.323 33.4257 151.07 34.0914 150.992 34.8615L156.316 34.8639V34.8639Z" fill="white"/>
<path fill-rule="evenodd" clip-rule="evenodd" d="M70.7172 19.8632H69.3765L68.6431 17.5005H66.0924L65.3926 19.8632H64.0879L66.6157 11.8181H68.1762L70.7172 19.8632V19.8632ZM68.4222 16.5092L67.7584 14.4084C67.6888 14.1932 67.5604 13.6926 67.3623 12.8931H67.3383C67.2567 13.2387 67.1403 13.7405 66.965 14.4084L66.3133 16.5092H68.4222V16.5092Z" fill="white"/>
<path fill-rule="evenodd" clip-rule="evenodd" d="M77.0382 14.0627L74.8944 19.8632H73.6713L71.5972 14.0627H72.9487L73.9162 17.1302C74.0794 17.6431 74.2187 18.1327 74.3231 18.5976H74.3579C74.4515 18.1806 74.5907 17.6911 74.7648 17.1302L75.7202 14.0627H77.0382" fill="white"/>
<path fill-rule="evenodd" clip-rule="evenodd" d="M81.6021 19.8631L81.5085 19.1953H81.4737C81.0896 19.7328 80.5302 19.9947 79.8196 19.9947C78.8066 19.9947 78.084 19.2666 78.084 18.2876C78.084 16.8559 79.2951 16.1155 81.392 16.1155V16.0085C81.392 15.2447 80.9959 14.8621 80.2157 14.8621C79.6564 14.8621 79.1667 15.006 78.737 15.2926L78.4813 14.4452C79.0058 14.1106 79.6576 13.9434 80.427 13.9434C81.9058 13.9434 82.6524 14.7428 82.6524 16.343V18.4794C82.6524 19.0649 82.6764 19.5187 82.734 19.8644L81.6021 19.8631V19.8631ZM81.4269 16.974C80.0285 16.974 79.3299 17.3208 79.3299 18.1437C79.3299 18.7525 79.6912 19.0501 80.1917 19.0501C80.8327 19.0501 81.4269 18.5495 81.4269 17.8694V16.974V16.974Z" fill="white"/>
<path fill-rule="evenodd" clip-rule="evenodd" d="M85.4539 13.107C85.035 13.107 84.7085 12.7725 84.7085 12.3309C84.7085 11.8894 85.0458 11.5671 85.4779 11.5671C85.9088 11.5671 86.2581 11.8894 86.2461 12.3309C86.2461 12.7971 85.9208 13.107 85.4539 13.107V13.107ZM84.8489 14.0627H86.1069V19.8632H84.8489V14.0627Z" fill="white"/>
<path fill-rule="evenodd" clip-rule="evenodd" d="M88.3418 11.4011H89.5997V19.8632H88.3418L88.3418 11.4011Z" fill="white"/>
<path fill-rule="evenodd" clip-rule="evenodd" d="M94.9458 19.8631L94.851 19.1953H94.8174C94.4333 19.7328 93.874 19.9947 93.1634 19.9947C92.1503 19.9947 91.4277 19.2666 91.4277 18.2876C91.4277 16.8559 92.6388 16.1155 94.7358 16.1155V16.0085C94.7358 15.2447 94.3397 14.8621 93.5595 14.8621C93.0001 14.8621 92.5104 15.006 92.0807 15.2926L91.8238 14.444C92.3484 14.1094 93.0001 13.9421 93.7695 13.9421C95.2483 13.9421 95.9961 14.7416 95.9961 16.3418V18.4782C95.9961 19.0637 96.0201 19.5175 96.0753 19.8631H94.9458V19.8631ZM94.7706 16.974C93.3722 16.974 92.6737 17.3208 92.6737 18.1437C92.6737 18.7525 93.035 19.0501 93.5355 19.0501C94.1764 19.0501 94.7706 18.5495 94.7706 17.8694V16.974V16.974Z" fill="white"/>
<path fill-rule="evenodd" clip-rule="evenodd" d="M101.092 19.9948C100.289 19.9948 99.6956 19.648 99.3103 18.9678H99.2863L99.2142 19.8632H98.1436C98.1772 19.3983 98.1892 18.8719 98.1892 18.2999V11.4011H99.4495V14.9114H99.4723C99.8456 14.2669 100.451 13.9447 101.278 13.9447C102.641 13.9447 103.597 15.139 103.597 16.8806C103.597 18.6812 102.535 19.9948 101.092 19.9948V19.9948ZM100.836 14.9569C100.112 14.9569 99.4495 15.6014 99.4495 16.4968V17.5115C99.4495 18.311 100.045 18.9678 100.813 18.9678C101.755 18.9678 102.317 18.1806 102.317 16.9273C102.316 15.7576 101.732 14.9569 100.836 14.9569V14.9569Z" fill="white"/>
<path fill-rule="evenodd" clip-rule="evenodd" d="M105.458 11.4011H106.715V19.8632H105.458V11.4011Z" fill="white"/>
<path fill-rule="evenodd" clip-rule="evenodd" d="M113.561 17.2729H109.785C109.81 18.3713 110.519 18.9912 111.567 18.9912C112.127 18.9912 112.64 18.8952 113.093 18.7169L113.289 19.6123C112.754 19.8509 112.125 19.9702 111.391 19.9702C109.62 19.9702 108.572 18.8239 108.572 17.0466C108.572 15.2681 109.645 13.9312 111.251 13.9312C112.694 13.9312 113.605 15.0295 113.605 16.6887C113.608 16.915 113.597 17.118 113.561 17.2729V17.2729ZM112.409 16.3542C112.409 15.4588 111.965 14.8266 111.161 14.8266C110.438 14.8266 109.869 15.4711 109.785 16.3542H112.409V16.3542Z" fill="white"/>
<path fill-rule="evenodd" clip-rule="evenodd" d="M121.186 19.9947C119.532 19.9947 118.46 18.7291 118.46 17.0109C118.46 15.2201 119.555 13.9434 121.281 13.9434C122.91 13.9434 124.007 15.1487 124.007 16.9162C124.007 18.7291 122.876 19.9947 121.186 19.9947V19.9947ZM121.234 14.8855C120.325 14.8855 119.743 15.7563 119.743 16.974C119.743 18.1683 120.337 19.0391 121.222 19.0391C122.107 19.0391 122.701 18.108 122.701 16.9494C122.701 15.7686 122.119 14.8855 121.234 14.8855V14.8855Z" fill="white"/>
<path fill-rule="evenodd" clip-rule="evenodd" d="M130.769 19.8631H129.513V16.5324C129.513 15.5066 129.128 14.9925 128.371 14.9925C127.625 14.9925 127.112 15.6493 127.112 16.4131V19.8631H125.856V15.7207C125.856 15.2078 125.842 14.658 125.808 14.0614H126.915L126.974 14.9569H127.01C127.345 14.337 128.033 13.9421 128.803 13.9421C129.989 13.9421 130.769 14.8732 130.769 16.3885V19.8631" fill="white"/>
<path fill-rule="evenodd" clip-rule="evenodd" d="M139 15.0294H137.616V17.846C137.616 18.563 137.859 18.9209 138.348 18.9209C138.569 18.9209 138.757 18.8963 138.907 18.8607L138.942 19.8397C138.697 19.9357 138.369 19.9836 137.965 19.9836C136.972 19.9836 136.382 19.4228 136.382 17.9542V15.0294H135.557V14.0626H136.382V12.9999L137.616 12.6174V14.0614H139V15.0294" fill="white"/>
<path fill-rule="evenodd" clip-rule="evenodd" d="M145.661 19.8632H144.402V16.5571C144.402 15.519 144.017 14.9938 143.26 14.9938C142.609 14.9938 142.004 15.4477 142.004 16.3664V19.8632H140.745V11.4011H142.004V14.8856H142.028C142.423 14.2534 142.995 13.9422 143.729 13.9422C144.928 13.9422 145.661 14.8967 145.661 16.4132V19.8632" fill="white"/>
<path fill-rule="evenodd" clip-rule="evenodd" d="M152.089 17.2729H148.314C148.338 18.3713 149.046 18.9912 150.095 18.9912C150.657 18.9912 151.168 18.8952 151.619 18.7169L151.816 19.6123C151.282 19.8509 150.652 19.9702 149.917 19.9702C148.147 19.9702 147.099 18.8239 147.099 17.0466C147.099 15.2681 148.171 13.9312 149.777 13.9312C151.221 13.9312 152.131 15.0295 152.131 16.6887C152.136 16.915 152.124 17.118 152.089 17.2729V17.2729ZM150.935 16.3542C150.935 15.4588 150.494 14.8266 149.689 14.8266C148.967 14.8266 148.397 15.4711 148.314 16.3542H150.935V16.3542Z" fill="white"/>
</svg>
