<svg width="71" height="32" viewBox="0 0 71 32" fill="none" xmlns="http://www.w3.org/2000/svg">
<rect width="71" height="32" rx="16" fill="#FF0071"/>
<path d="M12.8008 19.4258C12.8008 21.7891 14.5488 23.3418 17.0977 23.3418C19.8125 23.3418 21.4531 21.7305 21.4531 18.9277V8.9082H19.2656V18.918C19.2656 20.5293 18.4746 21.3887 17.0781 21.3887C15.8281 21.3887 14.9785 20.5977 14.9492 19.4258H12.8008ZM31.6094 20.1582C31.2188 21.0176 30.3496 21.4863 29.0801 21.4863C27.4004 21.4863 26.3164 20.2754 26.248 18.3516V18.2539H33.7578V17.5312C33.7578 14.2109 31.9707 12.1895 29.0117 12.1895C26.0137 12.1895 24.1094 14.3477 24.1094 17.7168C24.1094 21.1055 25.9746 23.2051 29.0215 23.2051C31.4531 23.2051 33.1719 22.0332 33.6309 20.1582H31.6094ZM29.002 13.8984C30.5547 13.8984 31.5703 15.0215 31.6191 16.7402H26.248C26.3652 15.0312 27.4492 13.8984 29.002 13.8984ZM39.2168 23.1758C40.6133 23.1758 41.7754 22.5703 42.4102 21.4961H42.5762V23H44.5977V15.7441C44.5977 13.5176 43.0938 12.1895 40.4277 12.1895C38.0156 12.1895 36.2969 13.3516 36.082 15.1387H38.1133C38.3477 14.3672 39.1582 13.9277 40.3301 13.9277C41.7656 13.9277 42.5078 14.582 42.5078 15.7441V16.6719L39.627 16.8477C37.0977 17.0039 35.6719 18.1074 35.6719 20.0117C35.6719 21.9453 37.166 23.1758 39.2168 23.1758ZM39.7539 21.4863C38.6113 21.4863 37.7812 20.9102 37.7812 19.9238C37.7812 18.957 38.4453 18.4395 39.9102 18.3418L42.5078 18.166V19.084C42.5078 20.4512 41.3359 21.4863 39.7539 21.4863ZM47.5859 23H49.6855V16.7793C49.6855 15.0703 50.6719 14.0156 52.2246 14.0156C53.7773 14.0156 54.5195 14.875 54.5195 16.6328V23H56.6191V16.1348C56.6191 13.6055 55.3105 12.1895 52.9375 12.1895C51.3359 12.1895 50.2812 12.9023 49.7637 14.0742H49.6074V12.3945H47.5859V23Z" fill="white"/>
</svg>
