<svg width="87" height="32" viewBox="0 0 87 32" fill="none" xmlns="http://www.w3.org/2000/svg">
<rect width="87" height="32" rx="16" fill="#4AB7E4"/>
<path d="M25.3691 23V8.9082H23.1914V14.8652H15.9551V8.9082H13.7676V23H15.9551V16.7598H23.1914V23H25.3691ZM33.1523 23.2051C36.2578 23.2051 38.1621 21.125 38.1621 17.6973C38.1621 14.2695 36.248 12.1895 33.1523 12.1895C30.0469 12.1895 28.1328 14.2793 28.1328 17.6973C28.1328 21.125 30.0371 23.2051 33.1523 23.2051ZM33.1523 21.418C31.3262 21.418 30.3008 20.0605 30.3008 17.6973C30.3008 15.334 31.3262 13.9668 33.1523 13.9668C34.9688 13.9668 36.0039 15.334 36.0039 17.6973C36.0039 20.0508 34.9688 21.418 33.1523 21.418ZM43.6309 23.1758C45.0273 23.1758 46.1895 22.5703 46.8242 21.4961H46.9902V23H49.0117V15.7441C49.0117 13.5176 47.5078 12.1895 44.8418 12.1895C42.4297 12.1895 40.7109 13.3516 40.4961 15.1387H42.5273C42.7617 14.3672 43.5723 13.9277 44.7441 13.9277C46.1797 13.9277 46.9219 14.582 46.9219 15.7441V16.6719L44.041 16.8477C41.5117 17.0039 40.0859 18.1074 40.0859 20.0117C40.0859 21.9453 41.5801 23.1758 43.6309 23.1758ZM44.168 21.4863C43.0254 21.4863 42.1953 20.9102 42.1953 19.9238C42.1953 18.957 42.8594 18.4395 44.3242 18.3418L46.9219 18.166V19.084C46.9219 20.4512 45.75 21.4863 44.168 21.4863ZM52 23H54.0996V16.7793C54.0996 15.0703 55.0859 14.0156 56.6387 14.0156C58.1914 14.0156 58.9336 14.875 58.9336 16.6328V23H61.0332V16.1348C61.0332 13.6055 59.7246 12.1895 57.3516 12.1895C55.75 12.1895 54.6953 12.9023 54.1777 14.0742H54.0215V12.3945H52V23ZM68.4746 27.0527C71.4824 27.0527 73.3867 25.5195 73.3867 23.1074V12.3945H71.375V14.084H71.209C70.6133 12.9316 69.334 12.209 67.8691 12.209C65.1543 12.209 63.4551 14.3477 63.4551 17.5605C63.4551 20.7441 65.1348 22.8438 67.8496 22.8438C69.3145 22.8438 70.4863 22.209 71.1309 21.0566H71.2871V23.0977C71.2871 24.5332 70.252 25.3926 68.5039 25.3926C67.0879 25.3926 66.1992 24.8848 66.0234 24.084H63.875C64.0996 25.8711 65.8184 27.0527 68.4746 27.0527ZM68.4453 21.1055C66.6387 21.1055 65.623 19.7285 65.623 17.5605C65.623 15.3926 66.6387 14.0059 68.4453 14.0059C70.2324 14.0059 71.3262 15.3926 71.3262 17.5605C71.3262 19.7285 70.2422 21.1055 68.4453 21.1055Z" fill="white"/>
</svg>
