<svg width="83" height="32" viewBox="0 0 83 32" fill="none" xmlns="http://www.w3.org/2000/svg">
<rect width="83" height="32" rx="16" fill="#FF7400"/>
<path d="M25.3691 23V8.9082H23.1914V14.8652H15.9551V8.9082H13.7676V23H15.9551V16.7598H23.1914V23H25.3691ZM35.6328 20.1582C35.2422 21.0176 34.373 21.4863 33.1035 21.4863C31.4238 21.4863 30.3398 20.2754 30.2715 18.3516V18.2539H37.7812V17.5312C37.7812 14.2109 35.9941 12.1895 33.0352 12.1895C30.0371 12.1895 28.1328 14.3477 28.1328 17.7168C28.1328 21.1055 29.998 23.2051 33.0449 23.2051C35.4766 23.2051 37.1953 22.0332 37.6543 20.1582H35.6328ZM33.0254 13.8984C34.5781 13.8984 35.5938 15.0215 35.6426 16.7402H30.2715C30.3887 15.0312 31.4727 13.8984 33.0254 13.8984ZM40.3008 23H42.4004V16.7793C42.4004 15.0703 43.3867 14.0156 44.9395 14.0156C46.4922 14.0156 47.2344 14.875 47.2344 16.6328V23H49.334V16.1348C49.334 13.6055 48.0254 12.1895 45.6523 12.1895C44.0508 12.1895 42.9961 12.9023 42.4785 14.0742H42.3223V12.3945H40.3008V23ZM52.293 23H54.3926V16.6621C54.3926 15.168 55.5156 14.1426 57.1074 14.1426C57.4785 14.1426 58.1035 14.2109 58.2793 14.2598V12.2871C58.0547 12.2383 57.6543 12.209 57.3418 12.209C55.9551 12.209 54.7734 12.9609 54.4707 14.0059H54.3145V12.3945H52.293V23ZM61.4141 26.8477C63.582 26.8477 64.5879 26.0371 65.4961 23.4883L69.4609 12.3945H67.2344L64.5781 20.8906H64.4121L61.7461 12.3945H59.4609L63.3086 23.0293L63.1523 23.5762C62.791 24.6992 62.2246 25.1191 61.2285 25.1191C61.0332 25.1191 60.7109 25.1094 60.5449 25.0801V26.7988C60.7402 26.8281 61.2383 26.8477 61.4141 26.8477Z" fill="white"/>
</svg>
