<svg width="151" height="41" viewBox="0 0 151 41" fill="none" xmlns="http://www.w3.org/2000/svg">
<path d="M60.708 27L64.9707 14.3174H62.0791L59.1787 24.2666H59.1172L56.2168 14.3174H53.2461L57.5088 27H60.708ZM71.0615 24.1172C70.8242 24.8379 70.1035 25.3037 69.1631 25.3037C67.8535 25.3037 67.001 24.3809 67.001 23.0361V22.8779H73.4961V22.0957C73.4961 19.2305 71.7646 17.376 69.0225 17.376C66.2363 17.376 64.4785 19.3271 64.4785 22.333C64.4785 25.3477 66.2188 27.2021 69.1191 27.2021C71.4482 27.2021 73.1357 25.9629 73.417 24.1172H71.0615ZM69.0488 19.2744C70.1914 19.2744 70.9736 20.1006 71.0264 21.3047H67.0273C67.1152 20.127 67.9238 19.2744 69.0488 19.2744ZM83.3838 21.085C83.2695 18.9492 81.6523 17.376 79.1035 17.376C76.2822 17.376 74.4805 19.2568 74.4805 22.2803C74.4805 25.3564 76.2822 27.2021 79.1211 27.2021C81.5996 27.2021 83.2607 25.7695 83.3926 23.5459H81.002C80.8438 24.5742 80.1758 25.1895 79.1475 25.1895C77.873 25.1895 77.082 24.1348 77.082 22.2803C77.082 20.4609 77.873 19.3887 79.1387 19.3887C80.1934 19.3887 80.8525 20.0918 81.002 21.085H83.3838ZM85.3174 15.4072V17.5781H83.9902V19.5117H85.3174V24.46C85.3174 26.2969 86.1787 27.0352 88.3936 27.0352C88.9121 27.0352 89.3516 26.9912 89.6152 26.9297V25.04C89.457 25.0664 89.2197 25.084 88.9912 25.084C88.2354 25.084 87.8838 24.7412 87.8838 24.0205V19.5117H89.624V17.5781H87.8838V15.4072H85.3174ZM95.2139 27.2021C98.0615 27.2021 99.8809 25.3828 99.8809 22.2803C99.8809 19.2217 98.0352 17.376 95.2139 17.376C92.3926 17.376 90.5469 19.2305 90.5469 22.2803C90.5469 25.374 92.3662 27.2021 95.2139 27.2021ZM95.2139 25.2422C93.9482 25.2422 93.1484 24.1787 93.1484 22.2891C93.1484 20.417 93.9658 19.3359 95.2139 19.3359C96.4619 19.3359 97.2705 20.417 97.2705 22.2891C97.2705 24.1787 96.4707 25.2422 95.2139 25.2422ZM101.208 27H103.774V21.7354C103.774 20.4082 104.513 19.6348 105.778 19.6348C106.147 19.6348 106.499 19.6963 106.71 19.7842V17.5254C106.534 17.4727 106.279 17.4287 105.98 17.4287C104.873 17.4287 104.073 18.0791 103.739 19.2744H103.687V17.5781H101.208V27ZM107.765 27H110.331V21.5947C110.331 20.373 111.061 19.5293 112.212 19.5293C113.363 19.5293 113.943 20.2324 113.943 21.4629V27H116.51V20.9268C116.51 18.7207 115.332 17.4023 113.24 17.4023C111.79 17.4023 110.797 18.0879 110.296 19.2568H110.243V17.5781H107.765V27ZM120.931 27.1494C122.108 27.1494 123.277 26.5605 123.805 25.5586H123.857V27H126.336V20.5225C126.336 18.624 124.763 17.376 122.346 17.376C119.85 17.376 118.294 18.6328 118.197 20.4609H120.544C120.667 19.7666 121.273 19.292 122.231 19.292C123.198 19.292 123.813 19.8018 123.813 20.6807V21.3047L121.44 21.4453C119.094 21.5859 117.775 22.5791 117.775 24.293C117.775 25.9893 119.138 27.1494 120.931 27.1494ZM121.774 25.2949C120.904 25.2949 120.324 24.8555 120.324 24.1523C120.324 23.4844 120.869 23.0537 121.827 22.9834L123.813 22.8604V23.5459C123.813 24.5654 122.891 25.2949 121.774 25.2949ZM128.683 15.4072V17.5781H127.355V19.5117H128.683V24.46C128.683 26.2969 129.544 27.0352 131.759 27.0352C132.277 27.0352 132.717 26.9912 132.98 26.9297V25.04C132.822 25.0664 132.585 25.084 132.356 25.084C131.601 25.084 131.249 24.7412 131.249 24.0205V19.5117H132.989V17.5781H131.249V15.4072H128.683ZM138.579 27.2021C141.427 27.2021 143.246 25.3828 143.246 22.2803C143.246 19.2217 141.4 17.376 138.579 17.376C135.758 17.376 133.912 19.2305 133.912 22.2803C133.912 25.374 135.731 27.2021 138.579 27.2021ZM138.579 25.2422C137.313 25.2422 136.514 24.1787 136.514 22.2891C136.514 20.417 137.331 19.3359 138.579 19.3359C139.827 19.3359 140.636 20.417 140.636 22.2891C140.636 24.1787 139.836 25.2422 138.579 25.2422ZM144.573 27H147.14V21.7354C147.14 20.4082 147.878 19.6348 149.144 19.6348C149.513 19.6348 149.864 19.6963 150.075 19.7842V17.5254C149.899 17.4727 149.645 17.4287 149.346 17.4287C148.238 17.4287 147.438 18.0791 147.104 19.2744H147.052V17.5781H144.573V27Z" fill="white"/>
<g clip-path="url(#clip0)">
<path d="M38.161 0.140003C37.7158 0.373469 21.4119 8.09607 13.8154 25.1676C11.4901 25.9715 8.99861 26.5134 6.39682 26.6352C15.4078 8.37708 38.1833 0.106246 38.161 0.140003C38.161 0.140003 38.1833 0.106246 38.161 0.140003Z" fill="url(#paint0_linear)"/>
<path d="M15.8468 27.077C32.1694 19.7018 40.3768 4.41997 40.7565 3.69863C40.7565 3.69863 32.0459 25.614 13.9074 34.3424C14.2688 31.7404 14.9523 29.3114 15.8468 27.077Z" fill="url(#paint1_linear)"/>
<path d="M40.0862 1.21581C39.5852 1.46015 22.7405 9.40717 16.492 24.3669C31.4866 18.1917 39.7398 1.96007 40.0862 1.21581Z" fill="white"/>
<path d="M7.2807 34.6226C7.32065 34.6234 7.36061 34.6241 7.39984 34.6656C7.39984 34.6656 7.39984 34.6656 7.4398 34.6664C7.79866 34.7139 8.11973 34.6386 8.40443 34.3588C8.85183 33.9192 8.86619 33.1048 8.35541 32.6062C7.88458 32.1083 7.08622 32.0524 6.63883 32.492C6.3948 32.7318 6.26847 33.096 6.30196 33.4633L6.30124 33.504C6.30052 33.5447 6.30052 33.5447 6.29981 33.5855C6.33545 33.8306 6.25123 34.0734 6.08855 34.2332L0.637766 39.6291C0.556422 39.709 0.435842 39.7474 0.316699 39.7044C0.15832 39.6199 0.121238 39.4563 0.163347 39.3349L4.08492 29.9991C4.37609 29.3528 4.98402 28.8755 5.66467 28.807C7.74586 28.643 10.3108 28.2437 13.3588 27.65C12.4645 30.7697 11.9005 33.2848 11.7084 35.1143C11.6163 35.8051 11.206 36.4084 10.5617 36.6813L1.61938 40.6255C1.4988 40.6639 1.37893 40.6616 1.30046 40.5787C1.18276 40.4542 1.18563 40.2913 1.30765 40.1714L6.63785 34.814C6.80053 34.6542 7.04169 34.5773 7.2807 34.6226Z" fill="white"/>
</g>
<defs>
<linearGradient id="paint0_linear" x1="34.4372" y1="1.88312" x2="35.9853" y2="27.6856" gradientUnits="userSpaceOnUse">
<stop stop-color="#FFF800"/>
<stop offset="1" stop-color="#FF0071"/>
</linearGradient>
<linearGradient id="paint1_linear" x1="39.8852" y1="5.34344" x2="41.624" y2="38.6141" gradientUnits="userSpaceOnUse">
<stop stop-color="#01FFE4"/>
<stop offset="1" stop-color="#FF00E4"/>
</linearGradient>
<clipPath id="clip0">
<rect width="40.78" height="40.78" fill="white"/>
</clipPath>
</defs>
</svg>
