<?xml version="1.0" encoding="UTF-8"?>
<svg width="150px" height="152px" viewBox="0 0 150 152" version="1.1" xmlns="http://www.w3.org/2000/svg" xmlns:xlink="http://www.w3.org/1999/xlink">
    <!-- Generator: Sketch 52.2 (67145) - http://www.bohemiancoding.com/sketch -->
    <title>Group 11</title>
    <desc>Created with Sketch.</desc>
    <defs>
        <linearGradient x1="98.3450479%" y1="100%" x2="-38.6006089%" y2="-53.2001271%" id="linearGradient-1">
            <stop stop-color="#F8FBFF" stop-opacity="0.04" offset="0%"></stop>
            <stop stop-color="#EEF6FF" stop-opacity="0.08" offset="100%"></stop>
        </linearGradient>
        <linearGradient x1="98.3450479%" y1="100%" x2="-38.6006089%" y2="-53.2001271%" id="linearGradient-2">
            <stop stop-color="#F8FBFF" stop-opacity="0.04" offset="0%"></stop>
            <stop stop-color="#F5FAFF" stop-opacity="0.0495531997" offset="23.8829992%"></stop>
            <stop stop-color="#EEF6FF" stop-opacity="0.08" offset="100%"></stop>
        </linearGradient>
    </defs>
    <g id="Page-1" stroke="none" stroke-width="1" fill="none" fill-rule="evenodd" stroke-opacity="0.118963068">
        <g id="Learn-Hub" transform="translate(-956.000000, -600.000000)" stroke="#FFFFFF">
            <g id="Group" transform="translate(134.000000, 583.000000)">
                <g id="Mask-+-Learn-Hub-Mask-Copy-2" transform="translate(806.000000, 0.000000)">
                    <g id="Group-11" transform="translate(16.000000, 17.000000)">
                        <path d="M148.992929,0.65520992 C127.508985,5.08537398 110.368699,7.90468335 96.6208494,9.20452395 C92.1659304,9.71992556 88.1254284,12.8103329 86.2334407,17.0626129 L60.2335956,79.8916435 C60.0014997,80.5763644 60.3022816,81.3454063 61.0226709,81.705086 C61.6274888,81.9033429 62.2712356,81.7306921 62.7287582,81.2807747 L99.8101241,44.5432821 C100.818905,43.5512594 101.296401,42.0754868 101.044288,40.5458657 C101.044288,40.3757908 101.044288,40.3757908 101.044288,40.2737458 C101.044288,40.1717008 101.044288,40.1717008 101.044288,40.0016259 C101.044288,39.9676109 101.044288,39.9676109 101.044288,39.865566 C101.044288,39.763521 101.044288,39.763521 101.047449,39.7856428 C100.753755,37.1863069 101.635694,34.5844411 103.407442,32.8421262 C106.6474,29.65599 112.492361,29.9296978 115.992904,33.3726497 C119.710382,36.7471627 119.896744,42.5200529 116.560855,45.8005261 C114.612395,47.7166179 112.31172,48.4236353 109.569073,48.1209832 C109.292356,48.1209832 109.292356,48.1209832 109.292356,48.1209832 L109.087698,48.1209832 L108.941777,47.9774853 C108.828748,47.8663344 108.757683,47.8488633 108.462206,47.8488633 L108.381336,47.84228 C106.903667,47.600093 105.396353,48.0717257 104.389332,49.0619733 L68.1354252,85.5300321 C67.5045019,86.1504745 67.5045019,86.9177845 68.1354252,87.5382269 C68.4907785,87.887677 69.0834168,87.9406582 69.7943853,87.7104447 L131.232092,60.2234427 C135.380955,58.4384679 138.133172,54.5923932 138.679794,50.0250506 C139.76112,38.06222 143.221199,21.5650349 148.992929,0.65520992 Z" id="Combined-Shape_3_" fill="url(#linearGradient-1)"></path>
                        <path d="M4.33892755,46.3275666 L96.8141907,146.456918" id="Path-4" fill="url(#linearGradient-2)"></path>
                        <rect id="Rectangle" fill="#757474" x="43.8892755" y="89.9229773" width="15.2709783" height="15.160779"></rect>
                        <ellipse id="Oval" fill="#757474" cx="4.33892755" cy="46.3275666" rx="3.83892755" ry="3.80954108"></ellipse>
                        <ellipse id="Oval-Copy" fill="#757474" cx="98.7106017" cy="147.601782" rx="3.83892755" ry="3.80954108"></ellipse>
                    </g>
                </g>
            </g>
        </g>
    </g>
</svg>