<?xml version="1.0" encoding="UTF-8"?>
<svg width="116px" height="116px" viewBox="0 0 116 116" version="1.1" xmlns="http://www.w3.org/2000/svg" xmlns:xlink="http://www.w3.org/1999/xlink">
    <!-- Generator: Sketch 52.2 (67145) - http://www.bohemiancoding.com/sketch -->
    <title>newsletter</title>
    <desc>Created with Sketch.</desc>
    <defs>
        <linearGradient x1="100%" y1="0%" x2="50%" y2="80.858961%" id="linearGradient-1">
            <stop stop-color="#FFF800" offset="0%"></stop>
            <stop stop-color="#FF0071" offset="100%"></stop>
        </linearGradient>
        <linearGradient x1="39.4788474%" y1="0%" x2="-8.88191659%" y2="121.469358%" id="linearGradient-2">
            <stop stop-color="#01FFE4" offset="0%"></stop>
            <stop stop-color="#FF00E4" offset="100%"></stop>
        </linearGradient>
    </defs>
    <g id="Page-1" stroke="none" stroke-width="1" fill="none" fill-rule="evenodd">
        <g id="Newsletter" transform="translate(-661.000000, -234.000000)" fill-rule="nonzero">
            <g id="Group" transform="translate(398.000000, 177.000000)">
                <g id="newsletter" transform="translate(263.000000, 57.000000)">
                    <path d="M57.999836,91 C57.5282774,91 57.0592405,90.8682667 56.6456812,90.6048 L1.1682025,55.1381333 C0.401604611,54.6492 -0.0422152185,53.7802667 0.00317544586,52.8682667 C0.0510878138,51.9588 0.580645565,51.1405333 1.39515582,50.7326667 L57.999836,15 L114.604516,50.7326667 C115.416505,51.1405333 115.948584,51.9562667 115.996497,52.8682667 C116.044409,53.7802667 115.598067,54.6466667 114.831469,55.1381333 L59.3539908,90.6048 C58.9404314,90.8682667 58.4713945,91 57.999836,91 Z" id="Path" fill="#2C2C2C"></path>
                    <path d="M96,93 L20,93 L20,2.51351351 C20,1.12605405 21.1349333,0 22.5333333,0 L93.4666667,0 C94.8650667,0 96,1.12605405 96,2.51351351 L96,93 Z" id="Path" fill="#FFFFFF"></path>
                    <path d="M113.484744,116 C113.273462,116 113.059665,115.97228 112.850899,115.91936 L55,100.79936 L55.6338446,83.24 L116,53 L116,113.48 C116,114.2612 115.637803,114.99704 115.021565,115.47584 C114.57888,115.81856 114.035585,116 113.484744,116 Z" id="Path" fill="url(#linearGradient-1)"></path>
                    <path d="M113.477084,116 L2.52171298,116 C1.1272057,116 0,114.87104 0,113.48 L0,53 L114.684985,111.26744 C115.696191,111.81932 116.208099,112.98608 115.920624,114.10244 C115.63567,115.2188 114.629507,116 113.477084,116 Z" id="Path" fill="url(#linearGradient-2)"></path>
                    <path d="M78.4444444,23 L37.5555556,23 C36.1448889,23 35,21.8825 35,20.5 C35,19.1175 36.1448889,18 37.5555556,18 L78.4444444,18 C79.8551111,18 81,19.1175 81,20.5 C81,21.8825 79.8551111,23 78.4444444,23 Z" id="Path" fill="#000000"></path>
                    <path d="M78.4444444,40 L37.5555556,40 C36.1448889,40 35,38.8825 35,37.5 C35,36.1175 36.1448889,35 37.5555556,35 L78.4444444,35 C79.8551111,35 81,36.1175 81,37.5 C81,38.8825 79.8551111,40 78.4444444,40 Z" id="Path" fill="#000000"></path>
                    <path d="M60.4545455,58 L37.5454545,58 C36.1403636,58 35,56.8825 35,55.5 C35,54.1175 36.1403636,53 37.5454545,53 L60.4545455,53 C61.8596364,53 63,54.1175 63,55.5 C63,56.8825 61.8596364,58 60.4545455,58 Z" id="Path" fill="#000000"></path>
                </g>
            </g>
        </g>
    </g>
</svg>