<?xml version="1.0" encoding="UTF-8"?>
<svg width="255px" height="240px" viewBox="0 0 255 240" version="1.1" xmlns="http://www.w3.org/2000/svg" xmlns:xlink="http://www.w3.org/1999/xlink">
    <!-- Generator: Sketch 52.2 (67145) - http://www.bohemiancoding.com/sketch -->
    <title>arabica-1</title>
    <desc>Created with Sketch.</desc>
    <defs>
        <linearGradient x1="100%" y1="0%" x2="0%" y2="100%" id="linearGradient-1">
            <stop stop-color="#7F80E4" offset="0%"></stop>
            <stop stop-color="#4D4FFF" offset="100%"></stop>
        </linearGradient>
        <linearGradient x1="100%" y1="0%" x2="0%" y2="100%" id="linearGradient-2">
            <stop stop-color="#FFA900" offset="0%"></stop>
            <stop stop-color="#FF7C38" offset="100%"></stop>
        </linearGradient>
        <linearGradient x1="13.5366937%" y1="92.2846289%" x2="82.9938178%" y2="11.5068356%" id="linearGradient-3">
            <stop stop-color="#FF0071" offset="0%"></stop>
            <stop stop-color="#FFF800" offset="100%"></stop>
        </linearGradient>
        <linearGradient x1="100%" y1="0%" x2="0%" y2="100%" id="linearGradient-4">
            <stop stop-color="#01FFE4" offset="0%"></stop>
            <stop stop-color="#01B2FF" offset="100%"></stop>
        </linearGradient>
    </defs>
    <g id="404" stroke="none" stroke-width="1" fill="none" fill-rule="evenodd">
        <g id="Vectornator-404-white-Copy" transform="translate(-633.000000, -192.000000)" fill-rule="nonzero">
            <g id="arabica-1" transform="translate(633.000000, 192.000000)">
                <path d="M64.6117647,189.772549 C62.6718954,176.047059 57.2339869,162.645752 50.075817,150.839216 C49.254902,149.479739 47.524183,149.955556 46.9856209,151.24183 C44.0052288,158.379085 43.9215686,166.431373 42.9385621,174.007843 C42.4130968,177.864797 42.3079054,181.767399 42.6248366,185.647059 C36.3503268,177.281046 28.5071895,170.583007 21.1084967,162.912418 C20.130719,161.89281 18.1333333,162.630065 18.2222222,164.109804 C18.9699346,176.59085 19.7594771,189.244444 24.5751634,200.784314 C22.1756111,199.501234 19.599647,198.579737 16.930719,198.049673 C12.0575163,197.124183 7.0745098,196.935948 2.20130719,196.078431 C0.909803922,195.848366 -0.653594771,197.244444 0.292810458,198.562092 C7.33047124,208.449683 16.8392022,216.317735 27.869281,221.380392 C28.4661574,221.638111 29.1547202,221.561814 29.6806966,221.179677 C30.2066729,220.797539 30.492023,220.166258 30.4313725,219.518954 L48.3973856,215.335948 C48.6541997,216.204353 49.5165759,216.746418 50.4104575,216.601307 C63.0013072,214.541176 66.1281046,200.481046 64.6117647,189.772549 Z" id="Path" fill="url(#linearGradient-1)"></path>
                <path d="M181.139869,194.823529 C169.676281,196.319318 158.523497,199.628619 148.099346,204.627451 C152.874946,196.798257 157.328105,188.780828 161.458824,180.575163 C161.826175,179.910305 161.709272,179.082603 161.172158,178.545489 C160.635044,178.008375 159.807342,177.891472 159.142484,178.258824 C144.203922,186.389542 129.526797,196.156863 120.355556,210.813072 C119.90179,210.910154 119.522389,211.219512 119.335948,211.644444 C116.747712,216.831373 110.635294,220.972549 111.597386,227.471895 C112.50719,233.626144 119.686275,234.734641 124.779085,235.105882 C132.444444,235.665359 140.350327,234.436601 147.926797,233.375163 C154.901961,232.397386 162.69281,231.769935 168.601307,227.571242 C169.647059,226.818301 169.762092,224.75817 168.198693,224.481046 C162.771303,223.513517 157.290208,222.87618 151.785621,222.572549 C163.123052,215.813137 173.412103,207.433575 182.326797,197.699346 C183.205229,196.75817 182.703268,194.619608 181.139869,194.823529 Z" id="Path" fill="url(#linearGradient-2)"></path>
                <path d="M52.4130719,196.763399 C50.7869281,192.878431 46.5045752,187.691503 41.6679739,188.475817 C38.3006536,188.998693 37.8143791,192.616993 38.2379085,196.104575 C35.7124183,194.4 32.8313725,193.673203 30.9699346,196.512418 C27.9738562,201.087582 34.3058824,206.373856 37.6941176,208.449673 C39.3620915,209.495425 40.8941176,207.231373 39.8640523,205.939869 L49.5215686,198.222222 C50.6718954,199.424837 53.1607843,198.546405 52.4130719,196.763399 Z" id="Path" fill="url(#linearGradient-2)"></path>
                <path d="M19.6862745,205.291503 C16.3869281,206.530719 15.4666667,210.326797 15.6183007,214.023529 C12.5960784,211.252288 8.85228758,209.155556 6.54640523,212.329412 C3.23660131,216.888889 8.30849673,225.05098 11.3045752,228.428758 C12.6745098,229.997386 14.8810458,227.905882 13.8875817,226.305882 L26.5202614,217.856209 C27.4196078,219.28366 30.0653595,218.379085 29.5633987,216.465359 C28.5281046,212.496732 25.5477124,203.095425 19.6862745,205.291503 Z" id="Path" fill="url(#linearGradient-2)"></path>
                <path d="M71.6078431,128.930719 C66.6823529,127.675817 61.254902,126.562092 56.3816993,128.59085 C53.469281,129.803922 50.5045752,132.120261 50.1751634,135.482353 C49.6888889,140.475817 53.8875817,143.048366 58.4156863,144.763399 C53.8091503,146.044444 49.4588235,148.726797 48.5647059,153.024837 C47.5189542,158.117647 51.2679739,160.915033 55.6705882,162.253595 C52.3712418,164.12549 49.7045752,167.037908 48.9830065,170.813072 C48.0784314,175.550327 52.0627451,177.908497 56.4339869,179.179085 C54.7194593,180.206702 53.5277388,181.920038 53.1607843,183.884967 C52.0522876,190.117647 58.7712418,192.920261 63.5921569,194.122876 C65.6836601,194.645752 66.6039216,191.388235 64.4915033,190.860131 L64.2352941,190.797386 L65.4535948,180.198693 C65.9305146,179.606294 66.0241143,178.792384 65.6941176,178.10719 L70.9647059,132.230065 C72.8836601,132.449673 73.6261438,129.443137 71.6078431,128.930719 Z" id="Path" fill="url(#linearGradient-2)"></path>
                <path d="M144.162092,121.134641 C147.064052,120.773856 149.971242,120.287582 152.141176,118.154248 C153.709804,116.622222 151.299346,114.23268 149.751634,115.764706 C148.282353,117.213072 146.133333,117.511111 144.16732,117.756863 C143.247214,117.786698 142.508267,118.525645 142.478431,119.445752 C142.478431,120.271895 143.262745,121.249673 144.16732,121.134641 L144.162092,121.134641 Z" id="Path" fill="#FF0071"></path>
                <path d="M136.873203,157.908497 C134.350263,152.677529 131.110364,147.823839 127.247059,143.487582 C124.63268,140.522876 121.281046,136.8 117.584314,134.698039 C120.470588,131.670588 123.440523,128.726797 126.368627,125.746405 C127.848366,124.240523 129.579085,122.755556 130.870588,121.071895 C132.569935,118.849673 131.356863,117.322876 130.436601,114.975163 C128.977778,111.262745 128.413072,106.389542 123.733333,106.086275 C118.329232,105.790955 112.910479,105.90807 107.524183,106.436601 C97.124183,107.372549 86.0862745,109.605229 77.8143791,116.397386 C68.5647059,124.005229 62.6509804,135.220915 60.0366013,146.786928 C56.669281,161.709804 58.1333333,177.071895 60.1150327,192.088889 C54.596935,191.208407 48.9455931,192.320511 44.172549,195.226144 C41.6215645,196.743306 39.3707562,198.715864 37.5320261,201.045752 C36.4358985,202.43376 35.5172546,203.953124 34.7973856,205.568627 C34.2065359,206.912418 34.0339869,208.705882 33.2862745,209.934641 C32.2405229,211.681046 29.8300654,210.90719 27.9947712,211.016993 C26.4320904,211.119134 24.8826464,211.369496 23.3673203,211.764706 C20.0204875,212.646438 16.8783263,214.174001 14.1176471,216.261438 C8.60956523,220.296201 4.92303435,226.347676 3.86405229,233.09281 C3.70718954,234.138562 4.2875817,235.231373 5.49542484,235.231373 L43.9738562,235.231373 C67.7333333,235.231373 95.3620915,240.277124 116.915033,227.644444 C130.20329,219.85962 139.413826,206.643838 142.117647,191.482353 C143.786182,180.018314 141.958451,168.317552 136.873203,157.908497 Z" id="Path" fill="#FF0071"></path>
                <path d="M225.291503,68.4601307 C222.995889,63.276893 217.696525,60.089736 212.041938,60.4915432 C206.387351,60.8933504 201.591909,64.7978304 200.052288,70.2535948 C196.752941,82.0444444 210.27451,91.8640523 220.444444,85.0875817 C225.945098,81.4431373 227.743791,74.4313725 225.291503,68.4601307 Z" id="Path" fill="url(#linearGradient-2)" opacity="0.400000006"></path>
                <path d="M221.484967,90.9385621 L221.484967,90.9071895 C221.597911,90.6152864 221.584656,90.2896031 221.448366,90.0078431 L206.745098,56.8104575 C206.462718,56.2010014 205.74764,55.9256156 205.129412,56.1882353 L187.937255,63.7908497 C187.327799,64.0732301 187.052413,64.7883076 187.315033,65.4065359 L189.160784,69.5895425 L135.947712,93.1503268 L127.717647,96.8104575 C127.108191,97.0928379 126.832805,97.8079154 127.095425,98.4261438 L128.664052,101.966013 L113.464052,108.690196 C112.854596,108.972576 112.57921,109.687654 112.84183,110.305882 L113.945098,112.8 L107.905882,115.477124 C107.296426,115.759505 107.02104,116.474582 107.28366,117.09281 L109.971242,123.15817 C110.253622,123.767626 110.9687,124.043012 111.586928,123.780392 L117.647059,121.103268 L118.750327,123.597386 C119.032707,124.206842 119.747785,124.482228 120.366013,124.219608 L135.571242,117.484967 L137.139869,121.024837 C137.42225,121.634293 138.137327,121.909679 138.755556,121.647059 L197.103268,95.8065359 L200.172549,94.4470588 L202.018301,98.6300654 C202.300681,99.2395214 203.015759,99.5149073 203.633987,99.2522876 L220.84183,91.6287582 C221.129883,91.5115728 221.356873,91.2808005 221.469281,90.9908497 L221.484967,90.9385621 Z" id="Path" fill="#FFFFFF"></path>
                <path d="M135.921569,115.294118 L130.661438,103.419608 C130.023529,101.976471 127.780392,102.969935 128.423529,104.413072 L133.68366,116.287582 C134.321569,117.730719 136.564706,116.737255 135.921569,115.294118 Z" id="Path" fill="url(#linearGradient-2)"></path>
                <path d="M117.568627,118.886275 L115.555556,114.337255 C114.917647,112.894118 112.67451,113.887582 113.317647,115.330719 L115.330719,119.879739 C115.968627,121.322876 118.211765,120.329412 117.568627,118.886275 Z" id="Path" fill="url(#linearGradient-2)"></path>
                <path d="M199.864052,91.8065359 L190.687582,71.1111111 C190.049673,69.6679739 187.806536,70.6614379 188.449673,72.1045752 L197.647059,92.8 C198.284967,94.2431373 200.528105,93.2496732 199.884967,91.8065359 L199.864052,91.8065359 Z" id="Path" fill="url(#linearGradient-2)"></path>
                <path d="M217.877124,88.8156863 L205.00915,59.7594771 C204.371242,58.3163399 202.128105,59.3098039 202.771242,60.7529412 L215.639216,89.8091503 C216.277124,91.2522876 218.520261,90.2588235 217.877124,88.8156863 Z" id="Path" fill="url(#linearGradient-2)"></path>
                <path d="M104.962092,117.730719 C101.145098,113.213072 94.2849673,113.155556 89.7986928,116.768627 C85.2444444,120.428758 83.7437908,127.424837 87.524183,132.198693 C91.7960784,137.589542 100.951634,137.694118 105.437908,132.575163 C105.491231,132.510552 105.540143,132.442424 105.584314,132.371242 C105.624932,132.3279 105.663325,132.282526 105.699346,132.235294 C108.726797,127.932026 108.339869,121.735948 104.962092,117.730719 Z" id="Path" fill="#FFFFFF"></path>
                <path d="M102.886275,126.35817 C103.503268,123.534641 102.467974,120.606536 99.7490196,119.247059 C96.9421452,117.868017 93.5474174,118.807127 91.848366,121.43268 C90.8844157,122.907658 90.5752042,124.716302 90.994394,126.427746 C91.4135838,128.13919 92.5236447,129.600208 94.0601307,130.462745 C97.3019608,132.188235 101.139869,130.337255 102.577778,127.210458 C102.659465,127.074769 102.722763,126.92883 102.766013,126.776471 C102.823182,126.642525 102.863575,126.502026 102.886275,126.35817 Z" id="Path" fill="url(#linearGradient-1)"></path>
                <path d="M147.168627,112.559477 C148.148219,114.137376 148.94964,115.819132 149.55817,117.573856 C150.264052,119.618301 153.532026,118.739869 152.820915,116.67451 C152.11996,114.637242 151.195823,112.683753 150.065359,110.849673 C148.92549,108.998693 145.997386,110.698039 147.142484,112.554248 L147.168627,112.559477 Z" id="Path" fill="#FF0071"></path>
                <path d="M151.184314,109.803922 C151.83551,111.392511 152.269911,113.061526 152.475817,114.766013 C152.50309,115.687228 153.243491,116.427629 154.164706,116.454902 C155.001307,116.454902 155.95817,115.675817 155.853595,114.766013 C155.650951,112.757226 155.176009,110.785338 154.44183,108.904575 C154.171523,108.01581 153.251101,107.495771 152.350327,107.722876 C151.545098,107.942484 150.828758,108.951634 151.168627,109.814379 L151.184314,109.803922 Z" id="Path" fill="#FF0071"></path>
                <path d="M156.031373,109.830065 C156.465731,111.316067 156.335371,112.910191 155.665359,114.305882 C154.713725,116.256209 157.631373,117.966013 158.588235,116.010458 C159.696096,113.820698 159.949578,111.297067 159.299346,108.930719 C158.724183,106.839216 155.461438,107.722876 156.036601,109.830065 L156.031373,109.830065 Z" id="Path" fill="#FF0071"></path>
                <path d="M106.598693,103.105882 C104.695425,104.047059 102.778214,104.969063 100.847059,105.871895 C98.5568627,98.1699346 90.0183007,93.7411765 82.3581699,97.1189542 C74.3686275,100.643137 72.303268,110.065359 76.6065359,117.045752 C73.620915,118.44183 70.6457516,119.858824 67.6915033,121.322876 C65.7411765,122.290196 67.4509804,125.207843 69.4013072,124.245752 C82.2431373,117.882353 95.4248366,112.381699 108.271895,106.028758 C110.258824,105.061438 108.54902,102.143791 106.598693,103.105882 Z" id="Path" fill="#000000"></path>
                <path d="M81.4222222,115.15817 C86.9089325,112.718083 92.3694989,110.230937 97.8039216,107.696732 C99.7751634,106.776471 98.0601307,103.858824 96.0993464,104.773856 C90.6614379,107.315033 85.2008715,109.802179 79.7176471,112.235294 C77.730719,113.113725 79.4509804,116.031373 81.4222222,115.15817 Z" id="Path" fill="url(#linearGradient-2)"></path>
                <path d="M134.901961,232.543791 C136.212071,231.252965 137.424963,229.867053 138.530719,228.397386 C139.084967,227.670588 138.645752,226.504575 137.924183,226.081046 C137.113866,225.633176 136.09467,225.900053 135.607843,226.687582 C134.660655,227.915937 133.624302,229.072878 132.50719,230.14902 C130.938562,231.670588 133.338562,234.060131 134.896732,232.538562 L134.901961,232.543791 Z" id="Path" fill="#FF0071"></path>
                <path d="M124.444444,210.342484 C131.478867,212.228322 138.450545,214.298911 145.359477,216.554248 C149.511111,217.903268 151.288889,211.372549 147.15817,210.028758 C140.235294,207.77342 133.263617,205.702832 126.243137,203.816993 C122.033987,202.687582 120.235294,209.213072 124.444444,210.342484 Z" id="Path" fill="#FF0071"></path>
                <path d="M149.495425,214.060131 C150.105524,212.478885 150.600069,210.855449 150.975163,209.202614 C151.456209,207.084967 148.198693,206.180392 147.712418,208.303268 C147.337324,209.956103 146.842779,211.579538 146.23268,213.160784 C145.98494,214.064224 146.512681,214.99828 147.414379,215.252288 C148.315916,215.485128 149.240095,214.962967 149.505882,214.070588 L149.495425,214.060131 Z" id="Path" fill="#FF0071"></path>
                <path d="M119.660131,135.785621 C118.797386,135.111111 117.636601,135.11634 117.003922,136.12549 C108.749042,149.18462 104.971645,164.576869 106.243137,179.973856 C107.393464,195.173856 112.585621,210.698039 122.734641,222.279739 C123.401201,222.923197 124.457622,222.923197 125.124183,222.279739 C134.41009,214.377019 140.655082,203.48803 142.786928,191.482353 C145.971242,170.279739 136.470588,148.847059 119.660131,135.785621 Z" id="Path" fill="#EAE2C2"></path>
                <path d="M83.5084967,157.866667 C90.9071895,165.594771 99.6130719,173.835294 110.347712,176.345098 C120.465359,178.708497 131.712418,177.871895 141.160784,173.484967 C150.60915,169.098039 158.169935,160.669281 161.89281,151.001307 C166.19085,139.827451 163.816993,127.236601 159.351634,116.517647 C158.305882,113.997386 155.984314,112.16732 153.108497,112.972549 C150.729412,113.636601 148.496732,116.653595 149.542484,119.215686 C153.118954,127.806536 155.649673,137.547712 152.679739,146.703268 C150.065359,154.624837 143.571242,161.343791 136.036601,164.732026 C128.956863,167.921569 120.04183,168.303268 112.564706,166.452288 C103.769935,164.271895 96.7529412,157.040523 90.6823529,150.703268 C86.1542484,145.997386 78.9856209,153.160784 83.5084967,157.877124 L83.5084967,157.866667 Z" id="Path" fill="#FF0071"></path>
                <path d="M98.4522876,202.792157 C108.843573,212.92549 119.363834,222.924619 130.013072,232.789542 C133.207843,235.738562 138.002614,230.964706 134.797386,228.005229 C124.130719,218.164706 113.610458,208.165577 103.236601,198.007843 C100.099346,194.964706 95.330719,199.743791 98.4522876,202.792157 Z" id="Path" fill="#FF0071"></path>
                <path d="M69.1921569,141.056209 C69.329358,140.447039 69.7905367,139.96273 70.3922695,139.795906 C70.9940022,139.629081 71.6387191,139.806792 72.0699984,140.258357 C72.5012777,140.709921 72.6491883,141.36212 72.454902,141.955556 L71.7751634,144.658824 C71.6379622,145.267994 71.1767836,145.752303 70.5750508,145.919127 C69.973318,146.085951 69.3286012,145.908241 68.8973219,145.456676 C68.4660426,145.005111 68.318132,144.352912 68.5124183,143.759477 L69.1921569,141.056209 Z M77.9084967,143.069281 C78.0456979,142.460111 78.5068766,141.975802 79.1086093,141.808978 C79.7103421,141.642153 80.3550589,141.819864 80.7863382,142.271428 C81.2176176,142.722993 81.3655281,143.375192 81.1712418,143.968627 L80.4653595,147.006536 C80.1839608,147.866051 79.2770429,148.352963 78.4051524,148.112634 C77.533262,147.872306 77.0038961,146.989494 77.2026144,146.10719 L77.9084967,143.069281 Z M70.7555556,156.376471 C70.7749686,155.451884 71.5198574,154.706995 72.4444444,154.687582 C73.3736433,154.696094 74.1248211,155.447272 74.1333333,156.376471 L73.7830065,160.094118 C73.7635935,161.018705 73.0187047,161.763594 72.0941176,161.783007 C71.1649188,161.774494 70.413741,161.023316 70.4052288,160.094118 L70.7555556,156.376471 Z M78.5673203,160.779085 C78.5673203,159.844894 79.3246321,159.087582 80.2588235,159.087582 C81.193015,159.087582 81.9503268,159.844894 81.9503268,160.779085 L81.9503268,162.133333 C81.9503268,163.067525 81.193015,163.824837 80.2588235,163.824837 C79.3246321,163.824837 78.5673203,163.067525 78.5673203,162.133333 L78.5673203,160.779085 Z M72.2248366,173.186928 L72.2248366,173.145098 C72.4130719,172.214379 73.4849673,171.775163 74.3163399,171.963399 C75.2087189,172.229186 75.73088,173.153365 75.4980392,174.054902 C75.4655385,174.320247 75.4550452,174.587826 75.4666667,174.854902 C75.5309601,175.212537 75.6308017,175.562858 75.7647059,175.900654 C76.1150327,176.789542 75.372549,177.735948 74.5830065,177.992157 C73.6818512,178.222114 72.7595639,177.701022 72.4915033,176.810458 C72.0564839,175.653285 71.9639062,174.395317 72.2248366,173.186928 Z M80.2509804,177.814379 C80.0210231,176.913224 80.5421154,175.990936 81.4326797,175.722876 C82.3364989,175.472055 83.2726183,176.000963 83.524183,176.904575 L83.8588235,178.593464 C84.0887808,179.494619 83.5676885,180.416907 82.6771242,180.684967 C81.773305,180.935788 80.8371856,180.40688 80.5856209,179.503268 L80.2509804,177.814379 Z M74.5673203,188.287582 C74.227451,187.424837 74.9437908,186.415686 75.7490196,186.196078 C76.6497935,185.968974 77.5702156,186.489012 77.8405229,187.377778 L79.1947712,190.760784 C79.5346405,191.623529 78.8183007,192.63268 78.0130719,192.852288 C77.112298,193.079392 76.1918759,192.559354 75.9215686,191.670588 L74.5673203,188.287582 Z M48.4078431,217.375163 L48.4078431,217.369935 C48.1264444,218.229449 47.2195265,218.716362 46.3476361,218.476033 C45.4757457,218.235704 44.9463798,217.352893 45.145098,216.470588 C45.6054154,215.014117 46.4466435,213.707145 47.5816993,212.684967 C48.007616,212.253446 48.6313928,212.081929 49.2180591,212.235023 C49.8047254,212.388117 50.2651527,212.842565 50.4259023,213.42718 C50.586652,214.011795 50.4233023,214.63776 49.9973856,215.069281 C49.6334258,215.375432 49.3101068,215.726866 49.0352941,216.115033 C48.7679309,216.503483 48.5566996,216.927706 48.4078431,217.375163 Z M55.7385621,207.210458 C54.9286041,207.661181 53.9073377,207.393761 53.4222222,206.603922 C52.9537359,205.796292 53.2245761,204.761962 54.0287582,204.287582 L56.0575163,203.278431 C56.8674744,202.827708 57.8887407,203.095128 58.3738562,203.884967 C58.8423425,204.692597 58.5715023,205.726927 57.7673203,206.201307 L55.7385621,207.210458 Z M67.069281,204.073203 C66.1350896,204.073203 65.3777778,203.315891 65.3777778,202.381699 C65.3777778,201.447508 66.1350896,200.690196 67.069281,200.690196 L68.7581699,200.690196 C69.6923614,200.690196 70.4496732,201.447508 70.4496732,202.381699 C70.4496732,203.315891 69.6923614,204.073203 68.7581699,204.073203 L67.069281,204.073203 Z M62.1960784,215.775163 L62.1856209,215.759477 C61.525767,216.419331 60.4559324,216.419331 59.7960785,215.759477 C59.1362246,215.099623 59.1362246,214.029789 59.7960784,213.369935 C60.7295462,212.428872 61.9216123,211.78643 63.220915,211.524183 C64.1220704,211.294226 65.0443577,211.815318 65.3124183,212.705882 C65.5632387,213.609702 65.0343312,214.545821 64.130719,214.797386 C63.3910729,214.886166 62.7062243,215.232292 62.1960784,215.775163 Z M77.2130719,210.839216 C76.2788804,210.839216 75.5215686,210.081904 75.5215686,209.147712 C75.5215686,208.213521 76.2788804,207.456209 77.2130719,207.456209 L77.5529412,207.456209 C78.4871326,207.456209 79.2444444,208.213521 79.2444444,209.147712 C79.2444444,210.081904 78.4871326,210.839216 77.5529412,210.839216 L77.2130719,210.839216 Z M20.2300654,230.635294 C19.6444444,231.372549 18.4522876,231.2 17.8405229,230.635294 C17.5251418,230.31621 17.3468948,229.88654 17.3437908,229.437908 C17.3582037,228.991645 17.534806,228.56594 17.8405229,228.240523 L19.1947712,226.551634 C19.7803922,225.814379 20.972549,225.986928 21.5843137,226.551634 C21.8996948,226.870719 22.0779418,227.300388 22.0810458,227.74902 C22.0666329,228.195283 21.8900306,228.620988 21.5843137,228.946405 L20.2300654,230.635294 Z M29.9712418,223.628758 C29.0889369,223.827476 28.2061258,223.298111 27.965797,222.42622 C27.7254682,221.55433 28.2123807,220.647412 29.0718954,220.366013 L31.1006536,219.691503 C31.6940889,219.497217 32.3462877,219.645128 32.7978526,220.076407 C33.2494174,220.507686 33.4271278,221.152403 33.2603035,221.754136 C33.0934791,222.355869 32.6091704,222.817047 32,222.954248 L29.9712418,223.628758 Z M31.6705882,230.431373 C30.7882833,230.630091 29.9054722,230.100725 29.6651434,229.228834 C29.4248146,228.356944 29.9117271,227.450026 30.7712418,227.168627 L32.1254902,226.828758 C32.7189255,226.634472 33.3711243,226.782382 33.8226892,227.213662 C34.274254,227.644941 34.4519644,228.289658 34.2851401,228.891391 C34.1183157,229.493123 33.634007,229.954302 33.0248366,230.091503 L31.6705882,230.431373 Z M48.627451,228.533333 C47.817493,228.984056 46.7962266,228.716637 46.3111111,227.926797 C45.8456649,227.118758 46.1159141,226.086685 46.9176471,225.610458 L48.2718954,224.935948 C49.0818534,224.485225 50.1031198,224.752644 50.5882353,225.542484 C51.0536815,226.350523 50.7834323,227.382596 49.9816993,227.858824 L48.627451,228.533333 Z M84.7581699,196.193464 C84.8953711,195.584294 85.3565498,195.099985 85.9582825,194.933161 C86.5600153,194.766336 87.2047321,194.944047 87.6360114,195.395611 C88.0672908,195.847176 88.2152013,196.499375 88.020915,197.09281 L87.330719,199.456209 C87.0493202,200.315724 86.1424024,200.802636 85.2705119,200.562308 C84.3986215,200.321979 83.8692556,199.439168 84.0679739,198.556863 L84.7581699,196.193464 Z" id="Combined-Shape" fill="url(#linearGradient-2)"></path>
                <path d="M110.881046,217.098039 C107.566013,218.771242 103.921569,219.288889 100.88366,221.542484 C100.444444,221.866667 100.015686,222.201307 99.6026144,222.546405 C100.433702,216.482041 100.837312,210.36674 100.810458,204.245752 C100.810458,202.865359 98.9124183,201.908497 97.924183,203.048366 C92.018393,209.873455 86.8759039,217.323314 82.5882353,225.265359 L74.9176471,201.118954 C74.6999075,200.400138 74.0373448,199.908545 73.2862745,199.908545 C72.5352042,199.908545 71.8726415,200.400138 71.654902,201.118954 C68.4002815,209.881702 66.6124778,219.121043 66.3633987,228.465359 C61.8335267,224.716021 57.0013761,221.347682 51.9163399,218.394771 C50.5673203,217.610458 49.1607843,218.917647 49.4326797,220.303268 C50.5568627,226.128105 52.3607843,233.547712 57.275817,237.43268 C60.1620915,239.722876 63.7071895,240.12549 67.2679739,239.879739 C71.9006536,239.560784 76.3973856,239.419608 81.0457516,239.40915 C88.5176471,239.40915 97.1816993,240.575163 103.49281,235.717647 C108.75817,231.633987 111.372549,225.166013 113.364706,219.006536 C113.845752,217.51634 112.12549,216.470588 110.881046,217.098039 Z" id="Path" fill="url(#linearGradient-1)"></path>
                <path d="M243.257516,114.290196 C243.144506,114.017487 242.985311,113.766312 242.786928,113.547712 C239.70719,109.448366 234.420915,108.653595 230.326797,112.031373 C226.90719,114.844444 225.317647,120.047059 227.498039,124.057516 C229.924183,128.554248 236.015686,129.971242 240.366013,127.430065 C245.035294,124.721569 245.573856,118.734641 243.257516,114.290196 Z" id="Path" fill="url(#linearGradient-1)"></path>
                <path d="M245.228758,15.4405229 C241.124183,12.3921569 235.816993,13.6575163 232.721569,17.5320261 C229.783007,21.1921569 229.542484,26.5986928 233.338562,29.7882353 C237.605229,33.3647059 244.71634,32.324183 248.099346,28.0470588 C248.200873,27.946196 248.29036,27.833899 248.366013,27.7124183 C250.917647,23.4718954 249.003922,18.2431373 245.228758,15.4405229 Z" id="Path" fill="url(#linearGradient-3)"></path>
                <path d="M174.541176,32.7215686 C174.018301,26.3320261 165.333333,31.4666667 161.667974,34.4679739 C156.95168,32.573563 151.577347,33.4057825 147.654902,36.6379085 C142.917647,40.5437908 141.903268,47.6705882 144.271895,53.1660131 C144.428758,53.5267974 144.601307,53.8718954 144.794771,54.2117647 C141.898039,57.8718954 139.466667,63.3777778 144.198693,65.3803922 C147.231373,66.6614379 149.85098,64.4444444 151.890196,62.4522876 C152.512418,61.8457516 153.124183,61.2235294 153.735948,60.6065359 C155.023294,60.8601085 156.340011,60.9305212 157.647059,60.8156863 C164.878431,60.1673203 169.579085,54.4888889 170.279739,47.5137255 C170.381122,45.785828 170.139439,44.0549536 169.568627,42.420915 C171.456209,39.8901961 174.823529,36.0784314 174.541176,32.7215686 Z M169.014379,33.6888889 C171.947712,33.2183007 170.10719,35.5398693 169.150327,37.0666667 C168.71634,37.7568627 168.261438,38.4366013 167.796078,39.1058824 C166.935512,37.9371261 165.892044,36.9148444 164.705882,36.0784314 C165.971242,34.9437908 167.466667,33.9398693 169.014379,33.6888889 Z M145.281046,60.1882353 C145.254902,59.0901961 145.882353,57.8928105 146.708497,56.820915 C147.721243,57.8744454 148.905915,58.7479199 150.211765,59.4039216 C148.439216,61.2444444 145.359477,64.0522876 145.281046,60.1882353 Z" id="Shape" fill="url(#linearGradient-4)"></path>
                <path d="M197.647059,137.213072 C201.997386,137.213072 202.007843,130.447059 197.647059,130.447059 C193.286275,130.447059 193.286275,137.213072 197.647059,137.213072 Z" id="Path" fill="url(#linearGradient-2)"></path>
                <path d="M202.138562,160.329412 C204.313725,160.329412 204.318954,156.946405 202.138562,156.946405 C199.95817,156.946405 199.95817,160.329412 202.138562,160.329412 Z" id="Path" fill="url(#linearGradient-2)"></path>
                <path d="M252.648366,156.721569 C254.823529,156.721569 254.828758,153.338562 252.648366,153.338562 C250.467974,153.338562 250.467974,156.721569 252.648366,156.721569 Z" id="Path" fill="url(#linearGradient-2)"></path>
                <path d="M245.882353,90.7607843 C250.23268,90.7607843 250.243137,83.9947712 245.882353,83.9947712 C241.521569,83.9947712 241.521569,90.7607843 245.882353,90.7607843 Z" id="Path" fill="url(#linearGradient-2)"></path>
                <path d="M212.062745,35.4039216 C214.237908,35.4039216 214.243137,32.020915 212.062745,32.020915 C209.882353,32.020915 209.882353,35.4039216 212.062745,35.4039216 Z" id="Path" fill="url(#linearGradient-2)"></path>
                <path d="M207.100654,3.38300654 C209.275817,3.38300654 209.281046,0 207.100654,0 C204.920261,0 204.920261,3.38300654 207.100654,3.38300654 Z" id="Path" fill="url(#linearGradient-2)"></path>
                <path d="M121.861438,68.7738562 C124.036601,68.7738562 124.04183,65.3908497 121.861438,65.3908497 C119.681046,65.3908497 119.681046,68.7738562 121.861438,68.7738562 Z" id="Path" fill="url(#linearGradient-2)"></path>
                <path d="M111.942484,37.6470588 C114.117647,37.6470588 114.122876,34.2640523 111.942484,34.2640523 C109.762092,34.2640523 109.762092,37.6470588 111.942484,37.6470588 Z" id="Path" fill="url(#linearGradient-2)"></path>
                <path d="M70.0653595,212.627451 C69.2092202,218.281308 69.1687204,224.028757 69.945098,229.694118 C70.3215686,232.486275 74.5568627,231.294118 74.1856209,228.522876 C73.5304737,223.631994 73.5709625,218.672996 74.3058824,213.793464 C74.7189542,211.027451 70.4836601,209.830065 70.0653595,212.622222 L70.0653595,212.627451 Z" id="Path" fill="#FFFFFF" opacity="0.2"></path>
                <path d="M93.6418301,210.786928 C90.6814412,214.837272 88.0432864,219.113566 85.751634,223.576471 C84.4601307,226.091503 88.2562092,228.318954 89.5477124,225.793464 C91.8360098,221.330903 94.4706621,217.054619 97.427451,213.003922 C99.0954248,210.713725 95.2836601,208.517647 93.6313725,210.786928 L93.6418301,210.786928 Z" id="Path" fill="#FFFFFF" opacity="0.2"></path>
                <path d="M102.750327,227.717647 L107.456209,224.271895 C108.413072,223.571242 108.888889,222.363399 108.245752,221.265359 C107.696732,220.324183 106.201307,219.769935 105.239216,220.475817 L100.533333,223.921569 C99.5764706,224.622222 99.1006536,225.830065 99.7437908,226.928105 C100.29281,227.869281 101.788235,228.423529 102.750327,227.717647 Z" id="Path" fill="#FFFFFF" opacity="0.2"></path>
                <path d="M54.6875817,228.627451 L56.0418301,230.31634 C56.4578728,230.731545 57.0226878,230.963119 57.6104575,230.959477 C58.1974438,230.959114 58.7607887,230.728142 59.179085,230.31634 C59.5933052,229.899643 59.8247037,229.335257 59.8222222,228.747712 C59.7937249,228.166632 59.5667048,227.612925 59.179085,227.179085 L57.8248366,225.490196 C57.4087939,225.074991 56.8439788,224.843417 56.2562092,224.847059 C55.6692228,224.847422 55.105878,225.078394 54.6875817,225.490196 C54.2733615,225.906893 54.0419629,226.471279 54.0444444,227.058824 C54.0729418,227.639904 54.2999618,228.193611 54.6875817,228.627451 Z" id="Path" fill="#FFFFFF" opacity="0.2"></path>
                <path d="M20.303268,172.183007 C21.4353416,178.035848 23.6922998,183.613429 26.9490196,188.606536 C28.4862745,190.969935 32.2928105,188.768627 30.745098,186.389542 C27.6938783,181.719531 25.5871014,176.496998 24.5437908,171.016993 C24.020915,168.240523 19.7647059,169.416993 20.303268,172.188235 L20.303268,172.183007 Z" id="Path" fill="#FFFFFF" opacity="0.2"></path>
                <path d="M141.260131,99.8117647 C155.579956,93.7568627 169.762092,87.3917211 183.806536,80.7163399 C186.363399,79.503268 184.130719,75.7124183 181.589542,76.9202614 C167.545098,83.5956427 153.36122,89.9607843 139.037908,96.0156863 C136.423529,97.1137255 138.677124,100.904575 141.254902,99.8117647 L141.260131,99.8117647 Z" id="Path" fill="#FFFFFF" opacity="0.2"></path>
                <path d="M195.189542,68.2666667 L197.552941,67.5816993 C198.338401,67.3972262 198.960003,66.7978312 199.172915,66.0195985 C199.385828,65.2413658 199.15593,64.4090138 198.573773,63.8503813 C197.991615,63.2917487 197.150493,63.0963614 196.381699,63.3411765 L194.018301,64.0261438 C193.232841,64.210617 192.611239,64.8100119 192.398326,65.5882446 C192.185414,66.3664773 192.415311,67.1988294 192.997469,67.7574619 C193.579627,68.3160944 194.420749,68.5114818 195.189542,68.2666667 Z" id="Path" fill="#574730"></path>
                <path d="M146.786928,40.1045752 C145.678431,45.5477124 145.218301,51.7437908 150.515033,55.1477124 C152.904575,56.6849673 155.111111,52.8784314 152.732026,51.351634 C149.380392,49.1973856 150.363399,44.5542484 151.027451,41.275817 C151.592157,38.5150327 147.36732,37.3333333 146.786928,40.1045752 Z" id="Path" fill="#FFFFFF" opacity="0.300000012"></path>
                <path d="M232.988235,112.449673 C230.812532,113.887762 229.767961,116.532615 230.373856,119.069281 C230.558329,119.854741 231.157724,120.476343 231.935957,120.689255 C232.71419,120.902168 233.546542,120.67227 234.105174,120.090113 C234.663807,119.507955 234.859194,118.666833 234.614379,117.898039 C234.558606,117.62963 234.546405,117.591285 234.577778,117.783007 C234.567812,117.626302 234.567812,117.469123 234.577778,117.312418 C234.551634,117.626144 234.677124,116.951634 234.713725,116.857516 C234.776175,116.70367 234.862655,116.560714 234.969935,116.433987 C234.745098,116.726797 235.49281,116.026144 235.184314,116.235294 C236.204861,115.602331 236.551728,114.281479 235.973856,113.228758 C235.40915,112.266667 233.945098,111.754248 232.96732,112.439216 L232.988235,112.449673 Z" id="Path" fill="#FFFFFF" opacity="0.300000012"></path>
                <path d="M44.324183,173.385621 C43.8252534,175.343181 43.6748097,177.373286 43.8797386,179.383007 C44.0052288,180.564706 44.8,181.579085 46.075817,181.579085 C47.1633987,181.579085 48.4026144,180.569935 48.2718954,179.383007 C48.0802126,177.769984 48.1775964,176.135708 48.5594771,174.556863 C49.2392157,171.811765 44.9986928,170.635294 44.3189542,173.385621 L44.324183,173.385621 Z" id="Path" fill="#FFFFFF" opacity="0.2"></path>
                <path d="M80.8261438,99.6653595 C78.4253924,101.37767 77.2542419,104.340353 77.8352941,107.231373 C78.0496732,108.402614 79.4666667,109.061438 80.5385621,108.768627 C81.6919998,108.424328 82.3696522,107.232673 82.075817,106.065359 C81.9281572,105.085635 82.2933427,104.098647 83.0431373,103.45098 C83.9895425,102.734641 84.4810458,101.552941 83.8326797,100.444444 C83.3098039,99.5137255 81.7777778,98.9333333 80.8261438,99.654902 L80.8261438,99.6653595 Z" id="Path" fill="#FFFFFF" opacity="0.2"></path>
                <path d="M62.8183007,150.515033 C61.6470481,161.760453 62.6067328,173.125887 65.6470588,184.015686 C66.4052288,186.739869 70.6457516,185.584314 69.8875817,182.844444 C66.9661871,172.331104 66.0596224,161.360075 67.2156863,150.509804 C67.5084967,147.696732 63.1111111,147.717647 62.8183007,150.509804 L62.8183007,150.515033 Z" id="Path" fill-opacity="0.2" fill="#FFFFFF"></path>
                <path d="M43.8222222,206.56732 C45.7786782,204.023168 48.3473608,202.01571 51.2888889,200.732026 C53.8614379,199.566013 51.6287582,195.775163 49.0718954,196.935948 C45.476014,198.599259 42.3629417,201.150898 40.0261438,204.350327 C38.3267974,206.614379 42.1176471,208.810458 43.8222222,206.56732 Z" id="Path" fill-opacity="0.2" fill="#FFFFFF"></path>
                <path d="M15.4823529,226.467974 C17.0682412,223.671012 19.7021812,221.620302 22.8026144,220.768627 C25.5215686,220 24.3712418,215.754248 21.6313725,216.528105 C17.434966,217.699516 13.8669896,220.473148 11.696732,224.25098 C10.2797386,226.708497 14.0810458,228.92549 15.4928105,226.467974 L15.4823529,226.467974 Z" id="Path" fill-opacity="0.2" fill="#FFFFFF"></path>
                <path d="M154.556863,130.928105 C158.520261,140.737255 152.988235,155.179085 144.386928,160.894118 C142.044444,162.462745 144.240523,166.264052 146.603922,164.690196 C152.08366,161.030065 155.644444,155.712418 157.803922,149.55817 C159.994771,143.28366 161.359477,136.099346 158.797386,129.762092 C157.751634,127.147712 153.495425,128.303268 154.556863,130.933333 L154.556863,130.928105 Z" id="Path" fill="#FFFFFF"></path>
                <path d="M138.776471,168.726797 C141.605229,168.726797 141.610458,164.329412 138.776471,164.329412 C135.942484,164.329412 135.942484,168.726797 138.776471,168.726797 Z" id="Path" fill="#FFFFFF"></path>
                <path d="M58.8130719,131.398693 C57.1621188,132.230865 55.7510751,133.470927 54.7137255,135.001307 C54.1095676,136.050653 54.461485,137.390736 55.503268,138.007843 C56.5559892,138.585715 57.8768412,138.238847 58.5098039,137.218301 C58.7294118,136.904575 58.4627451,137.254902 58.6091503,137.077124 C58.7555556,136.899346 58.7869281,136.862745 58.8862745,136.763399 C59.1245026,136.508261 59.3758215,136.265668 59.6392157,136.036601 C59.9006536,135.801307 59.4039216,136.198693 59.6862745,135.989542 C59.8257081,135.884967 59.9703704,135.787364 60.1202614,135.696732 C60.4150337,135.505104 60.7205454,135.330526 61.0352941,135.173856 C62.0770771,134.556749 62.4289945,133.216666 61.8248366,132.16732 C61.1935681,131.144483 59.8706719,130.797079 58.8183007,131.377778 L58.8130719,131.398693 Z" id="Path" fill="#FFFFFF" opacity="0.400000006"></path>
                <path d="M54.4418301,149.375163 C52.7331061,150.289963 51.6705918,152.074906 51.6810458,154.013072 C51.6810458,155.227376 52.6654341,156.211765 53.8797386,156.211765 C55.0940431,156.211765 56.0784314,155.227376 56.0784314,154.013072 C56.08778,153.905213 56.08778,153.796748 56.0784314,153.688889 C56.1411765,153.735948 55.9686275,154.138562 56.0784314,153.798693 L56.1777778,153.490196 C56.2196078,153.490196 55.9529412,153.924183 56.2039216,153.490196 C56.2509804,153.416993 56.4601307,153.207843 56.2666667,153.385621 C56.0732026,153.563399 56.324183,153.385621 56.3660131,153.312418 C56.5228758,153.108497 56.0732026,153.47451 56.2980392,153.354248 C56.4183007,153.291503 56.5281046,153.218301 56.648366,153.155556 C57.690149,152.538448 58.0420664,151.198365 57.4379085,150.14902 C56.80664,149.126182 55.4837438,148.778778 54.4313725,149.359477 L54.4418301,149.375163 Z" id="Path" fill="#FFFFFF" opacity="0.400000006"></path>
                <path d="M52.9934641,165.416993 L51.979085,167.445752 C51.3926627,168.497405 51.741158,169.824456 52.7686275,170.452288 C53.7673203,170.975163 55.2261438,170.760784 55.7751634,169.662745 L56.7895425,167.633987 C57.3759648,166.582334 57.0274695,165.255282 56,164.627451 C55.0013072,164.104575 53.5424837,164.318954 52.9934641,165.416993 Z" id="Path" fill="#FFFFFF" opacity="0.400000006"></path>
                <path d="M44.0679739,189.699346 L43.3986928,189.699346 C42.1843883,189.699346 41.2,190.683735 41.2,191.898039 C41.2,193.112344 42.1843883,194.096732 43.3986928,194.096732 L44.0732026,194.096732 C45.2875071,194.096732 46.2718954,193.112344 46.2718954,191.898039 C46.2718954,190.683735 45.2875071,189.699346 44.0732026,189.699346 L44.0679739,189.699346 Z" id="Path" fill="#FFFFFF" opacity="0.400000006"></path>
                <path d="M22.7555556,209.673203 C25.5843137,209.673203 25.5895425,205.275817 22.7555556,205.275817 C19.9215686,205.275817 19.9215686,209.673203 22.7555556,209.673203 Z" id="Path" fill="#FFFFFF" opacity="0.400000006"></path>
                <path d="M158.954248,206.19085 C162.603666,204.874186 166.16782,203.332223 169.626144,201.573856 C172.146405,200.287582 169.924183,196.496732 167.40915,197.777778 C164.292015,199.370252 161.078838,200.767285 157.788235,201.960784 C155.147712,202.917647 156.287582,207.189542 158.959477,206.201307 L158.954248,206.19085 Z" id="Path" fill="#FFFFFF" opacity="0.400000006"></path>
                <path d="M148.08366,194.337255 C149.259261,192.766814 150.727647,191.438697 152.407843,190.426144 C154.818301,188.951634 152.611765,185.145098 150.19085,186.630065 C147.88281,188.056233 145.877142,189.921557 144.287582,192.120261 C143.581699,193.077124 144.12549,194.572549 145.077124,195.126797 C146.19085,195.780392 147.377778,195.299346 148.08366,194.337255 Z" id="Path" fill="#FFFFFF" opacity="0.400000006"></path>
                <path d="M149.6,229.610458 C152.40645,229.293858 155.232095,229.180273 158.054902,229.270588 C160.88366,229.359477 160.88366,224.962092 158.054902,224.873203 C155.232095,224.782887 152.40645,224.896472 149.6,225.213072 C146.818301,225.526797 146.786928,229.918954 149.6,229.610458 Z" id="Path" fill="#FFFFFF" opacity="0.400000006"></path>
                <path d="M236.376471,16.7320261 C233.628982,18.6830483 232.320224,22.0920024 233.056209,25.3803922 C233.647059,28.1464052 237.887582,26.9751634 237.296732,24.2091503 C237.020297,22.8432838 237.518803,21.436212 238.593464,20.5490196 C239.539869,19.8379085 240.031373,18.6509804 239.383007,17.5424837 C238.860131,16.6065359 237.328105,16.0366013 236.376471,16.7529412 L236.376471,16.7320261 Z" id="Path" fill="#FFFFFF" opacity="0.300000012"></path>
            </g>
        </g>
    </g>
</svg>