<svg width="24" height="24" viewBox="0 0 24 24" fill="none" xmlns="http://www.w3.org/2000/svg">
<path d="M18.2929 16.7448C18.6834 17.1353 18.6834 17.7685 18.2929 18.159C17.9024 18.5495 17.2692 18.5495 16.8787 18.159L12.215 13.4953L7.70711 18.0033C7.31658 18.3938 6.68342 18.3938 6.29289 18.0033C5.90237 17.6127 5.90237 16.9796 6.29289 16.5891L10.8008 12.0811L6.58252 7.86284C6.192 7.47232 6.192 6.83915 6.58252 6.44863C6.97305 6.0581 7.60621 6.0581 7.99674 6.44863L12.215 10.6669L16.5891 6.29289C16.9796 5.90237 17.6127 5.90237 18.0033 6.29289C18.3938 6.68342 18.3938 7.31658 18.0033 7.70711L13.6292 12.0811L18.2929 16.7448Z" fill="white"/>
</svg>
