<?xml version="1.0" encoding="UTF-8"?>
<svg width="886px" height="914px" viewBox="0 0 886 914" version="1.1" xmlns="http://www.w3.org/2000/svg" xmlns:xlink="http://www.w3.org/1999/xlink">
    <title>Group 14</title>
    <defs>
        <radialGradient cx="50%" cy="50%" fx="50%" fy="50%" r="17.2068171%" gradientTransform="translate(0.500000,0.500000),scale(1.000000,0.888584),rotate(-59.508206),scale(1.000000,2.329972),translate(-0.500000,-0.500000)" id="radialGradient-1">
            <stop stop-color="#F7821B" stop-opacity="0.754195633" offset="0%"></stop>
            <stop stop-color="#F7821B" stop-opacity="0" offset="100%"></stop>
        </radialGradient>
    </defs>
    <g id="Page-1" stroke="none" stroke-width="1" fill="none" fill-rule="evenodd">
        <g id="Illustrator" transform="translate(-417.000000, -3172.000000)">
            <g id="Group-27" transform="translate(417.000000, 3172.750000)">
                <g id="Group-14" transform="translate(0.750000, 0.066987)">
                    <g id="Group-13" transform="translate(442.433013, 456.750000) rotate(-30.000000) translate(-442.433013, -456.750000) translate(132.933013, 108.750000)" fill="url(#radialGradient-1)" fill-rule="nonzero">
                        <path d="M294.488454,0.178815841 L402.25213,186.480816 L617.477754,186.656775 L617.477754,188.656775 L403.40913,188.481816 L417.03913,212.045816 L617.736085,212.209334 L617.736085,214.209333 L418.19713,214.046816 L433.11913,239.843816 L617.86044,239.993944 L617.86044,241.993943 L434.27613,241.844816 L448.40713,266.274816 L617.618771,266.412528 L617.618771,268.412527 L449.56513,268.275816 L463.98413,293.204816 L618.243126,293.331112 L618.243126,295.331112 L465.14213,295.205816 L479.77413,320.502816 L617.501456,320.615722 L617.501456,322.615721 L480.93213,322.503816 L495.35213,347.433816 L618.125812,347.534306 L618.125812,349.534306 L496.51013,349.434816 L510.64113,373.865816 L617.884142,373.952891 L617.884142,375.95289 L511.79913,375.866816 L526.72013,401.662816 L618.008498,401.7375 L618.008498,403.7375 L527.87813,403.663816 L542.00913,428.093816 L617.766828,428.156085 L617.766828,430.156084 L543.16613,430.094816 L558.08813,455.891816 L617.891184,455.940694 L617.891184,457.940694 L559.24513,457.892816 L572.87513,481.455816 L618.149514,481.493253 L618.149514,483.493253 L574.03313,483.456816 L588.16413,507.887816 L617.907844,507.911838 L617.907844,509.911837 L589.32213,509.888816 L603.648686,534.656796 L601.916635,535.656796 L587.01013,509.886816 L559.78913,509.864816 L581.390356,547.209354 L579.658305,548.209354 L557.47713,509.862816 L527.67513,509.838816 L557.266,560.993964 L555.533949,561.993964 L525.36413,509.836816 L497.14113,509.813816 L534.50767,574.412548 L532.775619,575.412548 L494.83013,509.811816 L466.03013,509.788816 L510.883314,587.331133 L509.151263,588.331133 L463.71813,509.786816 L434.49413,509.762816 L487.624984,601.615742 L485.892933,602.615742 L432.18213,509.760816 L403.38213,509.737816 L464.000628,614.534327 L462.268578,615.534327 L401.07113,509.735816 L372.84813,509.712816 L441.242298,627.952911 L439.510247,628.952911 L370.53613,509.710816 L340.73513,509.686816 L417.117942,641.737521 L415.385892,642.737521 L338.42313,509.684816 L310.20013,509.661816 L394.359612,655.156105 L392.627561,656.156105 L307.88913,509.659816 L278.08813,509.635816 L370.235257,668.940715 L368.503206,669.940715 L275.77613,509.633816 L248.55413,509.611816 L347.976926,681.493274 L346.244876,682.493274 L246.24313,509.609816 L218.02013,509.586816 L325.218596,694.911858 L323.486545,695.911858 L215.70813,509.584816 L0.456220219,509.410213 L0.456220219,507.410213 L214.55113,507.583816 L200.41913,483.152816 L0.69788997,482.991628 L0.69788997,480.991628 L199.26213,481.151816 L185.63213,457.588816 L0.439559721,457.43907 L0.439559721,455.43907 L184.47513,455.587816 L169.55313,429.790816 L0.315204068,429.65446 L0.315204068,427.65446 L168.39513,427.789816 L154.26413,403.359816 L0.556873819,403.235876 L0.556873819,401.235876 L153.10713,401.358816 L138.18513,375.562816 L0.432518166,375.451266 L0.432518166,373.451266 L137.02813,373.561816 L122.89613,349.130816 L0.674187917,349.032682 L0.674187917,347.032682 L121.73913,347.129816 L107.31913,322.200816 L0.0498322636,322.114097 L0.0498322636,320.114097 L106.16213,320.199816 L91.5291302,294.901816 L0.791502014,294.829488 L0.791502014,292.829488 L90.3711302,292.901816 L75.9511302,267.971816 L0.167146361,267.910903 L0.167146361,265.910903 L74.7941302,265.970816 L60.6631302,241.540816 L0.408816112,241.492319 L0.408816112,239.492319 L59.5051302,239.539816 L44.5831302,213.742816 L0.284460459,213.707709 L0.284460459,211.707709 L43.4261302,211.741816 L29.7961302,188.178816 L0.02613021,188.15515 L0.02613021,186.15515 L28.6391302,186.177816 L14.3263139,161.433878 L16.0583642,160.433878 L30.9501302,186.179816 L59.1731302,186.202816 L37.0846442,148.015293 L38.8166944,147.015294 L61.4851302,186.204816 L88.7061302,186.226816 L59.3429744,135.462735 L61.0750246,134.462735 L91.0181302,186.228816 L120.81913,186.252816 L83.4673301,121.678125 L85.1993803,120.678125 L123.13113,186.254816 L151.35413,186.277816 L106.22566,108.259541 L107.957711,107.259541 L153.66513,186.279816 L183.46613,186.303816 L130.350016,94.4749309 L132.082066,93.4749313 L185.77813,186.305816 L214.00113,186.328816 L153.108346,81.0563466 L154.840396,80.056347 L216.31313,186.329816 L245.11213,186.352816 L176.732702,68.1377623 L178.464752,67.1377627 L247.42413,186.354816 L276.64813,186.378816 L199.991032,53.8531527 L201.723082,52.853153 L278.95913,186.380816 L307.76013,186.403816 L223.615388,40.9345684 L225.347438,39.9345687 L310.07113,186.405816 L338.29413,186.428816 L246.373718,27.5159841 L248.105768,26.5159844 L340.60513,186.430816 L370.40713,186.454816 L270.498074,13.7313744 L272.230124,12.7313747 L372.71813,186.456816 L399.94013,186.478816 L292.756404,1.17881551 L294.488454,0.178815841 Z M544.50013,483.432816 L558.63113,507.863816 L585.85313,507.885816 L571.72113,483.454816 L544.50013,483.432816 Z M512.38613,483.406816 L526.51813,507.837816 L556.32013,507.861816 L542.18813,483.430816 L512.38613,483.406816 Z M481.85213,483.381816 L495.98413,507.812816 L524.20613,507.835816 L510.07413,483.404816 L481.85213,483.381816 Z M450.74113,483.356816 L464.87213,507.787816 L493.67313,507.810816 L479.54113,483.379816 L450.74113,483.356816 Z M419.20513,483.330816 L433.33613,507.761816 L462.56113,507.785816 L448.42913,483.354816 L419.20513,483.330816 Z M388.09313,483.305816 L402.22513,507.736816 L431.02513,507.759816 L416.89313,483.328816 L388.09313,483.305816 Z M357.55913,483.280816 L371.69013,507.711816 L399.91313,507.734816 L385.78213,483.303816 L357.55913,483.280816 Z M325.44613,483.254816 L339.57713,507.685816 L369.37913,507.709816 L355.24713,483.278816 L325.44613,483.254816 Z M294.91113,483.229816 L309.04313,507.660816 L337.26613,507.683816 L323.13413,483.252816 L294.91113,483.229816 Z M262.79913,483.203816 L276.93013,507.634816 L306.73113,507.658816 L292.60013,483.227816 L262.79913,483.203816 Z M233.26513,483.179816 L247.39713,507.610816 L274.61913,507.632816 L260.48713,483.201816 L233.26513,483.179816 Z M202.73113,483.154816 L216.86213,507.585816 L245.08513,507.608816 L230.95413,483.177816 L202.73113,483.154816 Z M529.71313,457.868816 L543.34213,481.431816 L570.56413,481.453816 L556.93413,457.890816 L529.71313,457.868816 Z M497.59913,457.842816 L511.22913,481.405816 L541.03113,481.429816 L527.40113,457.866816 L497.59913,457.842816 Z M467.06513,457.817816 L480.69513,481.380816 L508.91713,481.403816 L495.28713,457.840816 L467.06513,457.817816 Z M435.95313,457.792816 L449.58313,481.355816 L478.38313,481.378816 L464.75413,457.815816 L435.95313,457.792816 Z M404.41813,457.766816 L418.04713,481.329816 L447.27213,481.353816 L433.64213,457.790816 L404.41813,457.766816 Z M373.30613,457.741816 L386.93613,481.304816 L415.73613,481.327816 L402.10613,457.764816 L373.30613,457.741816 Z M342.77213,457.716816 L356.40113,481.279816 L384.62413,481.302816 L370.99413,457.739816 L342.77213,457.716816 Z M310.65913,457.690816 L324.28813,481.253816 L354.09013,481.277816 L340.46013,457.714816 L310.65913,457.690816 Z M280.12413,457.665816 L293.75413,481.228816 L321.97713,481.251816 L308.34713,457.688816 L280.12413,457.665816 Z M248.01113,457.639816 L261.64113,481.202816 L291.44213,481.226816 L277.81313,457.663816 L248.01113,457.639816 Z M218.47813,457.615816 L232.10813,481.178816 L259.33013,481.200816 L245.70013,457.637816 L218.47813,457.615816 Z M187.94413,457.590816 L201.57313,481.153816 L229.79613,481.176816 L216.16613,457.613816 L187.94413,457.590816 Z M513.63313,430.070816 L528.55513,455.867816 L555.77713,455.889816 L540.85513,430.092816 L513.63313,430.070816 Z M481.52013,430.044816 L496.44113,455.841816 L526.24413,455.865816 L511.32213,430.068816 L481.52013,430.044816 Z M450.98613,430.019816 L465.90813,455.816816 L494.13013,455.839816 L479.20813,430.042816 L450.98613,430.019816 Z M419.87413,429.994816 L434.79613,455.791816 L463.59613,455.814816 L448.67413,430.017816 L419.87413,429.994816 Z M388.33813,429.968816 L403.26013,455.765816 L432.48413,455.789816 L417.56313,429.992816 L388.33813,429.968816 Z M357.22713,429.943816 L372.14913,455.740816 L400.94913,455.763816 L386.02713,429.966816 L357.22713,429.943816 Z M326.69213,429.918816 L341.61413,455.715816 L369.83713,455.738816 L354.91613,429.941816 L326.69213,429.918816 Z M294.57913,429.892816 L309.50113,455.689816 L339.30313,455.713816 L324.38113,429.916816 L294.57913,429.892816 Z M264.04513,429.867816 L278.96713,455.664816 L307.19013,455.687816 L292.26813,429.890816 L264.04513,429.867816 Z M231.93213,429.841816 L246.85413,455.638816 L276.65513,455.662816 L261.73313,429.865816 L231.93213,429.841816 Z M202.39913,429.817816 L217.32113,455.614816 L244.54313,455.636816 L229.62113,429.839816 L202.39913,429.817816 Z M171.86413,429.792816 L186.78613,455.589816 L215.00913,455.612816 L200.08713,429.815816 L171.86413,429.792816 Z M498.34513,403.639816 L512.47613,428.069816 L539.69813,428.091816 L525.56613,403.661816 L498.34513,403.639816 Z M466.23113,403.613816 L480.36213,428.043816 L510.16413,428.067816 L496.03313,403.637816 L466.23113,403.613816 Z M435.69713,403.588816 L449.82913,428.018816 L478.05113,428.041816 L463.91913,403.611816 L435.69713,403.588816 Z M404.58513,403.563816 L418.71713,427.993816 L447.51713,428.016816 L433.38613,403.586816 L404.58513,403.563816 Z M373.05013,403.537816 L387.18113,427.967816 L416.40513,427.991816 L402.27413,403.561816 L373.05013,403.537816 Z M341.93813,403.512816 L356.07013,427.942816 L384.86913,427.965816 L370.73813,403.535816 L341.93813,403.512816 Z M311.40413,403.487816 L325.53513,427.917816 L353.75813,427.940816 L339.62713,403.510816 L311.40413,403.487816 Z M279.29113,403.461816 L293.42213,427.891816 L323.22313,427.915816 L309.09213,403.485816 L279.29113,403.461816 Z M248.75613,403.436816 L262.88713,427.866816 L291.11013,427.889816 L276.97913,403.459816 L248.75613,403.436816 Z M216.64413,403.410816 L230.77513,427.840816 L260.57613,427.864816 L246.44513,403.434816 L216.64413,403.410816 Z M187.11013,403.386816 L201.24113,427.816816 L228.46313,427.838816 L214.33213,403.408816 L187.11013,403.386816 Z M156.57613,403.361816 L170.70713,427.791816 L198.93013,427.814816 L184.79913,403.384816 L156.57613,403.361816 Z M482.26613,375.842816 L497.18713,401.638816 L524.40913,401.660816 L509.48813,375.864816 L482.26613,375.842816 Z M450.15213,375.816816 L465.07413,401.612816 L494.87613,401.636816 L479.95413,375.840816 L450.15213,375.816816 Z M419.61913,375.791816 L434.54013,401.587816 L462.76213,401.610816 L447.84113,375.814816 L419.61913,375.791816 Z M388.50713,375.766816 L403.42813,401.562816 L432.22813,401.585816 L417.30713,375.789816 L388.50713,375.766816 Z M356.97113,375.740816 L371.89213,401.536816 L401.11613,401.560816 L386.19513,375.764816 L356.97113,375.740816 Z M325.85913,375.715816 L340.78113,401.511816 L369.58113,401.534816 L354.66013,375.738816 L325.85913,375.715816 Z M295.32513,375.690816 L310.24613,401.486816 L338.46913,401.509816 L323.54813,375.713816 L295.32513,375.690816 Z M263.21213,375.664816 L278.13313,401.460816 L307.93513,401.484816 L293.01313,375.688816 L263.21213,375.664816 Z M232.67813,375.639816 L247.59913,401.435816 L275.82213,401.458816 L260.90013,375.662816 L232.67813,375.639816 Z M200.56513,375.613816 L215.48613,401.409816 L245.28713,401.433816 L230.36613,375.637816 L200.56513,375.613816 Z M171.03113,375.589816 L185.95313,401.385816 L213.17513,401.407816 L198.25313,375.611816 L171.03113,375.589816 Z M140.49713,375.564816 L155.41813,401.360816 L183.64113,401.383816 L168.72013,375.587816 L140.49713,375.564816 Z M466.97713,349.410816 L481.10813,373.841816 L508.33013,373.863816 L494.19813,349.432816 L466.97713,349.410816 Z M434.86313,349.384816 L448.99513,373.815816 L478.79713,373.839816 L464.66513,349.408816 L434.86313,349.384816 Z M404.33013,349.359816 L418.46113,373.790816 L446.68313,373.813816 L432.55213,349.382816 L404.33013,349.359816 Z M373.21713,349.334816 L387.34913,373.765816 L416.15013,373.788816 L402.01813,349.357816 L373.21713,349.334816 Z M341.68213,349.308816 L355.81413,373.739816 L385.03813,373.763816 L370.90613,349.332816 L341.68213,349.308816 Z M310.57013,349.283816 L324.70213,373.714816 L353.50213,373.737816 L339.37013,349.306816 L310.57013,349.283816 Z M280.03613,349.258816 L294.16713,373.689816 L322.39013,373.712816 L308.25913,349.281816 L280.03613,349.258816 Z M247.92313,349.232816 L262.05413,373.663816 L291.85613,373.687816 L277.72413,349.256816 L247.92313,349.232816 Z M217.38813,349.207816 L231.52013,373.638816 L259.74313,373.661816 L245.61113,349.230816 L217.38813,349.207816 Z M185.27613,349.181816 L199.40713,373.612816 L229.20913,373.636816 L215.07713,349.205816 L185.27613,349.181816 Z M155.74213,349.157816 L169.87413,373.588816 L197.09613,373.610816 L182.96413,349.179816 L155.74213,349.157816 Z M125.20813,349.132816 L139.34013,373.563816 L167.56213,373.586816 L153.43113,349.155816 L125.20813,349.132816 Z M451.39913,322.479816 L465.81913,347.409816 L493.04113,347.431816 L478.62113,322.501816 L451.39913,322.479816 Z M419.28513,322.453816 L433.70613,347.383816 L463.50813,347.407816 L449.08713,322.477816 L419.28513,322.453816 Z M388.75213,322.428816 L403.17213,347.358816 L431.39413,347.381816 L416.97413,322.451816 L388.75213,322.428816 Z M357.64013,322.403816 L372.06013,347.333816 L400.86113,347.356816 L386.44013,322.426816 L357.64013,322.403816 Z M326.10413,322.377816 L340.52413,347.307816 L369.74913,347.331816 L355.32813,322.401816 L326.10413,322.377816 Z M294.99313,322.352816 L309.41313,347.282816 L338.21313,347.305816 L323.79313,322.375816 L294.99313,322.352816 Z M264.45813,322.327816 L278.87813,347.257816 L307.10213,347.280816 L292.68113,322.350816 L264.45813,322.327816 Z M232.34513,322.301816 L246.76513,347.231816 L276.56713,347.255816 L262.14613,322.325816 L232.34513,322.301816 Z M201.81113,322.276816 L216.23113,347.206816 L244.45413,347.229816 L230.03413,322.299816 L201.81113,322.276816 Z M169.69813,322.250816 L184.11813,347.180816 L213.91913,347.204816 L199.49913,322.274816 L169.69813,322.250816 Z M140.16413,322.226816 L154.58513,347.156816 L181.80713,347.178816 L167.38613,322.248816 L140.16413,322.226816 Z M109.63013,322.201816 L124.05013,347.131816 L152.27313,347.154816 L137.85313,322.224816 L109.63013,322.201816 Z M435.60913,295.181816 L450.24113,320.478816 L477.46313,320.500816 L462.83113,295.203816 L435.60913,295.181816 Z M403.49513,295.155816 L418.12813,320.452816 L447.93013,320.476816 L433.29713,295.179816 L403.49513,295.155816 Z M372.96213,295.130816 L387.59413,320.427816 L415.81613,320.450816 L401.18413,295.153816 L372.96213,295.130816 Z M341.85013,295.105816 L356.48213,320.402816 L385.28313,320.425816 L370.65013,295.128816 L341.85013,295.105816 Z M310.31413,295.079816 L324.94713,320.376816 L354.17113,320.400816 L339.53813,295.103816 L310.31413,295.079816 Z M279.20313,295.054816 L293.83513,320.351816 L322.63513,320.374816 L308.00313,295.077816 L279.20313,295.054816 Z M248.66813,295.029816 L263.30113,320.327816 L291.52413,320.350816 L276.89113,295.052816 L248.66813,295.029816 Z M216.55513,295.003816 L231.18813,320.301816 L260.98913,320.325816 L246.35613,295.027816 L216.55513,295.003816 Z M186.02113,294.978816 L200.65413,320.276816 L228.87713,320.299816 L214.24313,295.001816 L186.02113,294.978816 Z M153.90813,294.952816 L168.54113,320.250816 L198.34213,320.274816 L183.70913,294.976816 L153.90813,294.952816 Z M124.37413,294.928816 L139.00813,320.226816 L166.22913,320.248816 L151.59613,294.950816 L124.37413,294.928816 Z M93.8401302,294.903816 L108.47313,320.201816 L136.69613,320.224816 L122.06313,294.926816 L93.8401302,294.903816 Z M420.03113,268.251816 L434.45113,293.180816 L461.67313,293.202816 L447.25313,268.273816 L420.03113,268.251816 Z M387.91813,268.225816 L402.33813,293.154816 L432.14013,293.178816 L417.72013,268.249816 L387.91813,268.225816 Z M357.38413,268.200816 L371.80413,293.129816 L400.02613,293.152816 L385.60713,268.223816 L357.38413,268.200816 Z M326.27213,268.175816 L340.69213,293.104816 L369.49313,293.127816 L355.07313,268.198816 L326.27213,268.175816 Z M294.73713,268.149816 L309.15713,293.078816 L338.38113,293.102816 L323.96113,268.173816 L294.73713,268.149816 Z M263.62513,268.124816 L278.04513,293.053816 L306.84513,293.076816 L292.42513,268.147816 L263.62513,268.124816 Z M233.09013,268.099816 L247.51113,293.029816 L275.73413,293.052816 L261.31413,268.122816 L233.09013,268.099816 Z M200.97813,268.073816 L215.39813,293.003816 L245.19913,293.027816 L230.77913,268.097816 L200.97813,268.073816 Z M170.44313,268.048816 L184.86413,292.978816 L213.08613,293.001816 L198.66613,268.071816 L170.44313,268.048816 Z M138.33013,268.022816 L152.75113,292.952816 L182.55213,292.976816 L168.13213,268.046816 L138.33013,268.022816 Z M108.79713,267.998816 L123.21713,292.928816 L150.43913,292.950816 L136.01913,268.020816 L108.79713,267.998816 Z M78.2631302,267.973816 L92.6831302,292.903816 L120.90613,292.926816 L106.48613,267.996816 L78.2631302,267.973816 Z M404.74313,241.820816 L418.87413,266.250816 L446.09613,266.272816 L431.96513,241.842816 L404.74313,241.820816 Z M372.62913,241.794816 L386.76113,266.224816 L416.56213,266.248816 L402.43113,241.818816 L372.62913,241.794816 Z M342.09613,241.769816 L356.22713,266.199816 L384.44913,266.222816 L370.31813,241.792816 L342.09613,241.769816 Z M310.98413,241.744816 L325.11513,266.174816 L353.91513,266.197816 L339.78413,241.767816 L310.98413,241.744816 Z M279.44813,241.718816 L293.57913,266.148816 L322.80313,266.172816 L308.67213,241.742816 L279.44813,241.718816 Z M248.33713,241.693816 L262.46813,266.123816 L291.26813,266.146816 L277.13713,241.716816 L248.33713,241.693816 Z M217.80213,241.668816 L231.93313,266.098816 L260.15613,266.121816 L246.02513,241.691816 L217.80213,241.668816 Z M185.68913,241.642816 L199.82013,266.072816 L229.62113,266.096816 L215.49013,241.666816 L185.68913,241.642816 Z M155.15513,241.617816 L169.28613,266.047816 L197.50913,266.070816 L183.37813,241.640816 L155.15513,241.617816 Z M123.04213,241.591816 L137.17313,266.021816 L166.97413,266.045816 L152.84313,241.615816 L123.04213,241.591816 Z M93.5091302,241.567816 L107.64013,265.997816 L134.86113,266.019816 L120.73013,241.589816 L93.5091302,241.567816 Z M62.9741302,241.542816 L77.1051302,265.972816 L105.32813,265.995816 L91.1971302,241.565816 L62.9741302,241.542816 Z M388.66313,214.022816 L403.58513,239.819816 L430.80713,239.841816 L415.88513,214.044816 L388.66313,214.022816 Z M356.55013,213.996816 L371.47213,239.793816 L401.27413,239.817816 L386.35213,214.020816 L356.55013,213.996816 Z M326.01713,213.971816 L340.93813,239.768816 L369.16113,239.791816 L354.23913,213.994816 L326.01713,213.971816 Z M294.90413,213.946816 L309.82613,239.743816 L338.62713,239.766816 L323.70513,213.969816 L294.90413,213.946816 Z M263.36913,213.920816 L278.29113,239.717816 L307.51513,239.741816 L292.59313,213.944816 L263.36913,213.920816 Z M232.25713,213.895816 L247.17913,239.692816 L275.97913,239.715816 L261.05713,213.918816 L232.25713,213.895816 Z M201.72213,213.870816 L216.64413,239.667816 L244.86813,239.690816 L229.94613,213.893816 L201.72213,213.870816 Z M169.61013,213.844816 L184.53213,239.641816 L214.33313,239.665816 L199.41113,213.868816 L169.61013,213.844816 Z M139.07513,213.819816 L153.99713,239.616816 L182.22013,239.639816 L167.29813,213.842816 L139.07513,213.819816 Z M106.96213,213.793816 L121.88413,239.590816 L151.68613,239.614816 L136.76413,213.817816 L106.96213,213.793816 Z M77.4291302,213.769816 L92.3511302,239.566816 L119.57313,239.588816 L104.65113,213.791816 L77.4291302,213.769816 Z M46.8951302,213.744816 L61.8171302,239.541816 L90.0401302,239.564816 L75.1181302,213.767816 L46.8951302,213.744816 Z M373.87613,188.457816 L387.50613,212.021816 L414.72813,212.043816 L401.09813,188.479816 L373.87613,188.457816 Z M341.76313,188.431816 L355.39313,211.995816 L385.19413,212.019816 L371.56413,188.455816 L341.76313,188.431816 Z M311.22913,188.406816 L324.85913,211.970816 L353.08113,211.993816 L339.45113,188.429816 L311.22913,188.406816 Z M280.11713,188.381816 L293.74713,211.945816 L322.54813,211.968816 L308.91713,188.404816 L280.11713,188.381816 Z M248.58113,188.355816 L262.21113,211.919816 L291.43513,211.943816 L277.80513,188.379816 L248.58113,188.355816 Z M217.47013,188.330816 L231.10013,211.894816 L259.90013,211.917816 L246.27013,188.353816 L217.47013,188.330816 Z M186.93513,188.306816 L200.56513,211.869816 L228.78813,211.892816 L215.15913,188.329816 L186.93513,188.306816 Z M154.82313,188.280816 L168.45213,211.843816 L198.25313,211.867816 L184.62413,188.304816 L154.82313,188.280816 Z M124.28813,188.255816 L137.91813,211.818816 L166.14113,211.841816 L152.51113,188.278816 L124.28813,188.255816 Z M92.1751302,188.229816 L105.80513,211.792816 L135.60713,211.816816 L121.97713,188.253816 L92.1751302,188.229816 Z M62.6421302,188.205816 L76.2721302,211.768816 L103.49313,211.790816 L89.8641302,188.227816 L62.6421302,188.205816 Z M32.1081302,188.180816 L45.7371302,211.743816 L73.9601302,211.766816 L60.3311302,188.203816 L32.1081302,188.180816 Z" id="Combined-Shape"></path>
                    </g>
                    <g id="Group-13" opacity="0.151427496" transform="translate(442.000000, 457.000000) scale(-1, 1) rotate(-30.000000) translate(-442.000000, -457.000000) translate(133.000000, 295.000000)"></g>
                </g>
            </g>
        </g>
    </g>
</svg>