<svg width="332" height="151" viewBox="0 0 332 151" fill="none" xmlns="http://www.w3.org/2000/svg">
<mask id="mask0" mask-type="alpha" maskUnits="userSpaceOnUse" x="0" y="0" width="332" height="151">
<rect y="0.334961" width="332" height="150" rx="40.5" fill="white"/>
</mask>
<g mask="url(#mask0)">
<g clip-path="url(#clip0)">
<path d="M19.581 105.661V93.7281" stroke="#979797" stroke-width="1.5" stroke-linecap="square"/>
<path d="M30.9751 105.661V88.4446" stroke="#979797" stroke-width="1.5" stroke-linecap="square"/>
<path d="M42.3691 105.661V93.7281" stroke="#979797" stroke-width="1.5" stroke-linecap="square"/>
<path d="M53.7627 105.661V93.7281" stroke="#979797" stroke-width="1.5" stroke-linecap="square"/>
<path d="M8.18749 105.661V93.7281" stroke="#979797" stroke-width="1.5" stroke-linecap="square"/>
<path d="M64.5908 106.123V70.3069" stroke="#979797" stroke-width="1.5" stroke-linecap="square"/>
<path d="M87.3784 105.641V93.708" stroke="#979797" stroke-width="1.5" stroke-linecap="square"/>
<path d="M98.7725 105.641V88.4245" stroke="#979797" stroke-width="1.5" stroke-linecap="square"/>
<path d="M110.166 105.641V93.708" stroke="#979797" stroke-width="1.5" stroke-linecap="square"/>
<path d="M121.56 105.641V93.708" stroke="#979797" stroke-width="1.5" stroke-linecap="square"/>
<path d="M75.9849 105.641V93.708" stroke="#979797" stroke-width="1.5" stroke-linecap="square"/>
<path d="M132.388 106.123V70.3069" stroke="#979797" stroke-width="1.5" stroke-linecap="square"/>
<path d="M155.176 106.123V94.1902" stroke="#979797" stroke-width="1.5" stroke-linecap="square"/>
<path d="M166.57 106.123V88.9067" stroke="#979797" stroke-width="1.5" stroke-linecap="square"/>
<path d="M177.963 106.123V94.1902" stroke="#979797" stroke-width="1.5" stroke-linecap="square"/>
<path d="M189.357 106.123V94.1902" stroke="#979797" stroke-width="1.5" stroke-linecap="square"/>
<path d="M143.782 106.123V94.1902" stroke="#979797" stroke-width="1.5" stroke-linecap="square"/>
<path d="M200.186 106.123V70.3069" stroke="#979797" stroke-width="1.5" stroke-linecap="square"/>
<path d="M222.973 106.123V94.1902" stroke="#979797" stroke-width="1.5" stroke-linecap="square"/>
<path d="M234.367 106.123V88.9067" stroke="#979797" stroke-width="1.5" stroke-linecap="square"/>
<path d="M245.761 106.123V94.1902" stroke="#979797" stroke-width="1.5" stroke-linecap="square"/>
<path d="M257.155 106.123V94.1902" stroke="#979797" stroke-width="1.5" stroke-linecap="square"/>
<path d="M211.579 106.123V94.1902" stroke="#979797" stroke-width="1.5" stroke-linecap="square"/>
<path d="M267.983 106.123V70.3069" stroke="#979797" stroke-width="1.5" stroke-linecap="square"/>
<path d="M290.77 106.123V94.1902" stroke="#979797" stroke-width="1.5" stroke-linecap="square"/>
<path d="M302.164 106.123V88.9067" stroke="#979797" stroke-width="1.5" stroke-linecap="square"/>
<path d="M313.558 106.123V94.1902" stroke="#979797" stroke-width="1.5" stroke-linecap="square"/>
<path d="M324.952 106.123V94.1902" stroke="#979797" stroke-width="1.5" stroke-linecap="square"/>
<path d="M279.376 106.123V94.1902" stroke="#979797" stroke-width="1.5" stroke-linecap="square"/>
<path d="M21.7646 75.1423C21.7646 78.0646 23.0537 79.9689 25.4194 79.9689C27.8364 79.9689 29.0889 77.9914 29.0889 75.1423V74.4099C29.0889 71.4802 27.8145 69.5759 25.4487 69.5759C23.083 69.5759 21.7646 71.4875 21.7646 74.4099V75.1423ZM23.4199 74.4172C23.4199 72.176 24.1963 70.9601 25.4268 70.9601C26.6646 70.9601 27.4409 72.1833 27.4409 74.4172V75.1276C27.4409 77.3615 26.6646 78.5847 25.4268 78.5847C24.1963 78.5847 23.4199 77.3688 23.4199 75.1276V74.4172Z" fill="#979797"/>
<path d="M73.3447 77.1638C73.4253 78.6725 74.6191 79.9689 76.7944 79.9689C78.9331 79.9689 80.5371 78.57 80.5371 76.446C80.5371 74.4245 79.0063 73.1208 77.2339 73.1208C76.1133 73.1208 75.3296 73.6335 75.0879 73.9777H75.0366L75.3296 71.1432H79.79V69.7663H73.9746L73.4692 75.611H74.9048C75.1611 75.0544 75.769 74.4318 76.8823 74.4318C77.9956 74.4318 78.8892 75.2375 78.8892 76.5119C78.8892 77.8669 77.8271 78.614 76.8677 78.614C75.8057 78.614 75.0366 78.0866 74.8975 77.1638H73.3447Z" fill="#979797"/>
<path d="M145.839 70.7712V60.7736H144.257C143.48 61.2131 142.587 61.7624 141.825 62.2971V63.8864C142.528 63.3957 143.568 62.7512 144.147 62.4142H144.198V70.7712H145.839ZM141.737 84.1423C141.737 87.0646 143.026 88.9689 145.392 88.9689C147.809 88.9689 149.062 86.9914 149.062 84.1423V83.4099C149.062 80.4802 147.787 78.5759 145.421 78.5759C143.056 78.5759 141.737 80.4875 141.737 83.4099V84.1423ZM143.393 83.4172C143.393 81.176 144.169 79.9601 145.399 79.9601C146.637 79.9601 147.414 81.1833 147.414 83.4172V84.1276C147.414 86.3615 146.637 87.5847 145.399 87.5847C144.169 87.5847 143.393 86.3688 143.393 84.1276V83.4172Z" fill="#979797"/>
<path d="M213.748 70.7712V60.7736H212.166C211.39 61.2131 210.496 61.7624 209.734 62.2971V63.8864C210.438 63.3957 211.478 62.7512 212.056 62.4142H212.107V70.7712H213.748ZM209.917 86.1638C209.998 87.6725 211.192 88.9689 213.367 88.9689C215.506 88.9689 217.11 87.57 217.11 85.446C217.11 83.4245 215.579 82.1208 213.807 82.1208C212.686 82.1208 211.902 82.6335 211.661 82.9777H211.609L211.902 80.1432H216.363V78.7663H210.547L210.042 84.611H211.478C211.734 84.0544 212.342 83.4318 213.455 83.4318C214.568 83.4318 215.462 84.2375 215.462 85.5119C215.462 86.8669 214.4 87.614 213.44 87.614C212.378 87.614 211.609 87.0866 211.47 86.1638H209.917Z" fill="#979797"/>
<path d="M280.024 63.6594V63.5715C280.024 62.6999 280.661 61.9382 281.701 61.9382C282.646 61.9382 283.342 62.5388 283.342 63.4836C283.342 64.3112 282.822 64.9484 282.214 65.6149L278.53 69.7311V70.7712H285.188V69.3869H280.815V69.343L283.276 66.5231C284.338 65.3366 285.004 64.5236 285.004 63.3444C285.004 61.7404 283.715 60.5759 281.767 60.5759C279.68 60.5759 278.435 61.9601 278.435 63.5788V63.6594H280.024ZM278.31 84.1423C278.31 87.0646 279.599 88.9689 281.965 88.9689C284.382 88.9689 285.634 86.9914 285.634 84.1423V83.4099C285.634 80.4802 284.36 78.5759 281.994 78.5759C279.628 78.5759 278.31 80.4875 278.31 83.4099V84.1423ZM279.965 83.4172C279.965 81.176 280.742 79.9601 281.972 79.9601C283.21 79.9601 283.986 81.1833 283.986 83.4172V84.1276C283.986 86.3615 283.21 87.5847 281.972 87.5847C280.742 87.5847 279.965 86.3688 279.965 84.1276V83.4172Z" fill="#979797"/>
</g>
<path fill-rule="evenodd" clip-rule="evenodd" d="M43.8025 98.6097C43.0023 99.587 41.5077 99.587 40.7075 98.6097L36.5954 93.5872C35.8638 92.6937 35.4641 91.5745 35.4641 90.4197V84.4575C35.4641 82.8006 36.8072 81.4575 38.4641 81.4575H46.0459C47.7028 81.4575 49.0459 82.8006 49.0459 84.4575V90.4197C49.0459 91.5745 48.6462 92.6937 47.9146 93.5872L43.8025 98.6097Z" fill="#0091FF"/>
<path d="M42.2039 99.8499L42.2549 230.692" stroke="#0091FF" stroke-width="2" stroke-linecap="square"/>
<path d="M245.931 105.207L245.982 236.049" stroke="#0091FF" stroke-width="2" stroke-linecap="square"/>
<path d="M110.113 99.8499L110.164 230.692" stroke="#0091FF" stroke-width="2" stroke-linecap="square"/>
<path fill-rule="evenodd" clip-rule="evenodd" d="M247.53 103.967C246.73 104.944 245.235 104.944 244.435 103.967L240.323 98.9444C239.591 98.0508 239.192 96.9316 239.192 95.7768V89.8146C239.192 88.1577 240.535 86.8146 242.192 86.8146H249.773C251.43 86.8146 252.773 88.1577 252.773 89.8146V95.7768C252.773 96.9316 252.374 98.0508 251.642 98.9444L247.53 103.967Z" fill="#0091FF"/>
<path fill-rule="evenodd" clip-rule="evenodd" d="M111.712 98.6097C110.911 99.587 109.417 99.587 108.617 98.6097L104.505 93.5872C103.773 92.6937 103.373 91.5745 103.373 90.4197V84.4575C103.373 82.8006 104.716 81.4575 106.373 81.4575H113.955C115.612 81.4575 116.955 82.8006 116.955 84.4575V90.4197C116.955 91.5745 116.555 92.6937 115.824 93.5872L111.712 98.6097Z" fill="#0091FF"/>
</g>
<defs>
<clipPath id="clip0">
<rect width="996" height="75.7653" fill="white" transform="translate(-3.77246 31.5212)"/>
</clipPath>
</defs>
</svg>
