<svg width="449" height="201" viewBox="0 0 449 201" fill="none" xmlns="http://www.w3.org/2000/svg">
<mask id="mask0" mask-type="alpha" maskUnits="userSpaceOnUse" x="0" y="0" width="449" height="201">
<rect x="0.0986328" y="0.637878" width="448.416" height="199.749" rx="41.2746" fill="white"/>
</mask>
<g mask="url(#mask0)">
<g clip-path="url(#clip0)">
<path d="M26.5456 140.896V125.006" stroke="#979797" stroke-width="1.52869" stroke-linecap="square"/>
<path d="M41.9343 140.896V117.97" stroke="#979797" stroke-width="1.52869" stroke-linecap="square"/>
<path d="M57.3239 140.896V125.006" stroke="#979797" stroke-width="1.52869" stroke-linecap="square"/>
<path d="M72.7126 140.896V125.006" stroke="#979797" stroke-width="1.52869" stroke-linecap="square"/>
<path d="M11.1559 140.896V125.006" stroke="#979797" stroke-width="1.52869" stroke-linecap="square"/>
<path d="M87.3376 141.512V93.8166" stroke="#979797" stroke-width="1.52869" stroke-linecap="square"/>
<path d="M118.115 140.87V124.979" stroke="#979797" stroke-width="1.52869" stroke-linecap="square"/>
<path d="M133.505 140.87V117.943" stroke="#979797" stroke-width="1.52869" stroke-linecap="square"/>
<path d="M148.894 140.87V124.979" stroke="#979797" stroke-width="1.52869" stroke-linecap="square"/>
<path d="M164.283 140.87V124.979" stroke="#979797" stroke-width="1.52869" stroke-linecap="square"/>
<path d="M102.727 140.87V124.979" stroke="#979797" stroke-width="1.52869" stroke-linecap="square"/>
<path d="M178.908 141.512V93.8166" stroke="#979797" stroke-width="1.52869" stroke-linecap="square"/>
<path d="M209.686 141.512V125.621" stroke="#979797" stroke-width="1.52869" stroke-linecap="square"/>
<path d="M225.075 141.512V118.585" stroke="#979797" stroke-width="1.52869" stroke-linecap="square"/>
<path d="M240.465 141.512V125.621" stroke="#979797" stroke-width="1.52869" stroke-linecap="square"/>
<path d="M255.854 141.512V125.621" stroke="#979797" stroke-width="1.52869" stroke-linecap="square"/>
<path d="M194.298 141.512V125.621" stroke="#979797" stroke-width="1.52869" stroke-linecap="square"/>
<path d="M270.479 141.512V93.8166" stroke="#979797" stroke-width="1.52869" stroke-linecap="square"/>
<path d="M301.257 141.512V125.621" stroke="#979797" stroke-width="1.52869" stroke-linecap="square"/>
<path d="M316.646 141.512V118.585" stroke="#979797" stroke-width="1.52869" stroke-linecap="square"/>
<path d="M332.035 141.512V125.621" stroke="#979797" stroke-width="1.52869" stroke-linecap="square"/>
<path d="M347.424 141.512V125.621" stroke="#979797" stroke-width="1.52869" stroke-linecap="square"/>
<path d="M285.867 141.512V125.621" stroke="#979797" stroke-width="1.52869" stroke-linecap="square"/>
<path d="M362.049 141.512V93.8166" stroke="#979797" stroke-width="1.52869" stroke-linecap="square"/>
<path d="M392.827 141.512V125.621" stroke="#979797" stroke-width="1.52869" stroke-linecap="square"/>
<path d="M408.216 141.512V118.585" stroke="#979797" stroke-width="1.52869" stroke-linecap="square"/>
<path d="M423.605 141.512V125.621" stroke="#979797" stroke-width="1.52869" stroke-linecap="square"/>
<path d="M438.995 141.512V125.621" stroke="#979797" stroke-width="1.52869" stroke-linecap="square"/>
<path d="M377.438 141.512V125.621" stroke="#979797" stroke-width="1.52869" stroke-linecap="square"/>
<path d="M29.2837 99.5844C29.2837 102.563 30.5974 104.503 33.0084 104.503C35.4716 104.503 36.748 102.488 36.748 99.5844V98.838C36.748 95.8523 35.4492 93.9116 33.0382 93.9116C30.6272 93.9116 29.2837 95.8598 29.2837 98.838V99.5844ZM30.9706 98.8455C30.9706 96.5614 31.7618 95.3223 33.0158 95.3223C34.2773 95.3223 35.0685 96.5689 35.0685 98.8455V99.5695C35.0685 101.846 34.2773 103.093 33.0158 103.093C31.7618 103.093 30.9706 101.854 30.9706 99.5695V98.8455Z" fill="#979797"/>
<path d="M98.8601 101.645C98.9423 103.182 100.159 104.503 102.376 104.503C104.555 104.503 106.19 103.078 106.19 100.913C106.19 98.8529 104.63 97.5243 102.824 97.5243C101.682 97.5243 100.883 98.0468 100.637 98.3976H100.584L100.883 95.5089H105.429V94.1056H99.5021L98.987 100.062H100.45C100.711 99.4949 101.331 98.8604 102.465 98.8604C103.6 98.8604 104.511 99.6815 104.511 100.98C104.511 102.361 103.428 103.123 102.45 103.123C101.368 103.123 100.584 102.585 100.443 101.645H98.8601Z" fill="#979797"/>
<path d="M195.505 104.302V94.1131H193.892C193.101 94.561 192.191 95.1208 191.414 95.6657V97.2854C192.131 96.7853 193.191 96.1285 193.78 95.7851H193.833V104.302H195.505ZM201.591 99.5844C201.591 102.563 202.905 104.503 205.316 104.503C207.779 104.503 209.055 102.488 209.055 99.5844V98.838C209.055 95.8523 207.756 93.9116 205.346 93.9116C202.935 93.9116 201.591 95.8598 201.591 98.838V99.5844ZM203.278 98.8455C203.278 96.5614 204.069 95.3223 205.323 95.3223C206.585 95.3223 207.376 96.5689 207.376 98.8455V99.5695C207.376 101.846 206.585 103.093 205.323 103.093C204.069 103.093 203.278 101.854 203.278 99.5695V98.8455Z" fill="#979797"/>
<path d="M287.226 104.302V94.1131H285.614C284.822 94.561 283.912 95.1208 283.135 95.6657V97.2854C283.852 96.7853 284.912 96.1285 285.502 95.7851H285.554V104.302H287.226ZM293.588 101.645C293.67 103.182 294.887 104.503 297.104 104.503C299.284 104.503 300.918 103.078 300.918 100.913C300.918 98.8529 299.358 97.5243 297.552 97.5243C296.41 97.5243 295.611 98.0468 295.365 98.3976H295.313L295.611 95.5089H300.157V94.1056H294.23L293.715 100.062H295.178C295.439 99.4949 296.059 98.8604 297.194 98.8604C298.328 98.8604 299.239 99.6815 299.239 100.98C299.239 102.361 298.157 103.123 297.179 103.123C296.096 103.123 295.313 102.585 295.171 101.645H293.588Z" fill="#979797"/>
<path d="M377.533 97.054V96.9645C377.533 96.0762 378.183 95.2999 379.243 95.2999C380.205 95.2999 380.915 95.912 380.915 96.8749C380.915 97.7184 380.385 98.3678 379.765 99.047L376.011 103.242V104.302H382.796V102.891H378.339V102.846L380.847 99.9726C381.93 98.7634 382.609 97.9348 382.609 96.7331C382.609 95.0984 381.295 93.9116 379.31 93.9116C377.182 93.9116 375.913 95.3223 375.913 96.9719V97.054H377.533ZM388.307 99.5844C388.307 102.563 389.621 104.503 392.032 104.503C394.495 104.503 395.771 102.488 395.771 99.5844V98.838C395.771 95.8523 394.473 93.9116 392.062 93.9116C389.651 93.9116 388.307 95.8598 388.307 98.838V99.5844ZM389.994 98.8455C389.994 96.5614 390.785 95.3223 392.039 95.3223C393.301 95.3223 394.092 96.5689 394.092 98.8455V99.5695C394.092 101.846 393.301 103.093 392.039 103.093C390.785 103.093 389.994 101.854 389.994 99.5695V98.8455Z" fill="#979797"/>
</g>
<path fill-rule="evenodd" clip-rule="evenodd" d="M58.7377 132.135C57.9227 133.116 56.4166 133.116 55.6016 132.135L49.173 124.394C48.4133 123.479 47.9975 122.327 47.9975 121.138V111.723C47.9975 110.034 49.3664 108.665 51.0549 108.665H63.2844C64.973 108.665 66.3418 110.034 66.3418 111.723V121.138C66.3418 122.327 65.926 123.479 65.1663 124.394L58.7377 132.135Z" fill="#0091FF"/>
<path d="M57.1009 133.158L57.1696 307.395" stroke="#0091FF" stroke-width="2.03825" stroke-linecap="square"/>
<path d="M332.265 140.292L332.334 314.529" stroke="#0091FF" stroke-width="2.03825" stroke-linecap="square"/>
<path d="M148.823 133.158L148.891 307.395" stroke="#0091FF" stroke-width="2.03825" stroke-linecap="square"/>
<path fill-rule="evenodd" clip-rule="evenodd" d="M333.902 139.269C333.087 140.25 331.581 140.25 330.766 139.269L324.337 131.527C323.577 130.613 323.162 129.461 323.162 128.272V118.857C323.162 117.168 324.53 115.799 326.219 115.799H338.448C340.137 115.799 341.506 117.168 341.506 118.857V128.272C341.506 129.461 341.09 130.613 340.33 131.527L333.902 139.269Z" fill="#0091FF"/>
<path fill-rule="evenodd" clip-rule="evenodd" d="M150.459 132.135C149.644 133.116 148.138 133.116 147.323 132.135L140.894 124.394C140.135 123.479 139.719 122.327 139.719 121.138V111.723C139.719 110.034 141.088 108.665 142.776 108.665H155.006C156.694 108.665 158.063 110.034 158.063 111.723V121.138C158.063 122.327 157.647 123.479 156.888 124.394L150.459 132.135Z" fill="#0091FF"/>
</g>
<defs>
<clipPath id="clip0">
<rect width="1345.25" height="100.894" fill="white" transform="translate(-4.99707 42.1673)"/>
</clipPath>
</defs>
</svg>
