<svg width="481" height="459" viewBox="0 0 481 459" fill="none" xmlns="http://www.w3.org/2000/svg">
<mask id="mask0" mask-type="alpha" maskUnits="userSpaceOnUse" x="0" y="0" width="481" height="459">
<rect width="481" height="458.009" rx="28.2931" fill="white"/>
</mask>
<g mask="url(#mask0)">
<path opacity="0.199118" fill-rule="evenodd" clip-rule="evenodd" d="M-104 505.469C-104 522.699 -89.9532 536.667 -72.6255 536.667C-47.1199 536.667 -9.56688 534.793 25.0066 524.062C59.2087 513.446 97.3683 491.801 111.285 447.743C123.319 409.642 117.198 376.18 108.368 352.814C103.966 341.167 98.8283 331.824 94.7128 325.284C92.6451 321.998 90.8055 319.372 89.3983 317.466C88.6937 316.512 88.0943 315.733 87.625 315.139C87.3903 314.842 87.1877 314.59 87.0205 314.384C86.9369 314.282 86.862 314.19 86.7963 314.111L86.7047 314L86.6642 313.952L86.6452 313.929C86.6361 313.918 86.6271 313.908 62.527 333.883L86.6271 313.908C75.5326 300.672 55.7488 298.887 42.4387 309.918C29.1979 320.893 27.3515 340.418 38.2545 353.65C38.2578 353.654 38.2615 353.659 38.2655 353.664C38.3386 353.757 38.5296 354.002 38.8177 354.392C39.396 355.175 40.3507 356.524 41.5185 358.38C43.8739 362.123 46.9723 367.733 49.6296 374.764C54.9173 388.755 58.2091 407.549 51.4189 429.046C46.5104 444.586 32.1535 456.479 6.30925 464.501C-19.1637 472.408 -49.1869 474.272 -72.6255 474.272C-89.9532 474.272 -104 488.239 -104 505.469Z" fill="#B13C45"/>
<path opacity="0.199118" fill-rule="evenodd" clip-rule="evenodd" d="M51.1322 159.604C78.0271 162.041 107.072 170.862 126.536 181.183C140.735 188.713 160.292 210.949 176.592 247.997C192.334 283.775 202.95 328.825 202.95 375.625C202.95 392.876 216.996 406.861 234.322 406.861C251.648 406.861 265.694 392.876 265.694 375.625C265.694 319.892 253.157 266.327 234.063 222.929C215.527 180.799 188.564 143.296 156.03 126.044C128.762 111.584 91.5546 100.536 56.8179 97.3886C39.3432 95.8054 21.1218 96.0895 4.32196 99.7294C-12.2839 103.327 -35.0798 122.178 -48.1218 137.117C-59.4889 150.136 -58.1032 169.866 -45.0269 181.184C-31.9506 192.501 -12.1353 191.122 -0.768267 178.102C0.315939 176.86 8.78084 162.698 17.6634 160.773C26.3519 158.891 37.7913 158.395 51.1322 159.604Z" fill="url(#paint0_linear)"/>
<path opacity="0.199118" fill-rule="evenodd" clip-rule="evenodd" d="M432.647 203.331C402.795 203.331 370.29 182.317 362.006 146.436C358.361 130.644 362.804 112.524 370.671 95.808C374.417 87.8463 378.509 81.1311 381.654 76.434C383.212 74.1062 384.501 72.3295 385.344 71.2032C385.765 70.6414 386.072 70.2458 386.242 70.029C386.318 69.9324 386.366 69.8716 386.385 69.8478C397.253 56.4731 395.229 36.8439 381.84 25.9552C368.422 15.0435 348.672 17.0415 337.726 30.4178L361.189 49.4981C337.726 30.418 337.72 30.4255 337.714 30.4332L337.67 30.4866L337.598 30.5751C337.545 30.6406 337.482 30.7191 337.409 30.8104C337.262 30.9932 337.076 31.2273 336.853 31.5114C336.407 32.0794 335.814 32.8482 335.097 33.8049C333.667 35.7157 331.733 38.3923 329.498 41.7298C325.057 48.3635 319.281 57.8268 313.902 69.2567C303.517 91.3234 292.675 124.839 300.898 160.456C316.35 227.391 376.424 265.844 432.647 265.844C449.963 265.844 464 251.85 464 234.588C464 217.325 449.963 203.331 432.647 203.331Z" fill="url(#paint1_linear)"/>
<path opacity="0.199118" fill-rule="evenodd" clip-rule="evenodd" d="M409.202 324.476C409.212 324.502 409.228 324.547 409.252 324.61C409.338 324.843 409.519 325.318 409.801 326.006C410.367 327.386 411.332 329.597 412.75 332.397C415.603 338.035 420.173 345.832 426.833 354.008C440.021 370.198 461.007 387.505 493.746 393.472C524.794 399.13 552.79 388.067 570.26 370.469C587.969 352.631 592.152 331.752 584.71 315.172C577.64 299.422 584.732 280.948 600.551 273.909C616.369 266.87 634.924 273.932 641.993 289.682C662.564 335.511 645.91 383.134 614.884 414.387C583.619 445.88 534.981 464.497 482.449 454.923C431.608 445.658 398.307 418.164 378.102 393.361C368.066 381.04 361.163 369.293 356.718 360.511C354.486 356.101 352.845 352.382 351.718 349.636C351.154 348.261 350.716 347.123 350.395 346.259C350.235 345.826 350.104 345.462 350 345.168C349.948 345.022 349.904 344.893 349.866 344.783L349.814 344.632L349.792 344.566L349.782 344.537C349.777 344.522 349.772 344.508 379.522 334.596L349.772 344.508C344.274 328.149 353.136 310.449 369.567 304.974C385.928 299.523 403.624 308.249 409.202 324.476Z" fill="#B13C45"/>
<ellipse rx="31.3562" ry="31.2521" transform="matrix(0.940168 0.340712 0.343332 -0.939214 378.024 333.146)" fill="url(#paint2_linear)"/>
<ellipse rx="31.5" ry="31.3636" transform="matrix(1 0 0 -1 433.5 234.481)" fill="url(#paint3_linear)"/>
<ellipse rx="31" ry="31.3636" transform="matrix(1 0 0 -1 236 389.805)" fill="url(#paint4_linear)"/>
<ellipse rx="31.5" ry="31.3636" transform="matrix(1 0 0 -1 63.5 333.052)" fill="url(#paint5_linear)"/>
<path d="M418.128 237.182H420.969C421.035 237.755 421.337 238.221 421.878 238.579C422.424 238.93 423.092 239.106 423.88 239.106C424.661 239.106 425.296 238.94 425.784 238.608C426.279 238.269 426.526 237.84 426.526 237.319C426.526 236.863 426.344 236.495 425.979 236.215C425.615 235.935 425.006 235.701 424.153 235.512L422.317 235.112C419.732 234.558 418.44 233.247 418.44 231.176C418.44 229.887 418.941 228.846 419.944 228.051C420.953 227.257 422.249 226.86 423.831 226.86C425.458 226.86 426.757 227.247 427.727 228.022C428.697 228.79 429.195 229.816 429.221 231.098H426.458C426.412 230.506 426.148 230.04 425.667 229.702C425.191 229.357 424.583 229.184 423.841 229.184C423.111 229.184 422.522 229.344 422.073 229.663C421.63 229.982 421.409 230.402 421.409 230.922C421.409 231.352 421.588 231.7 421.946 231.967C422.311 232.234 422.9 232.462 423.714 232.651L425.423 233.012C426.835 233.312 427.864 233.78 428.508 234.418C429.153 235.05 429.475 235.903 429.475 236.977C429.475 238.344 428.961 239.431 427.932 240.239C426.904 241.04 425.514 241.44 423.762 241.44C422.063 241.44 420.709 241.062 419.7 240.307C418.697 239.545 418.173 238.504 418.128 237.182ZM441.242 230.727L437.648 241.196H434.426L430.803 230.727H433.859L436.037 238.676H436.096L438.264 230.727H441.242ZM447.404 238.969C448.12 238.969 448.686 238.702 449.103 238.168C449.526 237.628 449.738 236.886 449.738 235.942C449.738 234.998 449.526 234.246 449.103 233.686C448.68 233.126 448.113 232.846 447.404 232.846C446.701 232.846 446.141 233.126 445.724 233.686C445.314 234.239 445.109 234.991 445.109 235.942C445.109 236.892 445.314 237.635 445.724 238.168C446.134 238.702 446.694 238.969 447.404 238.969ZM447.355 245.141C445.994 245.141 444.874 244.842 443.995 244.243C443.123 243.65 442.628 242.882 442.511 241.938H445.304C445.415 242.303 445.662 242.596 446.046 242.817C446.437 243.045 446.899 243.159 447.433 243.159C448.156 243.159 448.719 242.973 449.122 242.602C449.526 242.237 449.728 241.746 449.728 241.127V239.292H449.669C449.422 239.858 449.008 240.314 448.429 240.659C447.85 240.997 447.186 241.167 446.437 241.167C445.148 241.167 444.116 240.698 443.341 239.76C442.573 238.823 442.189 237.543 442.189 235.922C442.189 234.262 442.573 232.954 443.341 231.997C444.109 231.04 445.158 230.561 446.486 230.561C447.228 230.561 447.882 230.74 448.449 231.098C449.015 231.456 449.438 231.941 449.718 232.553H449.767V230.727H452.579V241.049C452.579 242.293 452.101 243.286 451.144 244.028C450.193 244.77 448.93 245.141 447.355 245.141Z" fill="#191919"/>
<path d="M373.948 342.196H370.393L365.657 328.104H368.957L372.18 339.159H372.248L375.471 328.104H378.684L373.948 342.196ZM380.021 342.196V331.727H382.775V333.592H382.834C383.12 332.928 383.537 332.42 384.084 332.069C384.637 331.711 385.311 331.532 386.105 331.532C387.264 331.532 388.159 331.877 388.791 332.567C389.422 333.257 389.738 334.217 389.738 335.448V342.196H386.886V336.043C386.886 335.353 386.724 334.823 386.398 334.452C386.073 334.081 385.594 333.895 384.963 333.895C384.331 333.895 383.823 334.107 383.439 334.53C383.062 334.953 382.873 335.506 382.873 336.19V342.196H380.021Z" fill="#191919"/>
<path d="M46.1667 326.104H51.8991C53.3509 326.104 54.5261 326.547 55.4245 327.432C56.3294 328.318 56.7819 329.483 56.7819 330.928C56.7819 332.367 56.3164 333.532 55.3854 334.424C54.4544 335.31 53.2435 335.752 51.7526 335.752H49.1159V340.196H46.1667V326.104ZM49.1159 328.438V333.448H51.1081C51.9544 333.448 52.612 333.23 53.0807 332.793C53.5495 332.357 53.7839 331.739 53.7839 330.938C53.7839 330.137 53.5495 329.522 53.0807 329.092C52.6185 328.656 51.9642 328.438 51.1179 328.438H49.1159ZM58.9102 340.196V329.727H61.6641V331.592H61.7227C62.0091 330.928 62.4258 330.42 62.9727 330.069C63.526 329.711 64.1999 329.532 64.9941 329.532C66.153 329.532 67.0482 329.877 67.6797 330.567C68.3112 331.257 68.627 332.217 68.627 333.448V340.196H65.7754V334.043C65.7754 333.353 65.6126 332.823 65.2871 332.452C64.9616 332.081 64.4831 331.895 63.8516 331.895C63.2201 331.895 62.7122 332.107 62.3281 332.53C61.9505 332.953 61.7617 333.506 61.7617 334.19V340.196H58.9102ZM75.8919 337.969C76.6081 337.969 77.1745 337.702 77.5911 337.168C78.0143 336.628 78.2259 335.886 78.2259 334.942C78.2259 333.998 78.0143 333.246 77.5911 332.686C77.168 332.126 76.6015 331.846 75.8919 331.846C75.1888 331.846 74.6289 332.126 74.2122 332.686C73.8021 333.239 73.597 333.991 73.597 334.942C73.597 335.892 73.8021 336.635 74.2122 337.168C74.6224 337.702 75.1823 337.969 75.8919 337.969ZM75.8431 344.141C74.4824 344.141 73.3626 343.842 72.4837 343.243C71.6113 342.65 71.1165 341.882 70.9993 340.938H73.7923C73.903 341.303 74.1504 341.596 74.5345 341.817C74.9251 342.045 75.3874 342.159 75.9212 342.159C76.6439 342.159 77.207 341.973 77.6107 341.602C78.0143 341.237 78.2161 340.746 78.2161 340.127V338.292H78.1575C77.9101 338.858 77.4967 339.314 76.9173 339.659C76.3379 339.997 75.6738 340.167 74.9251 340.167C73.6361 340.167 72.6042 339.698 71.8294 338.76C71.0612 337.823 70.6771 336.543 70.6771 334.922C70.6771 333.262 71.0612 331.954 71.8294 330.997C72.5976 330.04 73.6458 329.561 74.9739 329.561C75.7161 329.561 76.3704 329.74 76.9368 330.098C77.5032 330.456 77.9264 330.941 78.2064 331.553H78.2552V329.727H81.0677V340.049C81.0677 341.293 80.5892 342.286 79.6321 343.028C78.6816 343.77 77.4186 344.141 75.8431 344.141Z" fill="#191919"/>
<path d="M220.52 385.104H226.253C227.704 385.104 228.88 385.547 229.778 386.432C230.683 387.318 231.135 388.483 231.135 389.928C231.135 391.367 230.67 392.532 229.739 393.424C228.808 394.31 227.597 394.752 226.106 394.752H223.469V399.196H220.52V385.104ZM223.469 387.438V392.448H225.462C226.308 392.448 226.966 392.23 227.434 391.793C227.903 391.357 228.137 390.739 228.137 389.938C228.137 389.137 227.903 388.522 227.434 388.092C226.972 387.656 226.318 387.438 225.471 387.438H223.469ZM236.799 399.362C235.49 399.362 234.452 398.877 233.684 397.907C232.915 396.937 232.531 395.615 232.531 393.942C232.531 392.282 232.915 390.97 233.684 390.006C234.458 389.043 235.503 388.561 236.818 388.561C237.561 388.561 238.212 388.74 238.771 389.098C239.338 389.456 239.751 389.931 240.012 390.524H240.07V385.104H242.922V399.196H240.109V397.399H240.061C239.8 397.991 239.38 398.467 238.801 398.825C238.221 399.183 237.554 399.362 236.799 399.362ZM237.766 390.846C237.049 390.846 236.483 391.126 236.066 391.686C235.656 392.246 235.451 393.004 235.451 393.961C235.451 394.925 235.656 395.683 236.066 396.237C236.483 396.79 237.049 397.067 237.766 397.067C238.475 397.067 239.038 396.79 239.455 396.237C239.878 395.677 240.09 394.918 240.09 393.961C240.09 393.011 239.878 392.256 239.455 391.696C239.038 391.129 238.475 390.846 237.766 390.846ZM246.212 399.196V390.875H244.786V388.776H246.212V387.985C246.212 386.943 246.479 386.181 247.013 385.7C247.553 385.218 248.436 384.977 249.659 384.977C250.219 384.977 250.704 385.019 251.115 385.104V386.989C250.906 386.95 250.649 386.93 250.343 386.93C249.445 386.93 248.995 387.314 248.995 388.083V388.776H251.076V390.875H249.064V399.196H246.212Z" fill="#191919"/>
</g>
<defs>
<linearGradient id="paint0_linear" x1="-10.803" y1="94.372" x2="291.225" y2="358.062" gradientUnits="userSpaceOnUse">
<stop stop-color="#B13C45" stop-opacity="0"/>
<stop offset="0.876961" stop-color="#B13C45"/>
</linearGradient>
<linearGradient id="paint1_linear" x1="339.5" y1="54.762" x2="387.613" y2="222.146" gradientUnits="userSpaceOnUse">
<stop stop-color="#B13C45" stop-opacity="0"/>
<stop offset="0.876961" stop-color="#B13C45"/>
</linearGradient>
<linearGradient id="paint2_linear" x1="30.259" y1="-28.914" x2="-15.6696" y2="22.4502" gradientUnits="userSpaceOnUse">
<stop stop-color="#FC8161"/>
<stop offset="0.999472" stop-color="#B13C45"/>
</linearGradient>
<linearGradient id="paint3_linear" x1="30.3977" y1="-29.0171" x2="-15.6894" y2="22.5768" gradientUnits="userSpaceOnUse">
<stop stop-color="#FC8161"/>
<stop offset="0.999472" stop-color="#B13C45"/>
</linearGradient>
<linearGradient id="paint4_linear" x1="29.9152" y1="-29.0171" x2="-16.249" y2="21.8428" gradientUnits="userSpaceOnUse">
<stop stop-color="#FC8161"/>
<stop offset="0.999472" stop-color="#B13C45"/>
</linearGradient>
<linearGradient id="paint5_linear" x1="30.3977" y1="-29.0171" x2="-15.6894" y2="22.5768" gradientUnits="userSpaceOnUse">
<stop stop-color="#FC8161"/>
<stop offset="0.999472" stop-color="#B13C45"/>
</linearGradient>
</defs>
</svg>
