<svg width="21" height="23" viewBox="0 0 21 23" fill="none" xmlns="http://www.w3.org/2000/svg">
<g clip-path="url(#clip0)">
<path d="M17.3735 5.43237H14.8362C14.3438 5.43237 13.9446 5.83152 13.9446 6.3239C13.9446 6.81629 14.3438 7.21543 14.8362 7.21543H17.3735C17.8659 7.21543 18.265 7.61458 18.265 8.10696V19.6966C18.265 20.189 17.8659 20.5882 17.3735 20.5882H4.34373C3.85134 20.5882 3.4522 20.189 3.4522 19.6966V8.10691C3.4522 7.61452 3.85134 7.21538 4.34373 7.21538H6.88109C7.37348 7.21538 7.77262 6.81624 7.77262 6.32385C7.77262 5.83146 7.37348 5.43237 6.88109 5.43237H4.34373C2.86662 5.43237 1.66919 6.6298 1.66919 8.10691V19.6966C1.66919 21.1737 2.86662 22.3711 4.34373 22.3711H17.3735C18.8506 22.3711 20.0481 21.1737 20.0481 19.6966V8.10691C20.0481 6.6298 18.8506 5.43237 17.3735 5.43237Z" fill="white"/>
<path d="M15.9838 10.1512C15.6383 9.81755 15.0906 9.81755 14.7451 10.1512L11.8076 13.0869V1.18059C11.8076 0.688206 11.4084 0.289062 10.916 0.289062C10.4237 0.289062 10.0245 0.688206 10.0245 1.18059V13.087L7.08873 10.1512C6.73457 9.80914 6.1702 9.81891 5.82815 10.1731C5.49446 10.5186 5.49446 11.0663 5.82815 11.4118L10.2857 15.8693C10.6334 16.2179 11.1979 16.2186 11.5465 15.8709L11.5481 15.8693L16.0057 11.4118C16.3478 11.0576 16.3379 10.4932 15.9838 10.1512Z" fill="white"/>
</g>
<defs>
<clipPath id="clip0">
<rect width="20.1619" height="22.0821" fill="white" transform="translate(0.777588 0.289062)"/>
</clipPath>
</defs>
</svg>
