<svg xmlns="http://www.w3.org/2000/svg" width="28" height="28" fill="#ff8e00"  xmlns:v="https://vecta.io/nano"><path d="M27.5 14c0 7.456-6.044 13.5-13.5 13.5S.5 21.456.5 14 6.544.5 14 .5 27.5 6.544 27.5 14z" fill-opacity=".15" stroke="#ff8e00"/><path d="M12.131 18.462l-3.805-3.783c-.106-.106-.159-.243-.159-.41s.053-.304.159-.41l.843-.82c.106-.121.239-.182.399-.182a.58.58 0 0 1 .422.182l2.552 2.552 5.469-5.469a.58.58 0 0 1 .422-.182.51.51 0 0 1 .399.182l.843.82c.106.106.159.243.159.41s-.053.304-.159.41l-6.722 6.699a.52.52 0 0 1-.41.182.52.52 0 0 1-.41-.182z"/></svg>