<svg width="38" height="52" fill="none" xmlns="http://www.w3.org/2000/svg"><path fill-rule="evenodd" clip-rule="evenodd" d="M25.692 8.525c1.622-1.85 2.435-3.85 2.435-5.99 0-.284-.014-.57-.046-.857-1.13.056-2.331.385-3.6.98-1.273.605-2.323 1.362-3.148 2.272-1.652 1.799-2.583 3.999-2.583 6.054 0 .284.019.555.052.812 2.566.2 4.933-1.071 6.89-3.27zm8.633 30.655a23.032 23.032 0 002.393-4.138 31.31 31.31 0 00.787-1.985 10.188 10.188 0 01-3.084-1.945c-2.026-1.805-3.056-4.078-3.087-6.81-.032-3.507 1.625-6.24 4.975-8.192-1.872-2.559-4.686-3.978-8.432-4.27-1.383-.112-3.07.175-5.07.866-2.114.746-3.361 1.12-3.729 1.12-.492 0-1.615-.32-3.364-.95-1.753-.63-3.164-.95-4.24-.95a11.238 11.238 0 00-5.482 1.488 11.143 11.143 0 00-4.056 3.944C.645 19.432 0 21.907 0 24.776c0 2.504.478 5.091 1.432 7.763.89 2.474 2.028 4.643 3.41 6.514 1.29 1.753 2.366 2.99 3.226 3.71 1.348 1.206 2.698 1.78 4.053 1.724.89-.03 2.056-.323 3.502-.886 1.444-.56 2.794-.837 4.053-.837 1.2 0 2.513.277 3.94.837 1.425.563 2.648.84 3.662.84 1.413-.031 2.732-.589 3.963-1.677.794-.664 1.825-1.858 3.084-3.584z" fill="#fff"/></svg>