<svg width="120" height="52" fill="none" xmlns="http://www.w3.org/2000/svg"><path d="M48.68 22.793c0-2.941 2.25-6.114 7.15-6.114l3.028-.02c2.51 0 4.123.368 5.437 1.2l.18.116-1.534 2.148-.16-.097c-.995-.58-2.23-.813-4.282-.813h-2.53c-2.987 0-4.6 1.374-4.6 3.91v7.584c0 2.516 1.633 3.91 4.6 3.91h2.55c2.071 0 3.306-.214 4.282-.813l.16-.097 1.533 2.167-.179.116c-1.314.852-2.948 1.2-5.438 1.2H55.81c-4.9 0-7.13-3.174-7.13-6.115v-8.282z" fill="#fff"/><path fill-rule="evenodd" clip-rule="evenodd" d="M76.763 16.68h-3.466c-4.9 0-7.15 3.173-7.15 6.114v8.282c0 2.94 2.23 6.114 7.13 6.114h3.505c4.9 0 7.131-3.173 7.131-6.114v-8.282c0-2.96-2.23-6.115-7.15-6.115zm4.481 14.067c0 2.477-1.673 3.909-4.581 3.909h-3.247c-2.967 0-4.6-1.394-4.6-3.91v-7.623c0-2.477 1.672-3.909 4.6-3.909h3.247c2.908 0 4.581 1.432 4.581 3.909v7.624z" fill="#fff"/><path d="M94.031 16.717c2.809 0 4.522.678 5.816 2.303 1.315-1.625 3.008-2.303 5.856-2.322 4.223 0 6.951 2.341 6.951 5.921v14.455h-2.669V22.967c0-2.515-1.454-3.715-4.421-3.715-2.809 0-4.362 1.239-4.362 3.483v14.358h-2.67V22.735c0-2.244-1.553-3.483-4.361-3.483-2.968 0-4.422 1.22-4.422 3.715v14.126H87.08V22.638c0-3.599 2.729-5.92 6.951-5.92z" fill="#fff"/><path fill-rule="evenodd" clip-rule="evenodd" d="M118.071 17.8a1.693 1.693 0 00-.618-.076l-.776-.02v2.148h.398v-.851h.319c.139 0 .298.019.438.077.139.116.219.31.199.503v.271h.359v-.426a.529.529 0 00-.12-.348.532.532 0 00-.378-.213.612.612 0 00.318-.097.444.444 0 00.219-.425.523.523 0 00-.358-.542zm-.657.194c.159-.019.338.02.478.078.099.02.139.135.139.31.02.154-.08.29-.219.348-.12.019-.259.038-.378.038h-.359v-.774h.339z" fill="#fff"/><path fill-rule="evenodd" clip-rule="evenodd" d="M116.039 20.2c.817.774 2.092.774 2.888 0 .379-.367.598-.87.618-1.412 0-.523-.219-1.026-.618-1.393a2.086 2.086 0 00-2.888 0 1.904 1.904 0 000 2.806zm-.318-1.393c0-.464.179-.89.518-1.2h.019a1.767 1.767 0 012.45 0c.339.33.518.755.518 1.2 0 .465-.199.89-.518 1.2a1.791 1.791 0 01-2.469 0 1.66 1.66 0 01-.518-1.2z" fill="#fff"/><path d="M36.09 16.679a11.783 11.783 0 00-4.7.716l-.219.077 1.335 2.303.159-.058c.916-.368 1.912-.484 3.764-.484h1.992c2.908 0 4.581 1.432 4.581 3.909v7.624c0 2.477-1.673 3.909-4.58 3.909h-3.227c-2.988 0-4.442-1.2-4.442-3.58s1.454-3.58 4.442-3.58h4.54V24.96h-4.68c-4.442 0-6.971 2.225-6.971 6.134 0 3.773 2.669 6.114 6.971 6.114h3.506c4.9 0 7.13-3.173 7.13-6.114v-8.282c0-2.941-2.23-6.115-7.13-6.115h-2.47v-.02zM22.925 30.92V16.814h2.61v14.455c0 3.599-2.73 5.92-6.952 5.92-2.808 0-4.521-.676-5.816-2.302-1.294 1.626-2.987 2.303-5.816 2.303C2.73 37.19 0 34.848 0 31.269V16.814h2.669V30.92c0 2.516 1.454 3.715 4.422 3.715 2.808 0 4.362-1.218 4.362-3.463V16.814h2.689v14.358c0 2.225 1.553 3.463 4.361 3.463 2.968 0 4.422-1.218 4.422-3.715z" fill="#fff"/></svg>