<svg width="148" height="52" fill="none" xmlns="http://www.w3.org/2000/svg"><path d="M147.435 34.07l-5.218-14.06-.021-.064c-.808-1.993-2.773-3.287-4.977-3.287-2.205 0-4.148 1.294-4.977 3.266l-5.283 14.124a2.154 2.154 0 00-.087 1.23 2.305 2.305 0 002.226 1.782h7.247c.633 0 1.157-.382 1.31-.955.153-.572-.131-1.166-.677-1.463l-4.497-2.417 3.995-10.71a.786.786 0 01.742-.466c.328 0 .612.19.742.466l5.196 14.018a2.283 2.283 0 002.139 1.463 2.3 2.3 0 00.764-.127 2.183 2.183 0 001.288-1.145 1.99 1.99 0 00.088-1.654zm-137.13.128a205.3 205.3 0 01-1.987-1.06V21.304l1.55-.848c.48-.255.786-.764.83-1.337.043-.636-.197-1.23-.7-1.611-.327-.255-.698-.297-.96-.297H3.014c-.284 0-.633.042-.96.297-.481.382-.743.975-.7 1.611.044.573.372 1.082.83 1.337l1.55.848v11.558H2.686c-1.157 0-2.14.996-2.14 2.184 0 1.167.983 2.142 2.14 2.142h7.16c.611 0 1.113-.403 1.288-1.039.197-.615 0-1.506-.83-1.951zM120.78 16.68c-1.266 0-2.292.996-2.292 2.205v13.636H117.944l-6.506-13.042c-.786-1.527-2.335-2.439-4.169-2.439h-2.489c-1.309 0-2.357.933-2.357 2.1V34.94c0 1.209 1.026 2.205 2.292 2.205 1.266 0 2.292-.996 2.292-2.205V21.43h.327l6.527 13.192c.808 1.59 2.402 2.587 4.17 2.587h2.706c1.223 0 2.336-1.124 2.336-2.375V18.907c0-1.23-1.026-2.226-2.292-2.226zm-44.88.678H61.34c-1.266 0-2.27.955-2.27 2.185s1.004 2.184 2.27 2.184h5.042v12.958c0 1.23.983 2.206 2.249 2.206s2.248-.976 2.248-2.206V21.728h4.999c1.266 0 2.27-.954 2.27-2.184 0-1.23-.982-2.184-2.248-2.184zm-42.327-.296c-1.244 0-2.248.996-2.248 2.205v13.254h-.546L24.275 19.48c-.786-1.527-2.335-2.439-4.17-2.439h-2.488c-1.31 0-2.357.933-2.357 2.1V34.94c0 1.209 1.026 2.205 2.292 2.205 1.266 0 2.292-.996 2.292-2.205V21.43h.327l6.527 13.192c.808 1.59 2.401 2.587 4.17 2.587h2.706c1.201 0 2.27-1.103 2.27-2.375V19.289c0-1.23-1.026-2.226-2.27-2.226zm59.703 2.947l-.022-.063c-.808-1.994-2.772-3.287-4.977-3.287-2.205 0-4.148 1.293-4.977 3.266L78.018 34.07a2.16 2.16 0 00-.087 1.23 2.306 2.306 0 002.226 1.78h7.248c.633 0 1.156-.381 1.31-.953.152-.573-.132-1.167-.677-1.464l-4.497-2.417 3.994-10.71a.822.822 0 011.485 0l5.195 14.018a2.283 2.283 0 002.14 1.463c.261 0 .523-.042.763-.127 1.179-.403 1.79-1.675 1.376-2.82l-5.217-14.06zm-39.86 6.744l-6.986-3.117c-.633-.255-1.702-.806-1.702-1.549 0-.466.393-.848.873-.848h6.112c.371 0 .655.17.808.509.393.912 1.135 1.421 2.052 1.421.218 0 .458-.043.655-.106a2.18 2.18 0 001.266-1.04 2.07 2.07 0 00.13-1.61c-.742-2.228-2.444-3.394-4.89-3.394h-6.111c-2.86 0-5.196 2.27-5.196 5.047 0 2.333 1.529 4.241 4.3 5.387l7.008 3.139c.284.106 1.68.7 1.68 1.526a.864.864 0 01-.872.849h-7.531c-.415 0-.83-.255-.939-.594-.284-.87-1.113-1.463-2.052-1.463-.218 0-.458.042-.677.106a2.18 2.18 0 00-1.266 1.039 2.088 2.088 0 00-.13 1.59c.632 2.27 2.444 3.5 5.042 3.5h7.53c2.86 0 5.196-2.27 5.196-5.048 0-2.269-1.572-4.241-4.3-5.344z" fill="#fff"/></svg>