<svg width="140" height="52" fill="none" xmlns="http://www.w3.org/2000/svg"><path d="M.023 11.142h14.209L14.23 25.35H.023V11.142zM15.71 11.276h14.207V25.484H15.71c-.001-3.554-.001-7.107 0-10.66v-3.548zM132.628 16.03c-1.476-.406-3.168-.327-4.478.526-.845.54-1.458 1.406-1.733 2.365-.226.736-.215 1.501-.205 2.265.005.338.009.675-.007 1.01h-.143c-.663-.006-1.325-.01-1.987.004.007.763.005 1.526.003 2.288v.002l-.001.172c.361.008.722.007 1.083.006.352 0 .704-.001 1.055.005-.004 2.427-.003 4.853-.002 7.28v.01l.001 3.073h3.072v-2.604l.001-7.762c1.499-.003 2.998-.002 4.498-.001v2.898c-.001 1.236-.001 2.472.003 3.708.014 1.025.188 2.122.868 2.932.588.717 1.521 1.044 2.423 1.11.949.068 1.93-.048 2.809-.43v-2.52c-.674.452-1.604.63-2.337.22-.437-.241-.608-.758-.664-1.225-.062-.53-.056-1.063-.05-1.596.002-.263.005-.527 0-.79v-1.568c.001-.912.001-1.824-.002-2.736.324.001.647-.001.97-.003.694-.006 1.389-.01 2.083.018v-2.495h-1.11c-.644-.002-1.287-.003-1.931.007-.014-.77-.012-1.541-.01-2.312.001-.512.002-1.023-.001-1.535-.365.11-.728.222-1.092.335-.648.2-1.296.4-1.948.585a56.61 56.61 0 00-.011 1.7c.001.406.002.813-.002 1.22h-1.637c-.953 0-1.906 0-2.859-.002.007-.254.003-.51-.001-.765-.007-.513-.015-1.027.059-1.536.091-.6.439-1.2 1.025-1.433.737-.303 1.563-.102 2.264.207-.002-.341-.001-.683 0-1.025.001-.536.002-1.072-.006-1.608zM64.06 17.337c-.41-.485-1.081-.696-1.7-.602-.854.097-1.582.873-1.56 1.743-.035.827.63 1.569 1.428 1.712.769.168 1.65-.157 2.045-.857a1.751 1.751 0 00-.213-1.996zM43.279 17.115h-4.47v17.921h1.227c.566 0 1.132 0 1.699-.002-.002-1.646-.001-3.292-.001-4.938v-3.084c.004-.729.002-1.457 0-2.186a162 162 0 01.016-3.61c.056.088.107.18.155.273.686 1.7 1.37 3.4 2.054 5.1l.002.006c1.133 2.815 2.266 5.631 3.408 8.443.304-.005.61-.004.914-.002.431.002.863.004 1.294-.012 1.007-2.575 2.028-5.144 3.049-7.714v-.002l.001-.001c.77-1.936 1.539-3.871 2.302-5.809.046-.099.1-.195.16-.287.014.198.021.396.02.594-.003 1.936-.002 3.872-.002 5.808.002 2.472.002 4.944-.004 7.416.677.01 1.354.008 2.032.006h1.07v-1.776c-.002-5.38-.003-10.761 0-16.142-.488.001-.977 0-1.465-.002-.945-.002-1.89-.005-2.835.01-1.077 2.682-2.17 5.358-3.261 8.033l-.001.002c-.708 1.733-1.415 3.466-2.118 5.2a62.973 62.973 0 01-.679-1.684v-.002c-.127-.322-.253-.645-.383-.966-.63-1.597-1.26-3.193-1.892-4.788l-.003-.01c-.765-1.931-1.529-3.862-2.29-5.795zM75.38 22.193a8.411 8.411 0 00-4.564-.013c-1.361.392-2.61 1.228-3.41 2.408-.953 1.383-1.29 3.111-1.215 4.768.075 1.593.703 3.183 1.86 4.299 1.065 1.034 2.532 1.591 4.003 1.67 1.438.07 2.944-.123 4.2-.87-.006-.493-.005-.985-.004-1.477 0-.435.001-.871-.003-1.307-.81.593-1.755 1.017-2.757 1.132-1.014.077-2.1-.167-2.874-.856-.747-.635-1.143-1.594-1.242-2.553-.133-1.225.045-2.556.814-3.558a3.607 3.607 0 012.552-1.417c1.26-.159 2.516.32 3.507 1.078.005-.429.004-.857.003-1.286-.001-.55-.003-1.102.007-1.652a3.685 3.685 0 00-.877-.366zM108.635 22.427c-1.345-.51-2.832-.693-4.253-.442-1.201.214-2.379.837-3.058 1.878-.594.892-.67 2.043-.424 3.065.165.693.588 1.307 1.147 1.743.633.486 1.365.8 2.094 1.114.187.08.374.16.558.244l.052.024c.467.22.954.45 1.29.854.372.544.259 1.435-.367 1.746-.654.314-1.418.309-2.121.194a6.729 6.729 0 01-2.788-1.203c-.006.585-.005 1.169-.004 1.753v.002c0 .405.001.81-.001 1.215.983.438 2.056.648 3.124.718 1.505.056 3.141-.238 4.276-1.299 1.19-1.051 1.477-2.914.8-4.324-.36-.753-1.05-1.275-1.76-1.674-.406-.235-.84-.414-1.273-.593-.531-.22-1.061-.439-1.541-.76-.509-.323-.654-1.032-.445-1.572.262-.546.893-.79 1.467-.811a5.417 5.417 0 013.228.953v-1.176l-.001-1.649zM85.98 22.148c-.926-.311-2.004-.268-2.852.241-.77.436-1.26 1.213-1.588 2.012v-.98c0-.409 0-.817.002-1.225h-.045c-.996-.005-1.992-.01-2.988.003.003 2.51.003 5.02.002 7.531v5.306h3.03V28.894c-.025-.89.048-1.81.438-2.622.358-.768 1.049-1.438 1.921-1.537a3.266 3.266 0 012.077.488v-1.366c0-.57 0-1.14.003-1.709zM61.585 22.194l-.505.002v6.564c0 2.092 0 4.184.002 6.276h3.05c.002-1.73.001-3.46 0-5.189 0-2.549-.002-5.097.005-7.646-.85-.016-1.701-.012-2.552-.008z" fill="#fff"/><path fill-rule="evenodd" clip-rule="evenodd" d="M96.034 22.478c-1.37-.623-2.925-.707-4.4-.52-1.548.196-3.056.925-4.039 2.16-.898 1.102-1.335 2.519-1.418 3.924-.124 1.657.153 3.414 1.125 4.797.829 1.193 2.137 2.013 3.55 2.315a8.827 8.827 0 003.598.003c1.382-.284 2.672-1.048 3.528-2.176.836-1.063 1.256-2.403 1.35-3.74.097-1.37-.042-2.788-.61-4.05a5.432 5.432 0 00-2.684-2.713zm-5.504 2.717c.544-.508 1.287-.756 2.021-.797.924-.06 1.907.2 2.57.872.71.698.985 1.71 1.061 2.677.055 1.057.011 2.159-.432 3.138-.294.66-.832 1.219-1.51 1.483-.794.305-1.685.323-2.505.11-.833-.219-1.54-.821-1.925-1.589-.496-.987-.57-2.13-.467-3.214.093-.986.436-2 1.187-2.68zM120.688 22.574c-1.4-.707-3.028-.81-4.562-.62-1.236.16-2.451.629-3.395 1.457-1.152.993-1.828 2.452-2.027 3.944-.189 1.493-.125 3.065.483 4.462a5.696 5.696 0 003.122 3.028c1.367.539 2.888.6 4.328.366 1.472-.243 2.866-1.017 3.778-2.208.973-1.23 1.392-2.823 1.389-4.375.022-1.038-.108-2.091-.477-3.066-.473-1.275-1.419-2.378-2.639-2.988zm-5.975 2.902c.55-.662 1.393-1.028 2.243-1.076.868-.06 1.795.14 2.462.727.615.51.956 1.274 1.112 2.044.175.903.174 1.837.025 2.744-.118.676-.351 1.35-.794 1.886-.446.537-1.11.865-1.796.965-.735.11-1.51.058-2.198-.238-.742-.315-1.317-.957-1.621-1.696-.364-.88-.436-1.856-.364-2.798.07-.912.329-1.848.931-2.558z" fill="#fff"/><path d="M.023 26.8h6.63c2.526 0 5.053 0 7.579.002v14.207H.023v-14.21zM26.342 26.8c-3.553 0-7.105 0-10.658.002v14.207h14.208V26.8h-3.55z" fill="#fff"/></svg>