<svg width="20" height="20" viewBox="0 0 20 20" fill="none" xmlns="http://www.w3.org/2000/svg">
<path d="M3.61349 15.0186C3.2452 15.3764 3.23468 16.0182 3.61349 16.3865C3.98178 16.7653 4.62365 16.7548 4.99194 16.3865L10.0006 11.3778L15.0094 16.3865C15.3776 16.7548 16.009 16.7653 16.3773 16.3865C16.7666 16.0182 16.7561 15.3869 16.3878 15.0081L11.3791 9.99938L16.3878 4.99067C16.7561 4.62238 16.7666 3.99103 16.3773 3.62274C16.009 3.23341 15.3776 3.24393 15.0094 3.61222L10.0006 8.63145L4.99194 3.61222C4.62365 3.25446 3.98178 3.23341 3.61349 3.62274C3.23468 3.99103 3.2452 4.62238 3.61349 4.99067L8.6222 9.99938L3.61349 15.0186Z" fill="white" fill-opacity="0.9"/>
</svg>
