<svg width="115" height="32" viewBox="0 0 115 32" fill="none" xmlns="http://www.w3.org/2000/svg">
<g clip-path="url(#clip0)">
<path fill-rule="evenodd" clip-rule="evenodd" d="M45.8003 18.3648L49.1002 8.54651H46.8617L44.6163 16.2488H44.5687L42.3233 8.54651H40.0236L43.3236 18.3648H45.8003ZM52.305 18.5213C54.1081 18.5213 55.4145 17.562 55.6322 16.1331H53.8087C53.625 16.691 53.0671 17.0516 52.339 17.0516C51.3252 17.0516 50.6652 16.3372 50.6652 15.2962V15.1737H55.6935V14.5681C55.6935 12.35 54.3531 10.9143 52.2302 10.9143C50.0733 10.9143 48.7124 12.4248 48.7124 14.7519C48.7124 17.0857 50.0597 18.5213 52.305 18.5213ZM50.6856 13.9558H53.7815C53.7407 13.0236 53.1351 12.384 52.2506 12.384C51.3796 12.384 50.7537 13.044 50.6856 13.9558ZM60.0413 18.5213C61.9601 18.5213 63.246 17.4123 63.3481 15.6908H61.4974C61.3749 16.4869 60.8578 16.9632 60.0617 16.9632C59.0751 16.9632 58.4627 16.1467 58.4627 14.711C58.4627 13.3026 59.0751 12.4725 60.0549 12.4725C60.8714 12.4725 61.3817 13.0168 61.4974 13.7857H63.3413C63.2528 12.1323 62.0009 10.9143 60.0277 10.9143C57.8436 10.9143 56.4487 12.3704 56.4487 14.711C56.4487 17.0925 57.8436 18.5213 60.0413 18.5213ZM68.1654 18.3104C67.9613 18.358 67.6211 18.3921 67.2196 18.3921C65.505 18.3921 64.8382 17.8205 64.8382 16.3985V12.5677H63.8108V11.0708H64.8382V9.39022H66.825V11.0708H68.1722V12.5677H66.825V16.0582C66.825 16.6162 67.0971 16.8815 67.6823 16.8815C67.8592 16.8815 68.0429 16.8679 68.1654 16.8475V18.3104ZM72.5064 18.5213C74.7109 18.5213 76.1194 17.1129 76.1194 14.711C76.1194 12.3432 74.6905 10.9143 72.5064 10.9143C70.3223 10.9143 68.8934 12.35 68.8934 14.711C68.8934 17.1061 70.3019 18.5213 72.5064 18.5213ZM70.9074 14.7178C70.9074 16.1807 71.5266 17.004 72.5064 17.004C73.4794 17.004 74.0986 16.1807 74.0986 14.7178C74.0986 13.2686 73.4726 12.4317 72.5064 12.4317C71.5402 12.4317 70.9074 13.2686 70.9074 14.7178ZM79.1268 18.3648V14.2892C79.1268 13.2618 79.6983 12.663 80.6781 12.663C80.9639 12.663 81.2361 12.7106 81.3994 12.7787V11.03C81.2633 10.9892 81.066 10.9552 80.8346 10.9552C79.9773 10.9552 79.3581 11.4587 79.0996 12.384H79.0588V11.0708H77.14V18.3648H79.1268ZM84.1959 14.1803V18.3648H82.2091V11.0708H84.1279V12.3704H84.1687C84.5565 11.4655 85.3254 10.9347 86.4481 10.9347C88.0674 10.9347 88.9792 11.9554 88.9792 13.6632V18.3648H86.9924V14.0782C86.9924 13.1257 86.5433 12.5813 85.652 12.5813C84.7606 12.5813 84.1959 13.2345 84.1959 14.1803ZM92.4016 18.4805C93.3134 18.4805 94.2183 18.0246 94.6266 17.249H94.6674V18.3648H96.5862V13.3502C96.5862 11.8805 95.3682 10.9143 93.4971 10.9143C91.5647 10.9143 90.3604 11.8873 90.2856 13.3026H92.1023C92.1975 12.7651 92.667 12.3976 93.4086 12.3976C94.1571 12.3976 94.6334 12.7923 94.6334 13.4727V13.9558L92.7963 14.0646C90.9796 14.1735 89.959 14.9424 89.959 16.2692C89.959 17.5824 91.0136 18.4805 92.4016 18.4805ZM91.9322 16.1603C91.9322 16.7046 92.3812 17.0448 93.0548 17.0448C93.919 17.0448 94.6334 16.4801 94.6334 15.6908V15.1601L93.0957 15.2554C92.354 15.3098 91.9322 15.6432 91.9322 16.1603ZM100.778 18.3921C101.179 18.3921 101.519 18.358 101.723 18.3104V16.8475C101.601 16.8679 101.417 16.8815 101.24 16.8815C100.655 16.8815 100.383 16.6162 100.383 16.0582V12.5677H101.73V11.0708H100.383V9.39022H98.3961V11.0708H97.3686V12.5677H98.3961V16.3985C98.3961 17.8205 99.0629 18.3921 100.778 18.3921ZM109.677 14.711C109.677 17.1129 108.269 18.5213 106.064 18.5213C103.86 18.5213 102.451 17.1061 102.451 14.711C102.451 12.35 103.88 10.9143 106.064 10.9143C108.248 10.9143 109.677 12.3432 109.677 14.711ZM106.064 17.004C105.085 17.004 104.465 16.1807 104.465 14.7178C104.465 13.2686 105.098 12.4317 106.064 12.4317C107.03 12.4317 107.656 13.2686 107.656 14.7178C107.656 16.1807 107.037 17.004 106.064 17.004ZM112.685 14.2892V18.3648H110.698V11.0708H112.617V12.384H112.658C112.916 11.4587 113.535 10.9552 114.393 10.9552C114.624 10.9552 114.821 10.9892 114.957 11.03V12.7787C114.794 12.7106 114.522 12.663 114.236 12.663C113.256 12.663 112.685 13.2618 112.685 14.2892Z" fill="white"/>
<path d="M10.5245 21.1808C9.73383 23.6462 9.21251 25.6397 8.99454 27.098C8.89777 27.648 8.56936 28.1157 8.08165 28.3099L1.30615 31.131C1.2154 31.1572 1.12687 31.1508 1.07229 31.0814C0.990419 30.9772 0.999302 30.8468 1.09449 30.7554L5.25788 26.6655C5.3848 26.5436 5.5663 26.4911 5.74114 26.5364C5.77065 26.5386 5.80016 26.5407 5.82745 26.5754L5.85696 26.5775C6.12033 26.6292 6.36085 26.581 6.58296 26.3677C6.932 26.0325 6.97641 25.3805 6.61943 24.9618C6.29196 24.5451 5.70398 24.4701 5.35495 24.8053C5.18572 24.9678 5.08117 25.2127 5.06672 25.4726L5.06557 25.5706L5.05891 25.6684C5.07509 25.8661 5.00275 26.0575 4.87583 26.1794L0.621693 30.2956C0.558231 30.3565 0.467481 30.3827 0.381172 30.3438C0.267573 30.2701 0.246946 30.1376 0.283118 30.0419L3.57004 22.7115C3.81214 22.2048 4.28144 21.8454 4.78755 21.8163C6.33317 21.7637 8.24624 21.541 10.5245 21.1808Z" fill="white"/>
<path d="M31.3619 0.92082L31.2699 1.09782C30.3799 2.76575 23.6915 14.5171 12.9778 18.7826C18.2663 6.95697 30.9833 1.10139 31.3619 0.92082Z" fill="white"/>
<path d="M10.6223 26.72C11.0107 24.6404 11.6269 22.71 12.3883 20.9427C24.084 15.7992 30.7504 4.6854 31.6511 3.10822L31.7449 2.94141C31.7449 2.94141 24.3228 20.278 10.6223 26.72Z" fill="white"/>
<path d="M29.6127 0.107861L29.9971 -0.0290466L29.4748 0.231681C27.0223 1.49164 16.643 7.32235 10.9664 19.3231C9.22417 19.8961 7.37254 20.2533 5.46005 20.2692C12.2648 7.15982 27.0438 1.06998 29.6127 0.107861Z" fill="white"/>
</g>
<defs>
<clipPath id="clip0">
<rect width="115" height="32" fill="white"/>
</clipPath>
</defs>
</svg>
