<svg width="20" height="20" viewBox="0 0 20 20" fill="none" xmlns="http://www.w3.org/2000/svg">
<path fill-rule="evenodd" clip-rule="evenodd" d="M4.19573 4.16663C3.71946 4.16663 3.33337 4.56372 3.33337 5.05357C3.33337 5.54341 3.71946 5.94051 4.19573 5.94051H15.8044C16.2806 5.94051 16.6667 5.54341 16.6667 5.05357C16.6667 4.56372 16.2806 4.16663 15.8044 4.16663H4.19573ZM8.34167 9.11302C7.8654 9.11302 7.47931 9.51012 7.47931 9.99996C7.47931 10.4898 7.8654 10.8869 8.34167 10.8869H15.8044C16.2806 10.8869 16.6667 10.4898 16.6667 9.99996C16.6667 9.51012 16.2806 9.11302 15.8044 9.11302H8.34167ZM4.19573 14.0594C3.71946 14.0594 3.33337 14.4565 3.33337 14.9464C3.33337 15.4362 3.71946 15.8333 4.19573 15.8333H15.8044C16.2806 15.8333 16.6667 15.4362 16.6667 14.9464C16.6667 14.4565 16.2806 14.0594 15.8044 14.0594H4.19573Z" fill="white" fill-opacity="0.9"/>
</svg>
