<svg width="24" height="24" viewBox="0 0 24 24" fill="none" xmlns="http://www.w3.org/2000/svg">
<path d="M10.452 17.7854C11.9206 17.7854 13.29 17.3626 14.4509 16.6352L18.4201 20.5674C18.7078 20.8624 19.0948 21 19.5017 21C20.3649 21 21 20.3413 21 19.4959C21 19.1125 20.8611 18.7291 20.5733 18.4342L16.634 14.5314C17.4476 13.3517 17.914 11.9263 17.914 10.3927C17.914 6.33261 14.5601 3 10.452 3C6.36384 3 3 6.32277 3 10.3927C3 14.4626 6.35391 17.7854 10.452 17.7854ZM10.452 15.6521C7.54465 15.6521 5.15325 13.2829 5.15325 10.3927C5.15325 7.50246 7.54465 5.13326 10.452 5.13326C13.3693 5.13326 15.7607 7.50246 15.7607 10.3927C15.7607 13.2829 13.3693 15.6521 10.452 15.6521Z" fill="white" fill-opacity="0.4"/>
</svg>
