<svg width="1440" height="532" viewBox="0 0 1440 532" fill="none" xmlns="http://www.w3.org/2000/svg">
<g opacity="0.7">
<path d="M1447.46 2L-23.5391 251.5" stroke="#009CFF" stroke-width="2" stroke-linecap="square"/>
<path opacity="0.415536" d="M1463.46 281.5L1089.96 263L847.96 237L595.46 347.5L232.96 314.5L-18.04 347.5" stroke="#009CFF" stroke-width="2" stroke-linecap="square"/>
<path d="M1463.46 437.5L1236.91 337.71L1047.46 359.5L736.96 465.5C736.96 465.5 542.46 381 382.46 403.845C152.959 436.613 -6.54004 291 -6.54004 291" stroke="#009CFF" stroke-width="2" stroke-linecap="square"/>
<path opacity="0.415536" d="M1577.46 235.732L1424.88 191.946L1233.65 213.228L922.733 320.463C922.733 320.463 650.547 250.074 551.347 258.081C324.882 276.358 -22.54 191.946 -22.54 191.946" stroke="#009CFF" stroke-width="2" stroke-linecap="square"/>
<path d="M-1.88843 117.868L150.692 74.0815L341.918 95.3641L652.838 202.599C652.838 202.599 925.025 132.21 1024.22 140.216C1250.69 158.494 1456 117.868 1456 117.868" stroke="#009CFF" stroke-width="2" stroke-linecap="square"/>
<path d="M1668.78 433.2L1374.98 359C1374.98 359 1152.88 514.074 985.188 523.537C817.499 533 -6.03906 427.5 -32 409" stroke="#009CFF" stroke-width="2" stroke-linecap="square"/>
<rect x="145.461" y="69" width="11.096" height="11.096" fill="#001A2C" stroke="#009CFF" stroke-width="2"/>
<rect x="960.461" y="519" width="11.096" height="11.096" fill="#001A2C" stroke="#009CFF" stroke-width="2"/>
<rect x="538.461" y="485" width="11.096" height="11.096" fill="#001A2C" stroke="#009CFF" stroke-width="2"/>
<path d="M1367.46 353H1378.56V364.096H1367.46V353Z" fill="#001A2C" stroke="#009CFF" stroke-width="2"/>
<rect x="1231.84" y="333.016" width="11.096" height="11.096" fill="#001A2C" stroke="#009CFF" stroke-width="2"/>
<rect x="1041.66" y="354.653" width="11.096" height="11.096" fill="#001A2C" stroke="#009CFF" stroke-width="2"/>
<rect x="730.207" y="460.56" width="11.096" height="11.096" fill="#001A2C" stroke="#009CFF" stroke-width="2"/>
<rect x="377.754" y="396.219" width="11.096" height="11.096" fill="#001A2C" stroke="#009CFF" stroke-width="2"/>
<rect x="512.699" y="152.519" width="11.096" height="11.096" fill="#001A2C" stroke="#009CFF" stroke-width="2"/>
<rect x="647.077" y="196.931" width="11.096" height="11.096" fill="#001A2C" stroke="#009CFF" stroke-width="2"/>
<rect x="1231.84" y="207.75" width="11.096" height="11.096" fill="#001A2C" stroke="#009CFF" stroke-width="2"/>
<rect x="1084.37" y="257.287" width="11.096" height="11.096" fill="#001A2C" stroke="#009CFF" stroke-width="2"/>
<rect x="1084.37" y="57.9998" width="11.096" height="11.096" fill="#001A2C" stroke="#009CFF" stroke-width="2"/>
<rect x="341.312" y="250.454" width="11.096" height="11.096" fill="#001A2C" stroke="#009CFF" stroke-width="2"/>
<rect x="226.866" y="308.532" width="11.096" height="11.096" fill="#001A2C" stroke="#009CFF" stroke-width="2"/>
</g>
</svg>
