<svg width="1440" height="529" viewBox="0 0 1440 529" fill="none" xmlns="http://www.w3.org/2000/svg">
<g clip-path="url(#clip0_1179_1701)">
<path d="M1474.46 0L-7 251" stroke="#009CFF" stroke-width="2" stroke-linecap="square"/>
<path opacity="0.415536" d="M1490.46 279.5L1116.96 261L874.96 235L622.46 345.5L259.96 312.5L-5 348" stroke="#009CFF" stroke-width="2" stroke-linecap="square"/>
<path d="M1490.46 435.5L1263.91 335.71L1074.46 357.5L763.96 463.5C763.96 463.5 569.46 379 409.46 401.845C179.959 434.613 -7 265.5 -7 265.5" stroke="#009CFF" stroke-width="2" stroke-linecap="square"/>
<path opacity="0.415536" d="M1604.46 233.732L1451.88 189.945L1260.65 211.228L949.733 318.463C949.733 318.463 677.547 248.074 578.347 256.08C351.882 274.358 -8 185 -8 185" stroke="#009CFF" stroke-width="2" stroke-linecap="square"/>
<path d="M-4.5 124L177.692 72.0815L368.918 93.3641L679.838 200.599C679.838 200.599 952.025 130.21 1051.22 138.216C1277.69 156.494 1483 115.868 1483 115.868" stroke="#009CFF" stroke-width="2" stroke-linecap="square"/>
<path d="M1695.78 431.2L1401.98 357C1401.98 357 1179.88 512.074 1012.19 521.537C844.499 531 20.9609 425.5 -5 407" stroke="#009CFF" stroke-width="2" stroke-linecap="square"/>
<rect x="565.461" y="483" width="11.096" height="11.096" fill="#001A2C" stroke="#009CFF" stroke-width="2"/>
<path d="M1394.46 351H1405.56V362.096H1394.46V351Z" fill="#001A2C" stroke="#009CFF" stroke-width="2"/>
<rect x="1258.84" y="331.016" width="11.096" height="11.096" fill="#001A2C" stroke="#009CFF" stroke-width="2"/>
<rect x="1068.66" y="352.653" width="11.096" height="11.096" fill="#001A2C" stroke="#009CFF" stroke-width="2"/>
<rect x="757.207" y="458.56" width="11.096" height="11.096" fill="#001A2C" stroke="#009CFF" stroke-width="2"/>
<rect x="404.754" y="394.219" width="11.096" height="11.096" fill="#001A2C" stroke="#009CFF" stroke-width="2"/>
<rect x="539.699" y="150.519" width="11.096" height="11.096" fill="#001A2C" stroke="#009CFF" stroke-width="2"/>
<rect x="674.077" y="194.932" width="11.096" height="11.096" fill="#001A2C" stroke="#009CFF" stroke-width="2"/>
<rect x="1258.84" y="205.75" width="11.096" height="11.096" fill="#001A2C" stroke="#009CFF" stroke-width="2"/>
<rect x="1111.37" y="255.287" width="11.096" height="11.096" fill="#001A2C" stroke="#009CFF" stroke-width="2"/>
<rect x="1111.37" y="56" width="11.096" height="11.096" fill="#001A2C" stroke="#009CFF" stroke-width="2"/>
<rect x="368.312" y="248.454" width="11.096" height="11.096" fill="#001A2C" stroke="#009CFF" stroke-width="2"/>
<rect x="253.866" y="306.532" width="11.096" height="11.096" fill="#001A2C" stroke="#009CFF" stroke-width="2"/>
</g>
<defs>
<clipPath id="clip0_1179_1701">
<rect width="1440" height="529" fill="white"/>
</clipPath>
</defs>
</svg>
