<svg width="24" height="24" viewBox="0 0 24 24" fill="none" xmlns="http://www.w3.org/2000/svg">
<path fill-rule="evenodd" clip-rule="evenodd" d="M8.34181 4.86358V8.34287H4.86358C3.23784 8.34287 1.91992 9.66079 1.91992 11.2865V19.1363C1.91992 20.762 3.23784 22.0799 4.86358 22.0799H12.7133C14.3391 22.0799 15.657 20.762 15.657 19.1363V15.657H19.1352C20.7609 15.657 22.0789 14.3391 22.0789 12.7133V4.86358C22.0789 3.23784 20.7609 1.91992 19.1352 1.91992H11.2855C9.65973 1.91992 8.34181 3.23784 8.34181 4.86358ZM11.2855 2.81194C10.1524 2.81194 9.23382 3.73049 9.23382 4.86358V8.34287H12.7133C14.3391 8.34287 15.657 9.66079 15.657 11.2865V14.765H19.1352C20.2683 14.765 21.1868 13.8464 21.1868 12.7133V4.86358C21.1868 3.73049 20.2683 2.81194 19.1352 2.81194H11.2855ZM14.765 19.1363V15.657H11.2855C9.65973 15.657 8.34181 14.3391 8.34181 12.7133V9.23488H4.86358C3.73049 9.23488 2.81194 10.1534 2.81194 11.2865V19.1363C2.81194 20.2694 3.73049 21.1879 4.86358 21.1879H12.7133C13.8464 21.1879 14.765 20.2694 14.765 19.1363Z" fill="#1C1C1E"/>
</svg>
