<svg width="24" height="24" viewBox="0 0 24 24" fill="none" xmlns="http://www.w3.org/2000/svg">
<path fill-rule="evenodd" clip-rule="evenodd" d="M17.3487 2.5835C16.278 1.56484 14.5913 1.58227 13.5419 2.62285L2.14293 13.9253C1.09914 14.9602 1.06127 16.6355 2.05723 17.7166L5.86617 21.851C6.02477 22.0232 6.24817 22.1211 6.48224 22.1211H19.5798C20.0424 22.1211 20.4175 21.7461 20.4175 21.2835C20.4175 20.8208 20.0424 20.4458 19.5798 20.4458H12.1257L21.8924 10.7934C22.9657 9.73274 22.9758 8.00286 21.9152 6.92963C21.8955 6.90967 21.8754 6.89002 21.8551 6.87068L17.3487 2.5835ZM14.7215 3.81252C15.1274 3.41002 15.7798 3.40328 16.194 3.7973L20.7003 8.08448C20.7082 8.09196 20.7159 8.09956 20.7236 8.10728C21.1338 8.52241 21.1299 9.19153 20.7148 9.6018L14.2203 16.0203L8.51247 9.96896L14.7215 3.81252Z" fill="#1C1C1E"/>
</svg>
