<svg width="24" height="24" viewBox="0 0 24 24" fill="none" xmlns="http://www.w3.org/2000/svg">
<path fill-rule="evenodd" clip-rule="evenodd" d="M2.01784 20.6801L3.39494 22.0638L1.45435 22.6626L2.01784 20.6801ZM3.97104 14.967C3.98653 15.0754 3.99958 15.1877 4.0104 15.3043L4.02117 15.4308L4.02984 15.5504L4.04011 15.7275L4.04751 15.9108L4.05102 16.0402L4.05463 16.259L4.05675 16.6073L4.05705 17.5858L4.88315 17.3966C5.46816 17.2784 5.99142 17.4359 6.32967 17.7471C6.49836 17.9023 6.61989 18.095 6.6744 18.3073C6.72788 18.5155 6.6795 18.7885 6.63901 19.0147C6.60434 19.2083 6.54958 19.4552 6.47495 19.7554L7.80052 19.7709C8.34483 19.7544 8.70932 19.7706 9.14667 19.8598L8.53046 20.4792L4.59445 21.6936L2.3662 19.4547L3.51013 15.4303L3.97104 14.967ZM13.8485 5.04284L18.8714 10.0895L10.1338 18.8682C9.95431 18.774 9.74805 18.6952 9.72687 18.6898C9.09105 18.5294 8.63042 18.4851 7.96647 18.4845C7.94749 17.8388 7.65268 17.244 7.17012 16.8072C6.70515 16.3862 6.06444 16.1124 5.33518 16.0733L5.30589 15.8861L5.2999 15.7248L5.2872 15.491L5.27584 15.3319C5.24412 14.9239 5.19061 14.556 5.10969 14.2169C5.09985 14.1757 5.05571 14.0687 5.01199 13.9673L13.8485 5.04284ZM15.5174 3.366L20.5403 8.41264L19.8313 9.12502L14.8084 4.07838L15.5174 3.366ZM19.0006 1.33741C19.9072 1.33528 20.8146 1.679 21.5073 2.36847C22.2074 3.07184 22.558 3.98695 22.5601 4.90089C22.5622 5.81613 22.2149 6.73009 21.5197 7.42857L16.4774 2.40167C17.1882 1.68755 18.094 1.33956 19.0006 1.33741Z" fill="#1C1C1E"/>
</svg>
