<svg width="24" height="24" viewBox="0 0 24 24" fill="none" xmlns="http://www.w3.org/2000/svg">
<path d="M3.67505 11.6985H10.3547C11.4024 11.6985 11.9368 11.1641 11.9368 10.0883V6.9102C11.9368 5.83442 11.4024 5.30005 10.3547 5.30005H3.67505C2.62739 5.30005 2.09302 5.83442 2.09302 6.9102V10.0883C2.09302 11.1641 2.62739 11.6985 3.67505 11.6985ZM15.579 17.5415H20.318C21.3727 17.5415 21.9071 17.0071 21.9071 15.9313V8.02114C21.9071 6.94536 21.3727 6.41099 20.318 6.41099H15.579C14.5243 6.41099 13.9899 6.94536 13.9899 8.02114V15.9313C13.9899 17.0071 14.5243 17.5415 15.579 17.5415ZM5.36255 18.5399H11.1211C12.1688 18.5399 12.7032 18.0125 12.7032 16.9368V14.6657C12.7032 13.5969 12.1688 13.0625 11.1211 13.0625H5.36255C4.30786 13.0625 3.77349 13.5969 3.77349 14.6657V16.9368C3.77349 18.0125 4.30786 18.5399 5.36255 18.5399Z" fill="#1C1C1E"/>
</svg>
