<svg width="24" height="24" viewBox="0 0 24 24" fill="none" xmlns="http://www.w3.org/2000/svg">
<path d="M20.4511 15.2493C20.7504 15.4288 21.0241 15.7623 21.0241 16.1728C21.0241 16.5575 20.8017 16.9081 20.3826 17.1476L13.1999 21.3717C12.7895 21.6197 12.4987 21.7736 12.1653 21.7736C11.8232 21.7736 11.5325 21.6197 11.122 21.3717L10.0532 20.7475C10.4294 20.3456 10.7373 19.8668 10.9596 19.3623L11.7463 19.8069C11.9002 19.901 12.037 19.9523 12.1653 19.9523C12.3106 19.9523 12.4645 19.8753 12.6612 19.7641L20.4511 15.2493ZM5.89709 12.6679C8.28279 12.6679 10.241 14.6261 10.241 17.0118C10.241 19.3804 8.25713 21.3556 5.89709 21.3556C3.51993 21.3556 1.55322 19.3975 1.55322 17.0118C1.55322 14.6261 3.51993 12.6679 5.89709 12.6679ZM5.89709 14.2926C5.59199 14.2926 5.39027 14.4914 5.37625 14.7816L5.37548 14.8142V16.4816H3.6995C3.39167 16.4816 3.1779 16.6954 3.1779 17.0118C3.1779 17.3169 3.37667 17.5186 3.66688 17.5326L3.6995 17.5334H5.37548V19.2094C5.37548 19.5172 5.5807 19.731 5.89709 19.731C6.21041 19.731 6.41243 19.5322 6.42646 19.242L6.42725 19.2094V17.5334H8.09468C8.41105 17.5334 8.61628 17.3282 8.61628 17.0118C8.61628 16.7067 8.42544 16.497 8.12813 16.4824L8.09468 16.4816H6.42725V14.8142C6.42725 14.5064 6.22201 14.2926 5.89709 14.2926ZM20.4511 11.256C20.7504 11.427 21.0241 11.7605 21.0241 12.1795C21.0241 12.5643 20.8017 12.8978 20.3826 13.1543L13.1999 17.3784C12.7895 17.6179 12.4987 17.7718 12.1653 17.7718C11.9771 17.7718 11.8147 17.7205 11.6265 17.6435L11.3871 17.5153C11.4726 16.8568 11.4042 16.13 11.2076 15.5058L11.695 15.788C11.8745 15.8906 12.0199 15.9504 12.1653 15.9504C12.3106 15.9504 12.4645 15.882 12.6612 15.7623L20.4511 11.256ZM12.1653 2.38013C12.5244 2.38013 12.875 2.50839 13.3282 2.77347L19.9723 6.62138C20.699 7.04893 21.0155 7.40807 21.0155 7.95533C21.0155 8.51115 20.699 8.87029 19.9723 9.28927L13.3282 13.1457C12.875 13.4108 12.5244 13.5391 12.1653 13.5391C11.7976 13.5391 11.447 13.4108 10.9938 13.1457L4.34972 9.28927C3.62289 8.87029 3.3065 8.51115 3.3065 7.95533C3.3065 7.40807 3.62289 7.04893 4.34972 6.62138L10.9938 2.77347C11.447 2.50839 11.7976 2.38013 12.1653 2.38013Z" fill="#1C1C1E"/>
</svg>
