<svg width="24" height="24" viewBox="0 0 24 24" fill="none" xmlns="http://www.w3.org/2000/svg">
<path d="M22.3355 11.9766C22.3355 11.5521 22.0194 11.1818 21.5859 11.1818L2.43881 11.1818C2.00531 11.1818 1.68018 11.5521 1.68018 11.9766C1.68018 12.3921 2.00531 12.7714 2.43881 12.7714L21.5859 12.7714C22.0194 12.7714 22.3355 12.4011 22.3355 11.9766Z" fill="#1C1C1E"/>
<path d="M12.8026 8.11957L12.8026 15.8337C12.8026 16.6468 13.4618 17.306 14.2749 17.306L17.3244 17.306C18.1375 17.306 18.7967 16.6468 18.7967 15.8337V8.11957C18.7967 7.30644 18.1375 6.64728 17.3244 6.64728H14.2749C13.4618 6.64728 12.8026 7.30644 12.8026 8.11957Z" fill="#1C1C1E"/>
<path d="M5.20552 5.4563L5.20552 18.4969C5.20552 19.31 5.86469 19.9692 6.67781 19.9692H9.72727C10.5404 19.9692 11.1996 19.31 11.1996 18.4969V5.4563C11.1996 4.64318 10.5404 3.98401 9.72727 3.98401L6.67781 3.98401C5.86469 3.98401 5.20552 4.64318 5.20552 5.4563Z" fill="#1C1C1E"/>
</svg>
