<svg width="24" height="24" viewBox="0 0 24 24" fill="none" xmlns="http://www.w3.org/2000/svg">
<path fill-rule="evenodd" clip-rule="evenodd" d="M11.5271 12.3921C12.8645 13.7296 14.9432 13.8742 16.4409 12.8259C16.1851 13.005 15.9124 13.1493 15.6293 13.2588C16.593 16.0079 15.9817 19.1772 13.7969 21.362C13.5251 21.6338 13.5251 22.0744 13.7969 22.3462C14.0687 22.6181 14.5094 22.6181 14.7812 22.3462C17.16 19.9675 17.9546 16.6052 17.173 13.558L19.0899 15.4749C18.8366 16.099 18.963 16.8412 19.4693 17.3475C20.1441 18.0223 21.2382 18.0223 21.913 17.3475C22.5879 16.6726 22.5879 15.5785 21.913 14.9037C21.4199 14.4105 20.7027 14.2778 20.089 14.5054L17.419 11.8355C17.4114 11.8467 17.4037 11.8579 17.3959 11.869C18.4393 10.3718 18.2932 8.29712 16.9577 6.96153C15.632 5.63589 13.5783 5.4821 12.0837 6.50014L9.41371 3.83014C9.64138 3.2164 9.50863 2.49929 9.01545 2.00612C8.34063 1.33129 7.24652 1.33129 6.57169 2.00612C5.89686 2.68095 5.89686 3.77505 6.57169 4.44988C7.07793 4.95612 7.82014 5.08259 8.44428 4.82928L10.5021 6.88708C7.4549 6.10552 4.09263 6.90015 1.71386 9.27891C1.44206 9.55072 1.44206 9.9914 1.71386 10.2632C1.98567 10.535 2.42635 10.535 2.69816 10.2632C4.83757 8.12379 7.921 7.4932 10.6296 8.37285C10.1411 9.72909 10.4403 11.3053 11.5271 12.3921ZM12.5114 11.4078C13.4674 12.3638 15.0174 12.3638 15.9734 11.4078C16.9294 10.4518 16.9294 8.90183 15.9734 7.94582C15.0174 6.98982 13.4674 6.98982 12.5114 7.94582C11.5554 8.90183 11.5554 10.4518 12.5114 11.4078Z" fill="black"/>
</svg>
