<svg width="24" height="24" viewBox="0 0 24 24" fill="none" xmlns="http://www.w3.org/2000/svg">
<path d="M21.399 7.56634C21.399 8.20221 21.0566 8.55439 20.4208 8.55439C19.7947 8.55439 19.4523 8.20221 19.4523 7.56634V5.36524C19.4523 4.41632 18.9436 3.94675 18.0534 3.94675H15.8033C15.1675 3.94675 14.8153 3.60436 14.8153 2.97827C14.8153 2.34239 15.1675 2 15.8033 2H18.1805C20.3034 2 21.399 3.09566 21.399 5.18915V7.56634Z" fill="#1C1C1E"/>
<path d="M3.94675 7.56634C3.94675 8.20221 3.61414 8.55439 2.97827 8.55439C2.35218 8.55439 2 8.20221 2 7.56634V5.18915C2 3.08588 3.10544 2 5.2185 2H7.59569C8.23156 2 8.58374 2.34239 8.58374 2.97827C8.58374 3.60436 8.23156 3.94675 7.59569 3.94675H5.34567C4.44567 3.94675 3.94675 4.41632 3.94675 5.36524V7.56634Z" fill="#1C1C1E"/>
<path d="M7.59569 21.399H5.2185C3.10544 21.399 2 20.3034 2 18.2099V15.8327C2 15.1968 2.34239 14.8446 2.97827 14.8446C3.60436 14.8446 3.94675 15.1968 3.94675 15.8327V18.0338C3.94675 18.9827 4.44567 19.4425 5.34567 19.4425H7.59569C8.23156 19.4425 8.58374 19.7947 8.58374 20.4208C8.58374 21.0469 8.23156 21.399 7.59569 21.399Z" fill="#1C1C1E"/>
<path d="M18.1805 21.399H15.8033C15.1675 21.399 14.8153 21.0469 14.8153 20.4208C14.8153 19.7947 15.1675 19.4425 15.8033 19.4425H18.0534C18.9436 19.4425 19.4523 18.9827 19.4523 18.0338V15.8327C19.4523 15.1968 19.7849 14.8446 20.4208 14.8446C21.0469 14.8446 21.399 15.1968 21.399 15.8327V18.2099C21.399 20.3034 20.3034 21.399 18.1805 21.399Z" fill="#1C1C1E"/>
<path fill-rule="evenodd" clip-rule="evenodd" d="M9.10222 16.1947C8.91635 16.8207 8.59352 17.0947 8.07504 17.0947C7.44895 17.0947 7.05764 16.7229 7.05764 16.1457C7.05764 15.9207 7.10655 15.6664 7.1946 15.4218L10.1587 7.50764C10.4424 6.71525 10.9414 6.3435 11.6848 6.3435C12.4577 6.3435 12.9566 6.72503 13.2501 7.50764L16.2044 15.4218C16.3023 15.686 16.3512 15.911 16.3512 16.1457C16.3512 16.7034 15.9403 17.0947 15.3436 17.0947C14.7957 17.0947 14.4729 16.8403 14.287 16.2044L13.6022 14.1305H9.79679L9.10222 16.1947ZM11.5772 8.48591L10.2761 12.5751H13.1131L11.7827 8.48591H11.5772Z" fill="#1C1C1E"/>
</svg>
