<svg width="24" height="24" viewBox="0 0 24 24" fill="none" xmlns="http://www.w3.org/2000/svg">
<path d="M5.53162 15.9639C6.27993 15.9639 6.86995 15.5106 7.1002 14.8702H8.92061V16.7122C8.28742 16.9497 7.83412 17.5613 7.83412 18.2808C7.83412 19.2018 8.57523 19.9429 9.50343 19.9429C10.2158 19.9429 10.8274 19.4968 11.0648 18.8564H16.9002C17.1305 19.4968 17.7421 19.9429 18.4616 19.9429C19.3826 19.9429 20.1309 19.2018 20.1309 18.2808C20.1309 17.5613 19.6776 16.9497 19.0444 16.7122V10.8984C19.6776 10.661 20.1309 10.0494 20.1309 9.32984C20.1309 8.40884 19.3826 7.66772 18.4616 7.66772C17.7421 7.66772 17.1305 8.11383 16.9002 8.75421H15.0726V6.91221C15.7058 6.67477 16.1591 6.06317 16.1591 5.34364C16.1591 4.42264 15.4108 3.68152 14.4898 3.68152C13.7703 3.68152 13.1586 4.13482 12.9284 4.76801H7.093C6.85555 4.13482 6.25115 3.68152 5.53162 3.68152C4.60342 3.68152 3.8623 4.42264 3.8623 5.34364C3.8623 6.06317 4.31561 6.67477 4.9488 6.91221V12.7332C4.31561 12.9635 3.8623 13.5751 3.8623 14.2946C3.8623 15.2156 4.60342 15.9639 5.53162 15.9639ZM9.50343 7.66772C8.57523 7.66772 7.83412 8.40884 7.83412 9.32984C7.83412 10.0494 8.28742 10.661 8.92061 10.8984V13.7118H7.093C6.92751 13.2585 6.56055 12.8987 6.10724 12.7332V6.91221C6.56055 6.73953 6.92751 6.37976 7.093 5.92646H12.9284C13.0939 6.37976 13.4537 6.73953 13.9142 6.91221V8.75421H11.0648C10.8274 8.11383 10.223 7.66772 9.50343 7.66772ZM11.0648 17.698C10.8993 17.2447 10.5324 16.8849 10.0791 16.7122V10.8984C10.5324 10.7257 10.8993 10.366 11.0648 9.91266H16.9002C17.0657 10.366 17.4255 10.7257 17.886 10.8984V16.7122C17.4255 16.8849 17.0657 17.2447 16.9002 17.698H11.0648Z" fill="#1C1C1E"/>
</svg>
