<svg width="24" height="24" viewBox="0 0 24 24" fill="none" xmlns="http://www.w3.org/2000/svg">
<path d="M7.21152 19.3113C7.49898 19.5357 7.86354 19.4586 8.29824 19.1431L12.0071 16.4157L15.723 19.1431C16.1577 19.4586 16.5152 19.5357 16.8097 19.3113C17.0972 19.094 17.1603 18.7364 16.985 18.2246L15.5197 13.8637L19.2635 11.1715C19.6983 10.863 19.8735 10.5404 19.7614 10.1899C19.6492 9.85336 19.3197 9.68509 18.7798 9.6921L14.1876 9.72016L12.7923 5.33823C12.6241 4.8194 12.3717 4.56 12.0071 4.56C11.6495 4.56 11.3971 4.8194 11.2289 5.33823L9.83366 9.72016L5.2414 9.6921C4.70154 9.68509 4.37202 9.85336 4.25985 10.1899C4.14066 10.5404 4.32294 10.863 4.75764 11.1715L8.50156 13.8637L7.03624 18.2246C6.86096 18.7364 6.92407 19.094 7.21152 19.3113Z" fill="#1C1C1E"/>
</svg>
