<svg width="24" height="24" viewBox="0 0 24 24" fill="none" xmlns="http://www.w3.org/2000/svg">
<path d="M4.64652 4.82558L6.57487 6.25745C6.97061 6.55965 7.4455 6.37977 7.4455 5.88329V4.85436H16.5476V5.88329C16.5476 6.37977 17.0297 6.55965 17.4254 6.25745L19.3537 4.82558C19.62 4.62411 19.6128 4.25715 19.3537 4.06288L17.4254 2.62382C17.044 2.336 16.5476 2.4871 16.5476 3.00517V4.01971H7.4455V3.00517C7.4455 2.5015 6.97061 2.32161 6.57487 2.62382L4.64652 4.06288C4.3803 4.25715 4.38749 4.63131 4.64652 4.82558ZM3.53125 17.4606C3.53125 17.9786 3.87663 18.4319 4.61774 18.4319H10.338C11.1943 18.4319 11.5828 18.0434 11.5828 17.1871V8.58873C11.5828 7.95554 11.1079 7.61736 10.597 7.61736C10.2517 7.61736 9.92069 7.77566 9.68324 8.11384L3.7543 16.7122C3.59601 16.9425 3.53125 17.2087 3.53125 17.4606ZM12.4175 17.1871C12.4175 18.0434 12.806 18.4319 13.6623 18.4319H19.3753C20.1236 18.4319 20.469 17.9786 20.469 17.4606C20.469 17.2087 20.3971 16.9425 20.2388 16.7122L14.3098 8.11384C14.0796 7.77566 13.7414 7.61736 13.396 7.61736C12.8852 7.61736 12.4175 7.95554 12.4175 8.58873V17.1871Z" fill="#1C1C1E"/>
</svg>
