<svg width="24" height="24" viewBox="0 0 24 24" fill="none" xmlns="http://www.w3.org/2000/svg">
<path d="M22.079 4.39264C22.079 3.02706 20.972 1.92004 19.6064 1.92004H11.8354C10.4698 1.92004 9.36276 3.02706 9.36276 4.39264L9.36265 8.27781L13.2483 8.27815L13.4176 8.28386C14.7042 8.37085 15.7209 9.44207 15.7209 10.7508L15.7204 14.6356L19.6064 14.6363C20.972 14.6363 22.079 13.5292 22.079 12.1637V4.39264Z" fill="#1C1C1E"/>
<path d="M8.27769 9.36382L8.27803 13.2493C8.27803 14.6149 9.38505 15.7219 10.7506 15.7219L14.6355 15.7216L14.6361 19.6074C14.6361 20.973 13.5291 22.08 12.1635 22.08H4.39252C3.02694 22.08 1.91992 20.973 1.91992 19.6074V11.8364C1.91992 10.4708 3.02694 9.36382 4.39252 9.36382H8.27769Z" fill="#1C1C1E"/>
<path d="M12.8698 9.36382C13.8452 9.36382 14.636 10.1545 14.636 11.13L14.635 14.6362L11.1295 14.6364C10.1541 14.6364 9.36338 13.8457 9.36338 12.8703L9.36265 9.36382H12.8698Z" fill="#1C1C1E"/>
</svg>
