<svg width="24" height="24" viewBox="0 0 24 24" fill="none" xmlns="http://www.w3.org/2000/svg">
<path fill-rule="evenodd" clip-rule="evenodd" d="M10.8561 16.0478C14.0185 15.2005 15.8952 11.9499 15.0478 8.78754C14.2005 5.62515 10.9499 3.74845 7.78754 4.59581C4.62515 5.44317 2.74845 8.69371 3.59581 11.8561C4.44317 15.0185 7.69371 16.8952 10.8561 16.0478ZM16.6208 9.75085C16.5859 9.31122 16.5106 8.86855 16.3924 8.42726C16.2968 8.07045 16.1764 7.7269 16.0336 7.39795C17.6397 8.09165 18.9246 9.48641 19.4126 11.3075C19.4184 11.3292 19.4241 11.3509 19.4296 11.3725L16.6208 9.75085ZM16.5738 11.3311C16.4769 12.0249 16.281 12.6963 15.9972 13.326L19.1489 15.1457C19.422 14.4994 19.582 13.8022 19.6112 13.0847L16.5738 11.3311ZM15.3078 14.5353C14.9114 15.099 14.4349 15.6084 13.8894 16.0443L16.9348 17.8026C17.5325 17.4114 18.0471 16.919 18.461 16.3559L15.3078 14.5353ZM11.2164 17.3924C11.6899 17.2655 12.1401 17.095 12.5638 16.8863L15.3921 18.5192C15.3355 18.5362 15.2784 18.5524 15.2209 18.5678C13.3998 19.0558 11.5494 18.6404 10.1456 17.5963C10.5019 17.5555 10.8596 17.488 11.2164 17.3924ZM7.42726 3.25124C10.295 2.48284 13.2214 3.52851 14.9881 5.68482C14.9726 5.66592 14.9571 5.64711 14.9414 5.62839C17.6614 6.10334 19.9955 8.10467 20.7572 10.9473C21.8035 14.8522 19.4861 18.8661 15.5812 19.9124C12.7386 20.6741 9.8383 19.6533 8.067 17.5352C5.34704 17.0603 3.01291 15.059 2.25124 12.2164C1.20491 8.3114 3.52229 4.29757 7.42726 3.25124Z" fill="black"/>
</svg>
