<svg width="24" height="24" viewBox="0 0 24 24" fill="none" xmlns="http://www.w3.org/2000/svg">
<path d="M3.19491 22.3353C3.61939 22.3353 3.98968 22.0192 3.98968 21.5857V2.43869C3.98968 2.00518 3.61939 1.68005 3.19491 1.68005C2.77947 1.68005 2.40015 2.00518 2.40015 2.43869V21.5857C2.40015 22.0192 2.77043 22.3353 3.19491 22.3353Z" fill="#1C1C1E"/>
<path d="M14.7656 5.21883H7.0515C6.23837 5.21883 5.57921 5.878 5.57921 6.69112V9.74059C5.57921 10.5537 6.23837 11.2129 7.0515 11.2129H14.7656C15.5787 11.2129 16.2379 10.5537 16.2379 9.74059V6.69112C16.2379 5.878 15.5787 5.21883 14.7656 5.21883Z" fill="#1C1C1E"/>
<path d="M20.0921 12.8025H7.0515C6.23837 12.8025 5.57921 13.4617 5.57921 14.2748V17.3243C5.57921 18.1374 6.23837 18.7966 7.0515 18.7966H20.0921C20.9052 18.7966 21.5644 18.1374 21.5644 17.3243V14.2748C21.5644 13.4617 20.9052 12.8025 20.0921 12.8025Z" fill="#1C1C1E"/>
</svg>
