<svg width="24" height="24" viewBox="0 0 24 24" fill="none" xmlns="http://www.w3.org/2000/svg">
<path d="M5.98125 18.5047H18.0117C19.5375 18.5047 20.332 17.7172 20.332 16.2125V7.65547C20.332 6.15078 19.5375 5.36328 18.0117 5.36328H5.98125C4.4625 5.36328 3.66797 6.14375 3.66797 7.65547V16.2125C3.66797 17.7172 4.4625 18.5047 5.98125 18.5047ZM9.16641 12.0641C8.20312 12.0641 7.40859 11.2766 7.40859 10.3133C7.40859 9.35703 8.20312 8.55547 9.16641 8.55547C10.1227 8.55547 10.9102 9.35703 10.9102 10.3133C10.9102 11.2766 10.1227 12.0641 9.16641 12.0641ZM6.09375 17.1055C5.45391 17.1055 5.06719 16.7187 5.06719 16.0719V15.5094L7.05 13.7797C7.35938 13.5055 7.66875 13.3719 7.99922 13.3719C8.33672 13.3719 8.68828 13.5125 8.99766 13.7867L10.3266 14.9891L13.6523 12.0359C13.9898 11.7336 14.3695 11.593 14.7633 11.593C15.143 11.593 15.5437 11.7406 15.8672 12.05L18.9258 14.8766V16.0789C18.9258 16.7188 18.525 17.1055 17.9062 17.1055H6.09375Z" fill="#1C1C1E"/>
</svg>
