<svg width="24" height="24" viewBox="0 0 24 24" fill="none" xmlns="http://www.w3.org/2000/svg">
<path fill-rule="evenodd" clip-rule="evenodd" d="M9.34239 10.707L9.75154 10.8201L9.88757 10.8608L10.0085 10.8996L10.1359 10.9435L10.2614 10.9898C10.8853 11.2283 11.4149 11.5524 11.8482 11.9659C12.4921 12.5804 12.8907 13.4186 13.0608 14.4709C12.2824 15.3628 10.9673 17.3364 11.0189 18.5128C11.0209 18.5585 11.0221 18.6182 11.0225 18.6918L11.0226 18.7869L11.0223 18.8394C11.0202 19.1484 10.9185 19.4389 10.7439 19.6749C10.581 19.8951 10.3545 20.0679 10.0862 20.164L10.028 20.1834L1.82453 22.7258C1.78409 22.7384 1.74332 22.7463 1.7028 22.7499L6.66979 17.5982C6.79016 17.6415 6.91992 17.6651 7.05519 17.6651C7.36984 17.6651 7.65467 17.5376 7.86086 17.3317C8.06721 17.1256 8.19479 16.8409 8.19479 16.5265C8.19479 16.212 8.06721 15.9273 7.86086 15.7213C7.65467 15.5153 7.36984 15.3879 7.05519 15.3879C6.74055 15.3879 6.45572 15.5153 6.24953 15.7213C6.04318 15.9273 5.91555 16.212 5.91555 16.5265C5.91555 16.6625 5.93945 16.793 5.98325 16.9139L6.00325 16.9651L1.06396 22.1618C1.06396 22.1165 1.06914 22.0713 1.0795 22.0269L1.09134 21.9836L3.67495 13.784C3.76427 13.5005 3.93699 13.2601 4.16126 13.0873C4.38554 12.9145 4.66138 12.8094 4.95704 12.7963C5.07323 12.7912 5.17262 12.786 5.25521 12.7808C6.69919 12.689 8.62342 11.3002 9.34239 10.707ZM21.0654 1.29513C21.5464 1.3268 21.9835 1.53805 22.3099 1.86406C22.6362 2.18993 22.8511 2.62989 22.8898 3.11516C22.9237 3.5407 22.8238 4.00413 22.5317 4.45466C22.5167 4.47724 22.4983 4.50432 22.4765 4.53575L22.4412 4.58613C22.4294 4.60292 22.4168 4.62065 22.4035 4.6393L22.3615 4.69798C21.7063 5.60857 20.4188 7.58326 18.0445 10.3823L17.884 10.5711C17.8035 10.6656 17.7227 10.7602 17.6416 10.8548L17.479 11.0439L17.2793 11.2751C17.1792 11.3906 17.0788 11.5061 16.9781 11.6212L16.7765 11.8512C16.7428 11.8895 16.7091 11.9277 16.6754 11.9659L16.473 12.1946C16.3716 12.3087 16.2702 12.4223 16.1687 12.5354C15.9026 12.8318 14.992 13.3949 14.4001 13.7509C14.3826 13.7614 14.3655 13.7717 14.3487 13.7818L14.3447 13.784L14.3214 13.6989L14.2787 13.5537L14.2397 13.4285L14.199 13.3049L14.1571 13.1841C13.832 12.271 13.3821 11.5552 12.8182 11.0291C12.1683 10.4228 11.2447 9.90651 10.0392 9.49301C10.4151 8.76436 10.9234 8.05975 11.2291 7.79295C13.9934 5.38065 17.2856 3.1103 18.366 2.58921L18.4991 2.50047C18.8471 2.26884 19.1387 2.07735 19.3591 1.9326C19.5382 1.81491 19.6694 1.7288 19.7436 1.67842C20.1886 1.37501 20.6456 1.26749 21.0654 1.29513Z" fill="#1C1C1E"/>
</svg>
