<svg width="24" height="24" viewBox="0 0 24 24" fill="none" xmlns="http://www.w3.org/2000/svg">
<path fill-rule="evenodd" clip-rule="evenodd" d="M6.37488 10.1328C6.37488 10.7955 5.87381 11.2643 5.21111 11.2643C4.54842 11.2643 4.04736 10.7955 4.04736 10.1328V5.81725C4.04736 4.6939 4.69389 4.04736 5.81723 4.04736H10.2945C10.9572 4.04736 11.434 4.54034 11.434 5.21113C11.434 5.87382 10.9572 6.3668 10.2945 6.3668H9.76109L7.78108 6.18901L9.26002 7.58712L11.2804 9.59945C11.4986 9.81766 11.6279 10.0924 11.6279 10.3995C11.6279 11.1107 11.135 11.6199 10.4238 11.6199C10.1086 11.6199 9.81766 11.5067 9.59945 11.2804L7.5952 9.26002L6.18899 7.78108L6.37488 9.72876V10.1328ZM18.1579 19.9278H13.6726C13.0099 19.9278 12.5412 19.4348 12.5412 18.764C12.5412 18.1013 13.0099 17.6084 13.6726 17.6084H14.2141L16.1941 17.7862L14.7071 16.3961L12.6867 14.3757C12.4685 14.1575 12.3391 13.8827 12.3391 13.5756C12.3391 12.8644 12.8321 12.3553 13.5433 12.3553C13.8585 12.3553 14.1494 12.4684 14.3676 12.6947L16.3719 14.7151L17.7781 16.1941L17.6003 14.2464V13.8423C17.6003 13.1796 18.0933 12.7109 18.7559 12.7109C19.4186 12.7109 19.9198 13.1877 19.9198 13.8423V18.1579C19.9198 19.2813 19.2731 19.9278 18.1579 19.9278Z" fill="#1C1C1E"/>
</svg>
