<svg width="24" height="24" viewBox="0 0 24 24" fill="none" xmlns="http://www.w3.org/2000/svg">
<path fill-rule="evenodd" clip-rule="evenodd" d="M12.264 4.392H5.688C4.97224 4.392 4.392 4.97224 4.392 5.688V12.264C4.392 12.9798 4.97224 13.56 5.688 13.56H8.616V11.304C8.616 9.81946 9.81946 8.616 11.304 8.616H13.56V5.688C13.56 4.97224 12.9798 4.392 12.264 4.392ZM5.688 14.952H8.616V17.88C8.616 19.3645 9.81946 20.568 11.304 20.568H17.88C19.3645 20.568 20.568 19.3645 20.568 17.88V11.304C20.568 9.81946 19.3645 8.616 17.88 8.616H14.952V5.688C14.952 4.20346 13.7485 3 12.264 3H5.688C4.20346 3 3 4.20346 3 5.688V12.264C3 13.7485 4.20346 14.952 5.688 14.952ZM17.88 10.008H14.952V12.264C14.952 13.7485 13.7485 14.952 12.264 14.952H10.008V17.88C10.008 18.5958 10.5882 19.176 11.304 19.176H17.88C18.5958 19.176 19.176 18.5958 19.176 17.88V11.304C19.176 10.5882 18.5958 10.008 17.88 10.008Z" fill="black"/>
</svg>
