<svg width="24" height="24" viewBox="0 0 24 24" fill="none" xmlns="http://www.w3.org/2000/svg">
<path d="M22.0812 4.53332C22.0812 3.09005 20.9111 1.92004 19.4679 1.92004H11.2547C9.81145 1.92004 8.64145 3.09005 8.64145 4.53332L8.64133 8.63953L12.748 8.63989L12.9269 8.64592C14.2868 8.73787 15.3613 9.87003 15.3613 11.2532L15.3608 15.359L19.4679 15.3597C20.9111 15.3597 22.0812 14.1897 22.0812 12.7465V4.53332Z" fill="#1C1C1E"/>
<path d="M8.63977 12.7469L8.63941 8.64034H4.5332C3.08993 8.64034 1.91992 9.81034 1.91992 11.2536V19.4668C1.91992 20.91 3.08993 22.08 4.5332 22.08H12.7463C14.1896 22.08 15.3596 20.91 15.3596 19.4668L15.3589 15.3598L11.253 15.3602C9.80978 15.3602 8.63977 14.1902 8.63977 12.7469Z" fill="#1C1C1E"/>
</svg>
