<svg width="24" height="24" viewBox="0 0 24 24" fill="none" xmlns="http://www.w3.org/2000/svg">
<path d="M11.9929 13.4398C12.2952 13.4398 12.5835 13.3343 12.9562 13.1164L18.4194 9.94529C19.0171 9.60076 19.2772 9.30544 19.2772 8.84841C19.2772 8.39841 19.0171 8.1031 18.4194 7.75154L12.9562 4.58748C12.5835 4.36951 12.2952 4.26404 11.9929 4.26404C11.6976 4.26404 11.4093 4.36951 11.0366 4.58748L5.57334 7.75154C4.97568 8.1031 4.71553 8.39841 4.71553 8.84841C4.71553 9.30544 4.97568 9.60076 5.57334 9.94529L11.0366 13.1164C11.4093 13.3343 11.6976 13.4398 11.9929 13.4398ZM11.9929 16.9203C12.2741 16.9203 12.5132 16.7937 12.8507 16.5968L18.7499 13.1234C19.1015 12.9125 19.2843 12.6383 19.2843 12.3218C19.2843 11.9773 19.0593 11.7031 18.8132 11.5625L12.4077 15.2679C12.246 15.3664 12.1194 15.4226 11.9929 15.4226C11.8733 15.4226 11.7468 15.3664 11.5851 15.2679L5.17959 11.5625C4.9335 11.7031 4.7085 11.9773 4.7085 12.3218C4.7085 12.6383 4.89131 12.9195 5.23584 13.1234L11.1421 16.5968C11.4726 16.7937 11.7187 16.9203 11.9929 16.9203ZM11.9929 20.2109C12.2741 20.2109 12.5132 20.0843 12.8507 19.8804L18.7499 16.407C19.0944 16.2101 19.2843 15.9219 19.2843 15.6054C19.2843 15.2679 19.0593 14.9937 18.8132 14.8461L12.4077 18.5586C12.246 18.65 12.1194 18.7133 11.9929 18.7133C11.8733 18.7133 11.7468 18.65 11.5851 18.5586L5.17959 14.8461C4.9335 14.9937 4.7085 15.2679 4.7085 15.6054C4.7085 15.9219 4.89131 16.2101 5.23584 16.407L11.1421 19.8804C11.4726 20.0843 11.7187 20.2109 11.9929 20.2109Z" fill="#1C1C1E"/>
</svg>
