<svg width="24" height="24" viewBox="0 0 24 24" fill="none" xmlns="http://www.w3.org/2000/svg">
<path d="M16.6735 4.58152H7.46558C7.52155 3.88882 7.96236 3.504 8.69703 3.504H15.4421C16.1767 3.504 16.6176 3.88882 16.6735 4.58152Z" fill="#1C1C1E"/>
<path d="M18.0519 6.79256H6.01723C6.10119 6.07187 6.507 5.63106 7.34664 5.63106H16.7225C17.5621 5.63106 17.9679 6.07187 18.0519 6.79256Z" fill="#1C1C1E"/>
<path fill-rule="evenodd" clip-rule="evenodd" d="M6.80088 20.4575H17.2473C18.8566 20.4575 19.7452 19.5759 19.7452 17.9736V10.4729C19.7452 8.87063 18.8566 7.98902 17.2473 7.98902H6.80088C5.19158 7.98902 4.30298 8.87063 4.30298 10.4729V17.9736C4.30298 19.5759 5.19158 20.4575 6.80088 20.4575ZM11.8758 17.1949C11.745 17.391 11.5566 17.4832 11.3144 17.4832C11.0914 17.4832 10.9183 17.4025 10.7684 17.2218L8.88808 14.9454C8.76119 14.7955 8.71504 14.6647 8.71504 14.5186C8.71504 14.1841 8.96498 13.938 9.3072 13.938C9.50715 13.938 9.64942 14.0111 9.78016 14.1687L11.3028 16.0567L14.2944 11.331C14.4367 11.1079 14.5828 11.0272 14.8135 11.0272C15.1519 11.0272 15.4018 11.2656 15.4018 11.6001C15.4018 11.7232 15.3634 11.8539 15.2711 11.9962L11.8758 17.1949Z" fill="#1C1C1E"/>
</svg>
