<svg width="24" height="24" viewBox="0 0 24 24" fill="none" xmlns="http://www.w3.org/2000/svg">
<path d="M4.46533 9.30167H19.4423" stroke="#3C3C43" stroke-opacity="0.3" stroke-width="1.08343" stroke-linecap="round" stroke-linejoin="round"/>
<path d="M3.86761 10.3851C4.46597 10.3851 4.95104 9.90005 4.95104 9.30169C4.95104 8.70333 4.46597 8.21826 3.86761 8.21826C3.26925 8.21826 2.78418 8.70333 2.78418 9.30169C2.78418 9.90005 3.26925 10.3851 3.86761 10.3851Z" fill="#1C1C1E"/>
<path d="M20.1186 10.3851C20.7169 10.3851 21.202 9.90005 21.202 9.30169C21.202 8.70333 20.7169 8.21826 20.1186 8.21826C19.5202 8.21826 19.0352 8.70333 19.0352 9.30169C19.0352 9.90005 19.5202 10.3851 20.1186 10.3851Z" fill="#1C1C1E"/>
<path d="M19.3062 17.1565C19.3062 12.8184 15.9107 9.30167 11.7222 9.30167C7.53366 9.30167 4.13818 12.8184 4.13818 17.1565" fill="white" fill-opacity="0.300357"/>
<path d="M19.3062 17.1565C19.3062 12.8184 15.9107 9.30167 11.7222 9.30167C7.53366 9.30167 4.13818 12.8184 4.13818 17.1565" stroke="#3C3C43" stroke-opacity="0.3" stroke-width="1.08343" stroke-linecap="round" stroke-linejoin="round"/>
<path d="M11.7224 11.7394C13.0687 11.7394 14.1601 10.648 14.1601 9.30167C14.1601 7.95535 13.0687 6.86395 11.7224 6.86395C10.3761 6.86395 9.28467 7.95535 9.28467 9.30167C9.28467 10.648 10.3761 11.7394 11.7224 11.7394Z" fill="#1C1C1E"/>
</svg>
