<svg width="24" height="24" viewBox="0 0 24 24" fill="none" xmlns="http://www.w3.org/2000/svg">
<path d="M13.2462 15.6852L10.6928 15.6852C10.449 15.6852 10.2962 15.8268 10.2962 16.0052C10.2962 16.059 10.3124 16.1127 10.3482 16.1626L11.6273 18.0054C11.7005 18.1117 11.8354 18.1681 11.9687 18.1681C12.1036 18.1681 12.2385 18.1117 12.3116 18.0054L13.5891 16.1613C13.6232 16.1114 13.6427 16.059 13.6427 16.0052C13.6427 15.8268 13.49 15.6852 13.2462 15.6852Z" fill="#1C1C1E"/>
<path d="M13.2462 8.28134L10.6928 8.28134C10.449 8.28134 10.2962 8.13968 10.2962 7.9613C10.2962 7.90752 10.3157 7.85506 10.3498 7.80521L11.6273 5.96105C11.7005 5.85481 11.8354 5.79841 11.9703 5.79841C12.1035 5.79841 12.2384 5.85481 12.3116 5.96105L13.5907 7.8039C13.6265 7.85375 13.6427 7.90752 13.6427 7.9613C13.6427 8.13968 13.49 8.28134 13.2462 8.28134Z" fill="#1C1C1E"/>
<path d="M8.26755 13.2599V10.7065C8.26755 10.4627 8.1259 10.31 7.94751 10.31C7.89374 10.31 7.83996 10.3262 7.79012 10.362L5.94727 11.6411C5.84102 11.7143 5.78462 11.8492 5.78462 11.9824C5.78462 12.1173 5.84102 12.2522 5.94727 12.3254L7.79143 13.6029C7.84127 13.637 7.89374 13.6565 7.94751 13.6565C8.1259 13.6565 8.26755 13.5037 8.26755 13.2599Z" fill="#1C1C1E"/>
<path d="M15.6714 13.2599L15.6714 10.7065C15.6714 10.4627 15.813 10.31 15.9914 10.31C16.0452 10.31 16.0977 10.3295 16.1475 10.3636L17.9917 11.6411C18.0979 11.7142 18.1543 11.8491 18.1543 11.9841C18.1543 12.1173 18.0979 12.2522 17.9917 12.3254L16.1488 13.6045C16.099 13.6403 16.0452 13.6565 15.9914 13.6565C15.813 13.6565 15.6714 13.5037 15.6714 13.2599Z" fill="#1C1C1E"/>
<path fill-rule="evenodd" clip-rule="evenodd" d="M2.74125 14.0621L9.99816 21.319C11.339 22.6598 12.6618 22.6689 13.9935 21.3461L21.2867 14.0439C22.6094 12.7212 22.6004 11.3894 21.2595 10.0486L14.0117 2.80069C12.6708 1.45984 11.3481 1.44172 10.0163 2.77352L2.71407 10.0667C1.38227 11.3985 1.40039 12.7212 2.74125 14.0621ZM3.79219 13.0564C3.14894 12.4041 3.13082 11.7246 3.80125 11.0542L10.9947 3.86069C11.6652 3.19027 12.3447 3.19933 12.997 3.85163L20.2086 11.0633C20.8518 11.7065 20.87 12.395 20.1995 13.0655L13.006 20.259C12.3356 20.9294 11.638 20.9113 11.0038 20.2771L3.79219 13.0564Z" fill="#1C1C1E"/>
</svg>
