<svg width="24" height="24" viewBox="0 0 24 24" fill="none" xmlns="http://www.w3.org/2000/svg">
<path d="M16.1977 15.0499L18.9188 12.3288C19.7344 11.5132 19.7133 10.5429 18.8836 9.69213L18.4828 9.28432C17.7516 10.2195 15.6703 11.3374 15.2766 10.9437C15.2133 10.8804 15.2063 10.7538 15.2977 10.6554C16.1344 9.81869 16.7039 8.98197 16.8305 7.64604L13.2305 4.03197C12.4992 3.30776 11.2828 3.58901 10.9453 4.89682C10.4813 6.68979 10.0875 7.75854 9.71485 8.56713L16.1977 15.0499ZM5.34844 19.6624C6.47344 20.7945 7.95 20.8085 9.06094 19.6906C9.89766 18.8609 10.6992 17.0257 11.325 16.0413L12.9563 17.6796C13.5117 18.2421 14.1867 18.2421 14.7211 17.7007L15.3188 17.1031C15.8672 16.5476 15.8531 15.9078 15.2906 15.3453L9.66563 9.71322C9.0961 9.15072 8.44922 9.14369 7.89375 9.69213L7.30313 10.2828C6.76172 10.8242 6.76172 11.4921 7.32422 12.0546L8.95547 13.6859C7.97813 14.3046 6.14297 15.1132 5.31328 15.9429C4.19532 17.0609 4.20938 18.5304 5.34844 19.6624ZM7.26797 18.657C6.80391 18.657 6.42422 18.2773 6.42422 17.8132C6.42422 17.3492 6.80391 16.9695 7.26797 16.9695C7.73203 16.9695 8.10469 17.3492 8.10469 17.8132C8.10469 18.2773 7.73203 18.657 7.26797 18.657Z" fill="#1C1C1E"/>
</svg>
