<svg width="24" height="24" viewBox="0 0 24 24" fill="none" xmlns="http://www.w3.org/2000/svg">
<path fill-rule="evenodd" clip-rule="evenodd" d="M8.49973 4.8889C8.49973 4.39798 8.89771 4 9.38863 4H19.1664C19.6573 4 20.0553 4.39798 20.0553 4.8889V11.1111H11.0146C10.6485 10.0754 9.66087 9.33342 8.49989 9.33333M8.49973 4.8889V8.44444V4.8889ZM8.49973 8.44444C6.53612 8.44453 4.94434 10.0364 4.94434 12C4.94434 13.9636 6.53612 15.5555 8.49973 15.5556V19.1111C8.49973 19.602 8.89771 20 9.38863 20H19.1664C19.6573 20 20.0553 19.602 20.0553 19.1111V12.8888H11.0146C10.6486 13.9245 9.6609 14.6666 8.49989 14.6667C7.02713 14.6667 5.83322 13.4728 5.83322 12C5.83322 10.5273 7.02704 9.33342 8.49973 9.33333" fill="black"/>
</svg>
