<svg width="24" height="24" viewBox="0 0 24 24" fill="none" xmlns="http://www.w3.org/2000/svg">
<path d="M20.7694 1.68005C20.3449 1.68005 19.9746 1.99615 19.9746 2.42966L19.9746 21.5767C19.9746 22.0102 20.3449 22.3353 20.7694 22.3353C21.1848 22.3353 21.5641 22.0102 21.5641 21.5767L21.5641 2.42966C21.5641 1.99615 21.1938 1.68005 20.7694 1.68005Z" fill="#1C1C1E"/>
<path d="M9.19868 11.2128L16.9128 11.2128C17.7259 11.2128 18.3851 10.5537 18.3851 9.74053V6.69107C18.3851 5.87795 17.7259 5.21878 16.9128 5.21878L9.19868 5.21878C8.38555 5.21878 7.72639 5.87794 7.72639 6.69107V9.74053C7.72639 10.5537 8.38555 11.2128 9.19868 11.2128Z" fill="#1C1C1E"/>
<path d="M3.87219 18.8099H16.9128C17.7259 18.8099 18.3851 18.1508 18.3851 17.3376V14.2882C18.3851 13.475 17.7259 12.8159 16.9128 12.8159L3.87219 12.8159C3.05907 12.8159 2.3999 13.475 2.3999 14.2882L2.3999 17.3376C2.3999 18.1507 3.05907 18.8099 3.87219 18.8099Z" fill="#1C1C1E"/>
</svg>
