<svg width="24" height="24" viewBox="0 0 24 24" fill="none" xmlns="http://www.w3.org/2000/svg">
<path fill-rule="evenodd" clip-rule="evenodd" d="M19.6365 2.23568C18.4618 3.04895 13.9244 6.19028 10.8961 8.85185C13.2941 9.67 15.1373 11.5132 15.9555 13.9018C18.6243 10.8555 21.7942 6.28993 22.5857 5.14998C22.6616 5.04069 22.7156 4.96289 22.7452 4.92093C24.0712 2.99311 21.7483 0.726717 19.8863 2.0621C19.8418 2.09351 19.7566 2.15252 19.6365 2.23568ZM10.7926 13.9959C11.6013 14.8047 12.1561 15.7921 12.3536 16.7231C12.9931 16.5914 13.5386 16.3093 14.084 15.8297C14.1874 15.7451 14.2909 15.651 14.3849 15.557C14.0746 12.9803 11.8458 10.7139 9.24088 10.413C9.14684 10.507 9.05279 10.601 8.97756 10.6951C8.47915 11.2593 8.18763 11.8236 8.06537 12.4631C8.99638 12.6511 9.99322 13.1966 10.7926 13.9959ZM9.47634 21.1242C7.17234 23.0897 3.41071 22.5724 1.43586 20.2778C0.852791 19.6102 0.627088 18.9519 1.15372 18.4911C1.41689 18.2636 1.7287 18.2329 2.06008 18.2002C2.42737 18.164 2.81869 18.1254 3.19441 17.814C3.50724 17.5566 3.58997 17.1691 3.68623 16.7183C3.81857 16.0985 3.97648 15.359 4.79311 14.673C6.31658 13.347 8.55475 13.6762 9.96536 15.3313C11.5264 17.1557 11.3666 19.5161 9.47634 21.1242Z" fill="#1C1C1E"/>
</svg>
