<svg width="24" height="24" viewBox="0 0 24 24" fill="none" xmlns="http://www.w3.org/2000/svg">
<path d="M4.04199 9.30167H8.96878H19.8654" fill="#D8D8D8"/>
<path d="M4.04199 9.30167H8.96878H19.8654" stroke="#3C3C43" stroke-opacity="0.3" stroke-width="1.08343" stroke-linecap="round" stroke-linejoin="round"/>
<path d="M4.15521 10.3851C4.75357 10.3851 5.23863 9.90005 5.23863 9.30169C5.23863 8.70333 4.75357 8.21826 4.15521 8.21826C3.55684 8.21826 3.07178 8.70333 3.07178 9.30169C3.07178 9.90005 3.55684 10.3851 4.15521 10.3851Z" fill="#1C1C1E"/>
<path d="M19.8652 10.3851C20.4635 10.3851 20.9486 9.90005 20.9486 9.30169C20.9486 8.70333 20.4635 8.21826 19.8652 8.21826C19.2668 8.21826 18.7817 8.70333 18.7817 9.30169C18.7817 9.90005 19.2668 10.3851 19.8652 10.3851Z" fill="#1C1C1E"/>
<path d="M19.8984 17.1565C18.3637 11.6006 12.978 9.30167 9.56285 9.30167C6.14768 9.30167 4.69727 12.8184 4.69727 17.1565" fill="white" fill-opacity="0.298007"/>
<path d="M19.8984 17.1565C18.3637 11.6006 12.978 9.30167 9.56285 9.30167C6.14768 9.30167 4.69727 12.8184 4.69727 17.1565" stroke="#3C3C43" stroke-opacity="0.3" stroke-width="1.08343" stroke-linecap="round" stroke-linejoin="round"/>
<path d="M9.84299 11.7394C11.1893 11.7394 12.2807 10.648 12.2807 9.30167C12.2807 7.95535 11.1893 6.86395 9.84299 6.86395C8.49668 6.86395 7.40527 7.95535 7.40527 9.30167C7.40527 10.648 8.49668 11.7394 9.84299 11.7394Z" fill="#1C1C1E"/>
</svg>
