<svg width="24" height="24" viewBox="0 0 24 24" fill="none" xmlns="http://www.w3.org/2000/svg">
<path d="M17.3859 17.2039C19.9875 17.2039 21.6258 15.6781 21.6258 13.4281V7.47967C21.6258 6.98046 21.2953 6.67108 20.7891 6.67108C20.2898 6.67108 19.9734 6.98046 19.9734 7.47967V13.2734C19.9734 14.764 19.0242 15.7484 17.3859 15.7484C15.7547 15.7484 14.7984 14.764 14.7984 13.2734V7.47967C14.7984 6.98046 14.468 6.67108 13.9687 6.67108C13.4695 6.67108 13.1531 6.98046 13.1531 7.47967V13.4281C13.1531 15.6781 14.7844 17.2039 17.3859 17.2039ZM3.63281 17.0211H7.35234C9.53906 17.0211 10.9312 15.868 10.9312 14.1031C10.9312 12.718 9.89766 11.7125 8.45625 11.6422V11.5789C9.64453 11.4242 10.4672 10.5312 10.4672 9.39217C10.4672 7.80311 9.24375 6.8328 7.23984 6.8328H3.63281C2.83828 6.8328 2.36719 7.29686 2.36719 8.10546V15.7484C2.36719 16.557 2.83828 17.0211 3.63281 17.0211ZM4.91953 11.0375V8.57655H6.43125C7.3875 8.57655 7.95703 9.01952 7.95703 9.77186C7.95703 10.5594 7.33125 11.0375 6.27656 11.0375H4.91953ZM4.91953 15.2984V12.5562H6.48047C7.66875 12.5562 8.33672 13.0344 8.33672 13.9133C8.33672 14.8133 7.725 15.2984 6.55078 15.2984H4.91953ZM13.6523 19.4469H21.1125C21.4008 19.4469 21.6258 19.2359 21.6258 18.9476C21.6258 18.6594 21.4008 18.4484 21.1125 18.4484H13.6523C13.3781 18.4484 13.1531 18.6594 13.1531 18.9476C13.1531 19.2359 13.3781 19.4469 13.6523 19.4469Z" fill="#1C1C1E"/>
</svg>
