<svg width="24" height="24" viewBox="0 0 24 24" fill="none" xmlns="http://www.w3.org/2000/svg">
<path fill-rule="evenodd" clip-rule="evenodd" d="M19.5928 10.9548H20.6416C21.2738 10.9548 21.4462 11.4792 21.0583 12.0179L19.1258 14.6759C18.8098 15.0997 18.307 15.1069 17.9908 14.6759L16.0585 12.0108C15.6706 11.4792 15.8573 10.9548 16.4752 10.9548H17.6101C17.1503 8.39742 14.8804 6.34292 12.0285 6.34292C10.563 6.34292 9.2269 6.93197 8.24992 7.85865C7.66806 8.31122 7.10054 8.1891 6.78447 7.78681C6.48994 7.40608 6.50431 6.81703 6.99279 6.40756C8.27866 5.18635 10.0674 4.38898 12.0285 4.38898C15.9292 4.38898 19.1116 7.34144 19.5928 10.9548ZM4.46418 13.0452H3.40102C2.76886 13.0452 2.58927 12.5208 2.98436 11.9892L4.91675 9.3241C5.23282 8.90028 5.73568 8.89308 6.05175 9.3241L7.97696 11.9892C8.37205 12.528 8.18528 13.0452 7.5675 13.0452H6.44686C6.91379 15.6097 9.17662 17.6571 12.0285 17.6571C13.5011 17.6571 14.8445 17.0752 15.8143 16.1413C16.3962 15.6888 16.9636 15.8109 17.2796 16.2132C17.5742 16.5867 17.5599 17.1829 17.0713 17.5996C15.7855 18.8136 13.9968 19.611 12.0285 19.611C8.12782 19.611 4.95266 16.6585 4.46418 13.0452Z" fill="#1C1C1E"/>
</svg>
