<svg width="24" height="24" viewBox="0 0 24 24" fill="none" xmlns="http://www.w3.org/2000/svg">
<path d="M4.44092 9.30167H10.2705L16.113 14.3125" stroke="#3C3C43" stroke-opacity="0.3" stroke-width="1.08343" stroke-linecap="round" stroke-linejoin="round"/>
<path d="M4.55668 10.3851C5.16454 10.3851 5.65731 9.90008 5.65731 9.30172C5.65731 8.70336 5.16454 8.21829 4.55668 8.21829C3.94882 8.21829 3.45605 8.70336 3.45605 9.30172C3.45605 9.90008 3.94882 10.3851 4.55668 10.3851Z" fill="#1C1C1E"/>
<path d="M20.5489 17.1565C13.8197 13.0937 14.0583 12.0102 10.0493 9.30167C6.57988 9.30167 5.10645 12.8184 5.10645 17.1565" fill="white" fill-opacity="0.295318"/>
<path d="M20.5489 17.1565C13.8197 13.0937 14.0583 12.0102 10.0493 9.30167C6.57988 9.30167 5.10645 12.8184 5.10645 17.1565" stroke="#3C3C43" stroke-opacity="0.3" stroke-width="1.08343" stroke-linecap="round" stroke-linejoin="round"/>
<path d="M10.3348 11.7394C11.7025 11.7394 12.8112 10.648 12.8112 9.3017C12.8112 7.95538 11.7025 6.86398 10.3348 6.86398C8.96712 6.86398 7.8584 7.95538 7.8584 9.3017C7.8584 10.648 8.96712 11.7394 10.3348 11.7394Z" fill="#1C1C1E"/>
<path d="M15.5635 14.7188C16.1714 14.7188 16.6641 14.2338 16.6641 13.6354C16.6641 13.037 16.1714 12.552 15.5635 12.552C14.9557 12.552 14.4629 13.037 14.4629 13.6354C14.4629 14.2338 14.9557 14.7188 15.5635 14.7188Z" fill="#1C1C1E"/>
</svg>
