<svg width="24" height="24" viewBox="0 0 24 24" fill="none" xmlns="http://www.w3.org/2000/svg">
<path d="M5.67895 9.71321C6.05161 9.71321 6.24849 9.50227 6.24849 9.13664V7.47727C6.24849 6.74602 6.6352 6.37336 7.33833 6.37336H9.03989C9.41255 6.37336 9.61646 6.16946 9.61646 5.80383C9.61646 5.43821 9.41255 5.24133 9.03989 5.24133H7.32427C5.85474 5.24133 5.11646 5.96555 5.11646 7.41399V9.13664C5.11646 9.50227 5.32036 9.71321 5.67895 9.71321ZM18.3141 9.71321C18.6868 9.71321 18.8836 9.50227 18.8836 9.13664V7.41399C18.8836 5.96555 18.1454 5.24133 16.6758 5.24133H14.9532C14.5875 5.24133 14.3836 5.43821 14.3836 5.80383C14.3836 6.16946 14.5875 6.37336 14.9532 6.37336H16.6547C17.3508 6.37336 17.7516 6.74602 17.7516 7.47727V9.13664C17.7516 9.50227 17.9555 9.71321 18.3141 9.71321ZM8.9063 12.1249C8.9063 12.4695 9.15239 12.7085 9.51099 12.7085H11.4165V14.621C11.4165 14.9726 11.6485 15.2187 11.993 15.2187C12.3516 15.2187 12.5907 14.9726 12.5907 14.621V12.7085H14.5032C14.8618 12.7085 15.1008 12.4695 15.1008 12.1249C15.1008 11.7734 14.8618 11.5273 14.5032 11.5273H12.5907V9.6218C12.5907 9.26321 12.3516 9.01711 11.993 9.01711C11.6485 9.01711 11.4165 9.26321 11.4165 9.6218V11.5273H9.51099C9.14536 11.5273 8.9063 11.7734 8.9063 12.1249ZM7.32427 19.0015H9.03989C9.41255 19.0015 9.61646 18.7976 9.61646 18.439C9.61646 18.0734 9.41255 17.8695 9.03989 17.8695H7.33833C6.6352 17.8695 6.24849 17.4968 6.24849 16.7656V15.1062C6.24849 14.7335 6.04458 14.5296 5.67895 14.5296C5.31333 14.5296 5.11646 14.7335 5.11646 15.1062V16.8218C5.11646 18.2773 5.85474 19.0015 7.32427 19.0015ZM14.9532 19.0015H16.6758C18.1454 19.0015 18.8836 18.2702 18.8836 16.8218V15.1062C18.8836 14.7335 18.6797 14.5296 18.3141 14.5296C17.9485 14.5296 17.7516 14.7335 17.7516 15.1062V16.7656C17.7516 17.4968 17.3508 17.8695 16.6547 17.8695H14.9532C14.5875 17.8695 14.3836 18.0734 14.3836 18.439C14.3836 18.7976 14.5875 19.0015 14.9532 19.0015Z" fill="#1C1C1E"/>
</svg>
