<svg width="24" height="24" viewBox="0 0 24 24" fill="none" xmlns="http://www.w3.org/2000/svg">
<path fill-rule="evenodd" clip-rule="evenodd" d="M12.9733 4.70241L12.973 4.70245L12.9684 4.70316C12.9643 4.7038 12.9577 4.70485 12.9486 4.70632C12.9304 4.70926 12.9024 4.71389 12.8652 4.7203C12.7908 4.73314 12.6798 4.75312 12.5374 4.78111C12.2525 4.83712 11.8428 4.925 11.35 5.05147C10.3619 5.30508 9.05272 5.71064 7.75058 6.31874C5.09711 7.55792 2.73305 9.50506 2.73305 12.4971C2.73305 14.0735 3.15651 15.2506 3.80981 16.1444C4.46828 17.0452 5.39161 17.7005 6.45226 18.1734C8.59176 19.1273 11.1767 19.2899 12.8719 19.2899C14.4737 19.2899 16.9354 18.7265 18.804 17.5133C19.7311 16.9114 20.4775 16.1721 20.918 15.2994C21.3518 14.4401 21.5112 13.4094 21.2024 12.1623C20.6125 9.78033 18.3892 8.62236 15.7729 8.41294C14.4819 8.3096 13.1538 8.44821 12.0053 8.76469C10.8436 9.08479 9.93133 9.5682 9.41142 10.1017C8.27589 11.267 8.01787 12.6139 8.47721 13.6029C8.93219 14.5824 10.2347 15.5122 12.8719 15.5122C15.3727 15.5122 16.1295 14.0982 16.069 13.2839C16.0374 12.858 15.8102 12.5289 15.4255 12.3831C15.0194 12.2292 14.2895 12.2265 13.1949 12.8231C12.8676 13.0015 12.4576 12.8808 12.2792 12.5534C12.1008 12.2261 12.2215 11.8161 12.5488 11.6377C13.8392 10.9344 14.9955 10.7764 15.9039 11.1207C16.8337 11.4731 17.3493 12.2956 17.4153 13.1839C17.5501 14.9979 15.9221 16.8622 12.8719 16.8622C9.95808 16.8622 8.01761 15.8181 7.25285 14.1715C6.49244 12.5344 7.03796 10.603 8.44458 9.15956C9.19574 8.38873 10.3622 7.81714 11.6467 7.4632C12.9444 7.10563 14.4302 6.95115 15.8807 7.06726C18.7474 7.29673 21.7179 8.62779 22.5128 11.8378C22.8963 13.3865 22.7079 14.7494 22.1232 15.9078C21.5452 17.0528 20.6024 17.9553 19.5392 18.6456C17.4271 20.0168 14.7036 20.6399 12.8719 20.6399C11.1335 20.6399 8.31154 20.4805 5.90252 19.4064C4.6889 18.8653 3.55256 18.0801 2.71993 16.941C1.88213 15.7948 1.38306 14.3325 1.38306 12.4971C1.38306 8.6653 4.42591 6.38143 7.17935 5.09556C8.58068 4.44114 9.97495 4.01066 11.0144 3.74386C11.5355 3.61013 11.9706 3.51671 12.277 3.45647C12.4303 3.42634 12.5517 3.40446 12.6357 3.38997C12.6777 3.38272 12.7104 3.37731 12.7331 3.37364C12.7445 3.3718 12.7534 3.3704 12.7597 3.36941L12.7672 3.36824L12.7695 3.36789L12.7703 3.36777C12.7705 3.36773 12.7708 3.36769 12.8719 4.03507L12.7708 3.36769C13.1394 3.31186 13.4834 3.56539 13.5393 3.93397C13.5951 4.30246 13.3417 4.64645 12.9733 4.70241Z" fill="#1C1C1E"/>
</svg>
