<svg width="24" height="24" viewBox="0 0 24 24" fill="none" xmlns="http://www.w3.org/2000/svg">
<path d="M15.7407 12.4226L15.9586 12.1906C16.3454 11.7898 16.3524 11.3187 15.9516 10.9179L15.7547 10.7211C16.8727 9.7367 18.0821 9.63826 18.8696 8.84373C19.9594 7.73982 19.6782 6.15076 18.8415 5.30701C18.0118 4.46326 16.4227 4.19607 15.3047 5.27888C14.5032 6.05935 14.4118 7.27576 13.4274 8.39373L13.2375 8.19685C12.8368 7.78904 12.3586 7.8031 11.9579 8.18982L11.7258 8.40779C11.2547 8.85076 11.325 9.27263 11.7469 9.68748L12.0282 9.97576L6.8813 15.1226C4.61724 17.3867 5.51724 17.3445 4.41333 18.8773L5.13755 19.6367C6.62114 18.5328 6.70552 19.5312 8.99067 17.2601L14.1727 12.1133L14.461 12.4015C14.8829 12.8164 15.2907 12.8867 15.7407 12.4226ZM9.91177 14.2719C9.67974 14.0117 9.72896 13.7726 9.98208 13.5125L12.7665 10.707L13.4555 11.3961L10.65 14.2086C10.418 14.4336 10.1297 14.5039 9.91177 14.2719Z" fill="#1C1C1E"/>
</svg>
