<svg width="24" height="24" viewBox="0 0 24 24" fill="none" xmlns="http://www.w3.org/2000/svg">
<path d="M9.21543 10.4398V13.4211H7.90762C6.46621 13.4211 5.29199 14.5602 5.29199 16.0086C5.29199 17.457 6.45918 18.6313 7.90762 18.6313C9.34199 18.6313 10.5162 17.457 10.5162 16.0086V14.7148H13.4764V16.0086C13.4764 17.457 14.6506 18.6313 16.085 18.6313C17.5334 18.6313 18.7006 17.457 18.7006 16.0086C18.7006 14.5602 17.5264 13.4211 16.085 13.4211H14.7771V10.4398H16.085C17.5264 10.4328 18.7006 9.29375 18.7006 7.84531C18.7006 6.40391 17.5334 5.22266 16.085 5.22266C14.6506 5.22266 13.4764 6.40391 13.4764 7.84531V9.14609H10.5162V7.84531C10.5162 6.40391 9.34199 5.22266 7.90762 5.22266C6.45918 5.22266 5.29199 6.40391 5.29199 7.84531C5.29199 9.29375 6.46621 10.4328 7.90762 10.4398H9.21543ZM7.92871 9.16016C7.19746 9.16016 6.60684 8.56953 6.60684 7.84531C6.60684 7.12813 7.19746 6.5375 7.90762 6.5375C8.61777 6.5375 9.2084 7.12813 9.2084 7.86641V9.16016H7.92871ZM16.0709 9.16016H14.7842V7.86641C14.7842 7.12813 15.3748 6.5375 16.085 6.5375C16.8021 6.5375 17.3857 7.12813 17.3857 7.84531C17.3857 8.56953 16.7951 9.16016 16.0709 9.16016ZM10.5232 13.4281V10.4258H13.4764V13.4281H10.5232ZM7.92871 14.6938H9.2084V15.9875C9.2084 16.7188 8.61777 17.3094 7.90762 17.3094C7.19746 17.3094 6.60684 16.7258 6.60684 16.0016C6.60684 15.2844 7.19746 14.6938 7.92871 14.6938ZM16.0709 14.6938C16.7951 14.6938 17.3857 15.2844 17.3857 16.0016C17.3857 16.7258 16.8021 17.3094 16.085 17.3094C15.3748 17.3094 14.7842 16.7188 14.7842 15.9875V14.6938H16.0709Z" fill="#1C1C1E"/>
</svg>
