<svg width="24" height="24" viewBox="0 0 24 24" fill="none" xmlns="http://www.w3.org/2000/svg">
<path d="M6.36099 7.37422H17.625C17.85 7.37422 17.9977 7.23359 17.9977 7.00859V6.67109C17.9977 6.45313 17.85 6.3125 17.625 6.3125H6.36099C6.13599 6.3125 5.99536 6.45313 5.99536 6.67109V7.00859C5.99536 7.23359 6.13599 7.37422 6.36099 7.37422ZM6.5438 11.832H17.4493C17.7868 11.832 17.9977 11.6281 17.9977 11.2906V10.1094C17.9977 9.76484 17.7868 9.56094 17.4493 9.56094H6.5438C6.19927 9.56094 5.99536 9.76484 5.99536 10.1094V11.2906C5.99536 11.6281 6.19927 11.832 6.5438 11.832ZM6.5438 17.8648H17.4493C17.7868 17.8648 17.9977 17.6609 17.9977 17.3164V14.525C17.9977 14.1805 17.7868 13.9766 17.4493 13.9766H6.5438C6.19927 13.9766 5.99536 14.1805 5.99536 14.525V17.3164C5.99536 17.6609 6.19927 17.8648 6.5438 17.8648Z" fill="#1C1C1E"/>
</svg>
