<svg width="24" height="24" viewBox="0 0 24 24" fill="none" xmlns="http://www.w3.org/2000/svg">
<path d="M12.9562 19.7L18.4195 16.5359C19.0171 16.1844 19.2773 15.889 19.2773 15.439C19.2773 14.982 19.0171 14.6867 18.4195 14.3422L17.4773 13.7937L18.4195 13.2453C19.0171 12.8937 19.2773 12.5984 19.2773 12.1484C19.2773 11.6984 19.0171 11.4031 18.4195 11.0515L17.3085 10.4047L18.4195 9.75779C19.0171 9.41326 19.2773 9.11794 19.2773 8.66091C19.2773 8.21091 19.0171 7.9156 18.4195 7.56404L12.9562 4.39998C12.5835 4.18201 12.2953 4.07654 12 4.07654C11.6976 4.07654 11.4093 4.18201 11.0367 4.39998L5.57339 7.56404C4.97573 7.9156 4.71558 8.21091 4.71558 8.66091C4.71558 9.11794 4.97573 9.41326 5.57339 9.75779L6.69136 10.4047L5.57339 11.0515C4.97573 11.4031 4.71558 11.6984 4.71558 12.1484C4.71558 12.5984 4.97573 12.8937 5.57339 13.2453L6.52261 13.7937L5.57339 14.3422C4.97573 14.6867 4.71558 14.982 4.71558 15.439C4.71558 15.889 4.97573 16.1844 5.57339 16.5359L11.0367 19.7C11.4093 19.9179 11.6976 20.0234 12 20.0234C12.2953 20.0234 12.5835 19.9179 12.9562 19.7ZM12 11.7617C11.9085 11.7617 11.8242 11.7265 11.7117 11.6703L6.55776 8.73123C6.52261 8.71716 6.50854 8.69607 6.50854 8.66091C6.50854 8.63279 6.52261 8.61169 6.55776 8.59763L11.7117 5.65857C11.8242 5.59529 11.9085 5.56716 12 5.56716C12.0914 5.56716 12.1757 5.59529 12.2812 5.65857L17.4421 8.59763C17.4703 8.61169 17.4914 8.63279 17.4914 8.66091C17.4914 8.69607 17.4703 8.71716 17.4421 8.73123L12.2812 11.6703C12.1757 11.7265 12.0914 11.7617 12 11.7617ZM11.7117 18.4414L6.55776 15.5023C6.52261 15.4883 6.50854 15.4672 6.50854 15.439C6.50854 15.4039 6.52261 15.3828 6.55776 15.3687L7.90776 14.6023L11.0367 16.4164C11.4093 16.6273 11.6976 16.7328 12 16.7328C12.2953 16.7328 12.5835 16.6273 12.9562 16.4164L16.0851 14.6023L17.4421 15.3687C17.4703 15.3828 17.4914 15.4039 17.4914 15.439C17.4914 15.4672 17.4703 15.4883 17.4421 15.5023L12.2812 18.4414C12.1757 18.5047 12.0914 18.5328 12 18.5328C11.9085 18.5328 11.8242 18.5047 11.7117 18.4414Z" fill="#1C1C1E"/>
</svg>
