<svg width="24" height="24" viewBox="0 0 24 24" fill="none" xmlns="http://www.w3.org/2000/svg">
<path fill-rule="evenodd" clip-rule="evenodd" d="M14.5563 16.0895C13.389 16.9233 11.9622 17.4236 10.4149 17.4236C6.49591 17.4236 3.29028 14.218 3.29028 10.299C3.29028 6.37069 6.50517 3.17432 10.4149 3.17432C14.334 3.17432 17.5396 6.37995 17.5396 10.299C17.5396 11.9203 16.993 13.412 16.0758 14.6164L20.4394 18.9894C20.6434 19.184 20.736 19.4526 20.736 19.7306C20.736 20.3235 20.3099 20.7868 19.7076 20.7868C19.4204 20.7868 19.1517 20.6849 18.9479 20.481L14.5563 16.0895ZM4.82861 10.299C4.82861 13.3564 7.35792 15.8857 10.4153 15.8857C13.4727 15.8857 16.002 13.3564 16.002 10.299C16.002 7.24157 13.4727 4.71226 10.4153 4.71226C7.35792 4.71226 4.82861 7.24157 4.82861 10.299Z" fill="#1C1C1E"/>
</svg>
