<svg width="24" height="24" viewBox="0 0 24 24" fill="none" xmlns="http://www.w3.org/2000/svg">
<path d="M6.03504 19.4464C6.75457 19.4464 7.35897 18.9931 7.59642 18.3599H16.3963C16.6337 18.9931 17.2453 19.4464 17.9649 19.4464C18.8859 19.4464 19.627 18.6981 19.627 17.7771C19.627 17.0576 19.1809 16.446 18.5405 16.2157V7.41587C19.1809 7.17842 19.627 6.56682 19.627 5.84729C19.627 4.92629 18.8859 4.17798 17.9649 4.17798C17.2453 4.17798 16.6337 4.63128 16.3963 5.27167H7.59642C7.35897 4.63128 6.75457 4.17798 6.03504 4.17798C5.10684 4.17798 4.36572 4.92629 4.36572 5.84729C4.36572 6.56682 4.81903 7.17842 5.45222 7.40867V16.2157C4.81903 16.446 4.36572 17.0576 4.36572 17.7771C4.36572 18.6981 5.10684 19.4464 6.03504 19.4464ZM7.59642 17.2015C7.43093 16.741 7.06397 16.3812 6.61066 16.2157V7.41587C7.06397 7.24318 7.43093 6.88342 7.59642 6.43011H16.3963C16.569 6.88342 16.9287 7.24318 17.382 7.40867V16.2157C16.9287 16.3812 16.569 16.741 16.3963 17.2015H7.59642ZM8.94914 14.0068H9.7766V14.8414C9.7766 15.4171 10.1076 15.7408 10.676 15.7408H15.0867C15.6552 15.7408 15.9862 15.4171 15.9862 14.8414V10.517C15.9862 9.94862 15.648 9.62483 15.0652 9.62483H14.2593V8.78298C14.2593 8.21455 13.9283 7.88356 13.3527 7.88356H8.94914C8.38071 7.88356 8.04972 8.21455 8.04972 8.78298V13.1074C8.04972 13.6758 8.38071 14.0068 8.94914 14.0068ZM9.23695 13.0642C9.07865 13.0642 8.99231 12.9778 8.99231 12.8195V9.07079C8.99231 8.91969 9.07865 8.82615 9.23695 8.82615H13.0721C13.2303 8.82615 13.3167 8.91969 13.3167 9.07079V9.62483H10.676C10.1076 9.62483 9.7766 9.94862 9.7766 10.517V13.0642H9.23695ZM10.9638 14.7983C10.8055 14.7983 10.7192 14.7119 10.7192 14.5608V10.8049C10.7192 10.6538 10.8055 10.5674 10.9638 10.5674H14.7773C14.95 10.5674 15.0436 10.6538 15.0436 10.8049V14.5608C15.0436 14.7119 14.9572 14.7983 14.7989 14.7983H10.9638Z" fill="#1C1C1E"/>
</svg>
