<svg width="24" height="24" viewBox="0 0 24 24" fill="none" xmlns="http://www.w3.org/2000/svg">
<path d="M5.35527 7.00156H18.6303C18.9818 7.00156 19.2631 6.72734 19.2631 6.37578C19.2631 6.03125 18.9818 5.75 18.6303 5.75H5.35527C5.00371 5.75 4.72949 6.03125 4.72949 6.37578C4.72949 6.72734 5.00371 7.00156 5.35527 7.00156ZM5.35527 10.6859H13.2373C13.5889 10.6859 13.8701 10.4117 13.8701 10.0602C13.8701 9.70859 13.5889 9.43437 13.2373 9.43437H5.35527C5.00371 9.43437 4.72949 9.70859 4.72949 10.0602C4.72949 10.4117 5.00371 10.6859 5.35527 10.6859ZM5.35527 14.3703H18.6303C18.9818 14.3703 19.2631 14.0961 19.2631 13.7445C19.2631 13.393 18.9818 13.1187 18.6303 13.1187H5.35527C5.00371 13.1187 4.72949 13.393 4.72949 13.7445C4.72949 14.0961 5.00371 14.3703 5.35527 14.3703ZM5.35527 18.0547H13.2373C13.5889 18.0547 13.8701 17.7734 13.8701 17.4289C13.8701 17.0773 13.5889 16.8031 13.2373 16.8031H5.35527C5.00371 16.8031 4.72949 17.0773 4.72949 17.4289C4.72949 17.7734 5.00371 18.0547 5.35527 18.0547Z" fill="#1C1C1E"/>
</svg>
