<svg width="24" height="24" viewBox="0 0 24 24" fill="none" xmlns="http://www.w3.org/2000/svg">
<path fill-rule="evenodd" clip-rule="evenodd" d="M11.597 2.15858C11.8503 1.94153 12.2234 1.94798 12.4692 2.17367C13.7463 3.34617 16.386 6.99848 16.6416 12.809C16.6455 12.8977 16.6487 12.9915 16.6512 13.0898L16.684 13.0518L17.1825 13.4918C17.9261 14.1481 18.5304 14.7664 18.9329 15.5555C19.3405 16.3545 19.5103 17.2651 19.5103 18.4612C19.5103 18.7134 19.3701 18.9442 19.1478 19.0582C18.9254 19.1722 18.6586 19.1501 18.4575 19.001L18.3579 18.9271L18.3578 18.927L18.3578 18.927C18.019 18.6752 17.5205 18.3048 17.0306 17.9843C16.7599 17.8072 16.5061 17.6548 16.2939 17.549C16.2509 17.5276 16.2127 17.5097 16.179 17.4947C16.1607 17.6504 16.1477 17.8162 16.1477 17.9723C16.1477 18.1395 16.1952 18.303 16.2652 18.4469C16.3373 18.5951 16.4178 18.6909 16.443 18.7159C16.6354 18.9061 16.6948 19.1952 16.5933 19.4472C16.4918 19.6992 16.2496 19.8639 15.9806 19.8639H13.6404C13.6316 19.9067 13.6227 19.9484 13.6139 19.9892C13.5459 20.3033 13.4777 20.5676 13.426 20.7555C13.4 20.8497 13.378 20.9253 13.3619 20.9791C13.3539 21.006 13.3473 21.0275 13.3425 21.0432L13.3365 21.0623L13.3346 21.0685L13.3339 21.0707L13.3336 21.0716L13.3335 21.072C13.3334 21.0722 13.3334 21.0724 12.0741 20.6613C12.0741 20.6613 12.5686 19.1108 12.5686 17.644C12.5686 16.1244 12.0741 14.7944 12.0741 14.7944C13.3126 14.3231 13.3126 14.3233 13.3127 14.3236L13.3129 14.3241L13.3133 14.3252L13.3143 14.3278L13.3167 14.3345L13.3237 14.3537C13.3292 14.369 13.3364 14.3895 13.3451 14.4148C13.3625 14.4654 13.3858 14.5354 13.4131 14.6226C13.4674 14.7967 13.538 15.0412 13.6082 15.3377C13.6597 15.5555 13.7121 15.8059 13.7576 16.0807H14.4477H15.1143C15.3266 15.0229 15.3574 13.7263 15.3197 12.8685C15.1095 8.08924 13.1737 4.94306 12.0091 3.61039C10.7768 4.93202 8.74656 8.0732 8.53245 12.8537C8.53273 14.1095 8.56898 14.7513 8.84757 16.0807H10.3913C10.4366 15.808 10.4887 15.5592 10.5398 15.3426C10.6098 15.0459 10.6803 14.8007 10.7344 14.6263C10.7616 14.5388 10.7848 14.4686 10.8021 14.418C10.8107 14.3927 10.8179 14.3722 10.8234 14.3568L10.8302 14.3377L10.8326 14.3311L10.8336 14.3285L10.834 14.3274L10.8341 14.3269C10.8342 14.3267 10.8343 14.3265 12.0741 14.7944C12.0741 14.7944 11.5796 16.1354 11.5796 17.644C11.5796 19.1108 12.0741 20.6613 12.0741 20.6613C10.8148 21.0724 10.8147 21.0722 10.8147 21.072L10.8145 21.0716L10.8143 21.0707L10.8135 21.0685L10.8116 21.0623L10.8056 21.0432C10.8008 21.0275 10.7942 21.006 10.7862 20.9791C10.7701 20.9253 10.7481 20.8497 10.7222 20.7555C10.6704 20.5676 10.6023 20.3033 10.5343 19.9892C10.5254 19.9484 10.5166 19.9067 10.5077 19.8639H8.06866C7.79968 19.8639 7.55747 19.6992 7.45597 19.4472C7.35446 19.1952 7.41387 18.9061 7.60624 18.7159C7.6315 18.6909 7.71199 18.5951 7.78406 18.4469C7.85403 18.303 7.90155 18.1395 7.90155 17.9723C7.90155 17.7887 7.88105 17.6211 7.85376 17.4803C7.81272 17.4978 7.76362 17.5202 7.70586 17.549C7.49366 17.6548 7.23983 17.8072 6.96916 17.9843C6.47921 18.3049 5.98069 18.6753 5.64187 18.9271L5.64185 18.9271L5.54222 19.001C5.34116 19.1501 5.07433 19.1722 4.85198 19.0582C4.62963 18.9442 4.4895 18.7134 4.4895 18.4612C4.4895 17.2651 4.65928 16.3545 5.06688 15.5555C5.46937 14.7664 6.07367 14.1481 6.81723 13.4918L7.21014 13.145C7.20951 13.0463 7.20924 12.9444 7.20924 12.8387V12.8238L7.20989 12.809C7.46583 6.98897 10.229 3.33084 11.597 2.15858ZM12.0741 14.7944L13.3126 14.3231C13.1183 13.8006 12.624 13.4549 12.0723 13.4557C11.5205 13.4564 11.0272 13.8035 10.8343 14.3265L12.0741 14.7944ZM12.0741 20.6613L13.3333 21.0724C13.157 21.6253 12.6483 22 12.0741 22C11.4998 22 10.9911 21.6253 10.8148 21.0724L12.0741 20.6613ZM7.29827 14.8549C7.3444 15.2522 7.41345 15.6712 7.51602 16.1778C7.37228 16.2279 7.23694 16.2904 7.121 16.3482C6.84282 16.4869 6.54034 16.6706 6.25059 16.8602C6.14424 16.9298 6.03769 17.0014 5.93259 17.0735C6.00504 16.7229 6.10933 16.4309 6.24273 16.1694C6.47085 15.7222 6.80434 15.3226 7.29827 14.8549ZM16.4455 16.1649C16.6035 16.2168 16.7526 16.2853 16.8788 16.3482C17.1569 16.4869 17.4594 16.6706 17.7492 16.8602C17.8555 16.9298 17.9621 17.0014 18.0672 17.0735C17.9947 16.7229 17.8904 16.4309 17.757 16.1694C17.5156 15.6962 17.1562 15.2762 16.6136 14.7725C16.581 15.2346 16.5275 15.7106 16.4455 16.1649ZM14.8918 18.5252H13.8471C13.8748 18.2389 13.8918 17.942 13.8918 17.644C13.8918 17.5686 13.8907 17.4936 13.8888 17.4193H14.4477H14.8558C14.8375 17.5932 14.8245 17.7829 14.8245 17.9723C14.8245 18.1681 14.8499 18.3533 14.8918 18.5252ZM9.18524 17.4193H10.2594C10.2574 17.4937 10.2564 17.5686 10.2564 17.644C10.2564 17.942 10.2733 18.2389 10.301 18.5252H9.15741C9.1994 18.3533 9.22476 18.1681 9.22476 17.9723C9.22476 17.7771 9.20971 17.5913 9.18524 17.4193ZM11.8249 9.1521C11.4388 9.1521 11.1498 9.45797 11.1498 9.80563C11.1498 10.1533 11.4388 10.4592 11.8249 10.4592C12.2111 10.4592 12.5001 10.1533 12.5001 9.80563C12.5001 9.45797 12.2111 9.1521 11.8249 9.1521ZM9.93244 9.80563C9.93244 8.75124 10.793 7.92051 11.8249 7.92051C12.8569 7.92051 13.7174 8.75124 13.7174 9.80563C13.7174 10.1692 13.6151 10.5061 13.4388 10.7916L14.0818 11.6027C14.2921 11.868 14.25 12.2556 13.9878 12.4683C13.7256 12.6811 13.3425 12.6385 13.1321 12.3732L12.4945 11.5689C12.2856 11.6478 12.0597 11.6908 11.8249 11.6908C10.793 11.6908 9.93244 10.86 9.93244 9.80563Z" fill="#1C1C1E"/>
</svg>
