<svg width="24" height="24" viewBox="0 0 24 24" fill="none" xmlns="http://www.w3.org/2000/svg">
<path fill-rule="evenodd" clip-rule="evenodd" d="M4.88889 4C4.39797 4 4 4.39797 4 4.88889V12V16.1111V19.1111C4 19.602 4.39797 20 4.88889 20H11.1111L11.1111 14.5151C10.0754 14.149 9.33329 13.1612 9.33329 12.0001C9.33329 10.5273 10.5272 9.33343 12 9.33343C13.161 9.33343 14.1487 10.0754 14.5148 11.1111H20V4.88889C20 4.39797 19.602 4 19.1111 4H16.1111H12H4.88889ZM16.1111 20H12.8889V14.515C13.6466 14.2472 14.2471 13.6466 14.5149 12.8889H20V16.1111C20 16.602 19.602 17 19.1111 17H18H17.5C17.2239 17 17 17.2239 17 17.5V18V19.1111C17 19.602 16.602 20 16.1111 20Z" fill="black"/>
</svg>
