<svg width="24" height="24" viewBox="0 0 24 24" fill="none" xmlns="http://www.w3.org/2000/svg">
<path fill-rule="evenodd" clip-rule="evenodd" d="M12.4825 17.4763C12.8149 17.6965 13.2305 17.9718 13.6802 18.7507C14.5737 20.2983 14.0417 22.2619 12.4871 23.1595C10.9255 24.061 8.95211 23.544 8.05855 21.9963C7.16099 20.4417 7.68899 18.4712 9.25749 17.5656C9.87518 17.209 10.0663 17.0431 10.0455 16.3981L9.97571 14.3378L10.0174 14.3138C10.5474 14.5907 11.0744 14.6381 11.7496 14.4611L11.7736 14.5028C11.7633 14.629 11.762 14.7871 11.7698 14.9769L11.8223 16.5105C11.8392 16.7321 11.8676 16.8453 11.9437 16.9771C12.0767 17.2074 12.2611 17.3296 12.4825 17.4763ZM11.8305 22.0212C12.7466 21.4923 13.0784 20.3199 12.5495 19.4037C12.0126 18.4738 10.8273 18.1679 9.91118 18.6968C8.97425 19.2378 8.66039 20.4091 9.19732 21.3391C9.72624 22.2552 10.8936 22.5622 11.8305 22.0212ZM21.5787 14.1907C20.6811 12.636 18.7106 12.1081 17.1421 13.0136C16.5661 13.3462 16.321 13.4507 15.8475 13.1595L2.82839 5.01881C1.95164 5.90441 2.42434 7.13986 4.03974 8.51134L9.5924 13.2083C10.3717 13.8688 10.9895 13.9933 11.8881 13.7706L12.4749 13.6169C12.8959 13.5126 13.1685 13.5681 13.7627 13.9561L14.9529 14.7033C15.1432 14.8247 15.2271 14.9058 15.3032 15.0377C15.4385 15.272 15.4514 15.4963 15.4668 15.7645C15.4897 16.1637 15.5182 16.6603 15.964 17.4323C16.8576 18.98 18.824 19.5011 20.3717 18.6075C21.9333 17.7059 22.4722 15.7384 21.5787 14.1907ZM11.2732 12.8022C11.5925 12.6179 11.693 12.1989 11.5167 11.8936C11.3284 11.5674 10.9153 11.445 10.5961 11.6293C10.2629 11.8216 10.1694 12.2365 10.3577 12.5627C10.534 12.8681 10.9401 12.9945 11.2732 12.8022ZM11.9305 3.95536C11.5703 1.84082 10.7169 0.843548 9.48381 1.17606L9.76119 8.5485L12.9221 10.5453L13.0054 10.4973L11.9305 3.95536ZM19.7145 17.4692C20.6514 16.9283 20.9693 15.7639 20.4404 14.8478C19.9034 13.9178 18.7321 13.6039 17.7951 14.1448C16.879 14.6738 16.5582 15.8491 17.0951 16.7791C17.6241 17.6952 18.7984 17.9982 19.7145 17.4692Z" fill="#1C1C1E"/>
</svg>
