<svg width="24" height="24" viewBox="0 0 24 24" fill="none" xmlns="http://www.w3.org/2000/svg">
<path fill-rule="evenodd" clip-rule="evenodd" d="M17.7708 3.85887L17.7706 3.85903L17.7705 3.85904C16.562 4.70501 12.7158 7.39726 10.1977 9.62341C11.7713 10.1323 13.0655 11.2163 13.8473 12.6424C14.5623 11.8467 15.5086 11.263 16.5804 10.9971C18.1914 8.90891 19.658 6.80561 20.1686 6.07345C20.2487 5.95857 20.3052 5.87744 20.3351 5.83543C21.3864 4.35028 19.5508 2.56476 18.1157 3.61604C18.0625 3.65468 17.9436 3.73788 17.7708 3.85887ZM9.19647 10.5495C10.9234 10.819 12.4388 12.0835 13.1033 13.6992C12.8028 14.2565 12.5967 14.8723 12.5064 15.5251C12.173 15.7401 11.8245 15.8766 11.4325 15.9478C11.2991 15.2303 10.8318 14.3959 10.1894 13.7535C9.5469 13.111 8.71255 12.6521 8.00334 12.527C8.11181 11.8929 8.40384 11.3505 8.92948 10.8082C8.95268 10.785 8.97535 10.7618 8.99775 10.7389L8.99779 10.7388C9.064 10.6711 9.12791 10.6056 9.19647 10.5495ZM2.27966 18.6345C3.78984 20.6453 6.9604 21.2543 8.95451 19.7608C10.6483 18.501 10.9486 16.5819 9.73881 14.9716C8.6458 13.5115 6.7685 13.1444 5.51696 14.1039C4.75793 14.6744 4.60094 15.338 4.46497 15.9128C4.36031 16.3553 4.26811 16.7451 3.92334 16.9991C3.54323 17.2819 3.20176 17.3071 2.89891 17.3295C2.65665 17.3474 2.43911 17.3635 2.24628 17.5081C1.91254 17.75 1.91254 18.1589 2.27966 18.6345ZM18.2463 20.3538H17.5388C17.3069 20.3538 17.1368 20.2185 17.0865 19.9943L16.8932 19.1708C16.7579 19.1245 16.6303 19.0742 16.5144 19.0201L15.7992 19.4608C15.6097 19.5806 15.3855 19.5613 15.227 19.4028L14.7322 18.908C14.5737 18.7495 14.5505 18.5175 14.6781 18.3281L15.1149 17.6168C15.0608 17.4969 15.0105 17.3732 14.9719 17.2534L14.1446 17.0562C13.9204 17.006 13.7851 16.8359 13.7851 16.6078V15.9119C13.7851 15.6838 13.9204 15.5137 14.1446 15.4635L14.9641 15.2663C15.0067 15.1272 15.0608 15.0035 15.1072 14.8991L14.6703 14.1723C14.5466 13.979 14.5621 13.7625 14.7245 13.6002L15.227 13.1053C15.3894 12.9546 15.5904 12.9314 15.7837 13.0396L16.5105 13.4842C16.6265 13.4262 16.7579 13.3759 16.8932 13.3295L17.0865 12.5061C17.1368 12.278 17.3069 12.1427 17.5388 12.1427H18.2463C18.4743 12.1427 18.6483 12.278 18.6947 12.5022L18.8919 13.3373C19.031 13.3837 19.1547 13.4339 19.2668 13.488L19.9975 13.0396C20.1908 12.9314 20.3918 12.9584 20.5542 13.1053L21.0567 13.6002C21.2191 13.7625 21.2346 13.979 21.1109 14.1723L20.674 14.8991C20.7204 15.0035 20.7745 15.1272 20.8209 15.2663L21.6405 15.4635C21.8647 15.5137 22 15.6838 22 15.9119V16.6078C22 16.8359 21.8647 17.006 21.6405 17.0562L20.8132 17.2534C20.7745 17.3732 20.7204 17.4969 20.6663 17.6168L21.1031 18.3281C21.2307 18.5175 21.2075 18.7495 21.049 18.908L20.5542 19.4028C20.3957 19.5613 20.1753 19.5806 19.9859 19.4608L19.2668 19.0201C19.1509 19.0742 19.0233 19.1245 18.8919 19.1708L18.6947 19.9943C18.6483 20.2185 18.4743 20.3538 18.2463 20.3538ZM16.5376 16.2444C16.5376 16.9905 17.1484 17.6013 17.8945 17.6013C18.6367 17.6013 19.2436 16.9905 19.2436 16.2444C19.2436 15.506 18.6367 14.8952 17.8945 14.8952C17.1484 14.8952 16.5376 15.506 16.5376 16.2444Z" fill="black"/>
</svg>
