<svg width="24" height="24" viewBox="0 0 24 24" fill="none" xmlns="http://www.w3.org/2000/svg">
<path fill-rule="evenodd" clip-rule="evenodd" d="M5.74424 5.328C4.24074 5.328 3.48178 6.07252 3.48178 7.56879V9.33972C3.48178 9.71558 3.6914 9.93244 4.06004 9.93244C4.42869 9.93244 4.64553 9.71558 4.64553 9.33972V7.62661C4.64553 6.87487 5.0431 6.49177 5.76592 6.49177H18.242C18.9504 6.49177 19.3623 6.87487 19.3623 7.62661V9.33972C19.3623 9.71558 19.572 9.93244 19.9406 9.93244C20.3237 9.93244 20.526 9.71558 20.526 9.33972V7.56879C20.526 6.07976 19.7743 5.328 18.2564 5.328H5.74424ZM11.9888 15.3102C12.3647 15.3102 12.5743 15.0573 12.5743 14.6597V9.58544H14.3669C14.6488 9.58544 14.8512 9.3975 14.8512 9.10838C14.8512 8.81201 14.6488 8.63853 14.3669 8.63853H9.63959C9.36493 8.63853 9.15531 8.81201 9.15531 9.10838C9.15531 9.3975 9.36493 9.58544 9.63959 9.58544H11.4178V14.6597C11.4178 15.0428 11.6129 15.3102 11.9888 15.3102ZM4.99947 11.7901C4.99947 12.3105 4.58024 12.737 4.05979 12.737C3.54658 12.737 3.12012 12.3105 3.12012 11.7901C3.12012 11.2769 3.54658 10.8577 4.05979 10.8577C4.58024 10.8577 4.99947 11.2769 4.99947 11.7901ZM19.9404 12.737C20.4536 12.737 20.8801 12.3105 20.8801 11.7901C20.8801 11.2769 20.4536 10.8577 19.9404 10.8577C19.4201 10.8577 19.0008 11.2697 19.0008 11.7901C19.0008 12.3105 19.4201 12.737 19.9404 12.737ZM18.2564 18.6353H5.74424C4.24074 18.6353 3.48178 17.8908 3.48178 16.3945V14.2622C3.48178 13.8863 3.6914 13.6767 4.06004 13.6767C4.42869 13.6767 4.64553 13.8863 4.64553 14.2622V16.3367C4.64553 17.0884 5.0431 17.4715 5.76592 17.4715H18.242C18.9504 17.4715 19.3623 17.0884 19.3623 16.3367V14.2622C19.3623 13.8863 19.5647 13.6767 19.9406 13.6767C20.3164 13.6767 20.526 13.8863 20.526 14.2622V16.3945C20.526 17.8836 19.7743 18.6353 18.2564 18.6353Z" fill="#1C1C1E"/>
</svg>
