<svg width="24" height="24" viewBox="0 0 24 24" fill="none" xmlns="http://www.w3.org/2000/svg">
<path d="M16.8726 17.2531H17.0905C18.4335 17.2531 19.3265 16.5149 19.3265 14.9399V8.30939H15.3749C14.6647 8.30939 14.2218 7.86642 14.2218 7.15626V2.96564H10.439C8.96943 2.96564 8.16084 3.7672 8.16084 5.22267V5.55314H9.24365C10.3476 5.55314 11.1491 5.81329 11.9296 6.58673L15.9233 10.5805C16.6827 11.3399 16.8726 12.2117 16.8726 13.2594V17.2531ZM15.5718 7.36017H19.214C19.1788 7.12111 19.003 6.90314 18.7358 6.62892L15.8952 3.71798C15.6351 3.45079 15.4101 3.27501 15.171 3.24689L15.178 6.95939C15.178 7.24064 15.2905 7.36017 15.5718 7.36017ZM6.96553 20.8672H13.5468C15.0515 20.8672 15.839 20.0727 15.839 18.5539V13.1047H10.8257C9.93271 13.1047 9.49678 12.6617 9.49678 11.7688V6.5797H6.96553C5.46084 6.5797 4.67334 7.38126 4.67334 8.90001V18.5539C4.67334 20.0797 5.46084 20.8672 6.96553 20.8672ZM10.9101 12.0711H15.7124C15.628 11.7688 15.4452 11.4805 15.1288 11.157L11.4233 7.39533C11.0999 7.07189 10.8257 6.85392 10.5233 6.76251V11.6844C10.5233 11.9375 10.6569 12.0711 10.9101 12.0711Z" fill="#1C1C1E"/>
</svg>
