<svg width="24" height="24" viewBox="0 0 24 24" fill="none" xmlns="http://www.w3.org/2000/svg">
<path d="M8.57109 14.5187C9.01406 14.5187 9.30937 14.2375 9.30937 13.7805V12.9227H9.3375C9.7875 13.9141 10.6875 14.5187 11.8617 14.5187C13.8164 14.5187 15.0609 12.993 15.0609 10.5812C15.0609 8.16953 13.8094 6.63672 11.8687 6.63672C10.7297 6.63672 9.80859 7.25547 9.37969 8.23984H9.3375V4.77344C9.3375 4.30938 9.04219 4 8.59922 4C8.15625 4 7.85391 4.30938 7.85391 4.77344V13.7805C7.85391 14.2445 8.13515 14.5187 8.57109 14.5187ZM19.4977 14.5187C20.932 14.5187 22.1625 13.7594 22.5914 12.6836C22.6477 12.5359 22.6758 12.4023 22.6758 12.2828C22.6758 11.9172 22.4016 11.6641 22.043 11.6641C21.7055 11.6641 21.5437 11.7977 21.3539 12.1492C20.9953 12.8875 20.3977 13.3164 19.5117 13.3164C18.225 13.3164 17.3883 12.2758 17.3883 10.5672C17.3883 8.87969 18.232 7.81797 19.5117 7.81797C20.3555 7.81797 20.9672 8.22578 21.3398 9.02031C21.5156 9.34375 21.6914 9.47031 22.0078 9.47031C22.3734 9.47031 22.6477 9.23828 22.6477 8.86562C22.6477 8.76016 22.6195 8.62656 22.5773 8.51406C22.1977 7.41016 20.9672 6.61562 19.4766 6.61562C17.2828 6.61562 15.8766 8.16953 15.8766 10.5742C15.8766 13 17.2969 14.5187 19.4977 14.5187ZM2.56641 14.5187C3.61406 14.5187 4.6125 13.9562 5.04141 13.0633H5.06953V13.8367C5.09766 14.2656 5.37187 14.5258 5.78672 14.5258C6.21562 14.5258 6.50391 14.2516 6.50391 13.7734V9.175C6.50391 7.62813 5.32969 6.62969 3.46641 6.62969C2.03906 6.62969 0.9 7.21328 0.50625 8.13437C0.428906 8.30312 0.386719 8.46484 0.386719 8.6125C0.386719 8.97109 0.653906 9.21719 1.02656 9.21719C1.29375 9.21719 1.49062 9.11875 1.63828 8.90078C2.04609 8.14141 2.5875 7.80391 3.41719 7.80391C4.42266 7.80391 5.03437 8.36641 5.03437 9.28047V9.85703L2.86172 9.97656C1.01953 10.0961 0 10.9047 0 12.2406C0 13.6047 1.06172 14.5187 2.56641 14.5187ZM11.4539 13.3023C10.2164 13.3023 9.3375 12.2266 9.3375 10.5883C9.3375 8.94297 10.2164 7.86016 11.4539 7.86016C12.7266 7.86016 13.5422 8.91484 13.5422 10.5812C13.5422 12.2477 12.7266 13.3023 11.4539 13.3023ZM2.96719 13.3797C2.09531 13.3797 1.49766 12.9086 1.49766 12.1844C1.49766 11.4953 2.05312 11.0383 3.05859 10.968L5.03437 10.8414V11.5445C5.03437 12.5852 4.11328 13.3797 2.96719 13.3797ZM1.27969 19.0469C1.79297 19.0469 2.21484 18.618 2.21484 18.1047C2.21484 17.5773 1.80703 17.1695 1.27969 17.1695C0.759375 17.1695 0.3375 17.5844 0.3375 18.1047C0.3375 18.618 0.759375 19.0469 1.27969 19.0469ZM4.75312 19.0469C5.26641 19.0469 5.68828 18.618 5.68828 18.1047C5.68828 17.5773 5.27344 17.1695 4.75312 17.1695C4.23281 17.1695 3.81094 17.5844 3.81094 18.1047C3.81094 18.618 4.23281 19.0469 4.75312 19.0469ZM8.2125 19.0469C8.72578 19.0469 9.15469 18.618 9.15469 18.1047C9.15469 17.5773 8.73984 17.1695 8.2125 17.1695C7.69219 17.1695 7.27031 17.5844 7.27031 18.1047C7.27031 18.618 7.69219 19.0469 8.2125 19.0469ZM11.6789 19.0469C12.1922 19.0469 12.6211 18.618 12.6211 18.1047C12.6211 17.5773 12.2062 17.1695 11.6789 17.1695C11.1586 17.1695 10.7367 17.5844 10.7367 18.1047C10.7367 18.618 11.1586 19.0469 11.6789 19.0469ZM15.1453 19.0469C15.6586 19.0469 16.0875 18.618 16.0875 18.1047C16.0875 17.5773 15.6727 17.1695 15.1453 17.1695C14.625 17.1695 14.2031 17.5844 14.2031 18.1047C14.2031 18.618 14.625 19.0469 15.1453 19.0469ZM18.6117 19.0469C19.125 19.0469 19.5469 18.618 19.5469 18.1047C19.5469 17.5773 19.132 17.1695 18.6117 17.1695C18.0914 17.1695 17.6695 17.5844 17.6695 18.1047C17.6695 18.618 18.0914 19.0469 18.6117 19.0469ZM22.0711 19.0469C22.5844 19.0469 23.0133 18.618 23.0133 18.1047C23.0133 17.5773 22.5984 17.1695 22.0711 17.1695C21.5508 17.1695 21.1359 17.5844 21.1359 18.1047C21.1359 18.618 21.5508 19.0469 22.0711 19.0469Z" fill="#1C1C1E"/>
</svg>
