<svg width="24" height="24" viewBox="0 0 24 24" fill="none" xmlns="http://www.w3.org/2000/svg">
<path d="M12.2601 17.1898C12.7382 17.1898 12.9914 16.993 13.146 16.4867L13.9195 14.3211H17.9203L18.6937 16.4867C18.8484 16.993 19.1015 17.1898 19.5796 17.1898C20.0789 17.1898 20.4093 16.8875 20.4093 16.4164C20.4093 16.2406 20.3742 16.093 20.3109 15.8961L17.2101 7.52891C16.9921 6.91719 16.5843 6.62891 15.9304 6.62891C15.2976 6.62891 14.8898 6.91719 14.6718 7.52187L11.557 15.9383C11.4937 16.1211 11.4656 16.2758 11.4656 16.4305C11.4656 16.9016 11.7679 17.1898 12.2601 17.1898ZM14.3273 12.9992L15.9023 8.44297H15.9515L17.5265 12.9992H14.3273ZM4.32183 17.1898C4.69448 17.1898 4.92651 16.993 5.06011 16.543L5.55933 15.0594H8.29448L8.78667 16.55C8.92026 17.007 9.15229 17.1898 9.54604 17.1898C9.97495 17.1898 10.2703 16.9086 10.2703 16.5008C10.2703 16.3391 10.2351 16.1773 10.1648 15.9875L8.04136 10.2992C7.83042 9.72969 7.47183 9.4625 6.91636 9.4625C6.38198 9.4625 6.02339 9.72969 5.81948 10.2992L3.68901 15.9875C3.62573 16.1633 3.59058 16.3461 3.59058 16.5008C3.59058 16.9227 3.87183 17.1898 4.32183 17.1898ZM5.90386 13.9414L6.83901 11.0023H6.98667L7.94292 13.9414H5.90386Z" fill="#1C1C1E"/>
</svg>
