<svg width="24" height="24" viewBox="0 0 24 24" fill="none" xmlns="http://www.w3.org/2000/svg">
<path fill-rule="evenodd" clip-rule="evenodd" d="M11.6782 1.92004C9.97594 1.92004 8.596 3.29999 8.596 5.00223V8.63051H4.58321C3.13888 8.63051 1.96802 9.80136 1.96802 11.2457V19.4649C1.96802 20.9092 3.13888 22.08 4.58321 22.08H12.8024C14.2467 22.08 15.4176 20.9092 15.4176 19.4649L15.4168 15.3696H18.9634C20.6656 15.3696 22.0455 13.9896 22.0455 12.2874V5.00223C22.0455 3.29999 20.6656 1.92004 18.9634 1.92004H11.6782ZM9.53 5.00223C9.53 3.81582 10.4918 2.85404 11.6782 2.85404H18.9634C20.1498 2.85404 21.1115 3.81582 21.1115 5.00223V12.2874C21.1115 13.4738 20.1498 14.4356 18.9634 14.4356H11.6782C10.4918 14.4356 9.53 13.4738 9.53 12.2874V5.00223Z" fill="#1C1C1E"/>
</svg>
