<svg width="24" height="24" viewBox="0 0 24 24" fill="none" xmlns="http://www.w3.org/2000/svg">
<path d="M11.9765 22.3352C12.4009 22.3352 12.7712 22.0191 12.7712 21.5856V2.43857C12.7712 2.00506 12.4009 1.67993 11.9765 1.67993C11.561 1.67993 11.1817 2.00506 11.1817 2.43857V21.5856C11.1817 22.0191 11.552 22.3352 11.9765 22.3352Z" fill="#1C1C1E"/>
<path d="M15.8335 12.8024H8.1194C7.30627 12.8024 6.6471 13.4615 6.6471 14.2747V17.3241C6.6471 18.1372 7.30627 18.7964 8.1194 18.7964H15.8335C16.6466 18.7964 17.3058 18.1372 17.3058 17.3241V14.2747C17.3058 13.4615 16.6466 12.8024 15.8335 12.8024Z" fill="#1C1C1E"/>
<path d="M18.4968 5.20527H5.45618C4.64305 5.20527 3.98389 5.86444 3.98389 6.67757V9.72703C3.98389 10.5402 4.64305 11.1993 5.45618 11.1993H18.4968C19.3099 11.1993 19.9691 10.5402 19.9691 9.72703V6.67757C19.9691 5.86444 19.3099 5.20527 18.4968 5.20527Z" fill="#1C1C1E"/>
</svg>
