<svg width="24" height="24" viewBox="0 0 24 24" fill="none" xmlns="http://www.w3.org/2000/svg">
<path d="M22.3355 20.7695C22.3355 20.345 22.0194 19.9747 21.5859 19.9747H2.43881C2.00531 19.9747 1.68018 20.345 1.68018 20.7695C1.68018 21.1849 2.00531 21.5643 2.43881 21.5643H21.5859C22.0194 21.5643 22.3355 21.194 22.3355 20.7695Z" fill="#1C1C1E"/>
<path d="M12.8027 9.1988V16.9129C12.8027 17.726 13.4618 18.3852 14.275 18.3852H17.3244C18.1375 18.3852 18.7967 17.726 18.7967 16.9129V9.1988C18.7967 8.38568 18.1375 7.72651 17.3244 7.72651H14.275C13.4618 7.72651 12.8027 8.38568 12.8027 9.1988Z" fill="#1C1C1E"/>
<path d="M5.20561 3.87232L5.20561 16.9129C5.20561 17.726 5.86477 18.3852 6.6779 18.3852H9.72736C10.5405 18.3852 11.1997 17.726 11.1997 16.9129V3.87232C11.1997 3.05919 10.5405 2.40002 9.72736 2.40002L6.6779 2.40002C5.86477 2.40002 5.20561 3.05919 5.20561 3.87232Z" fill="#1C1C1E"/>
</svg>
