<svg width="24" height="24" viewBox="0 0 24 24" fill="none" xmlns="http://www.w3.org/2000/svg">
<path d="M6.06327 13.9849C8.25189 13.9849 10.0483 15.7813 10.0483 17.9699C10.0483 20.1429 8.22835 21.9549 6.06327 21.9549C3.88248 21.9549 2.07824 20.1585 2.07824 17.9699C2.07824 15.7813 3.88248 13.9849 6.06327 13.9849ZM6.06327 15.4753C5.78338 15.4753 5.59832 15.6577 5.58546 15.9239L5.58475 15.9539V17.4836H4.04722C3.76481 17.4836 3.5687 17.6797 3.5687 17.9699C3.5687 18.2498 3.75105 18.4349 4.01729 18.4477L4.04722 18.4484H5.58475V19.986C5.58475 20.2684 5.77301 20.4645 6.06327 20.4645C6.3507 20.4645 6.53604 20.2821 6.54891 20.0159L6.54962 19.986V18.4484H8.07931C8.36955 18.4484 8.55783 18.2602 8.55783 17.9699C8.55783 17.69 8.38276 17.4977 8.11002 17.4843L8.07931 17.4836H6.54962V15.9539C6.54962 15.6715 6.36135 15.4753 6.06327 15.4753ZM7.94219 7.0606C7.9637 7.0606 7.98497 7.06166 8.00593 7.06372L14.9355 7.0638V12.7433L14.9359 12.7947C14.9518 13.7467 15.4146 14.2095 16.3666 14.2254L16.4181 14.2259H22.176V17.8265L22.1756 17.8867C22.1553 19.4426 21.3452 20.2378 19.7744 20.2579L19.7128 20.2583L10.3746 20.2585C10.7197 19.5809 10.9143 18.8138 10.9143 18.0013C10.9143 15.2507 8.68456 13.0209 5.93399 13.0209C5.77792 13.0209 5.62354 13.0281 5.47114 13.0422L5.35722 13.054L5.35726 9.4956L5.35765 9.43509C5.36303 9.01637 5.42456 8.65328 5.54197 8.34568L1.19463 8.34585C0.839715 8.34585 0.552002 8.05814 0.552002 7.70322C0.552002 7.35907 0.822542 7.0781 1.16255 7.06139L1.19463 7.0606H7.94219ZM16.0102 7.15794L16.0503 7.16476C16.3447 7.22163 16.6352 7.42901 16.9823 7.76274L17.0299 7.80903L21.4307 12.1314L21.479 12.1792C21.8109 12.5122 22.0177 12.8079 22.0815 13.1082L22.0897 13.1512H16.4338L16.4018 13.1505C16.1512 13.1405 16.0208 13.0099 16.0108 12.7525L16.0102 12.7197V7.15794ZM6.01432 2.01599C6.35847 2.01599 6.63944 2.28653 6.65616 2.62654L6.65694 2.65862V5.71109C6.65694 6.066 6.36923 6.35371 6.01432 6.35371C5.67016 6.35371 5.38919 6.08317 5.37248 5.74316L5.37169 5.71109V2.65862C5.37169 2.3037 5.6594 2.01599 6.01432 2.01599Z" fill="#1C1C1E"/>
</svg>
