<svg width="24" height="24" viewBox="0 0 24 24" fill="none" xmlns="http://www.w3.org/2000/svg">
<path d="M4.32007 15.5467C4.32007 19.8087 7.11361 22.331 10.9511 22.331C14.025 22.331 15.9292 21.0457 17.1955 18.4653C17.9398 17.035 18.5101 15.3148 19.1191 13.324C19.3704 12.5122 19.7281 11.4781 19.7281 11.0142C19.7281 10.4924 19.3511 10.1445 18.8001 10.1445C18.1911 10.1445 17.8238 10.531 17.3792 11.4491L16.0355 14.2711C15.9002 14.5803 15.7456 14.6963 15.5909 14.6963C15.3879 14.6963 15.2526 14.5803 15.2526 14.2421V4.10433C15.2526 3.53415 14.7886 3.07026 14.2183 3.07026C13.648 3.07026 13.184 3.53415 13.184 4.10433V11.3525C12.923 11.2558 12.633 11.1785 12.3237 11.1206V2.71269C12.3237 2.1425 11.8597 1.66895 11.2894 1.66895C10.7191 1.66895 10.2455 2.1425 10.2455 2.71269V11.0142C9.94581 11.0336 9.63649 11.0819 9.33685 11.1302V3.53415C9.33685 2.96395 8.87286 2.50008 8.30255 2.50008C7.73225 2.50008 7.26826 2.96395 7.26826 3.53415V11.7874C6.94928 11.942 6.6593 12.1063 6.3983 12.2802V6.53971C6.3983 5.96953 5.93431 5.50564 5.36402 5.50564C4.7937 5.50564 4.32007 5.96953 4.32007 6.53971V15.5467Z" fill="#1C1C1E"/>
</svg>
