<svg width="24" height="24" viewBox="0 0 24 24" fill="none" xmlns="http://www.w3.org/2000/svg">
<path d="M5.98125 18.5047H18.0117C19.5375 18.5047 20.332 17.7172 20.332 16.2125V7.65547C20.332 6.15078 19.5375 5.36328 18.0117 5.36328H5.98125C4.4625 5.36328 3.66797 6.14375 3.66797 7.65547V16.2125C3.66797 17.7172 4.4625 18.5047 5.98125 18.5047ZM5.06719 11.9375H7.8375V9.34297H5.06719V7.78203C5.06719 7.1 5.42578 6.7625 6.07266 6.7625H7.8375V9.34297H10.6219V6.7625H13.3711V9.34297H16.1555V6.7625H17.9203C18.5672 6.7625 18.9258 7.1 18.9258 7.78203V9.34297H16.1555V11.9375H18.9258V14.5109H16.1555V17.1055H7.8375V14.5109H5.06719V11.9375ZM10.6219 11.9375H13.3711V9.34297H10.6219V11.9375ZM7.8375 14.5109H10.6219V11.9375H7.8375V14.5109ZM13.3711 14.5109H16.1555V11.9375H13.3711V14.5109ZM10.6219 17.1055H13.3711V14.5109H10.6219V17.1055Z" fill="#1C1C1E"/>
</svg>
