<svg width="24" height="24" viewBox="0 0 24 24" fill="none" xmlns="http://www.w3.org/2000/svg">
<path d="M18.7349 11.3517C19.5911 11.3517 19.9797 10.9632 19.9797 10.1069V4.39386C19.9797 3.64555 19.5263 3.30017 19.0011 3.30017C18.7564 3.30017 18.4902 3.36493 18.26 3.52323L9.65438 9.45936C9.32339 9.68961 9.1651 10.0206 9.1651 10.366C9.1651 10.8768 9.50328 11.3517 10.1365 11.3517H18.7349ZM6.36612 19.1227L7.79799 17.1943C8.10019 16.7986 7.92031 16.3165 7.43103 16.3165H6.3949V7.22162H7.43103C7.92031 7.22162 8.10019 6.73953 7.79799 6.34379L6.36612 4.41544C6.17185 4.14922 5.80489 4.14922 5.61061 4.41544L4.16435 6.34379C3.87654 6.72514 4.03484 7.22162 4.54571 7.22162H5.56024V16.3165H4.54571C4.04923 16.3165 3.86215 16.7986 4.16435 17.1943L5.61061 19.1227C5.80489 19.3889 6.17904 19.3817 6.36612 19.1227ZM19.0011 20.2379C19.5263 20.2379 19.9797 19.8926 19.9797 19.1442V13.4312C19.9797 12.5749 19.5911 12.1864 18.7349 12.1864H10.1365C9.50328 12.1864 9.1651 12.6613 9.1651 13.1721C9.1651 13.5175 9.32339 13.8485 9.65438 14.0787L18.26 20.0077C18.4902 20.1732 18.7564 20.2379 19.0011 20.2379Z" fill="#1C1C1E"/>
</svg>
