<svg width="24" height="24" viewBox="0 0 24 24" fill="none" xmlns="http://www.w3.org/2000/svg">
<path d="M1.67993 4.49081C1.67993 4.91529 1.99603 5.28557 2.42954 5.28557L21.5766 5.28558C22.0101 5.28558 22.3352 4.91529 22.3352 4.49081C22.3352 4.07537 22.0101 3.69605 21.5766 3.69605L2.42954 3.69604C1.99603 3.69604 1.67993 4.06633 1.67993 4.49081Z" fill="#1C1C1E"/>
<path d="M1.67993 19.4729C1.67993 19.8974 1.99603 20.2677 2.42954 20.2677H21.5766C22.0101 20.2677 22.3352 19.8974 22.3352 19.4729C22.3352 19.0575 22.0101 18.6782 21.5766 18.6782L2.42954 18.6782C1.99603 18.6782 1.67993 19.0485 1.67993 19.4729Z" fill="#1C1C1E"/>
<path d="M8.15048 14.9789L15.8646 14.9789C16.6777 14.9789 17.3369 14.3197 17.3369 13.5066L17.3369 10.4571C17.3369 9.644 16.6777 8.98483 15.8646 8.98483L8.15048 8.98483C7.33736 8.98483 6.67819 9.644 6.67819 10.4571V13.5066C6.67819 14.3197 7.33736 14.9789 8.15048 14.9789Z" fill="#1C1C1E"/>
</svg>
