<svg width="24" height="24" viewBox="0 0 24 24" fill="none" xmlns="http://www.w3.org/2000/svg">
<path d="M22.4694 6.55567C22.2657 6.44565 22.0182 6.45623 21.8246 6.58313L21.5796 6.74383C20.1668 7.67022 18.5339 8.15972 16.8563 8.15967C16.8504 8.15967 16.8446 8.15967 16.8385 8.15967C15.1265 8.15967 13.4445 8.697 12.05 9.6815C10.6554 8.69692 8.97369 8.15967 7.26151 8.15967C7.25555 8.15967 7.24975 8.15967 7.24371 8.15967C5.56626 8.15967 3.93306 7.67017 2.52041 6.74383L2.27539 6.58313C2.08181 6.45627 1.83427 6.44573 1.63065 6.55567C1.42699 6.66564 1.30009 6.87846 1.30009 7.10988C1.21939 7.45886 1.18747 7.68525 1.20432 7.78905C1.30009 12.7176 2.41168 14.3855 2.55984 14.5323C3.81477 16.3148 5.88791 17.4819 8.22875 17.4819C9.69709 17.4819 11.1107 16.8173 12.05 15.6947C12.9893 16.8173 14.403 17.4819 15.8713 17.4819C19.6918 17.4819 22.8 14.3737 22.8 10.5532V7.10988C22.8 6.87846 22.6731 6.66564 22.4694 6.55567ZM6.7368 14.1834C5.0926 13.4167 4.45379 11.3065 4.45379 11.3065C4.45379 11.3065 6.48085 10.4395 8.12506 11.2062C9.76926 11.9729 10.4081 14.0831 10.4081 14.0831C10.4081 14.0831 8.38101 14.9501 6.7368 14.1834ZM17.3632 14.1834C15.719 14.9501 13.692 14.0831 13.692 14.0831C13.692 14.0831 14.3307 11.9729 15.975 11.2062C17.6192 10.4395 19.6462 11.3065 19.6462 11.3065C19.6462 11.3065 19.0075 13.4167 17.3632 14.1834Z" fill="#1C1C1E"/>
</svg>
