<svg width="24" height="24" viewBox="0 0 24 24" fill="none" xmlns="http://www.w3.org/2000/svg">
<path d="M2.71875 13.843C2.71875 15.3547 3.50625 16.1352 5.03203 16.1352H5.37656V10.0039C5.37656 7.91563 6.53672 6.7625 8.63906 6.7625H17.6531V6.67109C17.6531 5.16641 16.8586 4.37891 15.3398 4.37891H5.03203C3.50625 4.37891 2.71875 5.16641 2.71875 6.67109V13.843ZM8.72344 19.4891H18.9609C20.4797 19.4891 21.2812 18.7016 21.2812 17.1969V10.0883C21.2812 8.58359 20.4797 7.79609 18.9609 7.79609H8.72344C7.19766 7.79609 6.41016 8.57656 6.41016 10.0883V17.1969C6.41016 18.7016 7.19766 19.4891 8.72344 19.4891ZM11.557 13.5687C10.6852 13.5687 9.96797 12.8445 9.96797 11.9727C9.96797 11.1078 10.6852 10.3766 11.557 10.3766C12.4289 10.3766 13.1461 11.1078 13.1461 11.9727C13.1461 12.8445 12.4289 13.5687 11.557 13.5687ZM8.71641 18.0758C8.13984 18.0758 7.80937 17.7594 7.80937 17.1687V16.6203L9.02578 15.5094C9.56719 15.0172 9.91172 14.6867 10.3617 14.6867C10.8187 14.6867 11.1914 15.0312 11.7539 15.5164L12.4852 16.1562L15.1359 13.7656C15.6914 13.2594 16.0219 13.0906 16.4648 13.0906C16.8797 13.0906 17.2102 13.2664 17.7375 13.7937L19.8117 15.8258V17.1687C19.8117 17.7523 19.4812 18.0758 18.8977 18.0758H8.71641Z" fill="#1C1C1E"/>
</svg>
