<svg width="24" height="24" viewBox="0 0 24 24" fill="none" xmlns="http://www.w3.org/2000/svg">
<path d="M8.15381 11.389C9.84131 11.389 11.2335 9.9898 11.2335 8.29526C11.2335 6.61479 9.84131 5.21558 8.15381 5.21558C6.44521 5.21558 5.06006 6.61479 5.06006 8.29526C5.06006 9.9898 6.44521 11.389 8.15381 11.389ZM15.853 11.389C17.5405 11.389 18.9327 9.9898 18.9327 8.29526C18.9327 6.61479 17.5405 5.21558 15.853 5.21558C14.1444 5.21558 12.7593 6.61479 12.7593 8.29526C12.7593 9.9898 14.1444 11.389 15.853 11.389ZM8.15381 18.6242C9.84131 18.6242 11.2335 17.232 11.2335 15.5375C11.2335 13.857 9.84131 12.4578 8.15381 12.4578C6.44521 12.4578 5.06006 13.857 5.06006 15.5375C5.06006 17.232 6.44521 18.6242 8.15381 18.6242ZM15.853 18.6242C17.5405 18.6242 18.9327 17.232 18.9327 15.5375C18.9327 13.857 17.5405 12.4578 15.853 12.4578C14.1444 12.4578 12.7593 13.857 12.7593 15.5375C12.7593 17.232 14.1444 18.6242 15.853 18.6242Z" fill="#1C1C1E"/>
</svg>
