<svg width="24" height="24" viewBox="0 0 24 24" fill="none" xmlns="http://www.w3.org/2000/svg">
<path d="M21.5305 2.97595L22.4612 3.87088L4.84707 20.3979L4.16731 21.0449L3.2656 20.1224L3.91568 19.5036L6.37495 17.1968C4.81255 16.7624 3.47068 15.7929 2.55984 14.4991C2.55367 14.493 2.54582 14.4842 2.53645 14.4727L2.50388 14.4297C2.23347 14.0517 1.29211 12.2737 1.20432 7.75587C1.18747 7.65207 1.21939 7.42568 1.30009 7.07669C1.30009 6.84528 1.42699 6.63246 1.63065 6.52248C1.83427 6.41255 2.08181 6.42309 2.27539 6.54995L2.52041 6.71065C3.93306 7.63699 5.56626 8.12649 7.24371 8.12649H7.26151C8.97369 8.12649 10.6554 8.66374 12.05 9.64832C13.2143 8.82636 14.5789 8.3161 15.9942 8.17002L21.5305 2.97595ZM21.9114 6.50233C22.0886 6.4225 22.2951 6.42832 22.4694 6.52248C22.6731 6.63246 22.8 6.84528 22.8 7.07669V10.52C22.8 14.3405 19.6918 17.4487 15.8713 17.4487C14.403 17.4487 12.9893 16.7841 12.05 15.6616L12.095 15.713L13.8161 14.0983C14.263 14.2633 15.8357 14.7641 17.203 14.2194L17.3632 14.1502C19.0075 13.3835 19.6462 11.2734 19.6462 11.2734C19.6462 11.2734 18.5191 10.7913 17.264 10.864L21.9114 6.50233ZM8.12506 11.1731C6.48085 10.4064 4.45379 11.2734 4.45379 11.2734C4.45379 11.2734 5.0926 13.3835 6.7368 14.1502C8.38101 14.9169 10.4081 14.0499 10.4081 14.0499C10.4081 14.0499 9.76926 11.9398 8.12506 11.1731Z" fill="#1C1C1E"/>
</svg>
