<svg width="24" height="24" viewBox="0 0 24 24" fill="none" xmlns="http://www.w3.org/2000/svg">
<path d="M1.67993 3.19479C1.67993 3.61927 1.99603 3.98955 2.42954 3.98955L21.5766 3.98956C22.0101 3.98956 22.3352 3.61927 22.3352 3.19479C22.3352 2.77934 22.0101 2.40003 21.5766 2.40003L2.42954 2.40002C1.99603 2.40002 1.67993 2.77031 1.67993 3.19479Z" fill="#1C1C1E"/>
<path d="M11.2127 14.7655L11.2127 7.05138C11.2127 6.23825 10.5536 5.57908 9.74044 5.57908H6.69098C5.87785 5.57908 5.21869 6.23825 5.21869 7.05138L5.21869 14.7655C5.21869 15.5786 5.87785 16.2378 6.69098 16.2378H9.74044C10.5536 16.2378 11.2127 15.5786 11.2127 14.7655Z" fill="#1C1C1E"/>
<path d="M18.8098 20.092L18.8098 7.05138C18.8098 6.23825 18.1506 5.57908 17.3375 5.57908L14.288 5.57908C13.4749 5.57908 12.8158 6.23825 12.8158 7.05138L12.8158 20.092C12.8158 20.9051 13.4749 21.5643 14.288 21.5643H17.3375C18.1506 21.5643 18.8098 20.9051 18.8098 20.092Z" fill="#1C1C1E"/>
</svg>
