<svg width="24" height="24" viewBox="0 0 24 24" fill="none" xmlns="http://www.w3.org/2000/svg">
<path d="M18.2647 9.67346C18.7218 9.67346 18.9679 9.42034 18.9679 8.9633V7.25471C18.9679 5.75002 18.1804 4.96252 16.6546 4.96252H14.946C14.489 4.96252 14.2358 5.20862 14.2358 5.66565C14.2358 6.11565 14.489 6.36174 14.946 6.36174H16.5632C17.203 6.36174 17.5687 6.69924 17.5687 7.38127V8.9633C17.5687 9.42034 17.8147 9.67346 18.2647 9.67346ZM5.72803 9.67346C6.18506 9.67346 6.42412 9.42034 6.42412 8.9633V7.38127C6.42412 6.69924 6.78271 6.36174 7.42959 6.36174H9.04678C9.50381 6.36174 9.75693 6.11565 9.75693 5.66565C9.75693 5.20862 9.50381 4.96252 9.04678 4.96252H7.33818C5.81943 4.96252 5.0249 5.74299 5.0249 7.25471V8.9633C5.0249 9.42034 5.27803 9.67346 5.72803 9.67346ZM9.30693 15.6711H14.6788C15.178 15.6711 15.403 15.4813 15.403 14.9821V8.88596C15.403 8.37971 15.178 8.18987 14.6788 8.18987H9.30693C8.81475 8.18987 8.58271 8.37971 8.58271 8.88596V14.9821C8.58271 15.4813 8.81475 15.6711 9.30693 15.6711ZM10.5304 10.8055C10.2913 10.8055 10.1366 10.6438 10.1366 10.4117C10.1366 10.1727 10.2913 10.0039 10.5304 10.0039H13.378C13.6171 10.0039 13.7788 10.1727 13.7788 10.4117C13.7788 10.6438 13.6171 10.8055 13.378 10.8055H10.5304ZM10.5304 12.3031C10.2913 12.3031 10.1366 12.1344 10.1366 11.9024C10.1366 11.6633 10.2913 11.4946 10.5304 11.4946H12.1546C12.3866 11.4946 12.5554 11.6633 12.5554 11.9024C12.5554 12.1344 12.3866 12.3031 12.1546 12.3031H10.5304ZM7.33818 18.9055H9.04678C9.50381 18.9055 9.75693 18.6524 9.75693 18.2024C9.75693 17.7524 9.50381 17.4992 9.04678 17.4992H7.42959C6.78271 17.4992 6.42412 17.1688 6.42412 16.4867V14.9047C6.42412 14.4477 6.17803 14.1946 5.72803 14.1946C5.271 14.1946 5.0249 14.4477 5.0249 14.9047V16.6133C5.0249 18.118 5.81943 18.9055 7.33818 18.9055ZM14.946 18.9055H16.6546C18.1804 18.9055 18.9679 18.118 18.9679 16.6133V14.9047C18.9679 14.4477 18.7147 14.1946 18.2647 14.1946C17.8077 14.1946 17.5687 14.4477 17.5687 14.9047V16.4867C17.5687 17.1688 17.203 17.4992 16.5632 17.4992H14.946C14.489 17.4992 14.2358 17.7524 14.2358 18.2024C14.2358 18.6524 14.489 18.9055 14.946 18.9055Z" fill="#1C1C1E"/>
</svg>
