<svg width="24" height="24" viewBox="0 0 24 24" fill="none" xmlns="http://www.w3.org/2000/svg">
<path d="M10.5164 6.82581H14.8336C13.8281 4.96252 11.8453 3.6969 9.56016 3.6969C6.24844 3.6969 3.5625 6.36174 3.5625 9.6594C3.5625 12.1133 5.04609 14.2156 7.16953 15.1367V10.1516C7.16953 8.07034 8.42109 6.82581 10.5164 6.82581ZM8.20312 17.2602C8.20312 18.7649 8.99062 19.5524 10.5164 19.5524H17.5758C19.1016 19.5524 19.8961 18.7649 19.8961 17.2602V10.1516C19.8961 8.63987 19.1016 7.8594 17.5758 7.8594H10.5164C8.99062 7.8594 8.20312 8.63987 8.20312 10.1516V17.2602Z" fill="#1C1C1E"/>
</svg>
