<svg width="24" height="24" viewBox="0 0 24 24" fill="none" xmlns="http://www.w3.org/2000/svg">
<path d="M19.473 1.67993C19.0485 1.67993 18.6782 1.99603 18.6782 2.42954L18.6782 21.5766C18.6782 22.0101 19.0485 22.3352 19.473 22.3352C19.8884 22.3352 20.2677 22.0101 20.2677 21.5766L20.2677 2.42954C20.2677 1.99603 19.8974 1.67993 19.473 1.67993Z" fill="#1C1C1E"/>
<path d="M4.49081 1.67993C4.06633 1.67993 3.69605 1.99603 3.69605 2.42954L3.69604 21.5766C3.69604 22.0101 4.06633 22.3352 4.49081 22.3352C4.90625 22.3352 5.28557 22.0101 5.28557 21.5766L5.28558 2.42954C5.28558 1.99603 4.91529 1.67993 4.49081 1.67993Z" fill="#1C1C1E"/>
<path d="M8.9849 8.15048L8.9849 15.8646C8.9849 16.6777 9.64407 17.3369 10.4572 17.3369H13.5067C14.3198 17.3369 14.9789 16.6777 14.9789 15.8646L14.9789 8.15048C14.979 7.33736 14.3198 6.67819 13.5067 6.67819L10.4572 6.67819C9.64407 6.67819 8.9849 7.33736 8.9849 8.15048Z" fill="#1C1C1E"/>
</svg>
