<svg width="24" height="24" viewBox="0 0 24 24" fill="none" xmlns="http://www.w3.org/2000/svg">
<path fill-rule="evenodd" clip-rule="evenodd" d="M4 12C4 7.58172 7.58172 4 12 4H19.1111C19.602 4 20 4.39797 20 4.88889V11.1111H14.5149C14.1488 10.0754 13.1611 9.33333 12 9.33333C10.5272 9.33333 9.33333 10.5272 9.33333 12C9.33333 13.1611 10.0754 14.1489 11.1111 14.5149L11.1111 20H4.88889C4.39797 20 4 19.602 4 19.1111V12ZM14.5149 12.8888H20V16.1111C20 16.602 19.602 17 19.1111 17H18.2454H17.4444C17.199 17 17 17.199 17 17.4444V18.2454V19.1111C17 19.602 16.602 20 16.1111 20H12.8889V14.5149C13.6466 14.2471 14.2471 13.6466 14.5149 12.8888Z" fill="black"/>
</svg>
