<svg width="24" height="24" viewBox="0 0 24 24" fill="none" xmlns="http://www.w3.org/2000/svg">
<path d="M22 7.3638C22 6.72937 21.6332 6.31944 20.8127 5.84117L13.3127 1.44898C12.8108 1.14641 12.4151 1 12 1C11.5849 1 11.1892 1.14641 10.6776 1.44898L3.17761 5.84118C2.36679 6.31944 2 6.72938 2 7.3638C2 7.98847 2.36679 8.3984 3.17761 8.88643L10.6776 13.2786C11.1892 13.5812 11.5849 13.7276 12 13.7276C12.4151 13.7178 12.8108 13.5714 13.3127 13.2786L20.8127 8.88643C21.6332 8.3984 22 7.98847 22 7.3638ZM3.5444 17.1242C3.5444 16.7533 3.25483 16.4508 2.88803 16.4508C2.52124 16.4508 2.22201 16.7533 2.22201 17.1242C2.22201 17.4951 2.52124 17.7977 2.88803 17.7977C3.25483 17.7977 3.5444 17.4951 3.5444 17.1242ZM5.35907 18.1588C5.35907 17.7879 5.05985 17.4854 4.69305 17.4854C4.32625 17.4854 4.02703 17.7879 4.02703 18.1588C4.02703 18.5297 4.32625 18.8323 4.69305 18.8323C5.05985 18.8323 5.35907 18.5297 5.35907 18.1588ZM7.17375 19.2032C7.17375 18.8323 6.87452 18.5297 6.50772 18.5297C6.14093 18.5297 5.85135 18.8323 5.85135 19.2032C5.85135 19.5741 6.14093 19.8767 6.50772 19.8767C6.87452 19.8767 7.17375 19.5741 7.17375 19.2032ZM8.96911 20.2476C8.96911 19.8767 8.67954 19.5838 8.31274 19.5838C7.94595 19.5838 7.64672 19.8767 7.64672 20.2476C7.64672 20.6282 7.94595 20.921 8.31274 20.921C8.67954 20.921 8.96911 20.6282 8.96911 20.2476ZM10.7934 21.2822C10.7934 20.9113 10.4942 20.6087 10.1274 20.6087C9.76062 20.6087 9.46139 20.9113 9.46139 21.2822C9.46139 21.6531 9.76062 21.9556 10.1274 21.9556C10.4942 21.9556 10.7934 21.6531 10.7934 21.2822ZM12.5985 22.3265C12.5985 21.9556 12.2992 21.6531 11.9324 21.6531C11.5656 21.6531 11.2761 21.9556 11.2761 22.3265C11.2761 22.6974 11.5656 23 11.9324 23C12.2992 23 12.5985 22.6974 12.5985 22.3265ZM14.4035 21.2822C14.4035 20.9113 14.1139 20.6087 13.7471 20.6087C13.3707 20.6087 13.0811 20.9113 13.0811 21.2822C13.0811 21.6531 13.3707 21.9556 13.7471 21.9556C14.1139 21.9556 14.4035 21.6531 14.4035 21.2822ZM16.2278 20.2476C16.2278 19.8767 15.9286 19.5838 15.5618 19.5838C15.195 19.5838 14.8958 19.8767 14.8958 20.2476C14.8958 20.6282 15.195 20.921 15.5618 20.921C15.9286 20.921 16.2278 20.6282 16.2278 20.2476ZM18.0232 19.2032C18.0232 18.8323 17.7336 18.5297 17.3571 18.5297C16.9903 18.5297 16.7008 18.8323 16.7008 19.2032C16.7008 19.5741 16.9903 19.8767 17.3571 19.8767C17.7336 19.8767 18.0232 19.5741 18.0232 19.2032ZM19.8378 18.1588C19.8378 17.7879 19.5386 17.4854 19.1718 17.4854C18.805 17.4854 18.5058 17.7879 18.5058 18.1588C18.5058 18.5297 18.805 18.8323 19.1718 18.8323C19.5386 18.8323 19.8378 18.5297 19.8378 18.1588ZM21.6525 17.1242C21.6525 16.7533 21.3533 16.4508 20.9768 16.4508C20.61 16.4508 20.3108 16.7533 20.3108 17.1242C20.3108 17.4951 20.61 17.7977 20.9768 17.7977C21.3533 17.7977 21.6525 17.4951 21.6525 17.1242Z" fill="#1C1C1E"/>
<path d="M2.88803 11.8807C3.25483 11.8807 3.5444 12.1832 3.5444 12.5541C3.5444 12.925 3.25483 13.2276 2.88803 13.2276C2.52124 13.2276 2.22201 12.925 2.22201 12.5541C2.22201 12.1832 2.52124 11.8807 2.88803 11.8807Z" fill="#1C1C1E"/>
<path d="M4.69305 12.9153C5.05985 12.9153 5.35907 13.2178 5.35907 13.5887C5.35907 13.9596 5.05985 14.2622 4.69305 14.2622C4.32625 14.2622 4.02703 13.9596 4.02703 13.5887C4.02703 13.2178 4.32625 12.9153 4.69305 12.9153Z" fill="#1C1C1E"/>
<path d="M6.50772 13.9596C6.87452 13.9596 7.17375 14.2622 7.17375 14.6331C7.17375 15.004 6.87452 15.3066 6.50772 15.3066C6.14093 15.3066 5.85135 15.004 5.85135 14.6331C5.85135 14.2622 6.14093 13.9596 6.50772 13.9596Z" fill="#1C1C1E"/>
<path d="M8.31274 15.0138C8.67954 15.0138 8.96911 15.3066 8.96911 15.6775C8.96911 16.0581 8.67954 16.3509 8.31274 16.3509C7.94595 16.3509 7.64672 16.0581 7.64672 15.6775C7.64672 15.3066 7.94595 15.0138 8.31274 15.0138Z" fill="#1C1C1E"/>
<path d="M10.1274 16.0386C10.4942 16.0386 10.7934 16.3412 10.7934 16.7121C10.7934 17.083 10.4942 17.3855 10.1274 17.3855C9.76062 17.3855 9.46139 17.083 9.46139 16.7121C9.46139 16.3412 9.76062 16.0386 10.1274 16.0386Z" fill="#1C1C1E"/>
<path d="M11.9324 17.083C12.2992 17.083 12.5985 17.3855 12.5985 17.7564C12.5985 18.1273 12.2992 18.4299 11.9324 18.4299C11.5656 18.4299 11.2761 18.1273 11.2761 17.7564C11.2761 17.3855 11.5656 17.083 11.9324 17.083Z" fill="#1C1C1E"/>
<path d="M13.7471 16.0386C14.1139 16.0386 14.4035 16.3412 14.4035 16.7121C14.4035 17.083 14.1139 17.3855 13.7471 17.3855C13.3707 17.3855 13.0811 17.083 13.0811 16.7121C13.0811 16.3412 13.3707 16.0386 13.7471 16.0386Z" fill="#1C1C1E"/>
<path d="M15.5618 15.0138C15.9286 15.0138 16.2278 15.3066 16.2278 15.6775C16.2278 16.0581 15.9286 16.3509 15.5618 16.3509C15.195 16.3509 14.8958 16.0581 14.8958 15.6775C14.8958 15.3066 15.195 15.0138 15.5618 15.0138Z" fill="#1C1C1E"/>
<path d="M17.3571 13.9596C17.7336 13.9596 18.0232 14.2622 18.0232 14.6331C18.0232 15.004 17.7336 15.3066 17.3571 15.3066C16.9903 15.3066 16.7008 15.004 16.7008 14.6331C16.7008 14.2622 16.9903 13.9596 17.3571 13.9596Z" fill="#1C1C1E"/>
<path d="M19.1718 12.9153C19.5386 12.9153 19.8378 13.2178 19.8378 13.5887C19.8378 13.9596 19.5386 14.2622 19.1718 14.2622C18.805 14.2622 18.5058 13.9596 18.5058 13.5887C18.5058 13.2178 18.805 12.9153 19.1718 12.9153Z" fill="#1C1C1E"/>
<path d="M20.9768 11.8807C21.3533 11.8807 21.6525 12.1832 21.6525 12.5541C21.6525 12.925 21.3533 13.2276 20.9768 13.2276C20.61 13.2276 20.3108 12.925 20.3108 12.5541C20.3108 12.1832 20.61 11.8807 20.9768 11.8807Z" fill="#1C1C1E"/>
</svg>
