<svg width="24" height="24" viewBox="0 0 24 24" fill="none" xmlns="http://www.w3.org/2000/svg">
<path d="M12.0035 19.0155C12.1714 19.0155 12.3323 19.0013 12.5072 18.9871L12.899 19.7394C12.9829 19.9311 13.1718 20.0233 13.3887 19.9949C13.5916 19.9595 13.7315 19.8033 13.7595 19.5904L13.8784 18.7458C14.2073 18.6607 14.5291 18.5329 14.8369 18.3981L15.4526 18.9588C15.5995 19.1078 15.8024 19.1291 16.0052 19.0226C16.1801 18.9162 16.2501 18.7246 16.2151 18.5116L16.0402 17.6884C16.3131 17.4896 16.5789 17.2696 16.8308 17.0283L17.5864 17.3477C17.7892 17.4329 17.9781 17.3832 18.1321 17.2058C18.258 17.0567 18.279 16.8438 18.167 16.6593L17.7263 15.9425C17.9152 15.6657 18.0761 15.3605 18.223 15.0411L19.0625 15.0837C19.2654 15.0979 19.4473 14.9773 19.5173 14.7785C19.5872 14.5798 19.5173 14.374 19.3564 14.2463L18.7057 13.7211C18.7897 13.3946 18.8526 13.0539 18.8806 12.6991L19.6712 12.4436C19.8741 12.3726 20 12.2094 20 11.9965C20 11.7835 19.8741 11.6203 19.6712 11.5493L18.8806 11.2938C18.8526 10.939 18.7827 10.6054 18.7057 10.2719L19.3564 9.74666C19.5173 9.62601 19.5802 9.42729 19.5173 9.22857C19.4473 9.02275 19.2654 8.9021 19.0625 8.91629L18.223 8.94468C18.0761 8.63241 17.9152 8.33433 17.7263 8.05044L18.167 7.32653C18.272 7.1562 18.258 6.94329 18.1321 6.79425C17.9781 6.61682 17.7892 6.56714 17.5864 6.6523L16.8238 6.96458C16.5789 6.73037 16.3131 6.50326 16.0402 6.31164L16.2151 5.48837C16.2501 5.26836 16.1801 5.07674 15.9983 4.97738C15.8024 4.87092 15.5995 4.88512 15.4526 5.04125L14.8369 5.59483C14.5291 5.45289 14.2073 5.33933 13.8784 5.24707L13.7595 4.4167C13.7315 4.20379 13.5916 4.04765 13.3887 4.00507C13.1718 3.97668 12.9899 4.06894 12.899 4.24637L12.5072 5.00577C12.3323 4.99157 12.1714 4.98448 12.0035 4.98448C11.8216 4.98448 11.6607 4.99157 11.4858 5.00577L11.094 4.24637C11.0101 4.06894 10.8212 3.97668 10.6043 4.01217C10.4014 4.04765 10.2615 4.20379 10.2335 4.4167L10.1146 5.24707C9.79274 5.33933 9.47092 5.45289 9.1561 5.59483L8.54744 5.04125C8.39353 4.89221 8.19064 4.87092 7.99475 4.97738C7.81985 5.07674 7.74289 5.26836 7.77787 5.48837L7.95278 6.31164C7.67993 6.50326 7.41408 6.73037 7.16922 6.96458L6.40665 6.6523C6.21076 6.56714 6.01487 6.61682 5.86795 6.79425C5.73502 6.94329 5.72103 7.1562 5.82597 7.32653L6.27372 8.05044C6.08483 8.33433 5.92392 8.63241 5.77 8.94468L4.93747 8.91629C4.72759 8.9021 4.54569 9.02275 4.48273 9.22857C4.41277 9.42729 4.46874 9.62601 4.63664 9.74666L5.29427 10.2719C5.21032 10.6054 5.14036 10.939 5.11937 11.2938L4.32882 11.5493C4.11893 11.6203 4 11.7764 4 11.9965C4 12.2094 4.11893 12.3726 4.32882 12.4436L5.11937 12.6991C5.14036 13.0539 5.21032 13.3946 5.29427 13.7211L4.64364 14.2463C4.47573 14.3669 4.41976 14.5727 4.48273 14.7714C4.54569 14.9773 4.72759 15.0979 4.93747 15.0837L5.77 15.0411C5.91692 15.3605 6.08483 15.6657 6.27372 15.9425L5.82597 16.6664C5.71404 16.8438 5.73502 17.0567 5.86795 17.2058C6.01487 17.3832 6.21076 17.4329 6.40665 17.3477L7.16922 17.0283C7.41408 17.2696 7.67993 17.4896 7.95278 17.6884L7.77787 18.5116C7.74289 18.7246 7.81286 18.9162 7.99475 19.0226C8.19064 19.1291 8.39353 19.1078 8.54744 18.9588L9.1561 18.3981C9.47092 18.5329 9.78575 18.6607 10.1146 18.7529L10.2335 19.5904C10.2615 19.8033 10.4014 19.9595 10.6113 19.9949C10.8212 20.0233 11.0101 19.9311 11.094 19.7465L11.4858 18.9871C11.6607 19.0013 11.8216 19.0155 12.0035 19.0155ZM13.8295 11.4358C13.4867 10.5202 12.7871 10.0234 11.9615 10.0234C11.8426 10.0234 11.7167 10.0376 11.4998 10.0873L9.61084 6.79425C10.3314 6.45358 11.136 6.26196 11.9965 6.26196C14.9558 6.26196 17.2785 8.51885 17.5444 11.4358H13.8295ZM6.42763 12.0036C6.42763 10.1015 7.28815 8.43369 8.65238 7.39041L10.5553 10.6906C10.1845 11.1022 10.0096 11.5564 10.0096 12.0248C10.0096 12.472 10.1705 12.8978 10.5553 13.3307L8.59641 16.5741C7.26716 15.5308 6.42763 13.8772 6.42763 12.0036ZM11.122 12.0177C11.122 11.5351 11.5208 11.1661 11.9685 11.1661C12.4373 11.1661 12.822 11.5351 12.822 12.0177C12.822 12.4862 12.4373 12.8765 11.9685 12.8765C11.5208 12.8765 11.122 12.4862 11.122 12.0177ZM11.9965 17.738C11.115 17.738 10.2895 17.5393 9.55488 17.1774L11.4928 13.9553C11.7027 13.9979 11.8426 14.012 11.9615 14.012C12.7941 14.012 13.4867 13.5011 13.8295 12.5642H17.5444C17.2785 15.4812 14.9558 17.738 11.9965 17.738Z" fill="#1C1C1E"/>
</svg>
