<svg width="24" height="24" viewBox="0 0 24 24" fill="none" xmlns="http://www.w3.org/2000/svg">
<path d="M14.6004 7.7849H16.1261V9.28753C16.1261 9.45719 16.2227 9.56106 16.3884 9.56106C16.5472 9.56106 16.6473 9.45719 16.6473 9.28753V7.7849H18.6562V9.28753C18.6562 9.45719 18.7529 9.56106 18.9186 9.56106C19.0773 9.56106 19.1775 9.45719 19.1775 9.28753V7.7849H20.7239C20.8964 7.7849 21 7.68449 21 7.52176C21 7.35903 20.8964 7.26209 20.7239 7.26209H19.1775V5.31282H20.7239C20.8964 5.31282 21 5.21241 21 5.05314C21 4.89041 20.8964 4.79001 20.7239 4.79001H19.1775V3.27698C19.1775 3.10733 19.0773 3 18.9186 3C18.7529 3 18.6562 3.10733 18.6562 3.27698V4.79001H16.6473V3.27698C16.6473 3.10733 16.5472 3 16.3884 3C16.2227 3 16.1261 3.10733 16.1261 3.27698V4.79001H14.6004C14.4278 4.79001 14.3242 4.89041 14.3242 5.05314C14.3242 5.21241 14.4278 5.31282 14.6004 5.31282H16.1261V7.26209H14.6004C14.4278 7.26209 14.3242 7.35903 14.3242 7.52176C14.3242 7.68449 14.4278 7.7849 14.6004 7.7849ZM16.6473 7.26209V5.31282H18.6562V7.26209H16.6473Z" fill="#1C1C1E"/>
<path d="M18.3745 15.6431L19.3848 14.6315C19.6889 14.3271 19.6889 13.8513 19.3848 13.5659L17.7502 11.9294C17.4461 11.6249 16.9709 11.6249 16.6858 11.9294L15.6206 12.9959L18.3745 15.6431Z" fill="#1C1C1E"/>
<path d="M10.3254 8.992L7.82865 11.4917C6.57421 12.7476 6.46017 14.7838 7.63859 16.0968C8.91204 17.486 11.0978 17.524 12.4093 16.211L15.0671 13.55L17.821 16.1972L15.1083 18.9132C12.2762 21.7486 7.65759 21.6915 4.90161 18.7609C2.24066 15.9446 2.41172 11.4727 5.1677 8.75144L7.57145 6.34482L10.3254 8.992Z" fill="#1C1C1E"/>
<path d="M10.8788 8.43789L12.0482 7.26714C12.3523 6.96267 12.3523 6.48693 12.0482 6.20149L10.4136 4.56496C10.1095 4.26048 9.6343 4.26048 9.3492 4.56496L8.12491 5.7907L10.8788 8.43789Z" fill="#1C1C1E"/>
</svg>
