<svg width="24" height="24" viewBox="0 0 24 24" fill="none" xmlns="http://www.w3.org/2000/svg">
<path fill-rule="evenodd" clip-rule="evenodd" d="M16.3434 21H7.65658C5.91269 21 5 20.0614 5 18.2672V5.74112C5 3.93862 5.91269 3 7.65658 3H11.3807V9.29626C11.3807 10.3346 11.8696 10.8329 12.8882 10.8329H19V18.2672C19 20.0614 18.0955 21 16.3434 21ZM10.3062 16.8517H10.3429L10.9656 14.7109C11.0438 14.4221 11.1634 14.3051 11.3784 14.3051C11.6104 14.3051 11.774 14.452 11.774 14.6685C11.774 14.7507 11.7471 14.8776 11.7105 14.9946L10.99 17.1778C10.8606 17.5861 10.6652 17.7579 10.316 17.7579C9.96187 17.7579 9.75917 17.5836 9.63218 17.1778L8.91172 14.9946C8.87021 14.8702 8.84823 14.7557 8.84823 14.676C8.84823 14.4569 9.0143 14.3051 9.24631 14.3051C9.4539 14.3051 9.58822 14.437 9.66881 14.7109L10.3062 16.8517ZM12.927 15.7016V17.3297C12.927 17.5985 12.7926 17.7579 12.5558 17.7579C12.3189 17.7579 12.1797 17.596 12.1797 17.3297V14.793C12.1797 14.4744 12.314 14.3101 12.5802 14.3101C12.7585 14.3101 12.861 14.3997 13.0222 14.6387L14.1456 16.3464H14.1774V14.7382C14.1774 14.4694 14.3141 14.3101 14.5486 14.3101C14.7855 14.3101 14.9271 14.4694 14.9271 14.7382V17.2998C14.9271 17.5985 14.7953 17.7579 14.5486 17.7579C14.3679 17.7579 14.258 17.6807 14.0919 17.4317L12.9587 15.7016H12.927Z" fill="#1C1C1E"/>
<path d="M18.9185 9.62021H13.0431C12.7334 9.62021 12.5786 9.46239 12.5704 9.13844V3.08306C12.9453 3.1329 13.312 3.41532 13.7194 3.83895L18.1769 8.4407C18.6007 8.88094 18.8696 9.23812 18.9185 9.62021Z" fill="#1C1C1E"/>
</svg>
