<svg width="24" height="24" viewBox="0 0 24 24" fill="none" xmlns="http://www.w3.org/2000/svg">
<path d="M5.70105 15.3544H8.63145V18.2809C8.63145 18.7196 8.91187 19 9.31147 19C9.70406 19 9.99149 18.7196 9.99149 18.2809V15.3544H13.9735V18.2809C13.9735 18.7196 14.2609 19 14.6605 19C15.0461 19 15.3335 18.7196 15.3335 18.2809V15.3544H18.2989C18.7336 15.3544 19 15.0596 19 14.6569C19 14.2542 18.7336 13.9666 18.2989 13.9666H15.3335V10.0909H18.2989C18.7336 10.0909 19 9.7961 19 9.39343C19 8.98356 18.7336 8.69594 18.2989 8.69594H15.3335V5.71905C15.3335 5.28043 15.0461 5 14.6605 5C14.2609 5 13.9735 5.28043 13.9735 5.71905V8.69594H9.99149V5.71905C9.99149 5.28043 9.70406 5 9.31147 5C8.91187 5 8.63145 5.28043 8.63145 5.71905V8.69594H5.70105C5.2664 8.69594 5 8.98356 5 9.39343C5 9.7961 5.2664 10.0909 5.70105 10.0909H8.63145V13.9666H5.70105C5.2664 13.9666 5 14.2542 5 14.6569C5 15.0596 5.2664 15.3544 5.70105 15.3544ZM9.99149 13.9666V10.0909H13.9735V13.9666H9.99149Z" fill="#1C1C1E"/>
</svg>
