<svg width="24" height="24" viewBox="0 0 24 24" fill="none" xmlns="http://www.w3.org/2000/svg">
<circle cx="12" cy="6" r="3" fill="#1C1C1E"/>
<path d="M4.40586 20.9537C5.76651 20.9537 6.76464 20.1291 6.76464 19.0126V19.0033C6.76464 18.0536 6.09138 17.4467 5.10267 17.3633V17.3448C5.95013 17.1688 6.54336 16.6036 6.54336 15.779V15.7697C6.54336 14.7551 5.69118 14.0463 4.39644 14.0463C3.12525 14.0463 2.24953 14.7737 2.14124 15.8623L2.13654 15.9087H2.95104L2.95575 15.8623C3.02637 15.186 3.59606 14.769 4.39644 14.769C5.22508 14.769 5.69118 15.1721 5.69118 15.8716V15.8809C5.69118 16.548 5.12621 17.039 4.31641 17.039H3.5019V17.7432H4.35407C5.30512 17.7432 5.90305 18.2019 5.90305 19.0218V19.0311C5.90305 19.7399 5.2957 20.231 4.40586 20.231C3.5019 20.231 2.88513 19.777 2.81922 19.1191L2.81451 19.0728H2L2.00471 19.1284C2.09416 20.1846 3.00283 20.9537 4.40586 20.9537Z" fill="#1C1C1E"/>
<path d="M10.637 21C12.0071 21 13.0146 20.0318 13.0146 18.6976V18.6883C13.0146 17.405 12.0636 16.4507 10.7877 16.4507C9.86957 16.4507 9.22926 16.9371 8.97973 17.4838H8.89027C8.89027 17.4328 8.89027 17.3772 8.89498 17.3263C8.94677 15.9318 9.45054 14.7459 10.6841 14.7459C11.3715 14.7459 11.847 15.0933 12.0541 15.6539L12.073 15.7048H12.9251L12.911 15.6446C12.6803 14.6578 11.8329 14 10.6935 14C9.04564 14 8.08047 15.3342 8.08047 17.6135V17.6228C8.08047 20.1383 9.39404 21 10.637 21ZM9.09272 18.6883V18.6837C9.09272 17.8127 9.76128 17.178 10.6417 17.178C11.5221 17.178 12.1624 17.8173 12.1624 18.7068V18.7161C12.1624 19.5824 11.4798 20.2634 10.6276 20.2634C9.76599 20.2634 9.09272 19.5685 9.09272 18.6883Z" fill="#1C1C1E"/>
<path d="M15.7382 17.6737C16.6045 17.6737 17.1318 16.9788 17.1318 15.8716V15.867C17.1318 14.7598 16.6045 14.0695 15.7382 14.0695C14.8719 14.0695 14.3493 14.7598 14.3493 15.867V15.8716C14.3493 16.9788 14.8719 17.6737 15.7382 17.6737ZM16.2467 20.8425L20.87 14.1575H20.1073L15.4839 20.8425H16.2467ZM15.7382 17.1224C15.2721 17.1224 15.0037 16.6545 15.0037 15.8716V15.867C15.0037 15.0841 15.2721 14.6208 15.7382 14.6208C16.2043 14.6208 16.4773 15.0841 16.4773 15.867V15.8716C16.4773 16.6545 16.2043 17.1224 15.7382 17.1224ZM20.6064 20.9305C21.4727 20.9305 22 20.2356 22 19.1284V19.1238C22 18.0165 21.4727 17.3263 20.6064 17.3263C19.7401 17.3263 19.2175 18.0165 19.2175 19.1238V19.1284C19.2175 20.2356 19.7401 20.9305 20.6064 20.9305ZM20.6064 20.3792C20.1403 20.3792 19.8719 19.9113 19.8719 19.1284V19.1238C19.8719 18.3408 20.1403 17.8776 20.6064 17.8776C21.0725 17.8776 21.3456 18.3408 21.3456 19.1238V19.1284C21.3456 19.9113 21.0725 20.3792 20.6064 20.3792Z" fill="#1C1C1E"/>
</svg>
