<svg width="24" height="24" viewBox="0 0 24 24" fill="none" xmlns="http://www.w3.org/2000/svg">
<path d="M12.6008 5.24012L14.4066 6.59561C14.8117 6.89451 15.2374 6.76243 15.2374 6.2411V5.3722H15.464C16.9196 5.3722 17.8602 6.41488 17.8602 7.88158V8.97986C17.8602 9.25791 18.0868 9.49425 18.3615 9.49425C18.6361 9.49425 18.8627 9.25791 18.8627 8.97986V7.88158C18.8627 5.82402 17.4757 4.42684 15.4571 4.42684H15.2374V3.52318C15.2374 2.98794 14.8117 2.85587 14.4066 3.16172L12.6008 4.52415C12.3124 4.73964 12.3055 5.01769 12.6008 5.24012ZM5 9.24401C5 9.64023 5.27464 9.90437 5.69348 9.90437H8.56351V14.8189C8.56351 15.1803 8.80383 15.4167 9.16086 15.4167H14.0839V18.2736C14.0839 18.6976 14.3585 18.9896 14.7705 18.9896C15.1893 18.9896 15.464 18.6976 15.464 18.2736V15.4167H18.3065C18.7185 15.4167 19 15.1525 19 14.7493C19 14.3531 18.7185 14.089 18.3065 14.089H15.464V9.1745C15.464 8.81303 15.2305 8.57669 14.8735 8.57669H9.95047V5.75451C9.95047 5.33049 9.67582 5.03854 9.26386 5.03854C8.84502 5.03854 8.56351 5.33049 8.56351 5.75451V8.57669H5.69348C5.27464 8.57669 5 8.84779 5 9.24401ZM10.1496 14.089C10.0054 14.089 9.95047 14.0334 9.95047 13.8874V9.90437H13.8847C14.0221 9.90437 14.0839 9.95998 14.0839 10.106V14.089H10.1496ZM5.17852 16.1187C5.17852 18.1763 6.56547 19.5735 8.58411 19.5735H8.80383V20.4702C8.80383 21.0124 9.22952 21.1444 9.63463 20.8386L11.4404 19.4762C11.7288 19.2607 11.7357 18.9757 11.4404 18.7602L9.63463 17.4047C9.23639 17.1058 8.80383 17.2379 8.80383 17.7592V18.6281H8.57724C7.12849 18.6281 6.18097 17.5854 6.18097 16.1187V15.0135C6.18097 14.7354 5.95439 14.5061 5.67974 14.5061C5.4051 14.5061 5.17852 14.7354 5.17852 15.0135V16.1187Z" fill="#1C1C1E"/>
</svg>
