<svg width="24" height="24" viewBox="0 0 24 24" fill="none" xmlns="http://www.w3.org/2000/svg">
<path d="M7.38597 19.8905C7.13712 20.5371 6.50366 21 5.74955 21C4.77674 21 4 20.2359 4 19.2954C4 18.5606 4.47509 17.9361 5.13871 17.7009V8.7075C4.47509 8.47237 4 7.84783 4 7.11307C4 6.17258 4.77674 5.40843 5.74955 5.40843C6.50366 5.40843 7.13712 5.87133 7.38597 6.52526V7.70822C7.21253 8.17112 6.82793 8.5385 6.35284 8.71484V17.7009C6.82793 17.8699 7.21253 18.2373 7.38597 18.7076H16.6088C16.7898 18.2373 17.1668 17.8699 17.6419 17.7009V8.7075C17.1668 8.5385 16.7898 8.17112 16.6088 7.70822V6.52526C16.8577 5.87133 17.4986 5.40843 18.2528 5.40843C19.218 5.40843 19.9948 6.17258 19.9948 7.11307C19.9948 7.84783 19.5272 8.47237 18.8561 8.71484V17.7009C19.5272 17.9361 19.9948 18.5606 19.9948 19.2954C19.9948 20.2359 19.218 21 18.2528 21C17.4986 21 16.8577 20.5371 16.6088 19.8905H7.38597Z" fill="#1C1C1E"/>
<path fill-rule="evenodd" clip-rule="evenodd" d="M5.50126 7.19485C5.35665 6.8872 5.49539 6.52357 5.81115 6.38267L6.42485 6.10882C6.74061 5.96792 7.11381 6.1031 7.25843 6.41075C7.40304 6.7184 7.2643 7.08203 6.94854 7.22293L6.33484 7.49678C6.01908 7.63768 5.64587 7.5025 5.50126 7.19485ZM8.11974 6.02641C7.97513 5.71876 8.11387 5.35513 8.42962 5.21423L9.65703 4.66652C9.97279 4.52562 10.346 4.6608 10.4906 4.96846C10.6352 5.27611 10.4965 5.63973 10.1807 5.78063L8.95331 6.32834C8.63755 6.46924 8.26435 6.33406 8.11974 6.02641ZM11.3519 4.58412C11.2073 4.27646 11.346 3.91284 11.6618 3.77194L12.8892 3.22423C13.205 3.08333 13.5782 3.21851 13.7228 3.52616C13.8674 3.83382 13.7287 4.19744 13.4129 4.33834L12.1855 4.88605C11.8697 5.02695 11.4965 4.89177 11.3519 4.58412ZM14.5841 3.14182C14.4395 2.83417 14.5782 2.47054 14.894 2.32964L15.5077 2.05579C15.8235 1.91489 16.1967 2.05007 16.3413 2.35772C16.4859 2.66538 16.3471 3.029 16.0314 3.1699L15.4177 3.44375C15.1019 3.58465 14.7287 3.44948 14.5841 3.14182Z" fill="#1C1C1E"/>
<path d="M20 7.13011C20 8.07758 19.2117 8.84566 18.2393 8.84566C17.2668 8.84566 16.4785 8.07758 16.4785 7.13011C16.4785 6.18264 17.2668 5.41456 18.2393 5.41456C19.2117 5.41456 20 6.18264 20 7.13011Z" fill="#1C1C1E"/>
<path d="M7.52385 7.13011C7.52385 8.07758 6.73554 8.84566 5.7631 8.84566C4.79067 8.84566 4.00236 8.07758 4.00236 7.13011C4.00236 6.18264 4.79067 5.41456 5.7631 5.41456C6.73554 5.41456 7.52385 6.18264 7.52385 7.13011Z" fill="#1C1C1E"/>
</svg>
