<svg width="24" height="24" viewBox="0 0 24 24" fill="none" xmlns="http://www.w3.org/2000/svg">
<path d="M20 14.4289C20 11.0897 17.7632 8.78238 13.9739 8.78238H8.73239L6.80438 8.87467L8.265 7.63293L10.385 5.55218C10.5519 5.39276 10.6604 5.18301 10.6604 4.90614C10.6604 4.37756 10.2932 4 9.75065 4C9.51695 4 9.25822 4.10907 9.0746 4.28526L4.29212 9.0257C4.10016 9.21028 4 9.46198 4 9.72208C4 9.97378 4.10016 10.2255 4.29212 10.4101L9.0746 15.1505C9.25822 15.3267 9.51695 15.4358 9.75065 15.4358C10.2932 15.4358 10.6604 15.0582 10.6604 14.5296C10.6604 14.2528 10.5519 14.0514 10.385 13.8836L8.265 11.8028L6.80438 10.5695L8.73239 10.6534H14.0156C16.6865 10.6534 18.1638 12.1804 18.1638 14.3618C18.1638 16.5433 16.6865 18.1374 14.0156 18.1374H12.0626C11.5117 18.1374 11.1195 18.5569 11.1195 19.0687C11.1195 19.5805 11.5117 20 12.0709 20H14.0824C17.8049 20 20 17.7934 20 14.4289Z" fill="#1C1C1E"/>
</svg>
