<svg width="24" height="24" viewBox="0 0 24 24" fill="none" xmlns="http://www.w3.org/2000/svg">
<path d="M8.96025 10.9734C8.96025 11.3325 8.68869 11.5866 8.32953 11.5866C7.97036 11.5866 7.6988 11.3325 7.6988 10.9734V8.63443C7.6988 8.0256 8.0492 7.6752 8.65803 7.6752H11.0846C11.4437 7.6752 11.7022 7.94238 11.7022 8.30593C11.7022 8.66509 11.4437 8.93227 11.0846 8.93227H10.7955L9.72238 8.83591L10.5239 9.59366L11.6189 10.6843C11.7372 10.8025 11.8073 10.9515 11.8073 11.1179C11.8073 11.5034 11.5401 11.7793 11.1547 11.7793C10.9838 11.7793 10.8261 11.718 10.7079 11.5953L9.62164 10.5003L8.85951 9.69878L8.96025 10.7544V10.9734Z" fill="#1C1C1E"/>
<path d="M15.3463 16.282H12.9154C12.5563 16.282 12.3022 16.0148 12.3022 15.6513C12.3022 15.2921 12.5563 15.0249 12.9154 15.0249H13.2089L14.282 15.1213L13.4761 14.3679L12.3811 13.2729C12.2628 13.1546 12.1927 13.0057 12.1927 12.8393C12.1927 12.4538 12.4599 12.1779 12.8453 12.1779C13.0162 12.1779 13.1739 12.2392 13.2921 12.3618L14.3784 13.4569L15.1405 14.2584L15.0441 13.2028V12.9838C15.0441 12.6246 15.3113 12.3706 15.6705 12.3706C16.0296 12.3706 16.3012 12.629 16.3012 12.9838V15.3228C16.3012 15.9316 15.9508 16.282 15.3463 16.282Z" fill="#1C1C1E"/>
<path fill-rule="evenodd" clip-rule="evenodd" d="M5.65724 21.4345C5.31495 22.3468 4.44366 23 3.40641 23C2.06836 23 1 21.9218 1 20.5947C1 19.558 1.65347 18.6767 2.56624 18.345V5.65504C1.65347 5.32328 1 4.44204 1 3.40528C1 2.07823 2.06836 1 3.40641 1C4.44366 1 5.31495 1.65316 5.65724 2.57587H18.3428C18.6851 1.65316 19.5667 1 20.604 1C21.9316 1 23 2.07823 23 3.40528C23 4.44204 22.3569 5.32328 21.4338 5.66541V18.345C22.3569 18.6767 23 19.558 23 20.5947C23 21.9218 21.9316 23 20.604 23C19.5667 23 18.6851 22.3468 18.3428 21.4345H5.65724ZM4.23621 18.345C4.88967 18.5834 5.41867 19.1018 5.65724 19.7653H18.3428C18.5917 19.1018 19.1103 18.5834 19.7638 18.345V5.65504C19.1103 5.41659 18.5917 4.89821 18.3428 4.24505H5.65724C5.41867 4.89821 4.88967 5.41659 4.23621 5.66541V18.345Z" fill="#1C1C1E"/>
</svg>
