<svg width="24" height="24" viewBox="0 0 24 24" fill="none" xmlns="http://www.w3.org/2000/svg">
<path d="M5.49219 19H18.5078C20.149 19 21 18.1602 21 16.5629V7.43706C21 5.83235 20.149 5 18.5078 5H5.49219C3.85099 5 3 5.83235 3 7.43706V16.5629C3 18.1676 3.85099 19 5.49219 19ZM5.58337 17.5303C4.87674 17.5303 4.48924 17.1628 4.48924 16.4355V7.55704C4.48924 6.82967 4.87674 6.46974 5.58337 6.46974H9.04052V17.5303H5.58337ZM18.4166 6.46974C19.1157 6.46974 19.5108 6.82967 19.5108 7.55704V16.4355C19.5108 17.1628 19.1157 17.5303 18.4166 17.5303H10.4538V6.46974H18.4166ZM7.55129 9.21425C7.81722 9.21425 8.04517 8.98929 8.04517 8.73433C8.04517 8.47938 7.81722 8.26192 7.55129 8.26192H5.99367C5.72014 8.26192 5.49219 8.47938 5.49219 8.73433C5.49219 8.98929 5.72014 9.21425 5.99367 9.21425H7.55129ZM7.55129 11.2239C7.81722 11.2239 8.04517 10.9989 8.04517 10.744C8.04517 10.489 7.81722 10.2716 7.55129 10.2716H5.99367C5.72014 10.2716 5.49219 10.489 5.49219 10.744C5.49219 10.9989 5.72014 11.2239 5.99367 11.2239H7.55129ZM7.55129 13.226C7.81722 13.226 8.04517 13.0086 8.04517 12.7536C8.04517 12.4987 7.81722 12.2812 7.55129 12.2812H5.99367C5.72014 12.2812 5.49219 12.4987 5.49219 12.7536C5.49219 13.0086 5.72014 13.226 5.99367 13.226H7.55129Z" fill="#1C1C1E"/>
</svg>
