<svg width="24" height="24" viewBox="0 0 24 24" fill="none" xmlns="http://www.w3.org/2000/svg">
<path d="M12.0093 21C12.7152 21 13.161 20.5059 13.161 19.8353V13.0941H19.7926C20.4799 13.0941 21 12.6706 21 12C21 11.3471 20.4799 10.9059 19.7926 10.9059H13.161V4.14706C13.161 3.49412 12.7152 3 12.0093 3C11.3034 3 10.8576 3.49412 10.8576 4.14706V10.9059H4.22601C3.52012 10.9059 3 11.3471 3 12C3 12.6706 3.52012 13.0941 4.22601 13.0941H10.8576V19.8353C10.8576 20.5059 11.3034 21 12.0093 21Z" fill="#1C1C1E"/>
</svg>
