<svg width="24" height="24" viewBox="0 0 24 24" fill="none" xmlns="http://www.w3.org/2000/svg">
<path fill-rule="evenodd" clip-rule="evenodd" d="M15.6859 4.26052C15.865 3.93466 16.2736 3.8161 16.5985 3.9957C19.1109 5.38449 20.8154 8.06774 20.8154 11.1512C20.8154 11.8546 20.7266 12.5381 20.5592 13.1907C20.4668 13.551 20.1006 13.768 19.7413 13.6754C19.382 13.5827 19.1656 13.2154 19.258 12.8551C19.3975 12.3112 19.4719 11.7404 19.4719 11.1512C19.4719 8.57821 18.051 6.33711 15.95 5.17574C15.625 4.99613 15.5068 4.58637 15.6859 4.26052Z" fill="black"/>
<path fill-rule="evenodd" clip-rule="evenodd" d="M5.20342 10.4775C5.57443 10.4775 5.87519 10.7791 5.87519 11.1512C5.87519 14.2835 7.98195 16.924 10.8531 17.7221C11.2107 17.8215 11.4202 18.1927 11.3211 18.5513C11.222 18.9098 10.8518 19.12 10.4943 19.0206C7.05633 18.0649 4.53164 14.9046 4.53164 11.1512C4.53164 10.7791 4.83241 10.4775 5.20342 10.4775Z" fill="black"/>
<path d="M13.4388 21C13.6561 21 13.8407 20.9128 14.058 20.7875L20.3916 17.1159C20.8425 16.849 21 16.6746 21 16.3859C21 16.0972 20.8425 15.9229 20.3916 15.6614L14.058 11.9843C13.8407 11.859 13.6561 11.7773 13.4388 11.7773C13.0368 11.7773 12.7869 12.0824 12.7869 12.5563V20.2156C12.7869 20.6895 13.0368 21 13.4388 21Z" fill="black"/>
<path d="M3.16221 12.0619C2.84802 12.5062 2.99303 12.9021 3.57306 12.9021H7.27078C7.84276 12.9021 7.98777 12.5062 7.68164 12.07L5.87709 9.49269C5.6193 9.12104 5.23261 9.11297 4.96676 9.49269L3.16221 12.0619Z" fill="black"/>
<path d="M11.7009 4.45533C12.1077 4.39732 12.3802 4.02388 12.3246 3.63194C12.2679 3.232 11.9024 2.94955 11.4956 3.00756C11.1128 3.06215 10.8323 3.43674 10.889 3.83667C10.9446 4.22861 11.3181 4.50993 11.7009 4.45533ZM14.0501 4.49569C14.4409 4.43996 14.7294 4.06424 14.6738 3.6723C14.6171 3.27236 14.2356 2.99218 13.8448 3.04792C13.446 3.10479 13.1735 3.47824 13.2302 3.87817C13.2858 4.27011 13.6593 4.55143 14.0501 4.49569ZM9.47999 5.14744C9.87081 5.09171 10.1513 4.71712 10.0957 4.32519C10.039 3.92525 9.66552 3.64393 9.27471 3.69967C8.87592 3.75654 8.59541 4.13112 8.65212 4.53106C8.70769 4.923 9.0812 5.20431 9.47999 5.14744ZM7.57195 6.49674C7.96276 6.441 8.24327 6.06642 8.18769 5.67448C8.13099 5.27454 7.75748 4.99323 7.36666 5.04896C6.96787 5.10583 6.68737 5.48042 6.74408 5.88035C6.79965 6.27229 7.17316 6.55361 7.57195 6.49674ZM6.17739 8.36852C6.56023 8.31392 6.84984 7.9462 6.79427 7.55426C6.73756 7.15432 6.36405 6.87301 5.97324 6.92874C5.57445 6.98561 5.29394 7.3602 5.35065 7.76013C5.40623 8.15207 5.7786 8.42539 6.17739 8.36852Z" fill="black"/>
</svg>
