<svg width="24" height="24" viewBox="0 0 24 24" fill="none" xmlns="http://www.w3.org/2000/svg">
<path d="M6.17286 3.65039L6.17206 3.61793C6.1551 3.27381 5.8699 3 5.52056 3C5.17122 3 4.88602 3.27381 4.86906 3.61793L4.86826 3.65039L4.86835 6.74802H1.6523L1.61975 6.74881C1.27462 6.76573 1 7.05009 1 7.3984C1 7.74672 1.27462 8.03108 1.61975 8.04799L1.6523 8.04879L4.86835 8.04876V10.4877L4.86915 10.5202C4.87013 10.5401 4.87202 10.5598 4.87476 10.5793L4.87467 17.5387C4.87467 19.1616 5.68221 19.9792 7.30496 19.9994L7.36698 19.9998H19.4464C21.0819 19.9998 21.9254 19.1947 21.9463 17.5996L21.9467 17.5387L21.9467 13.9998H16.1021C15.1005 13.9998 14.6141 13.5321 14.5976 12.5514L14.5972 12.4993V6.75125L7.56463 6.75131L7.53184 6.74885L7.49861 6.74802H6.17296L6.17286 3.65039Z" fill="#1C1C1E"/>
<path d="M21.3802 11.8299C21.7332 12.183 21.9468 12.4947 22.0001 12.8136H16.259L16.2266 12.813C15.9615 12.8024 15.829 12.6594 15.829 12.377V6.748L15.8698 6.7549C16.1821 6.81507 16.4902 7.04174 16.8642 7.40695L21.3312 11.7815L21.3802 11.8299Z" fill="#1C1C1E"/>
</svg>
