<svg width="24" height="24" viewBox="0 0 24 24" fill="none" xmlns="http://www.w3.org/2000/svg">
<path d="M7.80806 4.89081H8.9904C10.1958 4.89081 11.071 5.18146 11.9232 6.04556L16.2841 10.5075C17.1132 11.3559 17.3205 12.3299 17.3205 13.5004V17.9623H17.5585C19.0326 17.9623 20 17.1375 20 15.3778V4.5923C20 2.88767 19.1401 2 17.4971 2H10.2956C8.66795 2 7.80806 2.88767 7.80806 4.56874V4.89081ZM11.5701 4.32522V4.14454C11.5701 3.90888 11.739 3.64179 12.0921 3.64179H15.7083C16.0691 3.64179 16.2303 3.90888 16.2303 4.14454V4.32522C16.2303 4.58445 16.0537 4.82011 15.7083 4.82011H12.0921C11.7543 4.82011 11.5701 4.58445 11.5701 4.32522ZM4 19.4156C4 21.1202 4.85988 22 6.50288 22H13.6891C15.3321 22 16.1919 21.1123 16.1919 19.4156V13.3276H10.7178C9.7428 13.3276 9.26679 12.8327 9.26679 11.835V6.03771H6.50288C4.85988 6.03771 4 6.93323 4 8.63001V19.4156ZM10.81 12.1728H16.0537C15.9616 11.835 15.762 11.513 15.4165 11.1516L11.3704 6.94894C11.0173 6.58759 10.7179 6.34407 10.3877 6.24195V11.7408C10.3877 12.0236 10.5336 12.1728 10.81 12.1728Z" fill="#1C1C1E"/>
</svg>
