<svg width="24" height="24" viewBox="0 0 24 24" fill="none" xmlns="http://www.w3.org/2000/svg">
<path d="M18.1691 18.8308C18.3971 19.0494 18.7647 19.0635 19 18.8308C19.2426 18.591 19.2279 18.2526 19 18.034L5.83088 5.16659C5.60294 4.94801 5.22794 4.94096 5 5.16659C4.77941 5.37812 4.77941 5.74478 5 5.95631L18.1691 18.8308ZM18.4926 16.1098C20.6397 14.7278 22 12.8593 22 12.0273C22 10.6029 17.9632 5.98452 12 5.98452C10.75 5.98452 9.58088 6.189 8.52206 6.52745L10.5368 8.45943C10.9926 8.28316 11.4853 8.18444 12.0074 8.18444C14.2353 8.18444 16.0368 9.88374 16.0368 12.0343C16.0368 12.5279 15.9265 13.0073 15.7279 13.4375L18.4926 16.1098ZM12 18.077C13.3456 18.077 14.5956 17.8444 15.6985 17.4566L13.6691 15.5105C13.1691 15.7502 12.6029 15.8771 12.0074 15.8771C9.76471 15.8771 7.97794 14.1214 7.97059 12.0343C7.97059 11.4491 8.10294 10.8991 8.34559 10.4126L5.69118 7.85304C3.40441 9.26325 2 11.1952 2 12.0273C2 13.4586 6.11029 18.077 12 18.077ZM14.3529 11.8862C14.3529 10.6523 13.3235 9.65811 12.0294 9.65811C11.9485 9.65811 11.8676 9.66516 11.7941 9.67221L14.3382 12.1048C14.3456 12.0414 14.3529 11.9638 14.3529 11.8862ZM9.63971 11.9144C9.63971 13.1484 10.6985 14.1426 11.9779 14.1426C12.0662 14.1426 12.1471 14.1355 12.2279 14.1285L9.65441 11.6606C9.64706 11.7452 9.63971 11.8298 9.63971 11.9144Z" fill="#1C1C1E"/>
</svg>
