<svg width="24" height="24" viewBox="0 0 24 24" fill="none" xmlns="http://www.w3.org/2000/svg">
<path d="M17.8272 3.65039L17.828 3.61793C17.845 3.27381 18.1302 3 18.4795 3C18.8289 3 19.1141 3.27381 19.131 3.61793L19.1318 3.65039L19.1317 6.7482H22.3477L22.3803 6.74899C22.7254 6.76591 23 7.05027 23 7.39858C23 7.7469 22.7254 8.03126 22.3803 8.04817L22.3477 8.04897L19.1317 8.04894V10.4879L19.1309 10.5204C19.1299 10.5403 19.1281 10.56 19.1253 10.5794L19.1254 17.5388C19.1254 19.1617 18.3179 19.9794 16.6951 19.9996L16.6331 20H4.55372C2.91817 20 2.07465 19.1948 2.05382 17.5998L2.05342 17.5388L2.05333 14H7.89795C8.8996 14 9.38598 13.5323 9.40246 12.5516L9.40289 12.4995V6.75143L16.4354 6.75149L16.4682 6.74903L16.5015 6.7482H17.8271L17.8272 3.65039Z" fill="#1C1C1E"/>
<path d="M2.61986 11.8301C2.2669 12.1831 2.0533 12.4948 2 12.8138H7.74108L7.77352 12.8131C8.03855 12.8026 8.17106 12.6596 8.17106 12.3771V6.74818L8.13029 6.75508C7.81793 6.81525 7.50984 7.04192 7.13592 7.40713L2.66886 11.7817L2.61986 11.8301Z" fill="#1C1C1E"/>
</svg>
