<svg width="24" height="24" viewBox="0 0 24 24" fill="none" xmlns="http://www.w3.org/2000/svg">
<path fill-rule="evenodd" clip-rule="evenodd" d="M10.1159 3C11.393 3 12.2545 3.80198 12.2545 4.99411V11.1956H19.9143C21.1612 11.1956 22 12.0193 22 13.2403V18.9192C22 20.1691 21.1612 21 19.9143 21H7.55156C6.30471 21 5.46591 20.1691 5.46591 18.9192V18.8084H4.17633C2.86902 18.8084 2 18.0064 2 16.8143V4.99411C2 3.80198 2.86902 3 4.17633 3H10.1159ZM10.7733 5.31924V11.1956H7.55156C6.30471 11.1956 5.46591 12.0193 5.46591 13.2403V17.3562H4.4257C3.82872 17.3562 3.48112 17.0383 3.48112 16.4892V5.31924C3.48112 4.77014 3.82872 4.45946 4.4257 4.45946H9.82875C10.4257 4.45946 10.7733 4.77014 10.7733 5.31924ZM20.4811 18.6808C20.4811 19.2515 20.1486 19.5839 19.5743 19.5839H7.89162C7.31731 19.5839 6.99237 19.2515 6.99237 18.6808V13.5149C6.99237 12.9441 7.31731 12.6117 7.89162 12.6117H19.5743C20.1486 12.6117 20.4811 12.9441 20.4811 13.5149V18.6808Z" fill="#1C1C1E"/>
<path d="M14.6735 5.0575C14.3962 5.0575 14.2056 4.86695 14.2056 4.60184C14.2056 4.33673 14.3962 4.15032 14.6778 4.15032H15.3277C17.442 4.15032 18.2392 5.5463 18.2392 7.05412V7.31094L18.2045 8.21812L18.9497 7.41036L19.318 7.00027C19.4176 6.88842 19.5433 6.847 19.6776 6.847C19.9375 6.847 20.1325 7.03341 20.1325 7.28609C20.1325 7.40622 20.0848 7.51392 19.9852 7.61334L18.1309 9.38212C18.0269 9.48154 17.9056 9.53539 17.7713 9.53539C17.637 9.53539 17.5113 9.48154 17.4073 9.38212L15.5617 7.62162C15.4534 7.51392 15.4057 7.40622 15.4057 7.28609C15.4057 7.03341 15.6007 6.847 15.8606 6.847C15.9949 6.847 16.1206 6.88842 16.2202 7.00027L16.5885 7.41036L17.338 8.21812L17.299 7.31094V7.05412C17.299 5.93154 16.7834 5.0575 15.3277 5.0575H14.6735Z" fill="#1C1C1E"/>
</svg>
