<svg width="24" height="24" viewBox="0 0 24 24" fill="none" xmlns="http://www.w3.org/2000/svg">
<path d="M8.17004 21H15.8381C16.9474 21 17.5951 20.4126 17.6437 19.3183L18.1538 7.6911H19.2713C19.6842 7.6911 20 7.36924 20 6.96692C20 6.56459 19.6761 6.25883 19.2713 6.25883H15.7571V5.05186C15.7571 3.76442 14.9231 3 13.5304 3H10.4534C9.06073 3 8.22672 3.76442 8.22672 5.05186V6.25883H4.72874C4.32389 6.25883 4 6.57264 4 6.96692C4 7.37729 4.32389 7.6911 4.72874 7.6911H5.85425L6.37247 19.3183C6.41296 20.4126 7.06073 21 8.17004 21ZM9.91093 5.12427C9.91093 4.76218 10.1619 4.52883 10.5668 4.52883H13.4251C13.83 4.52883 14.081 4.76218 14.081 5.12427V6.25883H9.91093V5.12427ZM9.40081 18.5297C9.07692 18.5297 8.8502 18.3205 8.84211 17.9987L8.59919 9.45329C8.59109 9.13143 8.81781 8.91417 9.1579 8.91417C9.48178 8.91417 9.7085 9.12338 9.7166 9.44524L9.95951 17.9906C9.97571 18.3125 9.74899 18.5297 9.40081 18.5297ZM12 18.5297C11.6599 18.5297 11.4332 18.3205 11.4332 17.9987V9.44524C11.4332 9.13143 11.6599 8.91417 12 8.91417C12.3401 8.91417 12.5749 9.13143 12.5749 9.44524V17.9987C12.5749 18.3205 12.3401 18.5297 12 18.5297ZM14.5992 18.5378C14.251 18.5378 14.0243 18.3125 14.0405 17.9987L14.2834 9.44524C14.2915 9.12338 14.5182 8.91417 14.8421 8.91417C15.1822 8.91417 15.4089 9.13143 15.4008 9.45329L15.1579 17.9987C15.1498 18.3205 14.9231 18.5378 14.5992 18.5378Z" fill="#1C1C1E"/>
</svg>
