<svg width="24" height="24" viewBox="0 0 24 24" fill="none" xmlns="http://www.w3.org/2000/svg">
<path d="M8.298 3C5.9289 3 4 4.89287 4 7.2274C4 8.17383 4.33616 9.11238 4.88841 9.82221C5.04048 10.0273 5.24058 10.114 5.44067 10.114C5.92089 10.114 6.29707 9.57771 5.9289 9.10449C5.52071 8.59184 5.26459 7.92934 5.26459 7.2274C5.26459 5.57903 6.62522 4.25402 8.298 4.25402C9.90674 4.25402 11.2194 5.49227 11.2994 7.06966C11.2994 7.11698 11.3074 7.16431 11.3074 7.23529C11.3394 7.60597 11.5875 7.81104 11.9077 7.81104C12.2598 7.81104 12.54 7.58231 12.556 7.24318C12.564 7.17219 12.564 7.07755 12.556 6.96713C12.4279 4.74301 10.555 3 8.298 3ZM16.2537 20.5958C19.6313 19.3891 20.7838 16.6129 19.4712 13.0637L18.9269 11.5889C18.4307 10.2481 17.4543 9.62503 16.6779 9.90896C16.4858 9.97206 16.4218 10.1219 16.4858 10.3033L16.7179 10.9422C16.822 11.2182 16.7339 11.4154 16.5658 11.4706C16.3898 11.5337 16.1977 11.4469 16.0936 11.163L15.9335 10.745C15.6374 9.94051 14.9091 9.59348 14.1967 9.85375C13.8606 9.97206 13.7565 10.1771 13.8606 10.461L14.1807 11.3365C14.2848 11.6204 14.1967 11.8097 14.0287 11.8649C13.8446 11.9359 13.6605 11.8491 13.5484 11.5573L13.2523 10.7529C12.9241 9.86164 12.2358 9.60137 11.5235 9.85375C11.2033 9.97206 11.0833 10.185 11.1873 10.461L11.8196 12.1804C11.9237 12.4643 11.8356 12.6536 11.6676 12.7167C11.4915 12.7798 11.2994 12.6931 11.1953 12.4091L9.09837 6.73841C8.88227 6.15478 8.34602 5.90239 7.83378 6.08379C7.28953 6.28097 7.05742 6.80151 7.27352 7.39303L10.3149 15.6191C10.387 15.8084 10.3069 15.9504 10.1869 15.9977C10.0668 16.0371 9.94676 15.9977 9.8027 15.8478L7.76175 13.6868C7.4416 13.3477 7.08944 13.2294 6.68925 13.3792C6.12899 13.5764 5.89688 14.089 6.07296 14.5701C6.13699 14.7437 6.23304 14.8856 6.32108 15.0039L8.97831 18.2533C11.1873 20.9507 13.7245 21.5028 16.2537 20.5958Z" fill="#1C1C1E"/>
</svg>
