<svg width="24" height="24" viewBox="0 0 24 24" fill="none" xmlns="http://www.w3.org/2000/svg">
<path d="M9.24152 2C8.36948 2 7.66255 2.7272 7.66255 3.62425V9.42585C7.66255 9.83357 7.81161 10.2264 8.08013 10.5263L11.6958 14.5643C11.8834 14.7738 12.205 14.7738 12.3926 14.5643L16.0083 10.5263C16.2768 10.2264 16.4258 9.83357 16.4258 9.42585V3.62425C16.4258 2.7272 15.7189 2 14.8469 2H9.24152Z" fill="#1C1C1E"/>
<path d="M22 22V17.1453C22 16.8352 21.7505 16.6 21.4595 16.6C21.1372 16.6107 20.9293 16.8459 20.9293 17.156V22H22Z" fill="#1C1C1E"/>
<path d="M19.027 22H20.1081V18.7493C20.1081 18.4392 19.8586 18.204 19.5572 18.204C19.2453 18.2146 19.0374 18.4392 19.0374 18.76L19.027 22Z" fill="#1C1C1E"/>
<path d="M17.1455 22H18.2162V18.7493C18.2162 18.4392 17.9667 18.204 17.6653 18.204C17.3534 18.2146 17.1455 18.4392 17.1455 18.76V22Z" fill="#1C1C1E"/>
<path d="M15.2536 22H16.3243V18.7493C16.3243 18.4392 16.0748 18.204 15.7838 18.204C15.4615 18.2146 15.2536 18.4392 15.2536 18.76V22Z" fill="#1C1C1E"/>
<path d="M13.3514 22H14.4324V18.7493C14.4324 18.4392 14.183 18.204 13.8815 18.204C13.5696 18.2146 13.3617 18.4392 13.3617 18.76L13.3514 22Z" fill="#1C1C1E"/>
<path d="M11.4595 22L12.5301 22V17.1453C12.5301 16.8352 12.2807 16.6 11.9896 16.6C11.6778 16.6107 11.4595 16.8459 11.4595 17.156V22Z" fill="#1C1C1E"/>
<path d="M9.56757 22H10.6383L10.6383 18.7493C10.6383 18.4392 10.3992 18.204 10.0977 18.204C9.78586 18.2146 9.57796 18.4392 9.57796 18.76L9.56757 22Z" fill="#1C1C1E"/>
<path d="M7.67568 22H8.74636V18.7493C8.74636 18.4392 8.49688 18.204 8.20582 18.204C7.89397 18.2146 7.67568 18.4392 7.67568 18.76L7.67568 22Z" fill="#1C1C1E"/>
<path d="M5.78378 22H6.85447L6.85447 18.7493C6.85447 18.4392 6.60499 18.204 6.31393 18.204C6.00208 18.2146 5.78378 18.4392 5.78378 18.76V22Z" fill="#1C1C1E"/>
<path d="M3.89189 22H4.96258L4.96258 18.7493C4.96258 18.4392 4.7131 18.204 4.42204 18.204C4.11019 18.2146 3.89189 18.4392 3.89189 18.76L3.89189 22Z" fill="#1C1C1E"/>
<path d="M2 22H3.07069L3.07069 17.1453C3.07069 16.8352 2.82121 16.6 2.51975 16.6C2.2079 16.6107 2 16.8459 2 17.156L2 22Z" fill="#1C1C1E"/>
</svg>
