<svg width="24" height="24" viewBox="0 0 24 24" fill="none" xmlns="http://www.w3.org/2000/svg">
<path d="M7.38598 18.8615C7.13712 19.525 6.50366 20 5.74955 20C4.77674 20 4 19.2158 4 18.2507C4 17.4967 4.47509 16.8558 5.13871 16.6145V7.38549C4.47509 7.1442 4 6.5033 4 5.74929C4 4.78417 4.77674 4 5.74955 4C6.50366 4 7.13712 4.47502 7.38598 5.14609V6.36004C7.21253 6.83506 6.82793 7.21206 6.35284 7.39303V16.6145C6.82793 16.7879 7.21253 17.1649 7.38598 17.6475H16.6088C16.7898 17.1649 17.1669 16.7879 17.642 16.6145V7.38549C17.1669 7.21206 16.7898 6.83506 16.6088 6.36004V5.14609C16.8577 4.47502 17.4987 4 18.2528 4C19.2181 4 19.9948 4.78417 19.9948 5.74929C19.9948 6.5033 19.5272 7.1442 18.8561 7.39303V16.6145C19.5272 16.8558 19.9948 17.4967 19.9948 18.2507C19.9948 19.2158 19.2181 20 18.2528 20C17.4987 20 16.8577 19.525 16.6088 18.8615H7.38598Z" fill="#1C1C1E"/>
<path fill-rule="evenodd" clip-rule="evenodd" d="M5.1594 5.79198C5.1594 5.44473 5.44094 5.16323 5.78824 5.16323H6.57468C6.92198 5.16323 7.20352 5.44473 7.20352 5.79198C7.20352 6.13923 6.92198 6.42073 6.57468 6.42073H5.78824C5.44094 6.42073 5.1594 6.13923 5.1594 5.79198ZM8.5149 5.79198C8.5149 5.44473 8.79645 5.16323 9.14374 5.16323H10.7166C11.0639 5.16323 11.3455 5.44473 11.3455 5.79198C11.3455 6.13923 11.0639 6.42073 10.7166 6.42073H9.14374C8.79645 6.42073 8.5149 6.13923 8.5149 5.79198ZM12.6569 5.79198C12.6569 5.44473 12.9384 5.16323 13.2857 5.16323H14.8586C15.2059 5.16323 15.4874 5.44473 15.4874 5.79198C15.4874 6.13923 15.2059 6.42073 14.8586 6.42073H13.2857C12.9384 6.42073 12.6569 6.13923 12.6569 5.79198ZM16.7988 5.79198C16.7988 5.44473 17.0804 5.16323 17.4276 5.16323H18.2141C18.5614 5.16323 18.8429 5.44473 18.8429 5.79198C18.8429 6.13923 18.5614 6.42073 18.2141 6.42073H17.4276C17.0804 6.42073 16.7988 6.13923 16.7988 5.79198Z" fill="#1C1C1E"/>
<path d="M20 5.76683C20 6.73912 19.2117 7.52732 18.2393 7.52732C17.2668 7.52732 16.4785 6.73912 16.4785 5.76683C16.4785 4.79454 17.2668 4.00634 18.2393 4.00634C19.2117 4.00634 20 4.79454 20 5.76683Z" fill="#1C1C1E"/>
<path d="M7.52383 5.76683C7.52383 6.73912 6.73552 7.52732 5.76308 7.52732C4.79065 7.52732 4.00233 6.73912 4.00233 5.76683C4.00233 4.79454 4.79065 4.00634 5.76308 4.00634C6.73552 4.00634 7.52383 4.79454 7.52383 5.76683Z" fill="#1C1C1E"/>
</svg>
