<svg width="24" height="24" viewBox="0 0 24 24" fill="none" xmlns="http://www.w3.org/2000/svg">
<path d="M7.75567 20H16.2443C17.4206 20 18 19.4328 18 18.1866V11.7664C18 10.6405 17.5172 10.0561 16.5516 9.96158V7.83873C16.5516 4.5728 14.3307 3 11.9956 3C9.66935 3 7.44843 4.5728 7.44843 7.83873V9.99595C6.54426 10.1335 6 10.7007 6 11.7664V18.1866C6 19.4328 6.57937 20 7.75567 20ZM9.11631 7.67543C9.11631 5.65571 10.4243 4.56421 11.9956 4.56421C13.5669 4.56421 14.8837 5.65571 14.8837 7.67543V9.95298L9.11631 9.96158V7.67543Z" fill="#1C1C1E"/>
</svg>
