<svg width="24" height="24" viewBox="0 0 24 24" fill="none" xmlns="http://www.w3.org/2000/svg">
<path d="M17.6505 18C20.0799 18 22 16.2017 22 13.9538C22 12.2738 21.0517 10.791 19.5 10.1363C19.5078 6.57127 16.9608 4 13.6771 4C11.5846 4 10.0329 5.09634 9.04545 6.51606C7.0627 5.97972 4.97022 7.47042 4.89969 9.69465C3.10502 10.018 2 11.6349 2 13.5989C2 15.9966 4.08464 18 6.81975 18H17.6505ZM17.6505 16.4541H6.81975C4.94671 16.4541 3.55172 15.1369 3.55172 13.5989C3.55172 12.0293 4.51567 10.8541 6.12226 10.8541C6.23198 10.8541 6.28683 10.791 6.279 10.6806C6.23198 8.32225 7.90909 7.53352 9.58621 8.06986C9.68809 8.10141 9.75078 8.07775 9.79781 7.99099C10.5737 6.61859 11.7179 5.54592 13.6693 5.54592C16.1458 5.54592 17.9013 7.52563 18.0188 9.82085C18.0423 10.2389 18.0188 10.6963 17.9796 11.0749C17.9718 11.1854 18.011 11.2485 18.1129 11.2642C19.5392 11.5403 20.4483 12.5577 20.4483 13.9538C20.4483 15.342 19.2257 16.4541 17.6505 16.4541ZM11.4357 14.7346C11.71 14.7346 11.953 14.6006 12.1019 14.3482L15.1818 9.38704C15.268 9.24507 15.3621 9.05577 15.3621 8.87437C15.3621 8.49577 15.0329 8.21183 14.6411 8.21183C14.3981 8.21183 14.1787 8.34592 14.0298 8.59831L11.4044 12.9915L10.0721 11.2721C9.91536 11.067 9.71944 10.9566 9.47649 10.9566C9.09248 10.9566 8.779 11.2563 8.779 11.6586C8.779 11.8321 8.84169 12.0056 8.97492 12.1713L10.7304 14.3639C10.9263 14.6163 11.1536 14.7346 11.4357 14.7346Z" fill="#1C1C1E"/>
</svg>
