<svg width="24" height="24" viewBox="0 0 24 24" fill="none" xmlns="http://www.w3.org/2000/svg">
<path d="M12 18C17.9706 18 22 13.4169 22 11.9965C22 10.5831 17.9632 6 12 6C6.11765 6 2 10.5831 2 11.9965C2 13.4169 6.11029 18 12 18ZM12.0074 15.8169C9.76471 15.8169 7.97794 14.0746 7.97059 12.0035C7.96324 9.86239 9.76471 8.18309 12.0074 8.18309C14.2353 8.18309 16.0368 9.86939 16.0368 12.0035C16.0368 14.0746 14.2353 15.8169 12.0074 15.8169ZM12.0074 13.4239C12.8309 13.4239 13.5147 12.7802 13.5147 12.0035C13.5147 11.2198 12.8309 10.5691 12.0074 10.5691C11.1691 10.5691 10.4926 11.2198 10.4926 12.0035C10.4926 12.7802 11.1691 13.4239 12.0074 13.4239Z" fill="#1C1C1E"/>
</svg>
