<svg width="24" height="24" viewBox="0 0 24 24" fill="none" xmlns="http://www.w3.org/2000/svg">
<path d="M3.10568 18.482C2.83811 19.0992 3.08896 19.5219 3.74116 19.598L7.20287 19.9868C8.0892 20.0967 8.60762 19.505 8.13937 18.7018L7.59587 17.7549L12.0024 15.5146L16.4006 17.7549L15.8571 18.7018C15.3973 19.505 15.9157 20.0967 16.7936 19.9868L20.2637 19.598C20.9076 19.5219 21.1584 19.0992 20.8992 18.482L19.4861 15.2525C19.1433 14.4409 18.374 14.2887 17.9308 15.075L17.2034 16.3515L12.8052 14.1196V8.70897H14.051C14.9792 8.70897 15.23 7.97346 14.6949 7.2464L12.6296 4.4058C12.2282 3.86473 11.7516 3.86473 11.3502 4.4058L9.29327 7.23795C8.76649 7.95655 9.0257 8.70897 9.92876 8.70897H11.1914V14.1196L6.80151 16.3515L6.06569 15.075C5.62253 14.2887 4.86162 14.4409 4.51043 15.2525L3.10568 18.482Z" fill="#1C1C1E"/>
</svg>
