<svg width="24" height="24" viewBox="0 0 24 24" fill="none" xmlns="http://www.w3.org/2000/svg">
<path d="M7.06984 19.8616C7.36524 20.1029 7.73987 20.02 8.18656 19.6807L11.9978 16.7481L15.8162 19.6807C16.2629 20.02 16.6303 20.1029 16.9329 19.8616C17.2283 19.6279 17.2932 19.2435 17.113 18.6931L15.6073 14.004L19.4545 11.1091C19.9013 10.7774 20.0813 10.4306 19.9661 10.0536C19.8508 9.69179 19.5122 9.51086 18.9574 9.51839L14.2384 9.54856L12.8047 4.8368C12.6318 4.27893 12.3724 4 11.9978 4C11.6303 4 11.371 4.27893 11.1981 4.8368L9.76436 9.54856L5.04535 9.51839C4.4906 9.51086 4.15198 9.69179 4.03672 10.0536C3.91424 10.4306 4.10155 10.7774 4.54824 11.1091L8.39549 14.004L6.88973 18.6931C6.70962 19.2435 6.77446 19.6279 7.06984 19.8616Z" fill="#1C1C1E"/>
</svg>
