<svg width="24" height="24" viewBox="0 0 24 24" fill="none" xmlns="http://www.w3.org/2000/svg">
<path d="M5 19.5033C5 21.017 5.95343 22 7.42026 22H16.5797C18.0466 22 19 21.017 19 19.5033V4.49674C19 2.99174 18.0466 2 16.5797 2H7.42026C5.95343 2 5 2.99174 5 4.49674V19.5033ZM6.59721 19.2249V4.77512C6.59721 4.09656 6.97206 3.70509 7.64028 3.70509H16.3679C17.0361 3.70509 17.4028 4.09656 17.4028 4.77512V19.2249C17.4028 19.9034 17.0361 20.2949 16.3679 20.2949H7.64028C6.97206 20.2949 6.59721 19.9034 6.59721 19.2249ZM9.62049 19.5729H14.3958C14.6321 19.5729 14.8033 19.3989 14.8033 19.1379C14.8033 18.8769 14.6321 18.6942 14.3958 18.6942H9.62049C9.37602 18.6942 9.20489 18.8769 9.20489 19.1379C9.20489 19.3989 9.37602 19.5729 9.62049 19.5729Z" fill="#1C1C1E"/>
</svg>
