<svg width="24" height="24" viewBox="0 0 24 24" fill="none" xmlns="http://www.w3.org/2000/svg">
<path d="M18.0946 15.557L19.0865 14.5292C19.3851 14.2198 19.3851 13.7365 19.0865 13.4464L17.4817 11.7836C17.1831 11.4742 16.7166 11.4742 16.4367 11.7836L15.3908 12.8673L18.0946 15.557Z" fill="#1C1C1E"/>
<path d="M10.192 8.79906L7.74075 11.3389C6.50914 12.615 6.39718 14.6839 7.55415 16.018C8.80442 17.4295 10.9504 17.4682 12.238 16.134L14.8474 13.4303L17.5512 16.12L14.8878 18.8796C12.1074 21.7606 7.57281 21.7026 4.86699 18.725C2.25448 15.8633 2.42243 11.3196 5.12824 8.55462L7.48822 6.10934L10.192 8.79906Z" fill="#1C1C1E"/>
<path d="M10.7354 8.23604L11.8835 7.04646C12.182 6.7371 12.182 6.25372 11.8835 5.96369L10.2786 4.30086C9.98005 3.99149 9.51353 3.99149 9.23362 4.30086L8.03161 5.54632L10.7354 8.23604Z" fill="#1C1C1E"/>
<path fill-rule="evenodd" clip-rule="evenodd" d="M13.646 3H17.0078C19.2126 3 21 4.85539 21 7.14413V10.6339H19.7393V7.14413C19.7393 5.57815 18.5164 4.30867 17.0078 4.30867H13.646V3Z" fill="#1C1C1E"/>
</svg>
