<svg width="24" height="24" viewBox="0 0 24 24" fill="none" xmlns="http://www.w3.org/2000/svg">
<path d="M17.3205 17.9623H17.5585C19.025 17.9623 20 17.1375 20 15.3778V7.97015H15.6852C14.9098 7.97015 14.4261 7.47526 14.4261 6.68185V2H10.2956C8.69098 2 7.80806 2.89552 7.80806 4.5216V4.89081H8.9904C10.1958 4.89081 11.071 5.18146 11.9232 6.04556L16.2841 10.5075C17.1132 11.3559 17.3205 12.3299 17.3205 13.5004V17.9623ZM15.9002 6.90966H19.8772C19.8388 6.64258 19.6468 6.39906 19.3551 6.09269L16.2534 2.84053C15.9693 2.54203 15.7236 2.34564 15.4626 2.31422L15.4702 6.4619C15.4702 6.77612 15.5931 6.90966 15.9002 6.90966ZM6.50288 22H13.6891C15.3321 22 16.1919 21.1123 16.1919 19.4156V13.3276H10.7178C9.7428 13.3276 9.26679 12.8327 9.26679 11.835V6.03771H6.50288C4.85988 6.03771 4 6.93323 4 8.63001V19.4156C4 21.1202 4.85988 22 6.50288 22ZM10.81 12.1728H16.0537C15.9616 11.835 15.762 11.513 15.4165 11.1516L11.3704 6.94894C11.0173 6.58759 10.7179 6.34407 10.3877 6.24195V11.7408C10.3877 12.0236 10.5336 12.1728 10.81 12.1728Z" fill="#1C1C1E"/>
</svg>
