<svg width="24" height="24" viewBox="0 0 24 24" fill="none" xmlns="http://www.w3.org/2000/svg">
<path d="M3.74905 7.72515H2V5.36773C2 3.11896 3.14068 2 5.41119 2H7.68169V3.74905H5.43292C4.34655 3.74905 3.74905 4.32482 3.74905 5.45464V7.72515Z" fill="#1C1C1E"/>
<path d="M14.83 3.74905H9.17002V2H14.83V3.74905Z" fill="#1C1C1E"/>
<path d="M22 7.72515H20.2509V5.45464C20.2509 4.32482 19.6426 3.74905 18.5671 3.74905H16.3183V2H18.5888C20.8593 2 22 3.12982 22 5.36773V7.72515Z" fill="#1C1C1E"/>
<path d="M22 14.7865H20.2509V9.21347H22V14.7865Z" fill="#1C1C1E"/>
<path d="M3.74905 14.7865H2V9.21347H3.74905V14.7865Z" fill="#1C1C1E"/>
<path d="M18.5888 22H16.3183V20.251H18.5671C19.6426 20.251 20.2509 19.6752 20.2509 18.5454V16.2749H22V18.6323C22 20.8702 20.8593 22 18.5888 22Z" fill="#1C1C1E"/>
<path d="M7.68169 22H5.41119C3.14068 22 2 20.881 2 18.6323V16.2749H3.74905V18.5454C3.74905 19.6752 4.34655 20.251 5.43292 20.251H7.68169V22Z" fill="#1C1C1E"/>
<path d="M14.83 22H9.17002V20.251H14.83V22Z" fill="#1C1C1E"/>
<path d="M11.7945 15.5417C11.6294 15.7851 11.3904 15.9024 11.0862 15.9024C10.7994 15.9024 10.5822 15.7981 10.3953 15.5765L8.15304 12.8823C7.98792 12.6954 7.93143 12.5303 7.93143 12.3391C7.93143 11.9133 8.24864 11.6004 8.68754 11.6004C8.93957 11.6004 9.12208 11.6873 9.28721 11.8872L11.0689 14.0729L14.5843 8.52813C14.7668 8.24568 14.9537 8.13704 15.2492 8.13704C15.6837 8.13704 16.0053 8.44992 16.0053 8.87143C16.0053 9.02786 15.9575 9.19734 15.8402 9.3755L11.7945 15.5417Z" fill="#1C1C1E"/>
</svg>
