<svg width="24" height="24" viewBox="0 0 24 24" fill="none" xmlns="http://www.w3.org/2000/svg">
<path d="M21 10.0269C21 8.74074 20.2222 8 18.8889 8H5.11111C3.77083 8 3 8.73401 3 10.0269V13.9731C3 15.2525 3.77778 16 5.11806 16H18.8889C20.2292 16 21 15.2525 21 13.9731V10.0269ZM5.61111 9.55556V12.6465C5.61111 12.8418 5.46528 12.9832 5.26389 12.9899C5.0625 12.9899 4.90278 12.8485 4.90278 12.6532V9.55556H5.61111ZM6.96528 9.55556L6.95833 11.6162C6.95833 11.8182 6.8125 11.9596 6.61111 11.9596C6.41667 11.9663 6.25694 11.8182 6.25694 11.6296V9.55556H6.96528ZM8.3125 9.55556V11.6162C8.3125 11.8182 8.16667 11.9596 7.96528 11.9596C7.76389 11.9663 7.60417 11.8182 7.60417 11.6296V9.55556H8.3125ZM9.65972 9.55556V11.6162C9.65972 11.8182 9.51389 11.9596 9.3125 11.9596C9.11111 11.9663 8.95139 11.8182 8.95139 11.6296V9.55556H9.65972ZM11.0139 9.55556V11.6162C11.0139 11.8182 10.8611 11.9596 10.6597 11.9596C10.4653 11.9663 10.3056 11.8182 10.3056 11.6296V9.55556H11.0139ZM12.3611 9.55556V12.6465C12.3611 12.8418 12.2153 12.9832 12.0139 12.9899C11.8125 12.9899 11.6528 12.8485 11.6528 12.6532V9.55556H12.3611ZM13.7153 9.55556L13.7083 11.6162C13.7083 11.8182 13.5625 11.9596 13.3611 11.9596C13.1667 11.9663 13.0069 11.8182 13.0069 11.6296V9.55556H13.7153ZM15.0625 9.55556V11.6162C15.0625 11.8182 14.9167 11.9596 14.7153 11.9596C14.5139 11.9663 14.3542 11.8182 14.3542 11.6296V9.55556H15.0625ZM16.4167 9.55556L16.4097 11.6162C16.4097 11.8182 16.2639 11.9596 16.0625 11.9596C15.8611 11.9663 15.7014 11.8182 15.7014 11.6296V9.55556H16.4167ZM17.7639 9.55556V11.6162C17.7639 11.8182 17.6111 11.9596 17.4097 11.9596C17.2153 11.9663 17.0556 11.8182 17.0556 11.6296V9.55556H17.7639ZM19.1111 9.55556L19.1042 12.6465C19.1042 12.8418 18.9583 12.9832 18.7569 12.9899C18.5625 12.9899 18.4028 12.8485 18.4028 12.6532V9.55556H19.1111Z" fill="#1C1C1E"/>
</svg>
