<svg width="24" height="24" viewBox="0 0 24 24" fill="none" xmlns="http://www.w3.org/2000/svg">
<path d="M3.68041 15.5351C2.99212 15.5351 2.80682 16.0496 3.21273 16.6183L5.33053 19.6513C5.6482 20.1207 6.14236 20.1117 6.46003 19.6513L8.57783 16.6093C8.97492 16.0496 8.78079 15.5351 8.11015 15.5351H6.80417V8.88237C6.80417 7.38393 7.69541 6.42709 8.93962 6.42709C10.1838 6.42709 11.0927 7.36587 11.0927 8.88237V15.0657C11.0927 17.7467 12.7605 19.525 15.0636 19.525C17.4108 19.525 19.0168 17.7557 19.0168 15.0657V8.46714H20.3316C21.0023 8.46714 21.1876 7.95261 20.7993 7.39295L18.6815 4.3419C18.3638 3.89056 17.8697 3.88153 17.5432 4.3419L15.4254 7.38393C15.0283 7.95261 15.2136 8.46714 15.8931 8.46714H17.1991V15.2011C17.1991 16.6996 16.3078 17.6564 15.0636 17.6564C13.8194 17.6564 12.9105 16.7176 12.9105 15.2011V9.01777C12.9105 6.33682 11.2427 4.56757 8.93962 4.56757C6.59239 4.56757 4.98639 6.32779 4.98639 9.01777V15.5351H3.68041Z" fill="#1C1C1E"/>
</svg>
