<svg width="24" height="24" viewBox="0 0 24 24" fill="none" xmlns="http://www.w3.org/2000/svg">
<path d="M5.60801 12.5235H5.63051C5.91587 12.5279 6.1907 12.6565 6.455 12.9094L6.47584 12.9296L11.8074 18.2612C12.0737 18.5274 12.209 18.8059 12.2135 19.0965C12.2178 19.3797 12.0957 19.6514 11.8473 19.9114L11.8274 19.9319L11.2421 20.5172C10.9945 20.7614 10.7248 20.8814 10.4329 20.8771C10.1411 20.8727 9.86715 20.7442 9.61111 20.4913L8.0467 18.9268C8.02358 18.9632 8.00018 19.0007 7.97651 19.0392L7.92879 19.1175C7.92077 19.1308 7.91273 19.1442 7.90465 19.1577L7.85583 19.2401C7.83943 19.268 7.82291 19.2964 7.80627 19.3253L7.75597 19.4131L7.70493 19.5037L7.65316 19.5971L7.60064 19.6931L7.38207 20.0979L7.18535 20.4611L7.0516 20.7073C6.87188 21.0379 6.68551 21.3497 6.49248 21.6425C6.29945 21.9354 6.10532 22.1817 5.91007 22.3814C5.55951 22.7319 5.179 22.9649 4.76853 23.0803C4.35807 23.1956 3.9476 23.1923 3.53714 23.0703C3.13808 22.9516 2.76523 22.7208 2.4186 22.3778L2.38895 22.3481C2.02952 21.9931 1.78878 21.6104 1.66675 21.1999C1.54472 20.7894 1.54029 20.379 1.65344 19.9685C1.7666 19.558 2.00067 19.1753 2.35567 18.8203C2.55535 18.6251 2.80163 18.432 3.0945 18.2412C3.38738 18.0504 3.698 17.864 4.02637 17.6821C4.31825 17.5204 4.604 17.3648 4.88362 17.2154L4.98819 17.1596C5.03758 17.1333 5.08595 17.1073 5.1333 17.0815L5.22664 17.0303C5.42591 16.92 5.60596 16.8145 5.76679 16.7135L5.80357 16.6903L4.25934 15.1461C3.99309 14.8799 3.85886 14.5981 3.85664 14.3008C3.85447 14.0111 3.97554 13.7404 4.21982 13.4886L4.23937 13.4687L4.79849 12.9096C5.05358 12.6545 5.32342 12.5258 5.60801 12.5235ZM4.20609 19.8054C3.98421 19.8054 3.79562 19.8831 3.64031 20.0384C3.485 20.1937 3.40734 20.3801 3.40734 20.5975C3.40734 20.8149 3.485 21.0024 3.64031 21.16C3.79562 21.3175 3.98421 21.3963 4.20609 21.3963C4.42796 21.3963 4.61655 21.3175 4.77186 21.16C4.92717 21.0024 5.00483 20.8149 5.00483 20.5975C5.00483 20.3801 4.92717 20.1937 4.77186 20.0384C4.61655 19.8831 4.42796 19.8054 4.20609 19.8054ZM8.23307 7.45489C8.49045 7.25742 8.76779 7.16756 9.0651 7.18532C9.35366 7.20254 9.60878 7.31801 9.83046 7.53171L9.85052 7.5514L13.2651 10.9727C13.2252 11.3942 13.1409 11.7692 13.0122 12.0976C12.8835 12.4259 12.7171 12.7288 12.513 13.0061C12.3089 13.2835 12.0737 13.5553 11.8074 13.8215C11.7631 13.8659 11.7409 13.9147 11.7409 13.968C11.7409 14.0212 11.7564 14.0634 11.7875 14.0944C11.8807 14.1876 12.0559 14.2009 12.3133 14.1344C12.5707 14.0678 12.8624 13.9502 13.1886 13.7816C13.5148 13.613 13.8254 13.4166 14.1205 13.1925C14.4033 12.9778 14.63 12.764 14.8007 12.5513L14.8227 12.5236L15.2021 12.9096C15.597 13.3134 15.7989 13.7339 15.8078 14.171C15.8165 14.5997 15.6331 15.0038 15.2577 15.3834L12.6594 17.975L6.52244 11.838C6.55637 11.7636 6.59069 11.6862 6.62539 11.6059L6.66721 11.508L6.70941 11.4073C6.7306 11.3563 6.75192 11.3042 6.77339 11.2509L6.8165 11.1431C6.83815 11.0885 6.85994 11.0328 6.88187 10.976C6.90446 10.9175 6.92716 10.8573 6.94997 10.7955L6.98427 10.7014C6.99 10.6855 6.99574 10.6695 7.00148 10.6534L7.03603 10.5556L7.07074 10.4552C7.08814 10.4043 7.10559 10.3526 7.12311 10.2998L7.15824 10.1931L7.19353 10.0839C7.20532 10.047 7.21714 10.0098 7.22898 9.97208L7.2646 9.85777L7.2928 9.76582L7.32131 9.6716L7.35013 9.5751L7.37925 9.47633L7.40868 9.37528L7.45339 9.21944L7.49879 9.05849L7.54488 8.89241L7.57598 8.77885L7.6074 8.66301L7.63912 8.54489L7.68727 8.36346C7.79377 7.95521 7.9757 7.65236 8.23307 7.45489ZM14.6752 0.822754C14.9734 0.822754 15.2357 0.842722 15.462 0.88266C15.6883 0.922597 15.8973 0.997146 16.089 1.10631C16.2715 1.21027 16.4589 1.35891 16.6512 1.55223L21.0811 6.0625C21.2941 6.28082 21.4552 6.48716 21.5643 6.68152C21.6735 6.87588 21.7467 7.09021 21.784 7.32451C21.8197 7.54904 21.8383 7.82493 21.8399 8.15216V8.19514V15.4477C21.8399 16.2784 21.6336 16.9028 21.2209 17.3208C20.8147 17.7322 20.2085 17.9412 19.4024 17.9478H19.3638H14.0711L15.2581 16.6618L19.2999 16.6618C19.7056 16.6618 20.0135 16.5602 20.2236 16.357L20.2384 16.3423C20.4436 16.1345 20.5487 15.838 20.5538 15.4528L20.5539 15.4237V8.25105H16.0011C15.5006 8.25105 15.1252 8.12591 14.8749 7.87564C14.6298 7.63058 14.5047 7.26555 14.4996 6.78054L14.4995 6.74941V2.10873H10.9451C10.5297 2.10873 10.2169 2.21789 10.0066 2.43621C9.80148 2.64908 9.69638 2.94546 9.69125 3.32538L9.69106 3.35476L9.69099 6.36006C9.42086 6.27342 9.19816 6.2301 9.02289 6.2301C8.8509 6.2301 8.64498 6.27181 8.40508 6.35524V3.3308C8.40508 2.50011 8.61142 1.87443 9.02411 1.45376C9.43034 1.03966 10.0365 0.829378 10.8426 0.822754H10.8812H14.6752ZM15.7056 2.35634V6.59765C15.7056 6.7574 15.7389 6.87189 15.8054 6.94111C15.8692 7.00745 15.9758 7.04201 16.1252 7.04477L16.1449 7.04495H20.3063L15.7056 2.35634Z" fill="#1C1C1E"/>
</svg>
