<svg width="24" height="24" viewBox="0 0 24 24" fill="none" xmlns="http://www.w3.org/2000/svg">
<path d="M17.954 15.8131L18.9367 14.8336C19.2325 14.5388 19.2325 14.0782 18.9367 13.8018L17.3469 12.2172C17.0511 11.9224 16.5889 11.9224 16.3116 12.2172L15.2755 13.2499L17.954 15.8131Z" fill="#1C1C1E"/>
<path d="M10.125 9.37305L7.69661 11.7934C6.47647 13.0095 6.36555 14.981 7.51174 16.2524C8.75037 17.5975 10.8764 17.6343 12.152 16.363L14.7371 13.7864L17.4157 16.3496L14.7772 18.9794C12.0226 21.7248 7.53023 21.6695 4.84961 18.832C2.26142 16.105 2.42781 11.775 5.10843 9.14012L7.44645 6.80987L10.125 9.37305Z" fill="#1C1C1E"/>
<path d="M10.6634 8.83651L11.8007 7.70292C12.0965 7.40811 12.0965 6.94747 11.8007 6.67108L10.2109 5.08648C9.91506 4.79167 9.45288 4.79167 9.17558 5.08648L7.98477 6.27333L10.6634 8.83651Z" fill="#1C1C1E"/>
<path d="M13.9602 5.34318C13.9602 5.77455 13.61 6.12424 13.178 6.12424C12.746 6.12424 12.3958 5.77455 12.3958 5.34318C12.3958 4.91182 12.746 4.56213 13.178 4.56213C13.61 4.56213 13.9602 4.91182 13.9602 5.34318Z" fill="#1C1C1E"/>
<path d="M21 5.34317C21 6.63726 19.9494 7.68633 18.6534 7.68633C17.3573 7.68633 16.3067 6.63726 16.3067 5.34317C16.3067 4.04907 17.3573 3 18.6534 3C19.9494 3 21 4.04907 21 5.34317Z" fill="#1C1C1E"/>
<path d="M19.4356 10.8105C19.4356 11.2419 19.0854 11.5916 18.6534 11.5916C18.2214 11.5916 17.8712 11.2419 17.8712 10.8105C17.8712 10.3792 18.2214 10.0295 18.6534 10.0295C19.0854 10.0295 19.4356 10.3792 19.4356 10.8105Z" fill="#1C1C1E"/>
</svg>
