<svg width="24" height="24" viewBox="0 0 24 24" fill="none" xmlns="http://www.w3.org/2000/svg">
<path d="M20.5091 15.5704L21.7254 14.3564C22.0915 13.9909 22.0915 13.4199 21.7254 13.0773L19.7576 11.1131C19.3914 10.7477 18.8194 10.7477 18.4762 11.1131L17.1937 12.3932L20.5091 15.5704Z" fill="#1C1C1E"/>
<path d="M10.8189 7.5876L7.81315 10.5878C6.30294 12.0952 6.16565 14.5391 7.58433 16.115C9.11742 17.7823 11.7489 17.828 13.3277 16.2521L16.5274 13.0583L19.8428 16.2355L16.577 19.4953C13.1675 22.8985 7.60721 22.8299 4.28932 19.3126C1.08584 15.9323 1.29178 10.5649 4.60967 7.29885L7.50349 4.41035L10.8189 7.5876Z" fill="#1C1C1E"/>
<path d="M11.4852 6.92252L12.893 5.51734C13.2591 5.1519 13.2591 4.5809 12.893 4.23831L10.9251 2.27408C10.559 1.90864 9.98694 1.90864 9.64371 2.27408L8.16979 3.74528L11.4852 6.92252Z" fill="#1C1C1E"/>
</svg>
