<svg width="24" height="24" viewBox="0 0 24 24" fill="none" xmlns="http://www.w3.org/2000/svg">
<path d="M11.3919 16.0352V14.9697H11.8486C12.1783 14.9697 12.3614 15.1639 12.3614 15.5025C12.3614 15.8958 12.1758 16.0352 11.7582 16.0352H11.3919Z" fill="#1C1C1E"/>
<path fill-rule="evenodd" clip-rule="evenodd" d="M16.3434 21H7.65658C5.91269 21 5 20.0614 5 18.2672V5.74112C5 3.93862 5.91269 3 7.65658 3H11.3807V9.29626C11.3807 10.3346 11.8696 10.8329 12.8882 10.8329H19V18.2672C19 20.0614 18.0955 21 16.3434 21ZM14.8747 17.8076C13.9491 17.8076 13.4045 17.2251 13.4045 16.2568V15.8037C13.4045 14.8627 13.9564 14.2727 14.8552 14.2727C15.2337 14.2727 15.5683 14.3773 15.8125 14.564C16.0323 14.7258 16.1764 14.9399 16.1764 15.1365C16.1764 15.3332 16.0421 15.4676 15.8491 15.4676C15.7539 15.4676 15.6806 15.4353 15.6098 15.3631L15.5966 15.3496C15.4038 15.1529 15.2218 14.9673 14.9138 14.9673C14.4522 14.9673 14.2104 15.2685 14.2104 15.8435V16.2543C14.2104 16.8218 14.4571 17.133 14.9065 17.133C15.2557 17.133 15.4901 16.9239 15.4901 16.6127V16.4684H15.1898C14.9773 16.4684 14.8601 16.3638 14.8601 16.1746C14.8601 15.9879 14.9748 15.8858 15.1898 15.8858H15.7881C16.1105 15.8858 16.2521 16.0277 16.2521 16.3439V16.5505C16.2521 17.2998 15.6977 17.8076 14.8747 17.8076ZM9.18141 14.7656V16.5654C9.18141 16.9463 9.04221 17.1081 8.77112 17.1081C8.56109 17.1081 8.42921 17.0036 8.31687 16.8667C8.22895 16.7671 8.14347 16.7048 8.00427 16.7048C7.80645 16.7048 7.66969 16.8443 7.66969 17.0608C7.66969 17.2177 7.73318 17.3695 7.84552 17.4865C8.03358 17.6931 8.35595 17.8076 8.75891 17.8076C9.5453 17.8076 9.98734 17.3596 9.98734 16.5605V14.7656C9.98734 14.4744 9.84081 14.3101 9.57949 14.3101C9.32062 14.3101 9.18141 14.4719 9.18141 14.7656ZM10.984 17.7579C11.2429 17.7579 11.3894 17.596 11.3894 17.3147V16.6476H11.9267C12.6911 16.6476 13.16 16.2319 13.16 15.4875C13.16 14.788 12.6984 14.335 11.9682 14.335H11.111C10.73 14.335 10.5835 14.4918 10.5835 14.8976V17.3147C10.5835 17.5985 10.7276 17.7579 10.984 17.7579Z" fill="#1C1C1E"/>
<path d="M18.9185 9.62021H13.0431C12.7334 9.62021 12.5786 9.46239 12.5704 9.13844V3.08306C12.9453 3.1329 13.312 3.41532 13.7194 3.83895L18.1769 8.4407C18.6007 8.88094 18.8696 9.23812 18.9185 9.62021Z" fill="#1C1C1E"/>
</svg>
