<svg width="24" height="24" viewBox="0 0 24 24" fill="none" xmlns="http://www.w3.org/2000/svg">
<path d="M10.356 19C10.7759 19 11.0928 18.8225 11.3226 18.4755L18.7702 6.64611C18.9366 6.3879 19 6.16196 19 5.94409C19 5.38732 18.6197 5 18.0651 5C17.6769 5 17.4471 5.13718 17.2094 5.51643L10.3243 16.6519L6.77476 12.0121C6.54499 11.6974 6.3073 11.5683 5.95869 11.5683C5.40407 11.5683 5 11.9718 5 12.5285C5 12.7706 5.08715 13.0046 5.28523 13.2548L9.38936 18.4836C9.66667 18.8305 9.95982 19 10.356 19Z" fill="#1C1C1E"/>
</svg>
