<svg width="24" height="24" viewBox="0 0 24 24" fill="none" xmlns="http://www.w3.org/2000/svg">
<path d="M15.1038 3.8H19.1442C19.7394 3.8 20.2 4.27153 20.2 4.82638V8.8027C20.2 9.35754 19.7394 9.82907 19.1442 9.82907H15.1038C14.5086 9.82907 14.048 9.35754 14.048 8.8027V4.82638C14.048 4.27153 14.5086 3.8 15.1038 3.8ZM15.1038 14.1709H19.1442C19.7394 14.1709 20.2 14.6425 20.2 15.1973V19.1736C20.2 19.7285 19.7394 20.2 19.1442 20.2H15.1038C14.5086 20.2 14.048 19.7285 14.048 19.1736V15.1973C14.048 14.6425 14.5086 14.1709 15.1038 14.1709ZM4.85618 3.80001H8.89657C9.49178 3.80001 9.95238 4.27154 9.95238 4.82638V8.8027C9.95238 9.35755 9.49178 9.82908 8.89657 9.82908H4.85618C4.26097 9.82908 3.80038 9.35755 3.80038 8.8027V4.82638C3.80038 4.27154 4.26097 3.80001 4.85618 3.80001ZM4.8558 14.1709H8.89619C9.4914 14.1709 9.952 14.6425 9.952 15.1973V19.1736C9.952 19.7285 9.4914 20.2 8.89619 20.2H4.8558C4.2606 20.2 3.8 19.7285 3.8 19.1736V15.1973C3.8 14.6425 4.2606 14.1709 4.8558 14.1709Z" stroke="#1C1C1E" stroke-width="1.6"/>
</svg>
