<svg width="24" height="24" viewBox="0 0 24 24" fill="none" xmlns="http://www.w3.org/2000/svg">
<path d="M4.21189 14.5423C4.49826 14.8666 4.93169 14.858 5.21806 14.5423L6.58026 13.0404C11.526 7.596 13.9872 4.8994 14.8077 5.79542C15.3959 6.44397 13.8944 8.33841 11.8201 11.0265C9.72261 13.7572 7.33102 16.6928 8.98733 18.5275C10.4424 20.1488 12.7643 18.0752 14.7922 15.9162C16.4485 14.1498 17.4779 13.0831 17.7797 13.4159C18.0429 13.706 17.5785 14.3375 16.9903 15.4639C16.255 16.8805 15.2875 18.5275 16.255 19.6027C17.0058 20.4219 18.2364 19.9696 19.7302 18.2885C20.0707 17.9131 20.0862 17.4352 19.7921 17.1109C19.5057 16.8037 19.08 16.8122 18.7859 17.1109C17.8184 18.1093 17.3076 18.5189 17.176 18.3824C17.029 18.2288 17.3927 17.6144 18.1203 16.3002C19.2116 14.3119 19.5599 13.1513 18.8091 12.3321C17.8184 11.2398 16.3169 12.1188 13.7783 14.7812C11.526 17.128 10.4347 17.8875 9.99351 17.4096C9.4672 16.8464 10.3108 15.3274 12.8959 12.0505C16.0228 8.06534 17.1141 6.11116 15.8138 4.68606C14.1885 2.90255 12.447 4.35325 5.57409 11.931L4.21189 13.4329C3.92551 13.7487 3.93325 14.2266 4.21189 14.5423Z" fill="#1C1C1E"/>
</svg>
