<svg width="24" height="24" viewBox="0 0 24 24" fill="none" xmlns="http://www.w3.org/2000/svg">
<path d="M5 17.4594C5 19.1296 5.86774 20 7.54123 20H16.4588C18.1323 20 19 19.1296 19 17.4594V9.93958C19 8.26153 18.1323 7.39114 16.4588 7.39114H12.7167V3.71356C12.7167 3.32934 12.3913 3 12.0039 3C11.6087 3 11.2833 3.32934 11.2833 3.71356V7.39114H7.54123C5.86774 7.39114 5 8.26153 5 9.93958V17.4594ZM12.0039 14.9737C11.8179 14.9737 11.6475 14.911 11.4615 14.7228L8.85833 12.19C8.73437 12.0567 8.65689 11.9156 8.65689 11.7274C8.65689 11.3589 8.93581 11.1001 9.2922 11.1001C9.47039 11.1001 9.65634 11.1707 9.7803 11.3118L10.9812 12.6056L11.3453 13.0604L11.2911 11.8999V7.98708C11.2911 7.58718 11.5855 7.28921 12.0039 7.28921C12.4222 7.28921 12.7244 7.58718 12.7244 7.98708V11.8999L12.6624 13.0604L13.0266 12.6056L14.2352 11.3118C14.3592 11.1707 14.5374 11.1001 14.7078 11.1001C15.0642 11.1001 15.3509 11.3589 15.3509 11.7274C15.3509 11.9156 15.2811 12.0567 15.1494 12.19L12.5462 14.7228C12.3603 14.911 12.1976 14.9737 12.0039 14.9737Z" fill="#1C1C1E"/>
</svg>
