<svg width="24" height="24" viewBox="0 0 24 24" fill="none" xmlns="http://www.w3.org/2000/svg">
<path d="M10.0853 7.67861C10.186 7.67861 10.2435 7.60562 10.2651 7.51073C10.5025 6.29913 10.4881 6.26993 11.7325 6.02177C11.8404 5.99988 11.9051 5.94149 11.9051 5.8393C11.9051 5.73712 11.8404 5.67873 11.7397 5.65683C10.4809 5.39408 10.4881 5.36488 10.2651 4.16057C10.2507 4.06569 10.186 4 10.0853 4C9.9846 4 9.92706 4.06569 9.91267 4.16057C9.66811 5.37948 9.68969 5.42327 8.4381 5.65683C8.3374 5.67143 8.27266 5.73712 8.27266 5.8393C8.27266 5.93419 8.3374 5.99988 8.4381 6.02177C9.68969 6.27723 9.68249 6.30643 9.91267 7.51073C9.92706 7.60562 9.9846 7.67861 10.0853 7.67861ZM16.2497 10.277C16.3648 10.277 16.4367 10.1894 16.4583 10.0799C16.7173 8.66395 16.7029 8.59096 18.1703 8.3355C18.2925 8.3136 18.3717 8.24062 18.3717 8.12384C18.3717 8.00705 18.2925 7.93407 18.1775 7.91217C16.7029 7.64211 16.6813 7.57642 16.4583 6.16775C16.4367 6.05097 16.3648 5.97068 16.2497 5.97068C16.1346 5.97068 16.0555 6.05097 16.0411 6.16775C15.7894 7.59102 15.7966 7.67861 14.3148 7.91217C14.2069 7.92677 14.1206 8.00705 14.1206 8.12384C14.1278 8.24062 14.1997 8.3136 14.3148 8.3355C15.7966 8.59826 15.811 8.67125 16.0411 10.0799C16.0555 10.1894 16.1346 10.277 16.2497 10.277ZM6.12194 12.4666C6.23703 12.4666 6.31616 12.3863 6.33054 12.2696C6.56072 10.8536 6.5823 10.7806 8.04967 10.5251C8.16476 10.5033 8.24389 10.4303 8.24389 10.3135C8.24389 10.1967 8.16476 10.1237 8.05687 10.1018C6.5751 9.83176 6.5751 9.76607 6.33054 8.3574C6.30896 8.24062 6.23703 8.16033 6.12194 8.16033C6.00685 8.16033 5.93492 8.24062 5.91335 8.3574C5.68317 9.78067 5.66878 9.85366 4.19421 10.1018C4.07912 10.1237 4 10.1967 4 10.3135C4 10.4303 4.07912 10.5033 4.18702 10.5251C5.66878 10.7879 5.66878 10.8682 5.91335 12.2769C5.93492 12.3863 6.00685 12.4666 6.12194 12.4666ZM18.4364 18.729C18.7889 19.094 19.3931 19.0867 19.7383 18.729C20.0908 18.3568 20.0836 17.7729 19.7383 17.4079L12.905 10.4376C12.5525 10.0799 11.9483 10.0799 11.603 10.4376C11.2506 10.8098 11.2578 11.401 11.603 11.7586L18.4364 18.729ZM14.3795 13.6709L12.2144 11.474C12.0706 11.3207 12.0202 11.1455 12.1641 10.9996C12.2936 10.8682 12.4734 10.9047 12.6316 11.058L14.7895 13.2549L14.3795 13.6709ZM9.58898 18.9115C9.74004 18.9115 9.84793 18.8093 9.86951 18.6414C10.0997 16.6708 10.1932 16.6124 12.1713 16.2985C12.3511 16.2693 12.459 16.1744 12.459 16.0139C12.459 15.8606 12.3511 15.7584 12.2072 15.7292C10.2004 15.3351 10.0997 15.3497 9.86951 13.3863C9.84793 13.2184 9.74004 13.1162 9.58898 13.1162C9.43793 13.1162 9.33003 13.2184 9.30845 13.379C9.06389 15.3789 8.99196 15.4519 6.97791 15.7292C6.83405 15.7438 6.71896 15.8606 6.71896 16.0139C6.71896 16.1671 6.82686 16.2693 6.97072 16.2985C8.99915 16.6927 9.0567 16.6927 9.30845 18.656C9.33003 18.8093 9.43793 18.9115 9.58898 18.9115Z" fill="#1C1C1E"/>
</svg>
