<svg width="24" height="24" viewBox="0 0 24 24" fill="none" xmlns="http://www.w3.org/2000/svg">
<path d="M3.74905 7.72515H2V5.36773C2 3.11896 3.14068 2 5.41119 2H7.68169V3.74905H5.43292C4.34655 3.74905 3.74905 4.32482 3.74905 5.45464V7.72515Z" fill="#1C1C1E"/>
<path d="M14.83 3.74905H9.17002V2H14.83V3.74905Z" fill="#1C1C1E"/>
<path d="M22 7.72515H20.2509V5.45464C20.2509 4.32482 19.6426 3.74905 18.5671 3.74905H16.3183V2H18.5888C20.8593 2 22 3.12982 22 5.36773V7.72515Z" fill="#1C1C1E"/>
<path d="M22 14.7865H20.2509V9.21347H22V14.7865Z" fill="#1C1C1E"/>
<path d="M3.74905 14.7865H2V9.21347H3.74905V14.7865Z" fill="#1C1C1E"/>
<path d="M18.5888 22H16.3183V20.251H18.5671C19.6426 20.251 20.2509 19.6752 20.2509 18.5454V16.2749H22V18.6323C22 20.8702 20.8593 22 18.5888 22Z" fill="#1C1C1E"/>
<path d="M7.68169 22H5.41119C3.14068 22 2 20.881 2 18.6323V16.2749H3.74905V18.5454C3.74905 19.6752 4.34655 20.251 5.43292 20.251H7.68169V22Z" fill="#1C1C1E"/>
<path d="M14.83 22H9.17002V20.251H14.83V22Z" fill="#1C1C1E"/>
<path d="M8.55283 15.3722C8.28775 15.1115 8.30079 14.6552 8.54414 14.4075L10.995 11.9611L8.54414 9.51021C8.30079 9.26252 8.2921 8.81059 8.55283 8.54552C8.81356 8.28044 9.26983 8.29348 9.51752 8.53683L11.9684 10.9877L14.4149 8.54117C14.6712 8.28479 15.1145 8.28479 15.3752 8.54986C15.6403 8.81059 15.6403 9.25383 15.3839 9.51021L12.9374 11.9611L15.3839 14.4075C15.6403 14.6639 15.6403 15.1072 15.3752 15.3679C15.1145 15.633 14.6712 15.6373 14.4149 15.3766L11.9684 12.9301L9.51752 15.3809C9.26983 15.6286 8.8179 15.6373 8.55283 15.3722Z" fill="#1C1C1E"/>
</svg>
