<svg width="24" height="24" viewBox="0 0 24 24" fill="none" xmlns="http://www.w3.org/2000/svg">
<path d="M18.3895 15.2418L19.4665 14.1545C19.7907 13.8272 19.7907 13.3159 19.4665 13.0091L17.724 11.2499C17.3998 10.9227 16.8933 10.9227 16.5894 11.2499L15.4538 12.3963L18.3895 15.2418Z" fill="#1C1C1E"/>
<path d="M9.80898 8.09255L7.14745 10.7795C5.81018 12.1295 5.68861 14.3182 6.94483 15.7295C8.30236 17.2228 10.6325 17.2637 12.0305 15.8523L14.8638 12.992L17.7995 15.8374L14.9077 18.7569C11.8887 21.8046 6.96509 21.7433 4.02716 18.5932C1.19053 15.5659 1.37288 10.759 4.31082 7.83397L6.87327 5.24708L9.80898 8.09255Z" fill="#1C1C1E"/>
<path d="M10.399 7.49692L11.6455 6.23849C11.9697 5.91121 11.9697 5.39984 11.6455 5.09301L9.90303 3.33389C9.57884 3.00662 9.0723 3.00662 8.76838 3.33389L7.46326 4.65145L10.399 7.49692Z" fill="#1C1C1E"/>
<path d="M15.7838 1C15.272 1 14.8572 1.4196 14.8572 1.9372V4.82252C14.8572 5.05777 14.9447 5.28442 15.1022 5.45746L17.2241 8.24965C17.3342 8.37055 17.523 8.37055 17.6331 8.24965L19.7549 5.45746C19.9125 5.28442 20 5.05777 20 4.82252V1.9372C20 1.4196 19.5851 1 19.0734 1H15.7838Z" fill="#1C1C1E"/>
</svg>
