<svg width="24" height="24" viewBox="0 0 24 24" fill="none" xmlns="http://www.w3.org/2000/svg">
<path d="M4 14.4289C4 17.7934 6.1951 20 9.91758 20H11.9374C12.4966 20 12.8805 19.5805 12.8805 19.0687C12.8805 18.5569 12.4966 18.1374 11.9374 18.1374H9.98435C7.31351 18.1374 5.8362 16.5433 5.8362 14.3618C5.8362 12.1804 7.31351 10.6534 9.98435 10.6534H15.2676L17.1956 10.5695L15.735 11.8028L13.615 13.8836C13.4481 14.0514 13.3479 14.2528 13.3479 14.5296C13.3479 15.0582 13.7068 15.4358 14.2577 15.4358C14.483 15.4358 14.7418 15.3267 14.9254 15.1505L19.7079 10.4101C19.8998 10.2255 20 9.97378 20 9.72208C20 9.46198 19.8998 9.21028 19.7079 9.0257L14.9254 4.28526C14.7418 4.10907 14.483 4 14.2577 4C13.7068 4 13.3479 4.37756 13.3479 4.90614C13.3479 5.18301 13.4481 5.39276 13.615 5.55218L15.735 7.63293L17.1956 8.87467L15.2676 8.78238H10.0261C6.24517 8.78238 4 11.0897 4 14.4289Z" fill="#1C1C1E"/>
</svg>
