<svg width="24" height="24" viewBox="0 0 24 24" fill="none" xmlns="http://www.w3.org/2000/svg">
<path d="M15.5732 4.43595L21.4204 3.01564C21.901 2.89561 22.2014 3.49574 21.841 3.81582L19.3179 6.05631L20.3391 7.07653C20.5994 7.33659 20.4793 7.77669 20.1188 7.85671L14.2716 9.27702C13.791 9.39704 13.4906 8.79691 13.8511 8.47684L16.3742 6.23635L15.353 5.21612C15.0926 4.95607 15.2128 4.51597 15.5732 4.43595Z" fill="#1C1C1E"/>
<path d="M19.2229 15.3596L20.2889 14.2946C20.6098 13.974 20.6098 13.4731 20.2889 13.1725L18.5642 11.4494C18.2433 11.1288 17.7419 11.1288 17.441 11.4494L16.317 12.5724L19.2229 15.3596Z" fill="#1C1C1E"/>
<path d="M10.7296 8.35662L8.09512 10.9886C6.77144 12.311 6.65111 14.4549 7.89456 15.8374C9.23829 17.3 11.5447 17.3401 12.9285 15.9576L15.733 13.1558L18.6389 15.9431L15.7764 18.8028C12.7881 21.7882 7.91461 21.7281 5.00655 18.6425C2.19875 15.6771 2.37926 10.9685 5.28732 8.10331L7.82371 5.56936L10.7296 8.35662Z" fill="#1C1C1E"/>
<path d="M11.3136 7.77318L12.5475 6.54047C12.8684 6.21989 12.8684 5.71898 12.5475 5.41843L10.8227 3.6953C10.5018 3.37472 10.0004 3.37472 9.69957 3.6953L8.40771 4.98592L11.3136 7.77318Z" fill="#1C1C1E"/>
</svg>
