<svg width="24" height="24" viewBox="0 0 24 24" fill="none" xmlns="http://www.w3.org/2000/svg">
<path d="M3.83912 5.75789C3.83912 5.25014 4.25065 4.8386 4.75737 4.8386H7.77969C8.28641 4.8386 8.69798 5.25014 8.69798 5.75789V18.1553C8.69798 18.663 8.28641 19.0746 7.77969 19.0746H4.75737C4.25065 19.0746 3.83912 18.663 3.83912 18.1553V5.75789ZM2 5.75789V18.1553C2 19.6785 3.23464 20.9135 4.75737 20.9135H7.77969C9.30242 20.9135 10.5371 19.6785 10.5371 18.1553V5.75789C10.5371 4.23464 9.30242 3 7.77969 3H4.75737C3.23464 3 2 4.23464 2 5.75789Z" fill="black"/>
<path d="M10.2719 10.1476L13.8138 6.55991C14.1713 6.19698 14.7552 6.19493 15.1179 6.55555L17.2965 8.73573C17.6566 9.09481 17.6566 9.67688 17.2965 10.0357L12.6486 14.6844L8.3479 19.0324L9.65713 20.3252L13.9527 15.9808L18.598 11.336C19.6732 10.259 19.6732 8.51273 18.598 7.4355L16.4168 5.25556C15.334 4.17344 13.5797 4.17936 12.5045 5.26817L8.96262 8.8561L10.2719 10.1476Z" fill="black"/>
<path d="M7.38403 20.9135H18.9408C20.4661 20.9135 21.7008 19.6786 21.7008 18.1556V15.1348C21.7008 13.6119 20.4661 12.377 18.9408 12.377H15.3809V14.2156H18.9408C19.4501 14.2156 19.8617 14.6271 19.8617 15.1348V18.1556C19.8617 18.6634 19.4501 19.0749 18.9408 19.0749H7.38403V20.9135Z" fill="black"/>
<path d="M7.38379 16.6456C7.38379 17.2622 6.88477 17.762 6.26744 17.762C5.65269 17.762 5.15112 17.2622 5.15112 16.6456C5.15112 16.0291 5.65269 15.5293 6.26744 15.5293C6.88477 15.5293 7.38379 16.0291 7.38379 16.6456Z" fill="black"/>
<path d="M9.60596 9.67231L14.133 14.2012L15.4345 12.9012L10.9049 8.37207L9.60596 9.67231Z" fill="black"/>
<path d="M14.0554 13.7427V19.7708H15.8945V13.7427H14.0554Z" fill="black"/>
</svg>
