<svg width="24" height="24" viewBox="0 0 24 24" fill="none" xmlns="http://www.w3.org/2000/svg">
<path fill-rule="evenodd" clip-rule="evenodd" d="M16.3186 20.8177H7.68143C5.94751 20.8177 5.04004 19.9021 5.04004 18.152V5.93356C5.04004 4.17534 5.94751 3.25977 7.68143 3.25977H11.3842V9.4014C11.3842 10.4142 11.8704 10.9003 12.8832 10.9003H18.96V18.152C18.96 19.9021 18.0606 20.8177 16.3186 20.8177ZM7.5901 16.9486C7.5901 17.0845 7.6678 17.2254 7.80864 17.3589C8.03446 17.5726 8.43998 17.7037 8.89649 17.7037C9.72695 17.7037 10.2587 17.2837 10.2587 16.6305C10.2587 16.1278 9.96007 15.8243 9.34329 15.7004L8.88192 15.6009C8.57354 15.5402 8.4327 15.4115 8.4327 15.2294C8.4327 15.0205 8.61724 14.887 8.91106 14.887C9.16117 14.887 9.35786 14.9841 9.52784 15.1711C9.62982 15.2682 9.73424 15.3144 9.83865 15.3144C10.0256 15.3144 10.1519 15.1929 10.1519 15.0157C10.1519 14.8676 10.0766 14.7219 9.93335 14.5907C9.70996 14.3795 9.32629 14.2556 8.90135 14.2556C8.12431 14.2556 7.62895 14.6587 7.62895 15.2949C7.62895 15.8024 7.92277 16.1108 8.52011 16.2371L8.97662 16.3415C9.32629 16.4168 9.47199 16.5309 9.47199 16.7155C9.47199 16.9437 9.28501 17.07 8.93777 17.07C8.69252 17.07 8.45212 16.968 8.25301 16.781C8.11945 16.662 8.0199 16.6183 7.90334 16.6183C7.73093 16.6183 7.5901 16.7543 7.5901 16.9486ZM11.9612 16.7713H11.9248L11.291 14.683C11.2109 14.4159 11.0773 14.2872 10.8709 14.2872C10.6402 14.2872 10.4751 14.4353 10.4751 14.649C10.4751 14.7267 10.497 14.8384 10.5382 14.9598L11.2546 17.0894C11.3808 17.4852 11.5824 17.6552 11.9345 17.6552C12.2817 17.6552 12.476 17.4876 12.6047 17.0894L13.321 14.9598C13.3574 14.8457 13.3841 14.7219 13.3841 14.6417C13.3841 14.4305 13.2214 14.2872 12.9908 14.2872C12.7771 14.2872 12.6581 14.4013 12.5804 14.683L11.9612 16.7713ZM15.0332 17.7037C14.1129 17.7037 13.5714 17.1355 13.5714 16.191V15.749C13.5714 14.8311 14.1201 14.2556 15.0137 14.2556C15.3901 14.2556 15.7228 14.3576 15.9656 14.5397C16.1842 14.6976 16.3274 14.9064 16.3274 15.0982C16.3274 15.2901 16.1939 15.4212 16.002 15.4212C15.9073 15.4212 15.8345 15.3896 15.7641 15.3192L15.751 15.3061C15.5592 15.1142 15.3783 14.9331 15.072 14.9331C14.6131 14.9331 14.3727 15.2269 14.3727 15.7879V16.1885C14.3727 16.7422 14.6179 17.0457 15.0647 17.0457C15.412 17.0457 15.6451 16.8417 15.6451 16.5382V16.3974H15.3464C15.1352 16.3974 15.0186 16.2954 15.0186 16.1108C15.0186 15.9287 15.1327 15.8291 15.3464 15.8291H15.9413C16.2619 15.8291 16.4027 15.9676 16.4027 16.2759V16.4775C16.4027 17.2084 15.8515 17.7037 15.0332 17.7037Z" fill="#1C1C1E"/>
<path d="M18.879 9.71739H13.0371C12.7292 9.71739 12.5753 9.56345 12.5672 9.24745V3.34079C12.9399 3.3894 13.3045 3.66489 13.7096 4.07811L18.1416 8.56685C18.563 8.99628 18.8304 9.34468 18.879 9.71739Z" fill="#1C1C1E"/>
</svg>
