<svg width="24" height="24" viewBox="0 0 24 24" fill="none" xmlns="http://www.w3.org/2000/svg">
<circle cx="12" cy="12" r="9" fill="black" fill-opacity="0.08"/>
<ellipse cx="12" cy="12" rx="3.91304" ry="3.91304" fill="black" fill-opacity="0.08"/>
<g clip-path="url(#clip0_1280_14433)">
<path d="M12.8265 6.24095C12.8265 6.19659 12.8079 6.16151 12.7842 6.11301L12.1538 4.81093C12.1094 4.71911 12.063 4.68506 12 4.68506C11.9371 4.68506 11.8907 4.71911 11.8453 4.81093L11.2159 6.11301C11.1922 6.16254 11.1736 6.19762 11.1736 6.24095C11.1736 6.32452 11.2365 6.3823 11.3376 6.3823L12.6624 6.38127C12.7625 6.38127 12.8265 6.32349 12.8265 6.24095Z" fill="#1C1C1E"/>
</g>
<g clip-path="url(#clip1_1280_14433)">
<path d="M17.7756 12.816C17.82 12.816 17.8551 12.7974 17.9036 12.7737L19.2056 12.1443C19.2975 12.0989 19.3315 12.0525 19.3315 11.9895C19.3315 11.9266 19.2975 11.8802 19.2056 11.8358L17.9036 11.2054C17.854 11.1817 17.819 11.1631 17.7746 11.1631C17.6921 11.1631 17.6343 11.2271 17.6343 11.3271L17.6353 12.6519C17.6353 12.753 17.6931 12.816 17.7756 12.816Z" fill="#1C1C1E"/>
</g>
<g clip-path="url(#clip2_1280_14433)">
<path d="M12.8265 17.739C12.8265 17.6565 12.7625 17.5987 12.6624 17.5987L11.3376 17.5977C11.2365 17.5977 11.1736 17.6554 11.1736 17.738C11.1736 17.7813 11.1922 17.8174 11.2159 17.8659L11.8453 19.168C11.8907 19.2598 11.9371 19.2939 12 19.2939C12.063 19.2939 12.1094 19.2598 12.1538 19.168L12.7842 17.8659C12.8079 17.8174 12.8265 17.7823 12.8265 17.739Z" fill="#1C1C1E"/>
</g>
<g clip-path="url(#clip3_1280_14433)">
<path d="M6.22459 11.1631C6.18023 11.1631 6.14515 11.1817 6.09666 11.2054L4.79458 11.8358C4.70275 11.8802 4.6687 11.9266 4.6687 11.9895C4.6687 12.0525 4.70275 12.0989 4.79458 12.1443L6.09666 12.7737C6.14618 12.7974 6.18126 12.816 6.22459 12.816C6.30713 12.816 6.36491 12.753 6.36491 12.6519V11.3271C6.36491 11.2271 6.30713 11.1631 6.22459 11.1631Z" fill="#1C1C1E"/>
</g>
<defs>
<clipPath id="clip0_1280_14433">
<rect width="3.52174" height="3.52174" fill="white" transform="translate(10.2393 3.78271)"/>
</clipPath>
<clipPath id="clip1_1280_14433">
<rect width="3.52174" height="3.52174" fill="white" transform="translate(16.6958 10.2388)"/>
</clipPath>
<clipPath id="clip2_1280_14433">
<rect width="3.52174" height="3.52174" fill="white" transform="translate(10.2393 16.6953)"/>
</clipPath>
<clipPath id="clip3_1280_14433">
<rect width="3.52174" height="3.52174" fill="white" transform="translate(3.78271 10.2388)"/>
</clipPath>
</defs>
</svg>
