<svg width="24" height="24" viewBox="0 0 24 24" fill="none" xmlns="http://www.w3.org/2000/svg">
<path d="M5 19.0928C5 20.9297 5.90527 21.8438 7.72461 21.8438H17.0586C18.8779 21.8438 19.7832 20.9297 19.7832 19.0928V5.75977C19.7832 3.93164 18.8779 3 17.0586 3H7.72461C5.90527 3 5 3.93164 5 5.75977V19.0928ZM6.41504 19.0664V5.78613C6.41504 4.90723 6.88086 4.41504 7.79492 4.41504H16.9883C17.9023 4.41504 18.3682 4.90723 18.3682 5.78613V19.0664C18.3682 19.9453 17.9023 20.4287 16.9883 20.4287H7.79492C6.88086 20.4287 6.41504 19.9453 6.41504 19.0664ZM9.06055 8.08887H15.7314C16.0391 8.08887 16.2676 7.85156 16.2676 7.54395C16.2676 7.24512 16.0391 7.00781 15.7314 7.00781H9.06055C8.74414 7.00781 8.51562 7.24512 8.51562 7.54395C8.51562 7.85156 8.74414 8.08887 9.06055 8.08887ZM9.06055 11.1562H15.7314C16.0391 11.1562 16.2676 10.9189 16.2676 10.6113C16.2676 10.3125 16.0391 10.0752 15.7314 10.0752H9.06055C8.74414 10.0752 8.51562 10.3125 8.51562 10.6113C8.51562 10.9189 8.74414 11.1562 9.06055 11.1562ZM9.06055 14.2236H12.2158C12.5322 14.2236 12.7607 13.9951 12.7607 13.6963C12.7607 13.3799 12.5322 13.1426 12.2158 13.1426H9.06055C8.74414 13.1426 8.51562 13.3799 8.51562 13.6963C8.51562 13.9951 8.74414 14.2236 9.06055 14.2236Z" fill="black"/>
</svg>
