<svg width="24" height="24" viewBox="0 0 24 24" fill="none" xmlns="http://www.w3.org/2000/svg">
<path d="M12.0001 7.80547C12.3868 7.80547 12.6751 7.49609 12.6751 7.06719V5.91406L13.4978 6.37109C13.8353 6.53984 14.236 6.47656 14.4118 6.18125C14.6228 5.84375 14.5313 5.40781 14.1165 5.17578L12.7595 4.40937C12.204 4.10703 11.7892 4.10703 11.2337 4.40937L9.87666 5.17578C9.46182 5.40781 9.37041 5.84375 9.58135 6.18125C9.76416 6.47656 10.1649 6.53984 10.4954 6.37109L11.3181 5.91406V7.06719C11.3181 7.49609 11.6063 7.80547 12.0001 7.80547ZM5.46104 11.518C5.84775 11.518 6.11494 11.2016 6.11494 10.7727V9.59141L7.31729 10.2734C7.66885 10.4703 8.06963 10.3648 8.28057 10.0273C8.4915 9.69688 8.34385 9.275 7.9501 9.06406L6.85322 8.43828L7.90088 7.84766C8.30166 7.62266 8.42822 7.16563 8.18213 6.84219C7.9501 6.52578 7.53525 6.49062 7.1626 6.69453L5.73525 7.50312C5.12354 7.84766 4.80713 8.31172 4.80713 9.09922V10.7797C4.80713 11.2016 5.08838 11.518 5.46104 11.518ZM18.5321 11.518C18.9048 11.518 19.186 11.2016 19.186 10.7797V9.09922C19.186 8.25547 18.947 7.88281 18.2649 7.50312L16.8306 6.69453C16.4579 6.49062 16.0431 6.52578 15.811 6.84219C15.572 7.16563 15.6915 7.62266 16.0923 7.84766L17.1399 8.43828L16.0431 9.06406C15.6563 9.275 15.5017 9.69688 15.7126 10.0273C15.9235 10.3648 16.3313 10.4703 16.6829 10.2734L17.8782 9.59141V10.7727C17.8782 11.2016 18.1524 11.518 18.5321 11.518ZM12.0001 14.6961C12.3868 14.6961 12.6751 14.3797 12.6751 13.9578V12.5234L13.9829 11.7781C14.3696 11.5672 14.5032 11.1383 14.2993 10.8078C14.0884 10.4773 13.7017 10.3648 13.329 10.5687L12.0001 11.3211L10.6642 10.5687C10.2985 10.3648 9.90479 10.4773 9.70088 10.8078C9.48994 11.1383 9.63057 11.5672 10.0103 11.7781L11.3181 12.5234V13.9578C11.3181 14.3797 11.6063 14.6961 12.0001 14.6961ZM6.69854 17.0586C7.08525 17.2766 7.52119 17.1781 7.704 16.8336C7.87979 16.5102 7.75322 16.1164 7.45088 15.9195L6.83213 15.5539L7.79541 15.0055C8.1751 14.7875 8.32275 14.3727 8.11182 14.0422C7.90791 13.7047 7.51416 13.5922 7.1415 13.7961L6.12197 14.3727L6.10791 13.6133C6.08682 13.2195 5.81963 12.9312 5.46104 12.9312C5.08135 12.9312 4.80713 13.2477 4.80713 13.6695V14.7805C4.80713 15.807 5.14463 16.1867 5.84072 16.5734L6.69854 17.0586ZM17.3017 17.0586L18.1595 16.5734C18.8485 16.1867 19.186 15.807 19.186 14.7805V13.6695C19.186 13.2477 18.9188 12.9312 18.5321 12.9312C18.1806 12.9312 17.9063 13.2195 17.8853 13.6133L17.8712 14.3656L16.8517 13.7961C16.486 13.5922 16.0923 13.7047 15.8813 14.0422C15.6704 14.3727 15.8181 14.7875 16.1978 15.0055L17.161 15.5539L16.5493 15.9195C16.2399 16.1164 16.1204 16.5102 16.2962 16.8336C16.479 17.1781 16.9079 17.2766 17.3017 17.0586ZM11.3813 19.6813C11.8103 19.9133 12.1899 19.9133 12.6118 19.6813L14.5735 18.5773C14.9603 18.3664 15.0587 17.9727 14.8759 17.6211C14.7001 17.2836 14.2712 17.1852 13.8985 17.3961L12.6751 18.0922V16.7773C12.6751 16.3484 12.3868 16.0391 12.0001 16.0391C11.6063 16.0391 11.3181 16.3484 11.3181 16.7773V18.0922L10.0946 17.3961C9.72197 17.1852 9.3001 17.2836 9.11729 17.6211C8.93447 17.9727 9.03994 18.3664 9.41963 18.5773L11.3813 19.6813Z" fill="#1C1C1E"/>
</svg>
