<svg width="24" height="24" viewBox="0 0 24 24" fill="none" xmlns="http://www.w3.org/2000/svg">
<path d="M3.92953 17.005H9.34899V18.6333H9.29866C8.92953 18.6333 8.61913 18.937 8.61913 19.3166C8.61913 19.6963 8.92953 20 9.29866 20H14.7013C15.0705 20 15.3725 19.6963 15.3725 19.3166C15.3725 18.937 15.0705 18.6333 14.7013 18.6333H14.651V17.005H20.0621C21.2701 17.005 22 16.271 22 15.0561V4.94045C22 3.72556 21.2701 3 20.0621 3H3.92953C2.72987 3 2 3.72556 2 4.94045V15.0561C2 16.271 2.72987 17.005 3.92953 17.005ZM3.71141 13.2844C3.45973 13.2844 3.35067 13.1916 3.35067 12.9216V4.96576C3.35067 4.5861 3.58557 4.35831 3.9547 4.35831H20.0453C20.4144 4.35831 20.6493 4.5861 20.6493 4.96576V12.9216C20.6493 13.1916 20.5319 13.2844 20.2802 13.2844H3.71141Z" fill="black"/>
</svg>
