<svg width="24" height="24" viewBox="0 0 24 24" fill="none" xmlns="http://www.w3.org/2000/svg">
<path d="M11.2751 15.0351L10.8987 16.2905H11.6855L11.3139 15.0351H11.2751Z" fill="#1C1C1E"/>
<path fill-rule="evenodd" clip-rule="evenodd" d="M16.3186 20.8177H7.68143C5.94751 20.8177 5.04004 19.9021 5.04004 18.152V5.93356C5.04004 4.17534 5.94751 3.25977 7.68143 3.25977H11.3842V9.4014C11.3842 10.4142 11.8704 10.9003 12.8832 10.9003H18.96V18.152C18.96 19.9021 18.0606 20.8177 16.3186 20.8177ZM10.6049 17.2667C10.5248 17.5483 10.4106 17.6576 10.1969 17.6576C9.9784 17.6576 9.82785 17.5216 9.82785 17.3274C9.82785 17.2472 9.8497 17.155 9.90555 16.9923L10.6389 14.8433C10.77 14.4499 10.9594 14.2921 11.3091 14.2921C11.6587 14.2921 11.8433 14.4475 11.9768 14.8433L12.7078 16.9923C12.7515 17.1283 12.7733 17.2254 12.7733 17.3104C12.7733 17.5216 12.6228 17.6576 12.3921 17.6576C12.1784 17.6576 12.0546 17.5411 11.9744 17.2667L11.8482 16.8709H10.7336L10.6049 17.2667ZM13.9561 17.223C13.9561 17.4998 13.8129 17.6552 13.5579 17.6552C13.3005 17.6552 13.1524 17.4973 13.1524 17.223V14.7243C13.1524 14.4475 13.2956 14.2921 13.553 14.2921C13.8104 14.2921 13.9561 14.4499 13.9561 14.7243V17.223Z" fill="#1C1C1E"/>
<path d="M18.879 9.71739H13.0371C12.7292 9.71739 12.5753 9.56345 12.5672 9.24745V3.34079C12.9399 3.3894 13.3045 3.66489 13.7096 4.07811L18.1416 8.56685C18.563 8.99628 18.8304 9.34468 18.879 9.71739Z" fill="#1C1C1E"/>
</svg>
