<svg width="24" height="24" viewBox="0 0 24 24" fill="none" xmlns="http://www.w3.org/2000/svg">
<path d="M6.61035 15.083H18.1504C19.8643 15.083 20.7695 14.2129 20.7695 12.5078V6.5752C20.7695 4.87012 19.8643 4 18.1504 4H6.61035C4.99316 4 4 4.87012 4 6.5752V12.5078C4 14.2129 4.90527 15.083 6.61035 15.083ZM6.59277 13.7559C5.81934 13.7559 5.41504 13.3516 5.41504 12.5781V6.50488C5.41504 5.73145 5.81934 5.32715 6.59277 5.32715H18.168C18.9502 5.32715 19.3545 5.73145 19.3545 6.50488V12.5781C19.3545 13.3516 18.9502 13.7559 18.168 13.7559H6.59277ZM15.7334 20.541C16.6475 20.541 17.4297 19.9521 17.7197 19.1348H20.0928C20.4531 19.1348 20.7695 18.8184 20.7695 18.4229C20.7695 18.0273 20.4531 17.7197 20.0928 17.7197H17.7197C17.4209 16.9023 16.6387 16.3135 15.7334 16.3135C14.8193 16.3135 14.0371 16.9023 13.7383 17.7197H4.70312C4.30762 17.7197 4 18.0273 4 18.4229C4 18.8184 4.30762 19.1348 4.70312 19.1348H13.7383C14.0283 19.9521 14.8105 20.541 15.7334 20.541ZM15.7334 19.46C15.1533 19.46 14.7051 19.0029 14.7051 18.4229C14.7051 17.8428 15.1533 17.3945 15.7334 17.3945C16.3135 17.3945 16.7617 17.8428 16.7617 18.4229C16.7617 19.0029 16.3135 19.46 15.7334 19.46Z" fill="black"/>
</svg>
