<svg width="24" height="24" viewBox="0 0 24 24" fill="none" xmlns="http://www.w3.org/2000/svg">
<path d="M2 19.1895C2 20.9385 2.87012 21.8438 4.6543 21.8438H19.2266C21.0723 21.8438 21.9863 20.9385 21.9863 19.1279V5.72461C21.9863 3.91406 21.0723 3 19.2266 3H8.63574C6.79883 3 5.87598 3.91406 5.87598 5.72461V9.91699H3.77539C2.65918 9.91699 2 10.5234 2 11.5693V19.1895ZM6.99219 20.4287C7.18555 20.0508 7.29102 19.6113 7.29102 19.1016V5.80371C7.29102 4.88965 7.7832 4.41504 8.66211 4.41504H19.2002C20.0791 4.41504 20.5713 4.88965 20.5713 5.80371V19.0488C20.5713 19.9629 20.0791 20.4287 19.2002 20.4287H6.99219ZM9.57617 8.23828H18.3037C18.6113 8.23828 18.8486 7.99219 18.8486 7.68457C18.8486 7.38574 18.6113 7.15723 18.3037 7.15723H9.57617C9.25977 7.15723 9.02246 7.38574 9.02246 7.68457C9.02246 7.99219 9.25977 8.23828 9.57617 8.23828ZM9.57617 11.332H18.3037C18.6113 11.332 18.8486 11.0947 18.8486 10.7959C18.8486 10.4883 18.6113 10.251 18.3037 10.251H9.57617C9.25977 10.251 9.02246 10.4883 9.02246 10.7959C9.02246 11.0947 9.25977 11.332 9.57617 11.332ZM3.41504 19.1895V11.8418C3.41504 11.5166 3.6084 11.332 3.93359 11.332H5.87598V19.1895C5.87598 19.9189 5.33984 20.4287 4.6543 20.4287C3.95996 20.4287 3.41504 19.8926 3.41504 19.1895ZM10.0947 17.5986H12.3711C13.0391 17.5986 13.4434 17.1943 13.4434 16.5264V14.4346C13.4434 13.7578 13.0391 13.3535 12.3711 13.3535H10.0947C9.41797 13.3535 9.01367 13.7578 9.01367 14.4346V16.5264C9.01367 17.1943 9.41797 17.5986 10.0947 17.5986ZM15.0254 14.4346H18.2949C18.6113 14.4346 18.8398 14.2061 18.8398 13.9072C18.8398 13.5908 18.6113 13.3535 18.2949 13.3535H15.0254C14.709 13.3535 14.4805 13.5908 14.4805 13.9072C14.4805 14.2061 14.709 14.4346 15.0254 14.4346ZM15.0254 17.5986H18.2949C18.6113 17.5986 18.8398 17.3701 18.8398 17.0713C18.8398 16.7637 18.6113 16.5176 18.2949 16.5176H15.0254C14.709 16.5176 14.4805 16.7637 14.4805 17.0713C14.4805 17.3701 14.709 17.5986 15.0254 17.5986Z" fill="black"/>
</svg>
