<svg width="24" height="24" viewBox="0 0 24 24" fill="none" xmlns="http://www.w3.org/2000/svg">
<path fill-rule="evenodd" clip-rule="evenodd" d="M12.5921 15.3577C12.4713 15.3827 12.3669 15.4043 12.2643 15.4043C11.9721 15.4043 11.6626 15.3382 11.3114 15.0287L9.86458 13.8149C9.83283 13.8149 9.80019 13.8158 9.76801 13.8167C9.73674 13.8176 9.70591 13.8184 9.67677 13.8184C8.58126 13.8184 7.83353 13.5054 7.30142 12.622C6.84931 12.629 6.53282 12.3786 6.53282 11.9856C6.53282 11.6308 6.81801 11.3909 7.20404 11.4048C7.67703 9.98932 8.65082 9.36679 9.79154 9.36679C10.8774 9.36679 11.5819 9.81489 12.5251 10.4148C12.6362 10.4855 12.7506 10.5583 12.8694 10.6327C12.9241 10.6626 12.978 10.6927 13.0309 10.7223C13.3416 10.8961 13.623 11.0535 13.8815 11.0535C14.104 11.0535 14.2223 10.9631 14.3788 10.8275L12.4382 9.55807C11.9965 9.26593 11.4122 8.86946 11.4122 8.60862C11.4122 8.20171 12.313 7.91653 12.8312 7.91653C13.4746 7.91653 14.1493 8.23997 14.6362 8.9564L15.4604 10.1702C16.6985 10.118 17.4671 11.0883 17.4671 12.2047C17.4671 13.1437 17.0115 13.4324 16.2081 13.4324C15.5091 13.4324 15.0709 13.1715 14.664 12.9037C14.4066 13.0359 14.1562 13.1646 13.9302 13.2828C13.725 13.2306 13.5232 13.2202 13.3146 13.2202C13.0572 13.2202 12.8033 13.2411 12.5703 13.2863L12.3373 12.7646C11.8052 11.5891 10.9079 11.0327 9.81589 11.0327C9.45767 11.0327 9.12728 11.1022 9.12728 11.3735C9.12728 11.5369 9.23857 11.6274 9.41942 11.6274H9.84719C10.6749 11.6274 11.4157 12.0691 11.8226 12.942L12.2365 13.8393C12.3175 13.8238 12.3925 13.8061 12.4681 13.7883C12.6974 13.7344 12.9317 13.6793 13.3528 13.6793C14.424 13.6793 15.0013 14.194 15.0013 14.7957C15.0013 15.1817 14.6953 15.4043 14.1875 15.4043C14.0246 15.4043 13.9058 15.3781 13.7784 15.35C13.6312 15.3176 13.4724 15.2826 13.2207 15.2826C12.955 15.2826 12.7581 15.3233 12.5921 15.3577ZM15.5613 11.7387C15.5613 11.9299 15.7178 12.0934 15.909 12.0934C16.1038 12.0934 16.2638 11.923 16.2638 11.7213C16.2638 11.53 16.1073 11.3735 15.9125 11.3735C15.7178 11.3735 15.5613 11.5439 15.5613 11.7387Z" fill="#1C1C1E"/>
<path d="M10.8905 15.3556C10.5462 15.5817 10.1324 15.6929 9.50288 15.6929C8.75515 15.6929 8.27174 15.3834 8.27174 14.9243C8.27174 14.6183 8.5117 14.4166 8.89427 14.4166C9.05974 14.4166 9.23664 14.4349 9.38762 14.4505C9.50003 14.4621 9.59807 14.4722 9.66634 14.4722C9.73242 14.4722 9.78807 14.4688 9.83675 14.4653L10.8905 15.3556Z" fill="#1C1C1E"/>
<path fill-rule="evenodd" clip-rule="evenodd" d="M5.63413 21.4688C5.2906 22.3844 4.41614 23.04 3.37512 23.04C2.03221 23.04 0.959961 21.9578 0.959961 20.6259C0.959961 19.5854 1.6158 18.701 2.5319 18.368V5.63193C1.6158 5.29896 0.959961 4.41451 0.959961 3.37399C0.959961 2.04211 2.03221 0.959961 3.37512 0.959961C4.41614 0.959961 5.2906 1.61549 5.63413 2.54156H18.3658C18.7093 1.61549 19.5942 0.959961 20.6352 0.959961C21.9677 0.959961 23.04 2.04211 23.04 3.37399C23.04 4.41451 22.3945 5.29896 21.468 5.64234V18.368C22.3945 18.701 23.04 19.5854 23.04 20.6259C23.04 21.9578 21.9677 23.04 20.6352 23.04C19.5942 23.04 18.7093 22.3844 18.3658 21.4688H5.63413ZM4.20794 18.368C4.86378 18.6073 5.3947 19.1276 5.63413 19.7935H18.3658C18.6156 19.1276 19.1361 18.6073 19.792 18.368V5.63193C19.1361 5.39261 18.6156 4.87235 18.3658 4.21681H5.63413C5.3947 4.87235 4.86378 5.39261 4.20794 5.64234V18.368Z" fill="#1C1C1E"/>
</svg>
