<svg width="24" height="24" viewBox="0 0 24 24" fill="none" xmlns="http://www.w3.org/2000/svg">
<path d="M3 10.0137C3 13.8809 6.14648 17.0273 10.0137 17.0273C11.543 17.0273 12.9404 16.5352 14.0918 15.709L18.416 20.042C18.6182 20.2441 18.8818 20.3408 19.1631 20.3408C19.7607 20.3408 20.1738 19.8926 20.1738 19.3037C20.1738 19.0225 20.0684 18.7676 19.8838 18.583L15.5859 14.2588C16.4912 13.0811 17.0273 11.6133 17.0273 10.0137C17.0273 6.14648 13.8809 3 10.0137 3C6.14648 3 3 6.14648 3 10.0137ZM4.50293 10.0137C4.50293 6.97266 6.97266 4.50293 10.0137 4.50293C13.0547 4.50293 15.5244 6.97266 15.5244 10.0137C15.5244 13.0547 13.0547 15.5244 10.0137 15.5244C6.97266 15.5244 4.50293 13.0547 4.50293 10.0137ZM7.11328 10.0137C7.11328 10.374 7.39453 10.6553 7.75488 10.6553H9.37207V12.2725C9.37207 12.6328 9.65332 12.9141 10.0137 12.9141C10.374 12.9141 10.6641 12.6328 10.6641 12.2725V10.6553H12.2725C12.6328 10.6553 12.9141 10.374 12.9141 10.0137C12.9141 9.65332 12.6328 9.36328 12.2725 9.36328H10.6641V7.75488C10.6641 7.39453 10.374 7.11328 10.0137 7.11328C9.65332 7.11328 9.37207 7.39453 9.37207 7.75488V9.36328H7.75488C7.39453 9.36328 7.11328 9.65332 7.11328 10.0137Z" fill="black"/>
</svg>
