<svg width="24" height="24" viewBox="0 0 24 24" fill="none" xmlns="http://www.w3.org/2000/svg">
<path d="M12.9492 19.693L18.4195 16.5219C19.0102 16.1773 19.2703 15.882 19.2703 15.4391C19.2703 14.9891 19.0102 14.7008 18.4195 14.3492L17.4633 13.7938L18.4195 13.2383C19.0102 12.8938 19.2703 12.5984 19.2703 12.1555C19.2703 11.7125 19.0102 11.4172 18.4195 11.0727L17.2875 10.4117L18.4195 9.75781C19.0102 9.41328 19.2703 9.11797 19.2703 8.675C19.2703 8.225 19.0102 7.93672 18.4195 7.58516L12.9492 4.41406C12.5836 4.20312 12.2953 4.09766 12 4.09766C11.6977 4.09766 11.4094 4.20312 11.0438 4.41406L5.57344 7.58516C4.98281 7.93672 4.72266 8.225 4.72266 8.675C4.72266 9.11797 4.98281 9.41328 5.57344 9.75781L6.70547 10.4188L5.57344 11.0727C4.98281 11.4172 4.72266 11.7125 4.72266 12.1555C4.72266 12.5984 4.98281 12.8938 5.57344 13.2383L6.53672 13.7938L5.57344 14.3492C4.98281 14.7008 4.72266 14.9891 4.72266 15.4391C4.72266 15.882 4.98281 16.1773 5.57344 16.5219L11.0438 19.693C11.4094 19.9039 11.6977 20.0094 12 20.0094C12.2953 20.0094 12.5836 19.9039 12.9492 19.693ZM12 11.7828C11.9016 11.7828 11.8172 11.7477 11.7117 11.6914L6.53672 8.73828C6.50156 8.72422 6.4875 8.70312 6.4875 8.675C6.4875 8.63984 6.50156 8.62578 6.53672 8.60469L11.7117 5.65859C11.8172 5.59531 11.9016 5.56719 12 5.56719C12.0914 5.56719 12.1758 5.59531 12.2812 5.65859L17.4633 8.60469C17.4914 8.62578 17.5125 8.63984 17.5125 8.675C17.5125 8.70312 17.4914 8.72422 17.4633 8.73828L12.2812 11.6914C12.1758 11.7477 12.0914 11.7828 12 11.7828ZM12 13.2453C12.2953 13.2453 12.5836 13.1469 12.9492 12.9289L15.9164 11.2133L17.4633 12.0852C17.4914 12.1063 17.5125 12.1203 17.5125 12.1555C17.5125 12.1906 17.4914 12.2047 17.4633 12.2258L12.2812 15.1719C12.1758 15.2352 12.0914 15.2633 12 15.2633C11.9016 15.2633 11.8172 15.2352 11.7117 15.1719L6.53672 12.2258C6.50156 12.2047 6.4875 12.1906 6.4875 12.1555C6.4875 12.1203 6.50156 12.1063 6.53672 12.0852L8.07656 11.2063L11.0438 12.9289C11.4094 13.1469 11.6977 13.2453 12 13.2453Z" fill="#1C1C1E"/>
</svg>
