<svg width="24" height="24" viewBox="0 0 24 24" fill="none" xmlns="http://www.w3.org/2000/svg">
<path d="M9.21453 13.1791C8.80815 13.1791 8.49097 12.8619 8.49097 12.4555C8.49097 12.0491 8.80815 11.722 9.21453 11.722H11.0383V9.90813C11.0383 9.50175 11.3555 9.18457 11.7619 9.18457C12.1683 9.18457 12.4954 9.50175 12.4954 9.90813V11.722H14.3092C14.7156 11.722 15.0328 12.0491 15.0328 12.4555C15.0328 12.8619 14.7156 13.1791 14.3092 13.1791H12.4954V15.0028C12.4954 15.4092 12.1683 15.7264 11.7619 15.7264C11.3555 15.7264 11.0383 15.4092 11.0383 15.0028V13.1791H9.21453Z" fill="black"/>
<path d="M19.6755 13.8115C19.1898 13.8115 18.833 14.1684 18.833 14.654V15.5957C18.833 17.3005 17.6733 18.4007 15.8693 18.4007H8.13809V16.1012C8.13809 15.6948 7.91011 15.4767 7.50373 15.4767C7.3154 15.4767 7.13698 15.5362 6.98831 15.6551L3.24162 18.7576C2.92444 19.035 2.91452 19.4315 3.24162 19.6992L6.98831 22.8116C7.13698 22.9305 7.3154 22.9999 7.50373 22.9999C7.91011 22.9999 8.13809 22.7718 8.13809 22.3753V20.0559H15.7108C18.6249 20.0559 20.518 18.4007 20.518 15.7146V14.654C20.518 14.1684 20.1512 13.8115 19.6755 13.8115Z" fill="black"/>
<path d="M4.69162 10.326C4.69162 10.8017 4.32487 11.1685 3.8491 11.1685C3.36342 11.1685 3.00659 10.8017 3.00659 10.326V9.26541C3.00659 6.57929 4.89975 4.924 7.80394 4.924H15.3766V2.62445C15.3766 2.21806 15.6145 2 16.0209 2C16.1993 2 16.3876 2.05947 16.5264 2.17841L20.2732 5.29075C20.6101 5.56827 20.5903 5.97467 20.2732 6.23237L16.5264 9.33478C16.3876 9.45374 16.1993 9.52311 16.0209 9.52311C15.6145 9.52311 15.3766 9.29515 15.3766 8.89867V6.56938H7.64535C5.85129 6.56938 4.69162 7.67951 4.69162 9.38435V10.326Z" fill="black"/>
</svg>
