<svg width="24" height="24" viewBox="0 0 24 24" fill="none" xmlns="http://www.w3.org/2000/svg">
<path d="M15.0059 9.22754C15.9199 9.22754 16.6934 8.63867 16.9922 7.83008H20.0332C20.3936 7.83008 20.71 7.51367 20.71 7.11816C20.71 6.72266 20.3936 6.41504 20.0332 6.41504H16.9922C16.7021 5.59766 15.9199 5 15.0059 5C14.0918 5 13.3008 5.59766 13.0107 6.41504H3.70312C3.30762 6.41504 3 6.72266 3 7.11816C3 7.51367 3.30762 7.83008 3.70312 7.83008H13.0195C13.3096 8.63867 14.0918 9.22754 15.0059 9.22754ZM15.0059 8.14648C14.4258 8.14648 13.9775 7.68945 13.9775 7.10938C13.9775 6.5293 14.4258 6.08105 15.0059 6.08105C15.5859 6.08105 16.0342 6.5293 16.0342 7.10938C16.0342 7.68945 15.5859 8.14648 15.0059 8.14648ZM3.66797 11.7764C3.30762 11.7764 3 12.0928 3 12.4883C3 12.8838 3.30762 13.1914 3.66797 13.1914H6.81445C7.10449 14.0176 7.88672 14.6064 8.80078 14.6064C9.71484 14.6064 10.4971 14.0176 10.7959 13.1914H19.998C20.3936 13.1914 20.71 12.8838 20.71 12.4883C20.71 12.0928 20.3936 11.7764 19.998 11.7764H10.7871C10.4971 10.9678 9.71484 10.3789 8.80078 10.3789C7.88672 10.3789 7.10449 10.9678 6.81445 11.7764H3.66797ZM8.80078 13.5166C8.22949 13.5166 7.77246 13.0596 7.77246 12.4883C7.77246 11.9082 8.22949 11.46 8.80078 11.46C9.38086 11.46 9.8291 11.9082 9.8291 12.4883C9.8291 13.0596 9.38086 13.5166 8.80078 13.5166ZM15.0059 19.9678C15.9199 19.9678 16.7021 19.3789 16.9922 18.5615H20.0332C20.3936 18.5615 20.71 18.2539 20.71 17.8584C20.71 17.4629 20.3936 17.1465 20.0332 17.1465H16.9922C16.7021 16.3291 15.9199 15.749 15.0059 15.749C14.0918 15.749 13.3096 16.3291 13.0195 17.1465H3.70312C3.30762 17.1465 3 17.4629 3 17.8584C3 18.2539 3.30762 18.5615 3.70312 18.5615H13.0107C13.3096 19.3789 14.0918 19.9678 15.0059 19.9678ZM15.0059 18.8867C14.4258 18.8867 13.9775 18.4297 13.9775 17.8584C13.9775 17.2695 14.4258 16.8301 15.0059 16.8301C15.5859 16.8301 16.0342 17.2695 16.0342 17.8584C16.0342 18.4297 15.5859 18.8867 15.0059 18.8867Z" fill="black"/>
</svg>
