<svg width="24" height="24" viewBox="0 0 24 24" fill="none" xmlns="http://www.w3.org/2000/svg">
<path d="M4.6875 20.1475H13.0547C14.1885 20.1475 14.7422 19.585 14.7422 18.3545V11.9033C14.7422 10.8311 14.3115 10.2598 13.4414 10.1367V7.72852C13.4414 5.52246 14.8564 4.35352 16.5 4.35352C18.1436 4.35352 19.5498 5.52246 19.5498 7.72852V9.67969C19.5498 10.2158 19.8662 10.4795 20.2705 10.4795C20.6572 10.4795 20.9648 10.2422 20.9648 9.67969V7.91309C20.9648 4.59961 18.7939 3 16.5 3C14.1973 3 12.0264 4.59961 12.0264 7.91309V10.1191L4.86328 10.1367C3.72949 10.1367 3 10.6904 3 11.9033V18.3545C3 19.585 3.55371 20.1475 4.6875 20.1475Z" fill="black"/>
</svg>
