<svg width="24" height="24" viewBox="0 0 24 24" fill="none" xmlns="http://www.w3.org/2000/svg">
<path d="M12.007 8.80879C12.3727 8.80879 12.668 8.51348 12.668 8.16191V6.05254L12.6117 5.01191L13.0477 5.5252L14.025 6.57285C14.1445 6.69941 14.3063 6.7627 14.468 6.7627C14.7914 6.7627 15.0586 6.53066 15.0586 6.2002C15.0586 6.02441 14.9883 5.89785 14.8687 5.77832L12.5062 3.50723C12.3375 3.33848 12.1828 3.28223 12.007 3.28223C11.8383 3.28223 11.6766 3.33848 11.5078 3.50723L9.14531 5.77832C9.02578 5.89785 8.9625 6.02441 8.9625 6.2002C8.9625 6.53066 9.22266 6.7627 9.54609 6.7627C9.70781 6.7627 9.87656 6.69941 9.98906 6.57285L10.9664 5.5252L11.4023 5.00488L11.3531 6.05254V8.16191C11.3531 8.51348 11.6484 8.80879 12.007 8.80879ZM7.95 19.3908H16.05C17.5758 19.3908 18.3633 18.6033 18.3633 17.0986V10.3627C18.3633 8.85801 17.5758 8.07051 16.05 8.07051H12.8508V13.1611C12.8508 13.6111 12.4641 13.9838 12.007 13.9838C11.55 13.9838 11.1703 13.6111 11.1703 13.1611V8.07051H7.95C6.43125 8.07051 5.63672 8.85801 5.63672 10.3627V17.0986C5.63672 18.6033 6.43125 19.3908 7.95 19.3908Z" fill="#1C1C1E"/>
</svg>
