<svg width="24" height="24" viewBox="0 0 24 24" fill="none" xmlns="http://www.w3.org/2000/svg">
<path d="M18.8037 13.1451C21.0852 13.1451 23 11.3008 23 9.0686C23 6.83641 21.1096 5 18.8037 5C16.5059 5 14.6156 6.84433 14.6156 9.0686C14.6156 11.3087 16.5059 13.1451 18.8037 13.1451ZM3.67259 20H17.2067C18.763 20 19.6674 19.1214 19.6674 17.4274V14.2058C19.2356 14.2929 18.5919 14.3008 18.0704 14.2058V17.3008C18.0704 18.0686 17.6548 18.4485 16.9052 18.4485H3.77037C3.01259 18.4485 2.59704 18.0686 2.59704 17.3008V11.2533H13.9963C13.7681 10.8338 13.6052 10.3747 13.5319 9.8839H2.59704V7.91293C2.59704 7.1847 3.00444 6.80475 3.73778 6.80475H5.30222C5.88074 6.80475 6.21481 6.9314 6.67111 7.29551L7.1437 7.66755C7.70593 8.11873 8.14593 8.26913 8.99333 8.26913H13.5481C13.6133 7.72295 13.7437 7.24011 14.0126 6.71768H9.41704C8.83037 6.71768 8.48815 6.58311 8.04 6.22691L7.56741 5.8628C6.99704 5.40369 6.57333 5.2533 5.72593 5.2533H3.42C1.8963 5.2533 1 6.11609 1 7.77836V17.4274C1 19.1214 1.91259 20 3.67259 20ZM18.8037 11.657C18.4696 11.657 18.2496 11.4354 18.2496 11.1187V9.61478H16.7096C16.3756 9.61478 16.1556 9.40106 16.1556 9.07652C16.1474 8.74406 16.3756 8.53034 16.7096 8.53034H18.2496V7.0343C18.2496 6.71768 18.4696 6.49604 18.8037 6.49604C19.1459 6.49604 19.3659 6.70976 19.3659 7.0343V8.53034H20.9059C21.24 8.53034 21.46 8.74406 21.46 9.07652C21.46 9.40106 21.24 9.61478 20.9059 9.61478H19.3659V11.1187C19.3659 11.4354 19.1459 11.657 18.8037 11.657Z" fill="black"/>
</svg>
