<svg width="24" height="24" viewBox="0 0 24 24" fill="none" xmlns="http://www.w3.org/2000/svg">
<path d="M5.13695 11.2372C6.59618 11.2372 6.83028 10.6443 7.47796 10.6443C7.62622 10.6443 7.73547 10.6751 7.93055 10.7675L9.24932 11.4605C9.41319 11.5452 9.54584 11.6222 9.64729 11.6915H9.69411C9.87359 11.0447 10.1701 10.6288 10.6617 10.3208V10.2746L8.89036 9.34292C8.33632 9.05031 8.2895 8.8116 8.2895 8.12628C8.2895 6.38604 6.8849 5 5.13695 5C3.3968 5 2 6.39374 2 8.12628C2 9.85113 3.3968 11.2372 5.13695 11.2372ZM5.13695 9.98203C4.10691 9.98203 3.27975 9.14271 3.27975 8.12628C3.27975 7.08676 4.10691 6.26283 5.13695 6.26283C6.1826 6.26283 7.01756 7.08676 7.01756 8.12628C7.01756 9.14271 6.1826 9.98203 5.13695 9.98203ZM5.13695 20C6.8849 20 8.2895 18.614 8.2895 16.8737C8.2895 16.2346 8.32072 15.9805 8.79672 15.7264L22 8.8039C21.6801 7.64887 20.4081 7.44867 18.4651 8.13398L11.801 10.4979C10.8646 10.8291 10.4588 11.2834 10.2091 12.1381L10.0531 12.7002C9.93601 13.1006 9.75654 13.3008 9.14007 13.6088L7.93055 14.2402C7.73547 14.3403 7.62622 14.3712 7.47796 14.3712C6.82247 14.3712 6.58837 13.7705 5.13695 13.7705C3.3968 13.7705 2 15.1566 2 16.8737C2 18.6063 3.3968 20 5.13695 20ZM11.9727 12.731C11.6293 12.731 11.325 12.4461 11.325 12.0919C11.325 11.7223 11.6293 11.4451 11.9727 11.4451C12.3394 11.4451 12.6438 11.7223 12.6438 12.0919C12.6438 12.4461 12.3394 12.731 11.9727 12.731ZM18.4651 16.8891C20.4237 17.6052 21.6801 17.3742 22 16.1884L15.6481 12.8773L12.4253 14.5483V14.6407L18.4651 16.8891ZM5.13695 18.7372C4.10691 18.7372 3.27975 17.9132 3.27975 16.8737C3.27975 15.8573 4.10691 15.0257 5.13695 15.0257C6.1826 15.0257 7.01756 15.8573 7.01756 16.8737C7.01756 17.9132 6.1826 18.7372 5.13695 18.7372Z" fill="black"/>
</svg>
