<svg width="24" height="24" viewBox="0 0 24 24" fill="none" xmlns="http://www.w3.org/2000/svg">
<path d="M4.66327 19.6149H19.3367C21.1179 19.6149 22 18.7413 22 16.9941V6.62935C22 4.8821 21.1179 4 19.3367 4H4.66327C2.89059 4 2 4.8821 2 6.62935V16.9941C2 18.7413 2.89059 19.6149 4.66327 19.6149ZM17.2502 10.8363C17.2502 9.47922 16.5208 8.75827 15.1383 8.75827H3.36556V6.70568C3.36556 5.82358 3.83206 5.36556 4.68024 5.36556H19.3198C20.1595 5.36556 20.6344 5.82358 20.6344 6.70568V16.9177C20.6344 17.7998 20.1595 18.2494 19.3198 18.2494H17.2502V10.8363ZM4.68024 18.2494C3.83206 18.2494 3.36556 17.7998 3.36556 16.9177V9.97116H11.4317V18.2494H4.68024ZM15.0534 9.97116C15.6726 9.97116 16.0373 10.3444 16.0373 10.972V18.2494H12.6446V9.97116H15.0534Z" fill="black"/>
</svg>
