<svg width="24" height="24" viewBox="0 0 24 24" fill="none" xmlns="http://www.w3.org/2000/svg">
<path d="M9.3125 7.19238C9.41797 7.19238 9.4707 7.13086 9.48828 7.03418C9.78711 5.62793 9.76953 5.5752 11.2461 5.27637C11.3428 5.25879 11.4131 5.19727 11.4131 5.10059C11.4131 4.99512 11.3428 4.93359 11.2461 4.91602C9.76953 4.61719 9.78711 4.56445 9.48828 3.16699C9.4707 3.07031 9.41797 3 9.3125 3C9.20703 3 9.1543 3.07031 9.13672 3.16699C8.83789 4.56445 8.85547 4.61719 7.37891 4.91602C7.28223 4.93359 7.21191 4.99512 7.21191 5.10059C7.21191 5.19727 7.28223 5.25879 7.37891 5.27637C8.85547 5.5752 8.83789 5.62793 9.13672 7.03418C9.1543 7.13086 9.20703 7.19238 9.3125 7.19238ZM16.5723 10.2949C16.6953 10.2949 16.7656 10.2158 16.792 10.1016C17.0908 8.43164 17.0996 8.32617 18.8662 8.01855C18.9893 8.00098 19.0684 7.92188 19.0684 7.79883C19.0684 7.67578 18.9893 7.60547 18.8662 7.5791C17.0996 7.28027 17.0908 7.1748 16.792 5.50488C16.7656 5.39062 16.6953 5.30273 16.5723 5.30273C16.4492 5.30273 16.3789 5.39062 16.3525 5.50488C16.0537 7.1748 16.0449 7.28027 14.2783 7.5791C14.1641 7.60547 14.0762 7.67578 14.0762 7.79883C14.0762 7.92188 14.1641 8.00098 14.2783 8.01855C16.0449 8.32617 16.0537 8.43164 16.3525 10.1016C16.3789 10.2158 16.4492 10.2949 16.5723 10.2949ZM4.49609 12.8174C4.61914 12.8174 4.68945 12.7295 4.71582 12.6152C5.01465 10.9453 5.02344 10.8398 6.79004 10.541C6.9043 10.5146 6.99219 10.4443 6.99219 10.3213C6.99219 10.1982 6.9043 10.1191 6.79004 10.1016C5.02344 9.79395 5.01465 9.68848 4.71582 8.01855C4.68945 7.9043 4.61914 7.8252 4.49609 7.8252C4.37305 7.8252 4.30273 7.9043 4.27637 8.01855C3.97754 9.68848 3.96875 9.79395 2.20215 10.1016C2.08789 10.1191 2 10.1982 2 10.3213C2 10.4443 2.08789 10.5146 2.20215 10.541C3.96875 10.8398 3.97754 10.9453 4.27637 12.6152C4.30273 12.7295 4.37305 12.8174 4.49609 12.8174ZM19.5078 20.332C19.877 20.71 20.5098 20.71 20.8613 20.332C21.2217 19.9453 21.2217 19.3477 20.8613 18.9785L12.5029 10.5938C12.1338 10.2246 11.501 10.2246 11.1494 10.5938C10.7803 10.9805 10.7891 11.5869 11.1494 11.9561L19.5078 20.332ZM8.6709 20.4727C8.8291 20.4727 8.94336 20.3584 8.96973 20.1914C9.25098 17.8447 9.36523 17.7832 11.7559 17.3965C11.9404 17.3613 12.0547 17.2734 12.0547 17.0977C12.0547 16.9307 11.9404 16.8252 11.791 16.7988C9.38281 16.3418 9.25098 16.3506 8.96973 14.0039C8.94336 13.8369 8.8291 13.7227 8.6709 13.7227C8.50391 13.7227 8.38965 13.8369 8.37207 13.9951C8.06445 16.377 7.98535 16.4561 5.55078 16.7988C5.40137 16.8164 5.28711 16.9307 5.28711 17.0977C5.28711 17.2646 5.40137 17.3613 5.55078 17.3965C7.98535 17.8623 8.05566 17.8623 8.37207 20.209C8.38965 20.3584 8.50391 20.4727 8.6709 20.4727ZM19.8154 19.7256L14.3926 14.2939L14.832 13.8721L20.2549 19.3037C20.4131 19.4531 20.4482 19.6289 20.3076 19.7871C20.1494 19.9189 19.9824 19.8926 19.8154 19.7256Z" fill="black"/>
</svg>
