<svg width="24" height="24" viewBox="0 0 24 24" fill="none" xmlns="http://www.w3.org/2000/svg">
<path d="M6.84961 12.4062C7.08691 12.3799 7.31543 12.3623 7.54395 12.3623C7.78125 12.3623 8.00977 12.3799 8.26465 12.4062V4.78613C8.26465 3.91602 8.73047 3.41504 9.64453 3.41504H13.5557V8.52148C13.5557 9.62891 14.1094 10.1738 15.208 10.1738H20.2178V18.0664C20.2178 18.9453 19.752 19.4287 18.8379 19.4287H13.0283C12.9141 19.9297 12.7207 20.4131 12.4658 20.8438H18.9082C20.7275 20.8438 21.6328 19.9209 21.6328 18.0928V10.1123C21.6328 8.97852 21.501 8.48633 20.7979 7.76562L15.9551 2.83496C15.2871 2.14941 14.7334 2 13.749 2H9.57422C7.76367 2 6.84961 2.93164 6.84961 4.75977V12.4062ZM14.8828 8.35449V3.6875L19.9453 8.84668H15.3662C15.0146 8.84668 14.8828 8.70605 14.8828 8.35449ZM7.1748 22.584H7.93066C8.21191 22.584 8.41406 22.4258 8.48438 22.1445L8.68652 21.2832C8.80957 21.248 8.9502 21.1865 9.07324 21.125L9.83789 21.582C10.0664 21.7314 10.3213 21.7314 10.5234 21.5205L11.042 20.9932C11.2266 20.791 11.2529 20.5449 11.0947 20.29L10.6465 19.5254C10.7256 19.4111 10.7607 19.2969 10.8047 19.1738L11.666 18.9717C11.9473 18.9014 12.1143 18.6904 12.1143 18.418V17.6709C12.1143 17.4072 11.9297 17.2139 11.666 17.1436L10.8135 16.9326C10.7607 16.7832 10.6992 16.6777 10.6553 16.5723L11.1299 15.79C11.2705 15.5615 11.2529 15.2803 11.0596 15.1045L10.5234 14.5859C10.3301 14.3838 10.0664 14.3398 9.84668 14.4893L9.07324 14.9727C8.93262 14.8936 8.80957 14.8584 8.68652 14.8145L8.48438 13.9355C8.41406 13.6719 8.21191 13.4961 7.93066 13.4961H7.1748C6.90234 13.4961 6.68262 13.6807 6.62988 13.9355L6.42773 14.8057C6.27832 14.8584 6.15527 14.8936 6.02344 14.9727L5.26758 14.4893C5.05664 14.3486 4.78418 14.3838 4.58203 14.5859L4.07227 15.1045C3.87891 15.2891 3.82617 15.5615 3.9668 15.79L4.4502 16.5723C4.40625 16.6777 4.35352 16.8008 4.30078 16.9326L3.43945 17.1436C3.17578 17.2139 3 17.416 3 17.6709V18.418C3 18.6904 3.17578 18.9014 3.43945 18.9717L4.30957 19.1738C4.3623 19.2969 4.40625 19.4111 4.45898 19.5254L4.01074 20.2988C3.87012 20.5449 3.8877 20.8086 4.08105 20.9932L4.58203 21.5205C4.78418 21.7314 5.04785 21.7227 5.27637 21.582L6.0498 21.125C6.19043 21.2041 6.31348 21.248 6.42773 21.2832L6.62988 22.1445C6.68262 22.4082 6.90234 22.584 7.1748 22.584ZM7.56152 19.5078C6.73535 19.5078 6.09375 18.8574 6.09375 18.0488C6.09375 17.249 6.73535 16.5811 7.56152 16.5723C8.35254 16.5635 9.02051 17.249 9.02051 18.0488C9.02051 18.8574 8.35254 19.5078 7.56152 19.5078Z" fill="black"/>
</svg>
