<svg width="24" height="24" viewBox="0 0 24 24" fill="none" xmlns="http://www.w3.org/2000/svg">
<path d="M8.71675 15.9748V14.9355H9.17084C9.49865 14.9355 9.68077 15.125 9.68077 15.4552C9.68077 15.8389 9.49622 15.9748 9.08099 15.9748H8.71675Z" fill="#1C1C1E"/>
<path d="M11.6479 16.9923V14.9525H12.0218C12.5731 14.9525 12.8232 15.2706 12.8232 15.9724C12.8232 16.6766 12.5731 16.9923 12.0218 16.9923H11.6479Z" fill="#1C1C1E"/>
<path fill-rule="evenodd" clip-rule="evenodd" d="M16.3186 20.8177H7.68143C5.94751 20.8177 5.04004 19.9021 5.04004 18.152V5.93356C5.04004 4.17534 5.94751 3.25977 7.68143 3.25977H11.3842V9.4014C11.3842 10.4142 11.8704 10.9003 12.8832 10.9003H18.96V18.152C18.96 19.9021 18.0606 20.8177 16.3186 20.8177ZM8.31124 17.6552C8.56863 17.6552 8.71432 17.4973 8.71432 17.223V16.5722H9.24854C10.0086 16.5722 10.4748 16.1667 10.4748 15.4406C10.4748 14.7583 10.0159 14.3163 9.28982 14.3163H8.4375C8.0587 14.3163 7.913 14.4693 7.913 14.8651V17.223C7.913 17.4998 8.05627 17.6552 8.31124 17.6552ZM10.8441 17.172C10.8441 17.4706 11.0093 17.6309 11.3128 17.6309H12.1457C13.1218 17.6309 13.6439 17.053 13.6439 15.9724C13.6439 14.8943 13.1218 14.3163 12.1457 14.3163H11.3128C11.0093 14.3163 10.8441 14.4766 10.8441 14.7753V17.172ZM14.8801 17.223C14.8801 17.4998 14.7393 17.6552 14.4868 17.6552C14.2269 17.6552 14.0764 17.4949 14.0764 17.223V14.7753C14.0764 14.479 14.2391 14.3163 14.5402 14.3163H16.0238C16.2084 14.3163 16.3419 14.4523 16.3419 14.6417C16.3419 14.8287 16.2084 14.9598 16.0238 14.9598H14.8801V15.7563H15.9C16.0918 15.7563 16.2181 15.8826 16.2181 16.0695C16.2181 16.2565 16.0894 16.3828 15.9 16.3828H14.8801V17.223Z" fill="#1C1C1E"/>
<path d="M18.879 9.71739H13.0371C12.7292 9.71739 12.5753 9.56345 12.5672 9.24745V3.34079C12.9399 3.3894 13.3045 3.66489 13.7096 4.07811L18.1416 8.56685C18.563 8.99628 18.8304 9.34468 18.879 9.71739Z" fill="#1C1C1E"/>
</svg>
