<svg width="24" height="24" viewBox="0 0 24 24" fill="none" xmlns="http://www.w3.org/2000/svg">
<path d="M11.9648 20.9297C16.8691 20.9297 20.9297 16.8604 20.9297 11.9648C20.9297 7.06055 16.8604 3 11.9561 3C7.06055 3 3 7.06055 3 11.9648C3 16.8604 7.06934 20.9297 11.9648 20.9297ZM11.9648 19.4355C7.81641 19.4355 4.50293 16.1133 4.50293 11.9648C4.50293 7.81641 7.80762 4.49414 11.9561 4.49414C16.1045 4.49414 19.4268 7.81641 19.4355 11.9648C19.4443 16.1133 16.1133 19.4355 11.9648 19.4355ZM11.7803 13.7842C12.2197 13.7842 12.4922 13.5029 12.4922 13.1602V13.0547C12.4922 12.5625 12.7734 12.2461 13.3887 11.8418C14.2412 11.2793 14.8477 10.7695 14.8477 9.71484C14.8477 8.25586 13.5469 7.46484 12.0527 7.46484C10.541 7.46484 9.54785 8.18555 9.31055 8.99414C9.2666 9.13477 9.24023 9.27539 9.24023 9.4248C9.24023 9.82031 9.54785 10.0312 9.83789 10.0312C10.1367 10.0312 10.3301 9.89062 10.4883 9.67969L10.6465 9.46875C10.9541 8.95898 11.4111 8.66016 12 8.66016C12.7998 8.66016 13.3184 9.11719 13.3184 9.78516C13.3184 10.3828 12.9492 10.6729 12.1846 11.209C11.5518 11.6484 11.0771 12.1143 11.0771 12.9756V13.0898C11.0771 13.5469 11.332 13.7842 11.7803 13.7842ZM11.7627 16.4033C12.2725 16.4033 12.7119 15.999 12.7119 15.4893C12.7119 14.9795 12.2812 14.5752 11.7627 14.5752C11.2441 14.5752 10.8135 14.9883 10.8135 15.4893C10.8135 15.9902 11.2529 16.4033 11.7627 16.4033Z" fill="#101935"/>
</svg>
