<svg width="24" height="24" viewBox="0 0 24 24" fill="none" xmlns="http://www.w3.org/2000/svg">
<path d="M20.1342 13.8115C19.6352 13.8115 19.2686 14.1684 19.2686 14.654V15.5957C19.2686 17.3005 18.077 18.4007 16.2234 18.4007H8.27944V16.1012C8.27944 15.6948 8.04519 15.4767 7.62763 15.4767C7.43412 15.4767 7.25079 15.5362 7.09803 15.6551L3.24827 18.7576C2.92236 19.035 2.91217 19.4315 3.24827 19.6992L7.09803 22.8116C7.25079 22.9305 7.43412 22.9999 7.62763 22.9999C8.04519 22.9999 8.27944 22.7718 8.27944 22.3753V20.0559H16.0604C19.0546 20.0559 21 18.4007 21 15.7146V14.654C21 14.1684 20.6232 13.8115 20.1342 13.8115Z" fill="black"/>
<path d="M4.73138 10.326C4.73138 10.8017 4.35455 11.1685 3.86569 11.1685C3.36664 11.1685 3 10.8017 3 10.326V9.26541C3 6.57929 4.94525 4.924 7.92933 4.924H15.7103V2.62445C15.7103 2.21806 15.9548 2 16.3723 2C16.5557 2 16.7492 2.05947 16.8917 2.17841L20.7415 5.29075C21.0878 5.56827 21.0674 5.97467 20.7415 6.23237L16.8917 9.33478C16.7492 9.45374 16.5557 9.52311 16.3723 9.52311C15.9548 9.52311 15.7103 9.29515 15.7103 8.89867V6.56938H7.76638C5.92296 6.56938 4.73138 7.67951 4.73138 9.38435V10.326Z" fill="black"/>
</svg>
