<svg width="24" height="24" viewBox="0 0 24 24" fill="none" xmlns="http://www.w3.org/2000/svg">
<path d="M12.9492 19.2432L18.4195 16.0721C19.0102 15.7275 19.2703 15.4322 19.2703 14.9893C19.2703 14.5393 19.0102 14.251 18.4195 13.8994L15.2344 12.0572L18.4195 10.208C19.0102 9.86348 19.2703 9.56816 19.2703 9.1252C19.2703 8.6752 19.0102 8.38691 18.4195 8.03535L12.9492 4.86426C12.5836 4.65332 12.2953 4.54785 12 4.54785C11.6977 4.54785 11.4094 4.65332 11.0437 4.86426L5.57344 8.03535C4.98281 8.38691 4.72266 8.6752 4.72266 9.1252C4.72266 9.56816 4.98281 9.86348 5.57344 10.208L8.75859 12.0572L5.57344 13.8994C4.98281 14.251 4.72266 14.5393 4.72266 14.9893C4.72266 15.4322 4.98281 15.7275 5.57344 16.0721L11.0437 19.2432C11.4094 19.4541 11.6977 19.5596 12 19.5596C12.2953 19.5596 12.5836 19.4541 12.9492 19.2432ZM12 13.6955C12.2953 13.6955 12.5836 13.5971 12.9492 13.3791L13.8422 12.8588L17.4633 14.9189C17.4914 14.94 17.5125 14.9541 17.5125 14.9893C17.5125 15.0174 17.4914 15.0385 17.4633 15.0525L12.2812 18.0057C12.1758 18.0619 12.0914 18.0971 12 18.0971C11.9016 18.0971 11.8172 18.0619 11.7117 18.0057L6.53672 15.0525C6.50156 15.0385 6.4875 15.0174 6.4875 14.9893C6.4875 14.9541 6.50156 14.94 6.53672 14.9189L10.1438 12.8588L11.0437 13.3791C11.4094 13.5971 11.6977 13.6955 12 13.6955Z" fill="#1C1C1E"/>
</svg>
