<svg width="24" height="24" viewBox="0 0 24 24" fill="none" xmlns="http://www.w3.org/2000/svg">
<path d="M8.38623 15.9738V14.935H8.8402C9.16927 14.935 9.34965 15.1233 9.34965 15.4544C9.34965 15.837 9.16529 15.9738 8.75098 15.9738H8.38623Z" fill="#1C1C1E"/>
<path fill-rule="evenodd" clip-rule="evenodd" d="M16.3196 20.8167H7.68051C5.94794 20.8167 5.04004 19.9009 5.04004 18.1524V5.93302C5.04004 4.17465 5.94794 3.25879 7.68051 3.25879H11.3835V9.4002C11.3835 10.4132 11.8712 10.8989 12.8842 10.8989H18.96V18.1524C18.96 19.9009 18.0601 20.8167 16.3196 20.8167ZM15.1837 17.7024C14.2639 17.7024 13.7227 17.1354 13.7227 16.1898V15.7478C13.7227 14.8299 14.2718 14.255 15.1638 14.255C15.5405 14.255 15.8735 14.3561 16.1174 14.5385C16.3354 14.6971 16.4781 14.9053 16.4781 15.0976C16.4781 15.2898 16.3453 15.4207 16.153 15.4207C16.0579 15.4207 15.9845 15.389 15.9152 15.3176L15.9013 15.3057C15.711 15.1134 15.5286 14.933 15.2233 14.933C14.7634 14.933 14.5236 15.2264 14.5236 15.7874V16.1879C14.5236 16.7409 14.7694 17.0442 15.2154 17.0442C15.5623 17.0442 15.7962 16.8401 15.7962 16.5368V16.396H15.4969C15.2868 16.396 15.1698 16.2949 15.1698 16.1105C15.1698 15.9282 15.2828 15.829 15.4969 15.829H16.0916C16.4127 15.829 16.5535 15.9658 16.5535 16.2751V16.4773C16.5535 17.2068 16.0024 17.7024 15.1837 17.7024ZM11.2586 17.2365V15.6487H11.2904L12.4183 17.3357C12.5828 17.5795 12.6919 17.6548 12.8723 17.6548C13.1181 17.6548 13.2489 17.4982 13.2489 17.2068V14.709C13.2489 14.4473 13.1082 14.2907 12.8723 14.2907C12.6384 14.2907 12.5036 14.4473 12.5036 14.709V16.2771H12.4718L11.3538 14.6119C11.1932 14.3779 11.0921 14.2907 10.9137 14.2907C10.6501 14.2907 10.5173 14.4513 10.5173 14.7625V17.2365C10.5173 17.4962 10.654 17.6548 10.8899 17.6548C11.1258 17.6548 11.2586 17.4982 11.2586 17.2365ZM7.98183 17.6548C8.23755 17.6548 8.38425 17.4962 8.38425 17.2227V16.5704H8.91749C9.67871 16.5704 10.1446 16.166 10.1446 15.4405C10.1446 14.7566 9.68467 14.3145 8.95913 14.3145H8.10672C7.72809 14.3145 7.58338 14.4691 7.58338 14.8636V17.2227C7.58338 17.4982 7.72611 17.6548 7.98183 17.6548Z" fill="#1C1C1E"/>
<path d="M18.8788 9.71539H13.0368C12.7295 9.71539 12.5749 9.56274 12.567 9.24556V3.34005C12.9397 3.38763 13.3044 3.6632 13.7088 4.07751L18.1413 8.5656C18.5636 8.99577 18.8312 9.3427 18.8788 9.71539Z" fill="#1C1C1E"/>
</svg>
