<svg width="24" height="24" viewBox="0 0 24 24" fill="none" xmlns="http://www.w3.org/2000/svg">
<path fill-rule="evenodd" clip-rule="evenodd" d="M3.50391 14.0014C3.50391 15.6777 4.42434 16.6505 6.17544 16.6505H6.39245V10.1924C6.39245 7.79773 7.88912 6.30855 10.2913 6.30855H16.5623V6.24121C16.5623 4.5425 15.6119 3.59961 13.8907 3.59961H6.17544C4.45427 3.59961 3.50391 4.5425 3.50391 6.25618V14.0014ZM10.2913 20.3996H17.8121C19.5331 20.3996 20.4835 19.4492 20.4835 17.743V10.1924C20.4835 8.47871 19.5331 7.53582 17.8121 7.53582H10.2913C8.57011 7.53582 7.61973 8.47871 7.61973 10.1924V17.743C7.61973 19.4492 8.57011 20.3996 10.2913 20.3996ZM14.6611 16.5278C14.6611 16.9056 14.4295 17.1677 14.0639 17.1677C13.6922 17.1677 13.4606 16.9056 13.4606 16.5278V14.5291H11.5654C11.1937 14.5291 10.9378 14.3036 10.9378 13.938C10.9378 13.5724 11.1937 13.3408 11.5654 13.3408H13.4606V11.3359C13.4606 10.9581 13.6922 10.6961 14.0639 10.6961C14.4295 10.6961 14.6611 10.9581 14.6611 11.3359V13.3408H16.5501C16.9218 13.3408 17.1839 13.5724 17.1839 13.938C17.1839 14.3036 16.9218 14.5291 16.5501 14.5291H14.6611V16.5278Z" fill="#1C1C1E"/>
</svg>
