<svg width="24" height="24" viewBox="0 0 24 24" fill="none" xmlns="http://www.w3.org/2000/svg">
<path d="M11.7451 20.6396C12.4951 20.6396 13.1689 20.5459 13.7666 20.3584C14.3643 20.1768 14.8975 19.8984 15.3662 19.5234L6.11133 10.2773V14.8477C6.11133 15.7676 6.24902 16.5879 6.52441 17.3086C6.80566 18.0234 7.19824 18.627 7.70215 19.1191C8.21191 19.6172 8.80957 19.9951 9.49512 20.2529C10.1865 20.5107 10.9365 20.6396 11.7451 20.6396ZM17.2734 17.0186C17.332 16.8955 17.3877 16.7695 17.4404 16.6406C17.499 16.5059 17.5488 16.3623 17.5898 16.21C17.7891 15.6885 17.9795 15.1406 18.1611 14.5664C18.3428 13.9863 18.5273 13.3857 18.7148 12.7646C18.7734 12.5596 18.8379 12.3428 18.9082 12.1143C18.9844 11.8857 19.0488 11.6719 19.1016 11.4727C19.1543 11.2734 19.1807 11.1152 19.1807 10.998C19.1807 10.7754 19.1074 10.5996 18.9609 10.4707C18.8145 10.3359 18.627 10.2686 18.3984 10.2686C18.1523 10.2686 17.9443 10.3506 17.7744 10.5146C17.6045 10.6729 17.4287 10.9365 17.2471 11.3057L16.1133 13.7578C16.0488 13.8984 15.9814 13.998 15.9111 14.0566C15.8408 14.1152 15.7676 14.1445 15.6914 14.1445C15.6035 14.1445 15.5303 14.1123 15.4717 14.0479C15.4131 13.9834 15.3838 13.8721 15.3838 13.7139V5.11816C15.3838 4.87793 15.2988 4.67578 15.1289 4.51172C14.959 4.3418 14.7539 4.25684 14.5137 4.25684C14.2734 4.25684 14.0684 4.3418 13.8984 4.51172C13.7344 4.67578 13.6523 4.87793 13.6523 5.11816V11.2441C13.5352 11.1973 13.4121 11.1592 13.2832 11.1299C13.1543 11.0947 13.0254 11.0596 12.8965 11.0244V3.86133C12.8965 3.62695 12.8115 3.4248 12.6416 3.25488C12.4717 3.08496 12.2666 3 12.0264 3C11.7861 3 11.5811 3.08496 11.4111 3.25488C11.2471 3.4248 11.165 3.62695 11.165 3.86133V10.5059C11.0713 10.5059 11.001 10.5117 10.9541 10.5234C10.9131 10.5293 10.8574 10.541 10.7871 10.5586L17.2734 17.0186ZM8.60742 8.37012L10.3389 10.1016V4.6084C10.3389 4.36816 10.2539 4.16602 10.084 4.00195C9.91406 3.83203 9.70898 3.74707 9.46875 3.74707C9.23438 3.74707 9.03223 3.83203 8.8623 4.00195C8.69238 4.16602 8.60742 4.36816 8.60742 4.6084V8.37012ZM6.69141 6.4541L7.84277 7.59668V7.18359C7.84277 6.94336 7.75781 6.73828 7.58789 6.56836C7.41797 6.39844 7.21289 6.31348 6.97266 6.31348C6.85547 6.31348 6.76172 6.36035 6.69141 6.4541ZM17.8975 20.6836C18.0088 20.7949 18.1465 20.8506 18.3105 20.8506C18.4746 20.8564 18.6123 20.8008 18.7236 20.6836C18.835 20.5664 18.8906 20.4287 18.8906 20.2705C18.8965 20.1123 18.8408 19.9746 18.7236 19.8574L3.99316 5.13574C3.88184 5.03027 3.74414 4.97461 3.58008 4.96875C3.42188 4.96289 3.28418 5.01855 3.16699 5.13574C3.05566 5.24707 3 5.38477 3 5.54883C3 5.71289 3.05566 5.85059 3.16699 5.96191L17.8975 20.6836Z" fill="black"/>
</svg>
