<svg width="24" height="24" viewBox="0 0 24 24" fill="none" xmlns="http://www.w3.org/2000/svg">
<path d="M11.6816 12.1475C13.7734 12.1475 15.4785 10.2842 15.4785 8.0166C15.4785 5.7666 13.7822 4 11.6816 4C9.59863 4 7.88477 5.80176 7.88477 8.03418C7.89355 10.293 9.58984 12.1475 11.6816 12.1475ZM11.6816 10.8203C10.3984 10.8203 9.2998 9.58984 9.2998 8.03418C9.2998 6.50488 10.3809 5.32715 11.6816 5.32715C12.9912 5.32715 14.0635 6.4873 14.0635 8.0166C14.0635 9.57227 12.9736 10.8203 11.6816 10.8203ZM6.15332 20.2773H17.2012C18.6602 20.2773 19.3545 19.8379 19.3545 18.8711C19.3545 16.5684 16.4453 13.2373 11.6816 13.2373C6.90918 13.2373 4 16.5684 4 18.8711C4 19.8379 4.69434 20.2773 6.15332 20.2773ZM5.74023 18.9502C5.51172 18.9502 5.41504 18.8887 5.41504 18.7041C5.41504 17.2627 7.64746 14.5645 11.6816 14.5645C15.707 14.5645 17.9395 17.2627 17.9395 18.7041C17.9395 18.8887 17.8516 18.9502 17.623 18.9502H5.74023Z" fill="black"/>
</svg>
