<svg width="24" height="24" viewBox="0 0 24 24" fill="none" xmlns="http://www.w3.org/2000/svg">
<path d="M6.55059 16.2404C6.25528 16.5358 6.24122 17.0631 6.55762 17.3725C6.867 17.6818 7.39434 17.6748 7.68966 17.3795L11.9928 13.0693L16.3029 17.3795C16.6053 17.6818 17.1256 17.6818 17.435 17.3725C17.7373 17.0561 17.7443 16.5428 17.435 16.2404L13.1318 11.9303L17.435 7.62716C17.7443 7.32481 17.7443 6.8045 17.435 6.49512C17.1186 6.19278 16.6053 6.18575 16.3029 6.48809L11.9928 10.7982L7.68966 6.48809C7.39434 6.19278 6.85997 6.17872 6.55762 6.49512C6.24825 6.8045 6.25528 7.33184 6.55059 7.62716L10.8607 11.9303L6.55059 16.2404Z" fill="#1C1C1E"/>
</svg>
