<svg width="24" height="24" viewBox="0 0 24 24" fill="none" xmlns="http://www.w3.org/2000/svg">
<path d="M6.75293 12.4062C6.99023 12.3799 7.21875 12.3623 7.44727 12.3623C7.68457 12.3623 7.91309 12.3799 8.16797 12.4062V4.78613C8.16797 3.91602 8.63379 3.41504 9.54785 3.41504H13.459V8.52148C13.459 9.62891 14.0127 10.1738 15.1113 10.1738H20.1211V18.0664C20.1211 18.9453 19.6553 19.4287 18.7412 19.4287H12.9316C12.8174 19.9297 12.624 20.4131 12.3691 20.8438H18.8115C20.6309 20.8438 21.5361 19.9209 21.5361 18.0928V10.1123C21.5361 8.97852 21.4043 8.48633 20.7012 7.76562L15.8584 2.83496C15.1904 2.14941 14.6367 2 13.6523 2H9.47754C7.66699 2 6.75293 2.93164 6.75293 4.75977V12.4062ZM14.7861 8.35449V3.6875L19.8486 8.84668H15.2695C14.918 8.84668 14.7861 8.70605 14.7861 8.35449ZM7.46484 22.5049C9.88184 22.5049 11.9297 20.4746 11.9297 18.04C11.9297 15.5879 9.91699 13.5752 7.46484 13.5752C5.0127 13.5752 3 15.5879 3 18.04C3 20.4922 5.0127 22.5049 7.46484 22.5049ZM7.46484 20.835C7.13965 20.835 6.92871 20.6152 6.92871 20.2988V18.5762H5.20605C4.88965 18.5762 4.66992 18.3652 4.66992 18.04C4.66992 17.7148 4.88965 17.4951 5.20605 17.4951H6.92871V15.7812C6.92871 15.4648 7.13965 15.2451 7.46484 15.2451C7.79004 15.2451 8.00098 15.4648 8.00098 15.7812V17.4951H9.71484C10.04 17.4951 10.2598 17.7148 10.2598 18.04C10.2598 18.3652 10.04 18.5762 9.71484 18.5762H8.00098V20.2988C8.00098 20.6152 7.79004 20.835 7.46484 20.835Z" fill="black"/>
</svg>
