<svg width="24" height="24" viewBox="0 0 24 24" fill="none" xmlns="http://www.w3.org/2000/svg">
<path d="M3 10.0137C3 13.8809 6.14648 17.0273 10.0137 17.0273C11.543 17.0273 12.9404 16.5352 14.0918 15.709L18.416 20.042C18.6182 20.2441 18.8818 20.3408 19.1631 20.3408C19.7607 20.3408 20.1738 19.8926 20.1738 19.3037C20.1738 19.0225 20.0684 18.7676 19.8838 18.583L15.5859 14.2588C16.4912 13.0811 17.0273 11.6133 17.0273 10.0137C17.0273 6.14648 13.8809 3 10.0137 3C6.14648 3 3 6.14648 3 10.0137ZM4.50293 10.0137C4.50293 6.97266 6.97266 4.50293 10.0137 4.50293C13.0547 4.50293 15.5244 6.97266 15.5244 10.0137C15.5244 13.0547 13.0547 15.5244 10.0137 15.5244C6.97266 15.5244 4.50293 13.0547 4.50293 10.0137ZM6.91992 9.65332C6.91992 10.1279 7.4209 10.1895 7.67578 9.94336L8.41406 9.21387L10.7783 11.5781L10.0137 12.3252C9.74121 12.5889 9.8291 13.0811 10.3037 13.0811H12.5801C12.8965 13.0811 13.0723 12.8789 13.0723 12.5186V10.3564C13.0723 9.88184 12.5713 9.82031 12.3164 10.0664L11.5869 10.7871L9.22266 8.42285L9.97852 7.68457C10.251 7.4209 10.1631 6.92871 9.68848 6.92871H7.41211C7.0957 6.92871 6.91992 7.13086 6.91992 7.49121V9.65332Z" fill="black"/>
</svg>
