<svg width="24" height="24" viewBox="0 0 24 24" fill="none" xmlns="http://www.w3.org/2000/svg">
<path d="M5.88281 20.4092H17.9766C19.875 20.4092 20.8594 19.4248 20.8594 17.5527V6.85645C20.8594 4.97559 19.875 4 17.9766 4H5.88281C3.98438 4 3 4.97559 3 6.85645V17.5527C3 19.4336 3.98438 20.4092 5.88281 20.4092ZM5.85645 18.6865C5.12695 18.6865 4.72266 18.2998 4.72266 17.5352V9.41406C4.72266 8.64062 5.12695 8.2627 5.85645 8.2627H17.9854C18.7236 8.2627 19.1367 8.64062 19.1367 9.41406V17.5352C19.1367 18.2998 18.7236 18.6865 17.9854 18.6865H5.85645Z" fill="black"/>
</svg>
