<svg width="24" height="24" viewBox="0 0 24 24" fill="none" xmlns="http://www.w3.org/2000/svg">
<path d="M1 19.4287C1 20.7822 1.65039 21.4502 3.00391 21.4502H15.0098C16.3545 21.4502 17.0137 20.7822 17.0137 19.4287V12.793L17.8047 19.6748C17.9717 21.0107 18.6836 21.6348 20.0283 21.4502L20.9424 21.3271C22.2871 21.1426 22.8408 20.4307 22.6914 19.0947L21.1797 5.95508C21.0215 4.61914 20.3008 3.98633 18.9561 4.17969L18.042 4.30273C17.6201 4.35547 17.2773 4.46973 17.0137 4.62793V4.03027C17.0137 2.67676 16.3545 2 15.0098 2H13.2871C11.9424 2 11.2832 2.67676 11.2832 4.03027V7.51953C11.0898 7.47559 10.8613 7.44043 10.6152 7.44043H6.7832C6.52832 7.44043 6.30859 7.47559 6.10645 7.51953V6.46484C6.10645 5.11133 5.45605 4.43457 4.11133 4.43457H3.00391C1.65039 4.43457 1 5.11133 1 6.46484V19.4287ZM12.6104 20.123V4.12695C12.6104 3.6084 12.8828 3.32715 13.4277 3.32715H14.8691C15.4229 3.32715 15.6865 3.6084 15.6865 4.12695V19.3232C15.6865 19.8418 15.4229 20.123 14.8691 20.123H12.6104ZM19.1055 19.4111L17.6201 6.48242C17.5586 5.96387 17.7959 5.67383 18.3408 5.59473L18.9736 5.51562C19.5186 5.43652 19.8174 5.7002 19.8789 6.20996L21.3643 19.1387C21.4258 19.666 21.1885 19.9473 20.6523 20.0264L20.002 20.1143C19.4658 20.1934 19.167 19.9385 19.1055 19.4111ZM2.32715 19.3232V6.56152C2.32715 6.04297 2.59961 5.76172 3.14453 5.76172H3.9707C4.51562 5.76172 4.7793 6.04297 4.7793 6.56152V20.123H3.14453C2.59961 20.123 2.32715 19.8418 2.32715 19.3232ZM6.10645 20.123V9.56738C6.10645 9.04883 6.37891 8.76758 6.92383 8.76758H10.4746C11.0195 8.76758 11.2832 9.04883 11.2832 9.56738V20.123H6.10645ZM6.90625 10.4727C6.90625 10.7803 7.13477 11.0176 7.45996 11.0176H9.95605C10.2637 11.0176 10.501 10.7803 10.501 10.4727C10.501 10.1738 10.2637 9.93652 9.95605 9.93652H7.45996C7.13477 9.93652 6.90625 10.1738 6.90625 10.4727ZM6.90625 18.418C6.90625 18.7256 7.13477 18.9629 7.45996 18.9629H9.95605C10.2637 18.9629 10.501 18.7256 10.501 18.418C10.501 18.1191 10.2637 17.8818 9.95605 17.8818H7.45996C7.13477 17.8818 6.90625 18.1191 6.90625 18.418Z" fill="black"/>
</svg>
