<svg width="24" height="24" viewBox="0 0 24 24" fill="none" xmlns="http://www.w3.org/2000/svg">
<path d="M7.72461 21.8438H17.0586C18.8779 21.8438 19.7832 20.9209 19.7832 19.0928V11.1123C19.7832 9.97852 19.6514 9.48633 18.9482 8.76562L14.1055 3.83496C13.4375 3.14941 12.8838 3 11.8994 3H7.72461C5.91406 3 5 3.93164 5 5.75977V19.0928C5 20.9297 5.90527 21.8438 7.72461 21.8438ZM7.78613 20.4287C6.88086 20.4287 6.41504 19.9453 6.41504 19.0664V5.78613C6.41504 4.91602 6.88086 4.41504 7.79492 4.41504H11.7061V9.52148C11.7061 10.6289 12.2598 11.1738 13.3584 11.1738H18.3682V19.0664C18.3682 19.9453 17.9023 20.4287 16.9883 20.4287H7.78613ZM13.5166 9.84668C13.165 9.84668 13.0332 9.70605 13.0332 9.35449V4.6875L18.0957 9.84668H13.5166Z" fill="black"/>
</svg>
