<svg width="24" height="24" viewBox="0 0 24 24" fill="none" xmlns="http://www.w3.org/2000/svg">
<path d="M11.7959 16.1924C11.9805 16.1924 12.1299 16.1396 12.3057 15.9639L15.2764 13.0898C15.4082 12.958 15.4873 12.8174 15.4873 12.6328C15.4873 12.2725 15.2061 12.0176 14.8457 12.0176C14.6699 12.0176 14.4941 12.0879 14.3711 12.2285L13.0352 13.6436L12.4463 14.2676L12.499 12.9492V3.68555C12.499 3.31641 12.1738 3 11.7959 3C11.418 3 11.1016 3.31641 11.1016 3.68555V12.9492L11.1543 14.2676L10.5566 13.6436L9.22949 12.2285C9.10645 12.0879 8.91309 12.0176 8.74609 12.0176C8.37695 12.0176 8.11328 12.2725 8.11328 12.6328C8.11328 12.8174 8.18359 12.958 8.31543 13.0898L11.2861 15.9639C11.4707 16.1396 11.6201 16.1924 11.7959 16.1924ZM6.75977 21.9756H16.8408C18.6777 21.9756 19.6006 21.0615 19.6006 19.251V10.4795C19.6006 8.66895 18.6777 7.75488 16.8408 7.75488H14.3887V9.16992H16.8145C17.6846 9.16992 18.1855 9.64453 18.1855 10.5586V19.1719C18.1855 20.0859 17.6846 20.5605 16.8145 20.5605H6.77734C5.89844 20.5605 5.41504 20.0859 5.41504 19.1719V10.5586C5.41504 9.64453 5.89844 9.16992 6.77734 9.16992H9.21191V7.75488H6.75977C4.92285 7.75488 4 8.66895 4 10.4795V19.251C4 21.0615 4.92285 21.9756 6.75977 21.9756Z" fill="black"/>
</svg>
