<svg width="24" height="24" viewBox="0 0 24 24" fill="none" xmlns="http://www.w3.org/2000/svg">
<path d="M6.87422 5.98184H17.1117V5.87637C17.1117 4.81465 16.2609 4.31543 15.0797 4.31543H8.91328C7.78125 4.31543 6.87422 4.81465 6.87422 5.87637V5.98184ZM8.23125 19.6998H15.7617C16.7672 19.6998 17.2664 19.2428 17.2664 18.1951V17.0068H17.7656C19.193 17.0068 19.9734 16.2615 19.9734 14.8271V9.17402C19.9734 7.73965 19.193 6.99434 17.7656 6.99434H6.22734C4.84922 6.99434 4.01953 7.73965 4.01953 9.17402V14.8271C4.01953 16.2615 4.79297 17.0068 6.22734 17.0068H6.71953V18.1951C6.71953 19.2428 7.21875 19.6998 8.23125 19.6998ZM15.3398 9.43418C15.3398 8.93496 15.7687 8.49902 16.282 8.49902C16.7883 8.49902 17.2172 8.93496 17.2172 9.43418C17.2172 9.95449 16.7883 10.3623 16.282 10.3693C15.7687 10.3693 15.3398 9.95449 15.3398 9.43418ZM8.51953 18.4764C8.18203 18.4764 8.01328 18.3146 8.01328 17.9701V12.8725C8.01328 12.535 8.18203 12.3732 8.51953 12.3732H15.4805C15.818 12.3732 15.9797 12.535 15.9797 12.8725V17.9701C15.9797 18.3146 15.818 18.4764 15.4805 18.4764H8.51953ZM9.67969 14.7287H14.3203C14.5945 14.7287 14.8055 14.5107 14.8055 14.2365C14.8055 13.9764 14.5945 13.7654 14.3203 13.7654H9.67969C9.39844 13.7654 9.19453 13.9764 9.19453 14.2365C9.19453 14.5107 9.40547 14.7287 9.67969 14.7287ZM9.67969 17.1123H14.3203C14.5945 17.1123 14.8055 16.9014 14.8055 16.6412C14.8055 16.367 14.5945 16.1561 14.3203 16.1561H9.67969C9.40547 16.1561 9.19453 16.367 9.19453 16.6412C9.19453 16.9014 9.39844 17.1123 9.67969 17.1123Z" fill="#1C1C1E"/>
</svg>
