<svg width="24" height="24" viewBox="0 0 24 24" fill="none" xmlns="http://www.w3.org/2000/svg">
<path d="M16.8726 17.2533H17.0905C18.4335 17.2533 19.3265 16.515 19.3265 14.94V8.30957H15.3749C14.6647 8.30957 14.2218 7.8666 14.2218 7.15645V2.96582H10.439C8.96943 2.96582 8.16084 3.76738 8.16084 5.22285V5.55332H9.24365C10.3476 5.55332 11.1491 5.81348 11.9296 6.58691L15.9233 10.5807C16.6827 11.34 16.8726 12.2119 16.8726 13.2596V17.2533ZM15.5718 7.36035H19.214C19.1788 7.12129 19.003 6.90332 18.7358 6.6291L15.8952 3.71816C15.6351 3.45098 15.4101 3.2752 15.171 3.24707L15.178 6.95957C15.178 7.24082 15.2905 7.36035 15.5718 7.36035ZM6.96553 20.8674H13.5468C15.0515 20.8674 15.839 20.0729 15.839 18.5541V13.1049H10.8257C9.93271 13.1049 9.49678 12.6619 9.49678 11.7689V6.57988H6.96553C5.46084 6.57988 4.67334 7.38145 4.67334 8.9002V18.5541C4.67334 20.0799 5.46084 20.8674 6.96553 20.8674ZM10.9101 12.0713H15.7124C15.628 11.7689 15.4452 11.4807 15.1288 11.1572L11.4233 7.39551C11.0999 7.07207 10.8257 6.8541 10.5233 6.7627V11.6846C10.5233 11.9377 10.6569 12.0713 10.9101 12.0713Z" fill="#1C1C1E"/>
</svg>
