<svg width="24" height="24" viewBox="0 0 24 24" fill="none" xmlns="http://www.w3.org/2000/svg">
<path d="M17.7832 9.09961C19.4443 9.09961 20.8242 7.71973 20.8242 6.0498C20.8242 4.37988 19.4443 3 17.7832 3C16.1045 3 14.7334 4.37988 14.7334 6.0498C14.7334 7.71973 16.1045 9.09961 17.7832 9.09961ZM3 16.0693C3 17.5723 3.13184 18.8203 4.02832 19.7168C4.9248 20.6133 6.19043 20.7539 7.68457 20.7539H14.5137C16.0166 20.7539 17.2822 20.6133 18.1787 19.7168C19.0752 18.8203 19.207 17.5723 19.207 16.0693V10.084C18.8203 10.2158 18.3984 10.2861 17.959 10.2686C17.8975 10.2861 17.8535 10.2861 17.792 10.2949V16.3066C17.792 17.2207 17.6777 18.1523 17.1416 18.6885C16.6143 19.2158 15.665 19.3389 14.7598 19.3389H7.44727C6.54199 19.3389 5.59277 19.2158 5.05664 18.6885C4.5293 18.1523 4.41504 17.2207 4.41504 16.3066V9.09082C4.41504 8.16797 4.5293 7.21875 5.05664 6.69141C5.59277 6.15527 6.55078 6.04102 7.47363 6.04102H13.5381C13.5381 5.97949 13.5469 5.92676 13.5557 5.87402C13.5381 5.43457 13.6084 5.0127 13.7402 4.62598H7.66699C6.19043 4.62598 4.9248 4.7666 4.02832 5.66309C3.13184 6.55957 3 7.81641 3 9.28418V16.0693Z" fill="black"/>
</svg>
