<svg width="24" height="24" viewBox="0 0 24 24" fill="none" xmlns="http://www.w3.org/2000/svg">
<path d="M12.9492 19.2432L18.4195 16.0721C19.0102 15.7275 19.2703 15.4322 19.2703 14.9893C19.2703 14.5393 19.0102 14.251 18.4195 13.8994L15.2344 12.0572L18.4195 10.208C19.0102 9.86348 19.2703 9.56816 19.2703 9.1252C19.2703 8.6752 19.0102 8.38691 18.4195 8.03535L12.9492 4.86426C12.5836 4.65332 12.2953 4.54785 12 4.54785C11.6977 4.54785 11.4094 4.65332 11.0438 4.86426L5.57344 8.03535C4.98281 8.38691 4.72266 8.6752 4.72266 9.1252C4.72266 9.56816 4.98281 9.86348 5.57344 10.208L8.75859 12.0572L5.57344 13.8994C4.98281 14.251 4.72266 14.5393 4.72266 14.9893C4.72266 15.4322 4.98281 15.7275 5.57344 16.0721L11.0438 19.2432C11.4094 19.4541 11.6977 19.5596 12 19.5596C12.2953 19.5596 12.5836 19.4541 12.9492 19.2432ZM12 12.233C11.9016 12.233 11.8172 12.1979 11.7117 12.1416L6.53672 9.18848C6.50156 9.17441 6.4875 9.15332 6.4875 9.1252C6.4875 9.09004 6.50156 9.07598 6.53672 9.05488L11.7117 6.10879C11.8172 6.04551 11.9016 6.01738 12 6.01738C12.0914 6.01738 12.1758 6.04551 12.2812 6.10879L17.4633 9.05488C17.4914 9.07598 17.5125 9.09004 17.5125 9.1252C17.5125 9.15332 17.4914 9.17441 17.4633 9.18848L12.2812 12.1416C12.1758 12.1979 12.0914 12.233 12 12.233Z" fill="#1C1C1E"/>
</svg>
