<svg width="23" height="23" viewBox="0 0 23 23" fill="none" xmlns="http://www.w3.org/2000/svg">
<path d="M18.4642 10.6686V13.237H19.1966V10.6686H18.4642ZM16.6583 7.42996H17.1539C17.8763 7.42996 18.4622 8.01589 18.4622 8.73826V9.40445H19.1946V8.73826C19.1946 7.61055 18.2816 6.69756 17.1539 6.69756H16.6583V7.42996ZM12.8357 11.7261V11.7622L12.7735 15.0229L12.7655 15.4343H4.75919C3.71777 15.4343 2.875 14.5915 2.875 13.5501V4.75919C2.875 3.71777 3.71777 2.875 4.75919 2.875H13.5501C14.5915 2.875 15.4343 3.71777 15.4343 4.75919V10.4639L14.8844 10.2833C14.7239 10.2312 14.5634 10.2031 14.4049 10.2031C14.2163 10.2031 14.0296 10.2372 13.847 10.3054C13.2551 10.5281 12.8698 11.0679 12.8377 11.7241L12.8357 11.7261ZM14.5353 7.42795V6.69555H11.3549V7.42795H14.5353ZM7.47611 9.4205V8.73625C7.47611 8.01388 8.06204 7.42795 8.78441 7.42795H9.27001V6.69555H8.78441C7.65671 6.69555 6.74371 7.60855 6.74371 8.73625V9.4205H7.47611ZM7.47611 11.4893H6.74371V14.5453H7.47611V11.4893ZM9.44859 18.4181H8.7824C8.06003 18.4181 7.47411 17.8321 7.47411 17.1098V16.6302H6.7417V17.1098C6.7417 18.2375 7.6547 19.1505 8.7824 19.1505H9.44859V18.4181ZM13.1427 18.412H10.6987V19.1565H13.1427V18.412ZM13.9674 18.1753C13.9674 18.3438 14.0437 18.4542 14.1922 18.4983C14.3427 18.5425 14.4711 18.5104 14.5815 18.402L15.7874 17.2061L17.1158 20.4969C17.1499 20.5792 17.2041 20.6373 17.2783 20.6715C17.3546 20.7056 17.4288 20.7096 17.503 20.6815L18.3719 20.3343C18.4482 20.3002 18.4983 20.242 18.5244 20.1618C18.5505 20.0795 18.5445 20.0033 18.5023 19.927L17.0917 16.6663L18.7672 16.564C18.9297 16.5579 19.0421 16.4917 19.1003 16.3653C19.1585 16.2389 19.1304 16.1145 19.012 15.9921L14.6376 11.5776C14.5293 11.4692 14.4109 11.4371 14.2865 11.4853C14.1601 11.5334 14.0939 11.6358 14.0878 11.7903L13.9654 18.1793H13.9674V18.1753Z" fill="black"/>
</svg>
