<svg width="24" height="24" viewBox="0 0 24 24" fill="none" xmlns="http://www.w3.org/2000/svg">
<path fill-rule="evenodd" clip-rule="evenodd" d="M8.72829 12.9405C9.76017 13.9724 11.3639 14.084 12.5194 13.2752C12.322 13.4133 12.1116 13.5247 11.8932 13.6092C12.6367 15.7302 12.1651 18.1753 10.4795 19.8609C10.2698 20.0706 10.2698 20.4106 10.4795 20.6203C10.6892 20.83 11.0292 20.83 11.2389 20.6203C13.0741 18.785 13.6872 16.191 13.0842 13.84L14.5631 15.3189C14.3676 15.8004 14.4652 16.3731 14.8558 16.7636C15.3764 17.2843 16.2205 17.2843 16.7412 16.7636C17.2618 16.243 17.2618 15.3989 16.7412 14.8782C16.3607 14.4977 15.8074 14.3953 15.3339 14.571L13.274 12.511C13.2681 12.5197 13.2622 12.5283 13.2562 12.537C14.0612 11.3818 13.9485 9.78117 12.918 8.75075C11.8953 7.728 10.3108 7.60935 9.15775 8.39478L7.09781 6.33484C7.27345 5.86134 7.17103 5.30808 6.79054 4.92759C6.26991 4.40695 5.42579 4.40695 4.90515 4.92759C4.38451 5.44822 4.38451 6.29234 4.90515 6.81298C5.29572 7.20355 5.86834 7.30112 6.34987 7.10569L7.93749 8.69331C5.58655 8.09032 2.99252 8.70339 1.15728 10.5386C0.947575 10.7483 0.947575 11.0883 1.15728 11.298C1.36698 11.5077 1.70697 11.5077 1.91667 11.298C3.56726 9.64745 5.94616 9.16094 8.03586 9.8396C7.65898 10.886 7.88979 12.102 8.72829 12.9405ZM9.48768 12.1811C10.2253 12.9187 11.4211 12.9187 12.1587 12.1811C12.8962 11.4435 12.8962 10.2477 12.1587 9.51014C11.4211 8.77257 10.2253 8.77257 9.48768 9.51014C8.75011 10.2477 8.75011 11.4435 9.48768 12.1811Z" fill="#1C1C1E" stroke="#1C1C1E" stroke-width="0.472423"/>
<path d="M16.0821 6C15.4883 6 15 5.55151 15 5.00606C15 4.44848 15.4883 4 16.0821 4H18.4179H20.5821H22.9179C23.5117 4 24 4.44848 24 5.00606C24 5.55151 23.5117 6 22.9179 6H20.5821H18.4179H16.0821Z" fill="#1C1C1E"/>
</svg>
