<svg width="24" height="24" viewBox="0 0 24 24" fill="none" xmlns="http://www.w3.org/2000/svg">
<path d="M10.479 7.27754C10.479 8.53195 11.263 9.41004 12.7558 9.82399L15.9106 10.7146C16.9455 11.0094 17.4724 11.5425 17.4724 12.2952V12.5962C16.6005 12.822 15.9545 13.6123 15.9545 14.5594C15.9545 15.6695 16.864 16.5727 17.9804 16.5727C19.0968 16.5727 20 15.6695 20 14.5594C20 13.6123 19.354 12.822 18.4822 12.5962V12.2952C18.4822 11.047 17.7044 10.169 16.2117 9.755L13.0568 8.86437C12.0282 8.57585 11.4888 8.03018 11.4888 7.27754V6.98275C12.3669 6.75696 13.0067 5.96668 13.0067 5.0196C13.0067 3.90945 12.1035 3 10.9871 3C9.87064 3 8.96746 3.90945 8.96746 5.0196C8.96746 5.96668 9.61348 6.75696 10.479 6.98275V7.27754Z" fill="#1C1C1E"/>
<path d="M5.51156 10.8426C5.51156 12.097 6.29557 12.9751 7.78832 13.389L10.9432 14.2797C11.978 14.5744 12.5049 15.1076 12.5049 15.8602V16.1613C11.6331 16.3871 10.9871 17.1773 10.9871 18.1244C10.9871 19.2346 11.8965 20.1378 13.0129 20.1378C14.1294 20.1378 15.0325 19.2346 15.0325 18.1244C15.0325 17.1773 14.3865 16.3871 13.5147 16.1613V15.8602C13.5147 14.6121 12.737 13.734 11.2442 13.32L8.08938 12.4294C7.06076 12.1409 6.52136 11.5952 6.52136 10.8426V10.5478C7.39945 10.322 8.0392 9.53171 8.0392 8.58463C8.0392 7.47448 7.13602 6.56503 6.0196 6.56503C4.90318 6.56503 4 7.47448 4 8.58463C4 9.53171 4.64602 10.322 5.51156 10.5478V10.8426Z" fill="#1C1C1E"/>
</svg>
