<svg width="24" height="24" viewBox="0 0 24 24" fill="none" xmlns="http://www.w3.org/2000/svg">
<path d="M16 5C16 5.52786 16.434 5.96188 16.9619 5.96188H19.0381V8.02639C19.0381 8.56598 19.4604 9 20 9C20.5396 9 20.9619 8.56598 20.9619 8.02639V5.96188H23.0381C23.566 5.96188 24 5.52786 24 5C24 4.46041 23.566 4.02639 23.0381 4.02639H20.9619V1.96188C20.9619 1.42229 20.5396 1 20 1C19.4604 1 19.0381 1.42229 19.0381 1.96188V4.02639H16.9619C16.434 4.02639 16 4.46041 16 5Z" fill="#1C1C1E"/>
<path fill-rule="evenodd" clip-rule="evenodd" d="M8.72829 13.2833C9.76017 14.3152 11.3639 14.4267 12.5194 13.618C12.322 13.7561 12.1116 13.8675 11.8932 13.9519C12.6367 16.0729 12.1651 18.518 10.4795 20.2036C10.2698 20.4133 10.2698 20.7533 10.4795 20.963C10.6892 21.1727 11.0292 21.1727 11.2389 20.963C13.0741 19.1278 13.6872 16.5337 13.0842 14.1828L14.5631 15.6617C14.3676 16.1432 14.4652 16.7158 14.8558 17.1064C15.3764 17.627 16.2205 17.627 16.7412 17.1064C17.2618 16.5858 17.2618 15.7416 16.7412 15.221C16.3607 14.8405 15.8074 14.7381 15.3339 14.9137L13.274 12.8538C13.2681 12.8625 13.2622 12.8711 13.2562 12.8797C14.0612 11.7246 13.9485 10.1239 12.918 9.09352C11.8953 8.07078 10.3108 7.95212 9.15775 8.73756L7.09781 6.67761C7.27345 6.20411 7.17103 5.65085 6.79054 5.27036C6.26991 4.74972 5.42579 4.74972 4.90515 5.27036C4.38451 5.791 4.38451 6.63512 4.90515 7.15575C5.29572 7.54633 5.86834 7.6439 6.34987 7.44847L7.93749 9.03608C5.58655 8.4331 2.99252 9.04616 1.15728 10.8814C0.947575 11.0911 0.947575 11.4311 1.15728 11.6408C1.36698 11.8505 1.70697 11.8505 1.91667 11.6408C3.56726 9.99022 5.94616 9.50371 8.03586 10.1824C7.65898 11.2287 7.88979 12.4448 8.72829 13.2833ZM9.48768 12.5239C10.2253 13.2615 11.4211 13.2615 12.1587 12.5239C12.8962 11.7863 12.8962 10.5905 12.1587 9.85292C11.4211 9.11535 10.2253 9.11535 9.48768 9.85292C8.75011 10.5905 8.75011 11.7863 9.48768 12.5239Z" fill="#1C1C1E" stroke="#1C1C1E" stroke-width="0.472423"/>
</svg>
