<svg width="24" height="24" viewBox="0 0 24 24" fill="none" xmlns="http://www.w3.org/2000/svg">
<path d="M11.1519 9.60974C11.1519 10.3066 11.5874 10.7943 12.4166 11.0243L14.1691 11.519C14.744 11.6828 15.0367 11.9789 15.0367 12.397V12.5642C14.5524 12.6897 14.1935 13.1287 14.1935 13.6548C14.1935 14.2714 14.6987 14.7732 15.3189 14.7732C15.939 14.7732 16.4407 14.2714 16.4407 13.6548C16.4407 13.1287 16.0819 12.6897 15.5976 12.5642V12.397C15.5976 11.7037 15.1656 11.2159 14.3364 10.986L12.5839 10.4912C12.0125 10.3309 11.7128 10.0278 11.7128 9.60974V9.44599C12.2006 9.32056 12.556 8.88157 12.556 8.35547C12.556 7.73879 12.0543 7.2336 11.4341 7.2336C10.8139 7.2336 10.3122 7.73879 10.3122 8.35547C10.3122 8.88157 10.6711 9.32056 11.1519 9.44599V9.60974Z" fill="#1C1C1E"/>
<path d="M8.39251 11.5901C8.39251 12.2869 8.82802 12.7747 9.65723 13.0046L11.4097 13.4994C11.9846 13.6631 12.2773 13.9593 12.2773 14.3774V14.5446C11.793 14.67 11.4341 15.109 11.4341 15.6351C11.4341 16.2518 11.9393 16.7535 12.5595 16.7535C13.1796 16.7535 13.6813 16.2518 13.6813 15.6351C13.6813 15.109 13.3225 14.67 12.8382 14.5446V14.3774C12.8382 13.684 12.4062 13.1963 11.577 12.9663L9.82447 12.4716C9.25308 12.3113 8.95344 12.0082 8.95344 11.5901V11.4263C9.44122 11.3009 9.79659 10.8619 9.79659 10.3358C9.79659 9.71914 9.29489 9.21395 8.67472 9.21395C8.05455 9.21395 7.55284 9.71914 7.55284 10.3358C7.55284 10.8619 7.9117 11.3009 8.39251 11.4263V11.5901Z" fill="#1C1C1E"/>
<path d="M5.65811 20C6.40194 20 7.03729 19.5041 7.23874 18.8223H16.7613C16.9627 19.5041 17.5981 20 18.3419 20C19.2562 20 20 19.2562 20 18.3419C20 17.5903 19.5041 16.9627 18.8223 16.7535V7.23874C19.5041 7.02954 20 6.40194 20 5.65036C20 4.73608 19.2562 4 18.3419 4C17.5981 4 16.9627 4.49588 16.7613 5.16998H7.23874C7.03729 4.49588 6.40194 4 5.65811 4C4.74383 4 4 4.73608 4 5.65036C4 6.40194 4.49588 7.02954 5.17772 7.23874V16.7535C4.49588 16.9627 4 17.5903 4 18.3419C4 19.2562 4.74383 20 5.65811 20ZM7.23874 17.8615C7.08378 17.3346 6.66538 16.9162 6.1385 16.7535V7.23874C6.66538 7.07603 7.08378 6.65763 7.23874 6.13075H16.7613C16.9162 6.66538 17.3346 7.07603 17.8693 7.23874V16.7535C17.3346 16.9162 16.9162 17.3346 16.7613 17.8615H7.23874Z" fill="#1C1C1E"/>
</svg>
