<svg width="24" height="24" viewBox="0 0 24 24" fill="none" xmlns="http://www.w3.org/2000/svg">
<path d="M4.11646 8.62842H5.96753V7.16748C5.96753 6.40381 6.35767 6.03857 7.08813 6.03857H8.52417V4.1875H6.93042C5.09595 4.1875 4.11646 5.15869 4.11646 6.97656V8.62842ZM9.79419 6.03857H14.094V4.1875H9.79419V6.03857ZM17.929 8.62842H19.7717V6.97656C19.7717 5.15869 18.7922 4.1875 16.9578 4.1875H15.364V6.03857H16.8083C17.5222 6.03857 17.929 6.40381 17.929 7.16748V8.62842ZM17.929 14.1401H19.7717V9.89844H17.929V14.1401ZM4.11646 14.1401H5.96753V9.89844H4.11646V14.1401ZM15.364 19.8428H16.9578C18.7922 19.8428 19.7717 18.8799 19.7717 17.062V15.4102H17.929V16.8628C17.929 17.6265 17.5222 18 16.8083 18H15.364V19.8428ZM6.93042 19.8428H8.52417V18H7.08813C6.35767 18 5.96753 17.6265 5.96753 16.8628V15.4102H4.11646V17.062C4.11646 18.8799 5.09595 19.8428 6.93042 19.8428ZM9.79419 19.8428H14.094V18H9.79419V19.8428Z" fill="#1C1C1E"/>
</svg>
