<svg width="24" height="24" viewBox="0 0 24 24" fill="none" xmlns="http://www.w3.org/2000/svg">
<path d="M12.2641 1.63178C12.2641 1.89578 12.0481 2.08778 11.7841 2.08778C11.5201 2.08778 11.3041 1.87178 11.3041 1.63178C11.3041 1.36778 11.5201 1.17578 11.7841 1.17578C12.0721 1.17578 12.2641 1.36778 12.2641 1.63178ZM10.7521 2.11178C10.7521 2.37578 10.5361 2.59178 10.2721 2.59178C10.0081 2.59178 9.79214 2.37578 9.79214 2.11178C9.79214 1.84778 10.0081 1.65578 10.2721 1.65578C10.5361 1.63178 10.7521 1.84778 10.7521 2.11178ZM9.76814 3.11978C9.76814 3.38378 9.55214 3.57578 9.28814 3.57578C9.02414 3.57578 8.80814 3.35978 8.80814 3.11978C8.80814 2.85578 9.02414 2.66378 9.28814 2.66378C9.55214 2.66378 9.76814 2.85578 9.76814 3.11978ZM13.8001 1.94378C13.8001 2.20778 13.5841 2.39978 13.3201 2.39978C13.0561 2.39978 12.8401 2.18378 12.8401 1.94378C12.8401 1.67978 13.0561 1.46378 13.3201 1.46378C13.5841 1.48778 13.8001 1.67978 13.8001 1.94378ZM15.0241 2.92778C15.0241 3.19178 14.8081 3.40778 14.5681 3.40778C14.3041 3.40778 14.0881 3.19178 14.0881 2.92778C14.0881 2.66378 14.3041 2.47178 14.5681 2.47178C14.8081 2.44778 15.0241 2.66378 15.0241 2.92778ZM15.7681 4.24778C15.7681 4.51178 15.5521 4.70378 15.2881 4.70378C15.0241 4.70378 14.8321 4.48778 14.8321 4.24778C14.8321 3.98378 15.0481 3.76778 15.2881 3.76778C15.5521 3.79178 15.7681 4.00778 15.7681 4.24778ZM16.4401 5.56778C16.4401 5.83178 16.2241 6.04778 15.9841 6.04778C15.7201 6.04778 15.5281 5.83178 15.5281 5.56778C15.5281 5.30378 15.7441 5.08778 15.9841 5.08778C16.2481 5.11178 16.4401 5.30378 16.4401 5.56778ZM17.3521 6.64778C17.3521 6.91178 17.1361 7.12778 16.8961 7.12778C16.6321 7.12778 16.4161 6.91178 16.4161 6.64778C16.4161 6.38378 16.6321 6.16778 16.8961 6.16778C17.1601 6.16778 17.3521 6.38378 17.3521 6.64778ZM18.7441 6.86378C18.7441 7.12778 18.5281 7.34378 18.2881 7.34378C18.0241 7.34378 17.8081 7.12778 17.8081 6.86378C17.8081 6.59978 18.0241 6.40778 18.2881 6.40778C18.5521 6.40778 18.7441 6.59978 18.7441 6.86378ZM20.1841 7.07978C20.1841 7.34378 19.9681 7.53578 19.7281 7.53578C19.4641 7.53578 19.2481 7.31978 19.2481 7.07978C19.2481 6.81578 19.4641 6.59978 19.7281 6.59978C19.9681 6.59978 20.1841 6.81578 20.1841 7.07978ZM21.5761 7.46378C21.5761 7.72778 21.3601 7.91978 21.1201 7.91978C20.8561 7.91978 20.6641 7.70378 20.6641 7.46378C20.6641 7.19978 20.8801 6.98378 21.1201 6.98378C21.3601 6.98378 21.5761 7.19978 21.5761 7.46378ZM22.6561 8.37578C22.6561 8.63978 22.4401 8.85578 22.1761 8.85578C21.9121 8.85578 21.7201 8.63978 21.7201 8.37578C21.7201 8.11178 21.9361 7.89578 22.1761 7.89578C22.4401 7.91978 22.6561 8.11178 22.6561 8.37578ZM23.2321 9.69578C23.2321 9.95978 23.0161 10.1518 22.7761 10.1518C22.5121 10.1518 22.2961 9.93578 22.2961 9.69578C22.2961 9.43178 22.5121 9.21578 22.7761 9.21578C23.0401 9.21578 23.2321 9.43178 23.2321 9.69578ZM23.1841 11.1598C23.1841 11.4238 22.9681 11.6398 22.7281 11.6398C22.4641 11.6398 22.2481 11.4238 22.2481 11.1598C22.2481 10.8958 22.4641 10.7038 22.7281 10.7038C22.9921 10.6798 23.1841 10.8958 23.1841 11.1598ZM22.5121 12.4318C22.5121 12.6958 22.2961 12.9118 22.0321 12.9118C21.7681 12.9118 21.5761 12.6958 21.5761 12.4318C21.5761 12.1678 21.7921 11.9518 22.0321 11.9518C22.3201 11.9518 22.5121 12.1678 22.5121 12.4318ZM21.5041 13.4158C21.5041 13.6798 21.2881 13.8958 21.0481 13.8958C20.7841 13.8958 20.5921 13.6798 20.5921 13.4158C20.5921 13.1518 20.8081 12.9358 21.0481 12.9358C21.2881 12.9598 21.5041 13.1758 21.5041 13.4158ZM20.4721 14.4238C20.4721 14.6878 20.2561 14.8798 19.9921 14.8798C19.7281 14.8798 19.5361 14.6638 19.5361 14.4238C19.5361 14.1598 19.7521 13.9438 19.9921 13.9438C20.2561 13.9678 20.4721 14.1838 20.4721 14.4238ZM19.8241 15.6718C19.8241 15.9358 19.6081 16.1518 19.3441 16.1518C19.0801 16.1518 18.8881 15.9358 18.8881 15.6718C18.8881 15.4078 19.1041 15.2158 19.3441 15.2158C19.6081 15.1918 19.8241 15.4078 19.8241 15.6718ZM20.0641 17.0878C20.0641 17.3518 19.8481 17.5678 19.6081 17.5678C19.3441 17.5678 19.1281 17.3518 19.1281 17.0878C19.1281 16.8238 19.3441 16.6318 19.6081 16.6318C19.8721 16.6318 20.0641 16.8238 20.0641 17.0878ZM20.3041 18.5038C20.3041 18.7678 20.0881 18.9598 19.8241 18.9598C19.5601 18.9598 19.3681 18.7438 19.3681 18.5038C19.3681 18.2398 19.5841 18.0238 19.8241 18.0238C20.1121 18.0478 20.3041 18.2398 20.3041 18.5038ZM20.3041 19.9678C20.3041 20.2318 20.0881 20.4238 19.8241 20.4238C19.5601 20.4238 19.3681 20.2078 19.3681 19.9678C19.3681 19.7038 19.5841 19.5118 19.8241 19.5118C20.1121 19.4878 20.3041 19.7038 20.3041 19.9678ZM19.7041 21.2638C19.7041 21.5278 19.4881 21.7438 19.2241 21.7438C18.9601 21.7438 18.7681 21.5278 18.7681 21.2638C18.7681 20.9998 18.9841 20.8078 19.2241 20.8078C19.5121 20.7838 19.7041 20.9998 19.7041 21.2638ZM18.6001 22.1758C18.6001 22.4398 18.3841 22.6558 18.1441 22.6558C17.8801 22.6558 17.6641 22.4398 17.6641 22.1758C17.6641 21.9118 17.8801 21.7198 18.1441 21.7198C18.3841 21.6958 18.6001 21.9118 18.6001 22.1758ZM17.2081 22.4878C17.2081 22.7518 16.9921 22.9438 16.7521 22.9438C16.4881 22.9438 16.2961 22.7278 16.2961 22.4878C16.2961 22.2238 16.5121 22.0078 16.7521 22.0078C16.9921 22.0318 17.2081 22.2238 17.2081 22.4878ZM15.7681 22.1758C15.7681 22.4398 15.5521 22.6558 15.3121 22.6558C15.0721 22.6558 14.8321 22.4398 14.8321 22.1758C14.8321 21.9118 15.0481 21.7198 15.3121 21.7198C15.5761 21.7198 15.7681 21.9118 15.7681 22.1758ZM14.5201 21.5038C14.5201 21.7678 14.3041 21.9838 14.0401 21.9838C13.7761 21.9838 13.5601 21.7678 13.5601 21.5038C13.5601 21.2398 13.7761 21.0478 14.0401 21.0478C14.3041 21.0478 14.5201 21.2398 14.5201 21.5038ZM13.2481 20.8318C13.2481 21.0958 13.0321 21.3118 12.7681 21.3118C12.5041 21.3118 12.2881 21.0958 12.2881 20.8318C12.2881 20.5678 12.5041 20.3758 12.7681 20.3758C13.0321 20.3518 13.2481 20.5678 13.2481 20.8318ZM11.8561 20.7358C11.8561 20.9998 11.6401 21.2158 11.3761 21.2158C11.1121 21.2158 10.9201 20.9998 10.9201 20.7358C10.9201 20.4718 11.1361 20.2798 11.3761 20.2798C11.6401 20.2798 11.8561 20.4958 11.8561 20.7358ZM10.5841 21.4078C10.5841 21.6718 10.3681 21.8638 10.1041 21.8638C9.84014 21.8638 9.62414 21.6478 9.62414 21.4078C9.62414 21.1438 9.84014 20.9278 10.1041 20.9278C10.3681 20.9518 10.5841 21.1678 10.5841 21.4078ZM9.31214 22.0798C9.31214 22.3438 9.09614 22.5358 8.83214 22.5358C8.56814 22.5358 8.35214 22.3198 8.35214 22.0798C8.35214 21.8158 8.56814 21.5998 8.83214 21.5998C9.12014 21.6238 9.31214 21.8398 9.31214 22.0798ZM7.92014 22.4638C7.92014 22.7278 7.70414 22.9198 7.46414 22.9198C7.20014 22.9198 7.00814 22.7038 7.00814 22.4638C7.00814 22.1998 7.22414 21.9838 7.46414 21.9838C7.72814 22.0078 7.92014 22.2238 7.92014 22.4638ZM6.50414 22.2238C6.50414 22.4878 6.28814 22.7038 6.04814 22.7038C5.78414 22.7038 5.56814 22.4878 5.56814 22.2238C5.56814 21.9598 5.78414 21.7678 6.04814 21.7678C6.28814 21.7678 6.50414 21.9838 6.50414 22.2238ZM5.35214 21.4078C5.35214 21.6718 5.13614 21.8638 4.89614 21.8638C4.63214 21.8638 4.41614 21.6478 4.41614 21.4078C4.41614 21.1438 4.63214 20.9518 4.89614 20.9518C5.13614 20.9278 5.35214 21.1438 5.35214 21.4078ZM4.65614 20.1598C4.65614 20.4238 4.44014 20.6398 4.17614 20.6398C3.91214 20.6398 3.72014 20.4238 3.72014 20.1598C3.72014 19.8958 3.93614 19.7038 4.17614 19.7038C4.46414 19.6798 4.65614 19.8958 4.65614 20.1598ZM4.58414 18.6958C4.58414 18.9598 4.36814 19.1518 4.10414 19.1518C3.84014 19.1518 3.64814 18.9358 3.64814 18.6958C3.64814 18.4318 3.86414 18.2398 4.10414 18.2398C4.39214 18.2158 4.58414 18.4318 4.58414 18.6958ZM4.82414 17.2798C4.82414 17.5438 4.60814 17.7598 4.34414 17.7598C4.08014 17.7598 3.86414 17.5438 3.86414 17.2798C3.86414 17.0158 4.08014 16.8238 4.34414 16.8238C4.63214 16.8238 4.82414 17.0158 4.82414 17.2798ZM5.08814 15.8638C5.08814 16.1278 4.87214 16.3198 4.60814 16.3198C4.34414 16.3198 4.15214 16.1038 4.15214 15.8638C4.15214 15.5998 4.36814 15.4078 4.60814 15.4078C4.87214 15.4078 5.08814 15.5998 5.08814 15.8638ZM4.60814 14.5678C4.60814 14.8318 4.39214 15.0478 4.12814 15.0478C3.86414 15.0478 3.64814 14.8318 3.64814 14.5678C3.64814 14.3038 3.86414 14.0878 4.12814 14.0878C4.39214 14.0878 4.60814 14.3038 4.60814 14.5678ZM3.57614 13.5598C3.57614 13.8238 3.36014 14.0398 3.12014 14.0398C2.85614 14.0398 2.66414 13.8238 2.66414 13.5598C2.66414 13.2958 2.88014 13.1038 3.12014 13.1038C3.36014 13.1038 3.57614 13.2958 3.57614 13.5598ZM2.54414 12.5518C2.54414 12.8158 2.32814 13.0318 2.06414 13.0318C1.80014 13.0318 1.58414 12.8158 1.58414 12.5518C1.58414 12.2878 1.80014 12.0718 2.06414 12.0718C2.32814 12.0958 2.54414 12.3118 2.54414 12.5518ZM1.80014 11.3518C1.80014 11.6158 1.58414 11.8078 1.32014 11.8078C1.05614 11.8078 0.864141 11.5918 0.864141 11.3518C0.864141 11.0878 1.08014 10.8718 1.32014 10.8718C1.58414 10.8718 1.80014 11.0878 1.80014 11.3518ZM1.68014 9.91178C1.68014 10.1758 1.46414 10.3678 1.22414 10.3678C0.960141 10.3678 0.744141 10.1518 0.744141 9.91178C0.744141 9.64778 0.960141 9.43178 1.22414 9.43178C1.46414 9.43178 1.68014 9.64778 1.68014 9.91178ZM2.20814 8.54378C2.20814 8.80778 1.99214 9.02378 1.72814 9.02378C1.46414 9.02378 1.27214 8.80778 1.27214 8.54378C1.27214 8.27978 1.48814 8.06378 1.72814 8.06378C1.96814 8.06378 2.20814 8.27978 2.20814 8.54378ZM3.19214 7.55978C3.19214 7.82378 2.97614 8.01578 2.73614 8.01578C2.47214 8.01578 2.28014 7.79978 2.28014 7.55978C2.28014 7.29578 2.49614 7.07978 2.73614 7.07978C2.97614 7.07978 3.19214 7.29578 3.19214 7.55978ZM4.56014 7.10378C4.56014 7.36778 4.34414 7.58378 4.08014 7.58378C3.81614 7.58378 3.60014 7.36778 3.60014 7.10378C3.60014 6.83978 3.81614 6.62378 4.08014 6.62378C4.34414 6.64778 4.56014 6.83978 4.56014 7.10378ZM6.00014 6.88778C6.00014 7.15178 5.78414 7.36778 5.54414 7.36778C5.28014 7.36778 5.06414 7.15178 5.06414 6.88778C5.06414 6.62378 5.28014 6.43178 5.54414 6.43178C5.78414 6.43178 6.00014 6.64778 6.00014 6.88778ZM7.44014 6.69578C7.44014 6.95978 7.22414 7.17578 6.98414 7.17578C6.72014 7.17578 6.50414 6.95978 6.50414 6.69578C6.50414 6.43178 6.72014 6.21578 6.98414 6.21578C7.22414 6.21578 7.44014 6.43178 7.44014 6.69578ZM8.40014 5.73578C8.40014 5.99978 8.18414 6.21578 7.94414 6.21578C7.68014 6.21578 7.46414 5.99978 7.46414 5.73578C7.46414 5.47178 7.68014 5.27978 7.94414 5.27978C8.18414 5.27978 8.40014 5.49578 8.40014 5.73578ZM9.04814 4.46378C9.04814 4.72778 8.83214 4.91978 8.56814 4.91978C8.30414 4.91978 8.08814 4.70378 8.08814 4.46378C8.08814 4.19978 8.30414 4.00778 8.56814 4.00778C8.83214 3.98378 9.04814 4.19978 9.04814 4.46378ZM12.0721 17.2798C12.0241 17.3038 11.9521 17.3038 11.9041 17.2798L15.4801 19.1518C15.6961 19.2718 15.9361 19.2958 16.1521 19.2718C16.7281 19.1758 17.1361 18.6238 17.0401 18.0238L16.3441 14.0398C16.3441 14.0878 16.3441 14.1598 16.2961 14.2078L19.2001 11.3758C19.3681 11.2078 19.4881 10.9918 19.5121 10.7518C19.6081 10.1518 19.2001 9.62378 18.6001 9.52778L14.5921 8.95178C14.6401 8.95178 14.7121 8.99978 14.7361 9.04778L12.9601 5.42378C12.8641 5.20778 12.6721 5.03978 12.4801 4.94378C11.9521 4.67978 11.3041 4.89578 11.0401 5.42378L9.24014 9.04778C9.26414 8.99978 9.31214 8.95178 9.38414 8.95178L5.37614 9.52778C5.13614 9.55178 4.92014 9.67178 4.75214 9.83978C4.34414 10.2718 4.34414 10.9438 4.77614 11.3518L7.68014 14.1838C7.63214 14.1358 7.60814 14.0878 7.63214 14.0158L6.93614 17.9998C6.88814 18.2398 6.93614 18.4798 7.05614 18.6718C7.34414 19.1998 7.99214 19.3918 8.52014 19.1278L12.0721 17.2798Z" fill="#010101"/>
</svg>
