<svg width="24" height="24" viewBox="0 0 24 24" fill="none" xmlns="http://www.w3.org/2000/svg">
<path fill-rule="evenodd" clip-rule="evenodd" d="M17.0123 11.4755L11.3083 5.77159C10.8022 5.26547 9.98164 5.26547 9.47552 5.77159L3.77159 11.4755C3.51853 11.7286 3.392 12.0603 3.392 12.3919H17.3919C17.3919 12.0603 17.2653 11.7286 17.0123 11.4755ZM12.2926 4.7873C11.2429 3.73757 9.54096 3.73757 8.49123 4.7873L2.7873 10.4912C1.73757 11.541 1.73757 13.2429 2.7873 14.2926L8.49123 19.9966C9.54096 21.0463 11.2429 21.0463 12.2926 19.9966L17.9966 14.2926C18.1024 14.1868 18.1977 14.0742 18.2822 13.9564C17.9648 14.962 16.4921 20.1225 19.6901 20.1225C23.2332 20.1225 22.997 15.5271 19.8833 12.4134L18.2123 10.7343C18.1461 10.6501 18.0742 10.5689 17.9966 10.4912L12.2926 4.7873Z" fill="black"/>
</svg>
